<svg width="1817" height="956" viewBox="0 0 1817 956" fill="none" xmlns="http://www.w3.org/2000/svg">
<path d="M154.673 643.978C154.673 647.284 157.228 649.943 160.406 649.943C163.584 649.943 166.139 647.284 166.139 643.978C166.139 640.671 163.584 638.013 160.406 638.013C157.228 638.013 154.673 640.671 154.673 643.978Z" fill="#0AD686"/>
<path d="M279.74 435.075C282.906 435.075 285.473 432.404 285.473 429.11C285.473 425.815 282.906 423.145 279.74 423.145C276.574 423.145 274.007 425.815 274.007 429.11C274.007 432.404 276.574 435.075 279.74 435.075Z" fill="#0AD686"/>
<path d="M288.714 353.704C288.714 357.011 291.269 359.669 294.447 359.669C297.625 359.669 300.18 357.011 300.18 353.704C300.18 350.398 297.625 347.739 294.447 347.739C291.269 347.739 288.714 350.398 288.714 353.704Z" fill="#0AD686"/>
<path d="M297.5 44.7566C300.666 44.7566 303.233 42.086 303.233 38.7916C303.233 35.4973 300.666 32.8267 297.5 32.8267C294.334 32.8267 291.767 35.4973 291.767 38.7916C291.767 42.086 294.334 44.7566 297.5 44.7566Z" fill="#0AD686"/>
<path d="M735.448 12.965C735.448 16.2717 738.003 18.93 741.181 18.93C744.359 18.93 746.914 16.2717 746.914 12.965C746.914 9.65831 744.359 7 741.181 7C738.003 7 735.448 9.65831 735.448 12.965Z" fill="#0AD686"/>
<path d="M163.017 110.415C166.183 110.415 168.75 107.744 168.75 104.45C168.75 101.155 166.183 98.4846 163.017 98.4846C159.851 98.4846 157.284 101.155 157.284 104.45C157.284 107.744 159.851 110.415 163.017 110.415Z" fill="#0AD686"/>
<path d="M79.084 237.387C82.2502 237.387 84.817 234.716 84.817 231.422C84.817 228.128 82.2502 225.457 79.084 225.457C75.9177 225.457 73.351 228.128 73.351 231.422C73.351 234.716 75.9177 237.387 79.084 237.387Z" fill="#0AD686"/>
<path d="M164.643 475.986C167.81 475.986 170.376 473.315 170.376 470.021C170.376 466.726 167.81 464.056 164.643 464.056C161.477 464.056 158.91 466.726 158.91 470.021C158.91 473.315 161.477 475.986 164.643 475.986Z" fill="#0AD686"/>
<path d="M322.239 634.966C325.406 634.966 327.972 632.295 327.972 629.001C327.972 625.707 325.406 623.036 322.239 623.036C319.073 623.036 316.506 625.707 316.506 629.001C316.506 632.295 319.073 634.966 322.239 634.966Z" fill="#0AD686"/>
<path d="M432.476 771.058C435.642 771.058 438.209 768.387 438.209 765.093C438.209 761.799 435.642 759.128 432.476 759.128C429.309 759.128 426.743 761.799 426.743 765.093C426.743 768.387 429.309 771.058 432.476 771.058Z" fill="#0AD686"/>
<path d="M593.125 721.977C596.292 721.977 598.858 719.306 598.858 716.012C598.858 712.717 596.292 710.047 593.125 710.047C589.959 710.047 587.392 712.717 587.392 716.012C587.392 719.306 589.959 721.977 593.125 721.977Z" fill="#0AD686"/>
<path d="M488.31 857.615C488.31 860.922 490.865 863.58 494.043 863.58C497.222 863.58 499.776 860.922 499.776 857.615C499.776 854.309 497.222 851.65 494.043 851.65C490.865 851.65 488.31 854.309 488.31 857.615Z" fill="#0AD686"/>
<path d="M1072.27 949.1C1072.27 952.406 1074.82 955.065 1078 955.065C1081.18 955.065 1083.74 952.406 1083.74 949.1C1083.74 945.793 1081.18 943.135 1078 943.135C1074.82 943.135 1072.27 945.793 1072.27 949.1Z" fill="#0AD686"/>
<path d="M1191.85 793.946C1195.02 793.946 1197.59 791.275 1197.59 787.981C1197.59 784.686 1195.02 782.016 1191.85 782.016C1188.69 782.016 1186.12 784.686 1186.12 787.981C1186.12 791.275 1188.69 793.946 1191.85 793.946Z" fill="#0AD686"/>
<path d="M1261.71 446.744C1261.71 450.051 1264.26 452.709 1267.44 452.709C1270.62 452.709 1273.18 450.051 1273.18 446.744C1273.18 443.438 1270.62 440.779 1267.44 440.779C1264.26 440.779 1261.71 443.438 1261.71 446.744Z" fill="#0AD686"/>
<path d="M578.294 19.8597C581.46 19.8597 584.027 17.189 584.027 13.8947C584.027 10.6003 581.46 7.92969 578.294 7.92969C575.128 7.92969 572.561 10.6003 572.561 13.8947C572.561 17.189 575.128 19.8597 578.294 19.8597Z" fill="#0AD686"/>
<path d="M1633.17 144.087C1633.17 147.393 1635.73 150.052 1638.91 150.052C1642.08 150.052 1644.64 147.393 1644.64 144.087C1644.64 140.78 1642.08 138.122 1638.91 138.122C1635.73 138.122 1633.17 140.78 1633.17 144.087Z" fill="#0AD686"/>
<path d="M1512.4 356.816C1515.57 356.816 1518.14 354.145 1518.14 350.851C1518.14 347.556 1515.57 344.886 1512.4 344.886C1509.24 344.886 1506.67 347.556 1506.67 350.851C1506.67 354.145 1509.24 356.816 1512.4 356.816Z" fill="#0AD686"/>
<path d="M1323.28 693.643C1323.28 696.949 1325.83 699.608 1329.01 699.608C1332.19 699.608 1334.74 696.949 1334.74 693.643C1334.74 690.336 1332.19 687.678 1329.01 687.678C1325.83 687.678 1323.28 690.336 1323.28 693.643Z" fill="#0AD686"/>
<path d="M1202.88 738.316C1206.05 738.316 1208.62 735.645 1208.62 732.351C1208.62 729.056 1206.05 726.386 1202.88 726.386C1199.72 726.386 1197.15 729.056 1197.15 732.351C1197.15 735.645 1199.72 738.316 1202.88 738.316Z" fill="#0AD686"/>
<path d="M1351.07 530.06C1354.24 530.06 1356.8 527.389 1356.8 524.095C1356.8 520.8 1354.24 518.13 1351.07 518.13C1347.9 518.13 1345.34 520.8 1345.34 524.095C1345.34 527.389 1347.9 530.06 1351.07 530.06Z" fill="#0AD686"/>
<path d="M1399.36 307.41C1399.36 310.717 1401.92 313.375 1405.1 313.375C1408.28 313.375 1410.83 310.717 1410.83 307.41C1410.83 304.104 1408.28 301.445 1405.1 301.445C1401.92 301.445 1399.36 304.104 1399.36 307.41Z" fill="#0AD686"/>
<path d="M1606.69 95.2648C1606.69 98.5715 1609.24 101.23 1612.42 101.23C1615.6 101.23 1618.15 98.5715 1618.15 95.2648C1618.15 91.9581 1615.6 89.2998 1612.42 89.2998C1609.24 89.2998 1606.69 91.9581 1606.69 95.2648Z" fill="#0AD686"/>
<path d="M1240.83 6.17884C1240.83 9.48551 1243.39 12.1438 1246.57 12.1438C1249.74 12.1438 1252.3 9.48551 1252.3 6.17884C1252.3 2.87216 1249.74 0.213867 1246.57 0.213867C1243.39 0.213867 1240.83 2.87216 1240.83 6.17884Z" fill="#0AD686"/>
<path d="M1135.46 130.017C1135.46 133.324 1138.01 135.982 1141.19 135.982C1144.37 135.982 1146.92 133.324 1146.92 130.017C1146.92 126.711 1144.37 124.052 1141.19 124.052C1138.01 124.052 1135.46 126.711 1135.46 130.017Z" fill="#0AD686"/>
<path d="M949.009 317.46C949.009 320.767 951.564 323.425 954.742 323.425C957.921 323.425 960.475 320.767 960.475 317.46C960.475 314.153 957.921 311.495 954.742 311.495C951.564 311.495 949.009 314.153 949.009 317.46Z" fill="#0AD686"/>
<path d="M639.986 160.49C639.986 163.797 642.541 166.455 645.72 166.455C648.898 166.455 651.453 163.797 651.453 160.49C651.453 157.184 648.898 154.525 645.72 154.525C642.541 154.525 639.986 157.184 639.986 160.49Z" fill="#0AD686"/>
<path d="M810.295 99.0901C813.461 99.0901 816.028 96.4195 816.028 93.1251C816.028 89.8308 813.461 87.1602 810.295 87.1602C807.129 87.1602 804.562 89.8308 804.562 93.1251C804.562 96.4195 807.129 99.0901 810.295 99.0901Z" fill="#0AD686"/>
<path d="M370.222 148.625C370.222 151.932 372.777 154.59 375.955 154.59C379.134 154.59 381.689 151.932 381.689 148.625C381.689 145.318 379.134 142.66 375.955 142.66C372.777 142.66 370.222 145.318 370.222 148.625Z" fill="#0AD686"/>
<path d="M29.6677 378.926C29.6677 382.233 32.2227 384.891 35.4008 384.891C38.5789 384.891 41.1338 382.233 41.1338 378.926C41.1338 375.619 38.5789 372.961 35.4008 372.961C32.2227 372.961 29.6677 375.619 29.6677 378.926Z" fill="#0AD686"/>
<path d="M46.8046 503.282C49.9708 503.282 52.5376 500.612 52.5376 497.318C52.5376 494.023 49.9708 491.353 46.8046 491.353C43.6383 491.353 41.0715 494.023 41.0715 497.318C41.0715 500.612 43.6383 503.282 46.8046 503.282Z" fill="#0AD686"/>
<path d="M908.505 897.879C908.505 901.186 911.059 903.844 914.238 903.844C917.416 903.844 919.971 901.186 919.971 897.879C919.971 894.572 917.416 891.914 914.238 891.914C911.059 891.914 908.505 894.572 908.505 897.879Z" fill="#0AD686"/>
<path d="M780.383 924.916C780.383 928.223 782.938 930.881 786.116 930.881C789.295 930.881 791.849 928.223 791.849 924.916C791.849 921.609 789.295 918.951 786.116 918.951C782.938 918.951 780.383 921.609 780.383 924.916Z" fill="#0AD686"/>
<path d="M615.559 892.887C618.725 892.887 621.292 890.216 621.292 886.922C621.292 883.628 618.725 880.957 615.559 880.957C612.393 880.957 609.826 883.628 609.826 886.922C609.826 890.216 612.393 892.887 615.559 892.887Z" fill="#0AD686"/>
<path d="M-143.632 113.613H1815.69" stroke="#069B76" stroke-width="0.75" stroke-linecap="round" stroke-linejoin="round"/>
<path d="M570.754 27.0566H1107.79" stroke="#069B76" stroke-width="0.75" stroke-linecap="round" stroke-linejoin="round"/>
<path d="M641.731 364.661L198.169 523.511L666.782 596.128L641.731 364.661Z" fill="url(#paint0_radial_11_761)"/>
<path d="M961.909 551.067L896.914 687.03L1381.04 487.073L961.909 551.067Z" fill="url(#paint1_radial_11_761)"/>
<path d="M889.623 275.9L1050.52 365.699L1005.53 100.841L889.623 275.9Z" fill="url(#paint2_radial_11_761)"/>
<path d="M615.559 122.95L641.731 364.662L889.623 275.9L615.559 122.95Z" fill="url(#paint3_radial_11_761)"/>
<path d="M1530.73 111.02L1005.53 100.841" stroke="#069B76" stroke-width="0.75" stroke-linecap="round" stroke-linejoin="round"/>
<path d="M1381.04 487.073L1530.73 111.02L1005.53 100.841L1381.04 487.073Z" stroke="#069B76" stroke-width="0.75" stroke-linecap="round" stroke-linejoin="round"/>
<path d="M666.782 596.129L1381.04 487.073L1005.53 100.841" stroke="#069B76" stroke-width="0.75" stroke-linecap="round" stroke-linejoin="round"/>
<path d="M615.559 122.95L1050.52 365.699L666.782 596.129L615.559 122.95Z" stroke="#069B76" stroke-width="0.75" stroke-linecap="round" stroke-linejoin="round"/>
<path d="M1005.53 100.841L1050.52 365.699L889.623 275.9L1005.53 100.841Z" stroke="#069B76" stroke-width="0.75" stroke-linecap="round" stroke-linejoin="round"/>
<path d="M1381.04 487.073L1050.52 365.699L1005.53 100.841L1381.04 487.073Z" stroke="#069B76" stroke-width="0.75" stroke-linecap="round" stroke-linejoin="round"/>
<path d="M1005.53 100.841L615.559 122.95" stroke="#069B76" stroke-width="0.75" stroke-linecap="round" stroke-linejoin="round"/>
<path d="M666.782 596.129L801.322 886.922L1050.52 365.699L666.782 596.129Z" stroke="#069B76" stroke-width="0.75" stroke-linecap="round" stroke-linejoin="round"/>
<path d="M198.169 523.511L666.782 596.129L889.623 275.9L198.169 523.511Z" stroke="#069B76" stroke-width="0.75" stroke-linecap="round" stroke-linejoin="round"/>
<path d="M615.559 122.95L198.169 523.512L641.731 364.662L615.559 122.95Z" stroke="#069B76" stroke-width="0.75" stroke-linecap="round" stroke-linejoin="round"/>
<path d="M91.6094 111.928L615.559 122.95" stroke="#069B76" stroke-width="0.75" stroke-linecap="round" stroke-linejoin="round"/>
<path d="M91.6094 111.928L198.169 523.512" stroke="#069B76" stroke-width="0.75" stroke-linecap="round" stroke-linejoin="round"/>
<path d="M801.322 886.922L198.169 523.512L666.782 596.129L801.322 886.922Z" stroke="#069B76" stroke-width="0.75" stroke-linecap="round" stroke-linejoin="round"/>
<path d="M1381.04 487.073L896.914 687.03L801.322 886.922L1381.04 487.073Z" stroke="#069B76" stroke-width="0.75" stroke-linecap="round" stroke-linejoin="round"/>
<path d="M1514.09 126.711C1522.44 136.242 1536.65 136.955 1545.81 128.267C1554.97 119.579 1555.65 104.796 1547.3 95.2649C1538.95 85.7339 1524.74 85.0207 1515.58 93.7088C1506.42 102.397 1505.74 117.18 1514.09 126.711Z" fill="url(#paint4_radial_11_761)"/>
<path d="M988.891 116.531C997.242 126.062 1011.45 126.775 1020.61 118.087C1029.77 109.399 1030.46 94.6164 1022.11 85.0854C1013.76 75.5544 999.547 74.8412 990.387 83.5293C981.227 92.2175 980.541 107 988.891 116.531Z" fill="url(#paint5_radial_11_761)"/>
<path d="M1364.47 502.829C1372.82 512.36 1387.03 513.073 1396.19 504.385C1405.35 495.697 1406.03 480.914 1397.68 471.383C1389.33 461.852 1375.12 461.139 1365.96 469.827C1356.8 478.515 1356.12 493.298 1364.47 502.829Z" fill="url(#paint6_radial_11_761)"/>
<path d="M650.144 611.819C658.494 621.35 672.702 622.063 681.863 613.375C691.023 604.687 691.708 589.904 683.358 580.373C675.008 570.842 660.8 570.129 651.639 578.817C642.479 587.505 641.794 602.288 650.144 611.819Z" fill="url(#paint7_radial_11_761)"/>
<path d="M1033.88 381.389C1042.23 390.92 1056.44 391.633 1065.6 382.945C1074.76 374.257 1075.45 359.474 1067.1 349.943C1058.75 340.412 1044.54 339.699 1035.38 348.387C1026.22 357.075 1025.53 371.858 1033.88 381.389Z" fill="url(#paint8_radial_11_761)"/>
<path d="M598.921 138.705C607.271 148.236 621.479 148.95 630.639 140.261C639.8 131.573 640.485 116.79 632.135 107.259C623.784 97.7285 609.576 97.0153 600.416 105.703C591.256 114.392 590.57 129.174 598.921 138.705Z" fill="url(#paint9_radial_11_761)"/>
<path d="M872.984 291.655C881.335 301.186 895.543 301.9 904.703 293.211C913.863 284.523 914.549 269.74 906.199 260.209C897.848 250.678 883.64 249.965 874.48 258.653C865.32 267.341 864.634 282.124 872.984 291.655Z" fill="url(#paint10_radial_11_761)"/>
<path d="M784.683 902.612C793.033 912.143 807.241 912.856 816.402 904.168C825.562 895.48 826.248 880.697 817.897 871.166C809.547 861.635 795.339 860.922 786.179 869.61C777.018 878.298 776.333 893.081 784.683 902.612Z" fill="url(#paint11_radial_11_761)"/>
<path d="M181.531 539.267C189.881 548.798 204.089 549.511 213.249 540.823C222.41 532.135 223.095 517.352 214.745 507.821C206.395 498.29 192.187 497.577 183.026 506.265C173.866 514.953 173.181 529.736 181.531 539.267Z" fill="url(#paint12_radial_11_761)"/>
<path d="M625.093 380.417C633.443 389.948 647.651 390.661 656.812 381.973C665.972 373.285 666.658 358.502 658.307 348.971C649.957 339.44 635.749 338.727 626.589 347.415C617.428 356.103 616.743 370.886 625.093 380.417Z" fill="url(#paint13_radial_11_761)"/>
<path d="M75.0335 127.618C83.3838 137.149 97.5917 137.863 106.752 129.174C115.913 120.486 116.598 105.704 108.248 96.1726C99.8974 86.6416 85.6895 85.9284 76.5291 94.6165C67.3687 103.305 66.6832 118.087 75.0335 127.618Z" fill="url(#paint14_radial_11_761)"/>
<path d="M880.275 702.72C888.626 712.251 902.834 712.965 911.994 704.277C921.154 695.588 921.84 680.806 913.49 671.275C905.139 661.744 890.931 661.03 881.771 669.719C872.61 678.407 871.925 693.189 880.275 702.72Z" fill="url(#paint15_radial_11_761)"/>
<path style="mix-blend-mode:screen" d="M1324.83 504.709C1319.72 491.612 1218.46 521.891 1098.63 572.399C978.796 622.842 885.759 674.387 890.869 687.484C895.979 700.581 997.242 670.302 1117.07 619.794C1236.91 569.351 1329.88 517.806 1324.83 504.709Z" fill="url(#paint16_radial_11_761)"/>
<path style="mix-blend-mode:screen" d="M684.168 594.637C685.975 580.632 583.653 554.503 455.595 536.349C327.536 518.13 222.161 514.758 220.353 528.763C218.546 542.768 320.868 568.897 448.927 587.051C576.985 605.27 682.361 608.642 684.168 594.637Z" fill="url(#paint17_radial_11_761)"/>
<path style="mix-blend-mode:screen" d="M930.875 295.999C935.736 286.404 869.183 239.851 782.19 192.001C695.198 144.152 620.731 113.16 615.808 122.756C610.947 132.351 677.5 178.904 764.493 226.754C851.485 274.603 925.953 305.595 930.875 295.999Z" fill="url(#paint18_radial_11_761)"/>
<path d="M711.774 387.355C716.261 392.477 723.863 392.866 728.786 388.197C733.709 383.529 734.083 375.619 729.596 370.497C725.109 365.375 717.507 364.986 712.584 369.654C707.661 374.322 707.287 382.232 711.774 387.355Z" fill="url(#paint19_radial_11_761)"/>
<defs>
<radialGradient id="paint0_radial_11_761" cx="0" cy="0" r="1" gradientUnits="userSpaceOnUse" gradientTransform="translate(681.925 304.168) scale(560.279 582.947)">
<stop stop-color="#058273" stop-opacity="0"/>
<stop offset="0.15" stop-color="#058273" stop-opacity="0.21"/>
<stop offset="0.42" stop-color="#058273" stop-opacity="0.55"/>
<stop offset="0.66" stop-color="#058273" stop-opacity="0.8"/>
<stop offset="0.86" stop-color="#058273" stop-opacity="0.95"/>
<stop offset="1" stop-color="#058273"/>
</radialGradient>
<radialGradient id="paint1_radial_11_761" cx="0" cy="0" r="1" gradientUnits="userSpaceOnUse" gradientTransform="translate(996.182 483.248) scale(387.852 403.544)">
<stop stop-color="#058273" stop-opacity="0"/>
<stop offset="0.15" stop-color="#058273" stop-opacity="0.21"/>
<stop offset="0.42" stop-color="#058273" stop-opacity="0.55"/>
<stop offset="0.66" stop-color="#058273" stop-opacity="0.8"/>
<stop offset="0.86" stop-color="#058273" stop-opacity="0.95"/>
<stop offset="1" stop-color="#058273"/>
</radialGradient>
<radialGradient id="paint2_radial_11_761" cx="0" cy="0" r="1" gradientUnits="userSpaceOnUse" gradientTransform="translate(1055.69 31.5303) scale(640.355 666.263)">
<stop stop-color="#058273" stop-opacity="0"/>
<stop offset="0.15" stop-color="#058273" stop-opacity="0.21"/>
<stop offset="0.42" stop-color="#058273" stop-opacity="0.55"/>
<stop offset="0.66" stop-color="#058273" stop-opacity="0.8"/>
<stop offset="0.86" stop-color="#058273" stop-opacity="0.95"/>
<stop offset="1" stop-color="#058273"/>
</radialGradient>
<radialGradient id="paint3_radial_11_761" cx="0" cy="0" r="1" gradientUnits="userSpaceOnUse" gradientTransform="translate(620.918 217.158) scale(342.424 356.278)">
<stop stop-color="#058273" stop-opacity="0"/>
<stop offset="0.15" stop-color="#058273" stop-opacity="0.21"/>
<stop offset="0.42" stop-color="#058273" stop-opacity="0.55"/>
<stop offset="0.66" stop-color="#058273" stop-opacity="0.8"/>
<stop offset="0.86" stop-color="#058273" stop-opacity="0.95"/>
<stop offset="1" stop-color="#058273"/>
</radialGradient>
<radialGradient id="paint4_radial_11_761" cx="0" cy="0" r="1" gradientUnits="userSpaceOnUse" gradientTransform="translate(1530.6 110.627) rotate(92.624) scale(31.6376 30.4126)">
<stop stop-color="#17FC6C"/>
<stop offset="0.04" stop-color="#17FC6C" stop-opacity="0.91"/>
<stop offset="0.18" stop-color="#17FC6C" stop-opacity="0.63"/>
<stop offset="0.32" stop-color="#17FC6C" stop-opacity="0.41"/>
<stop offset="0.44" stop-color="#17FC6C" stop-opacity="0.23"/>
<stop offset="0.54" stop-color="#17FC6C" stop-opacity="0.11"/>
<stop offset="0.63" stop-color="#17FC6C" stop-opacity="0.03"/>
<stop offset="0.69" stop-color="#17FC6C" stop-opacity="0"/>
</radialGradient>
<radialGradient id="paint5_radial_11_761" cx="0" cy="0" r="1" gradientUnits="userSpaceOnUse" gradientTransform="translate(1005.47 100.412) rotate(92.624) scale(31.6376 30.4126)">
<stop stop-color="#17FC6C"/>
<stop offset="0.04" stop-color="#17FC6C" stop-opacity="0.91"/>
<stop offset="0.18" stop-color="#17FC6C" stop-opacity="0.63"/>
<stop offset="0.32" stop-color="#17FC6C" stop-opacity="0.41"/>
<stop offset="0.44" stop-color="#17FC6C" stop-opacity="0.23"/>
<stop offset="0.54" stop-color="#17FC6C" stop-opacity="0.11"/>
<stop offset="0.63" stop-color="#17FC6C" stop-opacity="0.03"/>
<stop offset="0.69" stop-color="#17FC6C" stop-opacity="0"/>
</radialGradient>
<radialGradient id="paint6_radial_11_761" cx="0" cy="0" r="1" gradientUnits="userSpaceOnUse" gradientTransform="translate(1380.99 486.695) rotate(92.624) scale(31.6376 30.4126)">
<stop stop-color="#17FC6C"/>
<stop offset="0.04" stop-color="#17FC6C" stop-opacity="0.91"/>
<stop offset="0.18" stop-color="#17FC6C" stop-opacity="0.63"/>
<stop offset="0.32" stop-color="#17FC6C" stop-opacity="0.41"/>
<stop offset="0.44" stop-color="#17FC6C" stop-opacity="0.23"/>
<stop offset="0.54" stop-color="#17FC6C" stop-opacity="0.11"/>
<stop offset="0.63" stop-color="#17FC6C" stop-opacity="0.03"/>
<stop offset="0.69" stop-color="#17FC6C" stop-opacity="0"/>
</radialGradient>
<radialGradient id="paint7_radial_11_761" cx="0" cy="0" r="1" gradientUnits="userSpaceOnUse" gradientTransform="translate(666.72 595.684) rotate(92.624) scale(31.6376 30.4126)">
<stop stop-color="#17FC6C"/>
<stop offset="0.04" stop-color="#17FC6C" stop-opacity="0.91"/>
<stop offset="0.18" stop-color="#17FC6C" stop-opacity="0.63"/>
<stop offset="0.32" stop-color="#17FC6C" stop-opacity="0.41"/>
<stop offset="0.44" stop-color="#17FC6C" stop-opacity="0.23"/>
<stop offset="0.54" stop-color="#17FC6C" stop-opacity="0.11"/>
<stop offset="0.63" stop-color="#17FC6C" stop-opacity="0.03"/>
<stop offset="0.69" stop-color="#17FC6C" stop-opacity="0"/>
</radialGradient>
<radialGradient id="paint8_radial_11_761" cx="0" cy="0" r="1" gradientUnits="userSpaceOnUse" gradientTransform="translate(1050.47 365.272) rotate(92.624) scale(31.6376 30.4126)">
<stop stop-color="#17FC6C"/>
<stop offset="0.04" stop-color="#17FC6C" stop-opacity="0.91"/>
<stop offset="0.18" stop-color="#17FC6C" stop-opacity="0.63"/>
<stop offset="0.32" stop-color="#17FC6C" stop-opacity="0.41"/>
<stop offset="0.44" stop-color="#17FC6C" stop-opacity="0.23"/>
<stop offset="0.54" stop-color="#17FC6C" stop-opacity="0.11"/>
<stop offset="0.63" stop-color="#17FC6C" stop-opacity="0.03"/>
<stop offset="0.69" stop-color="#17FC6C" stop-opacity="0"/>
</radialGradient>
<radialGradient id="paint9_radial_11_761" cx="0" cy="0" r="1" gradientUnits="userSpaceOnUse" gradientTransform="translate(615.537 122.544) rotate(92.624) scale(31.6376 30.4126)">
<stop stop-color="#17FC6C"/>
<stop offset="0.04" stop-color="#17FC6C" stop-opacity="0.91"/>
<stop offset="0.18" stop-color="#17FC6C" stop-opacity="0.63"/>
<stop offset="0.32" stop-color="#17FC6C" stop-opacity="0.41"/>
<stop offset="0.44" stop-color="#17FC6C" stop-opacity="0.23"/>
<stop offset="0.54" stop-color="#17FC6C" stop-opacity="0.11"/>
<stop offset="0.63" stop-color="#17FC6C" stop-opacity="0.03"/>
<stop offset="0.69" stop-color="#17FC6C" stop-opacity="0"/>
</radialGradient>
<radialGradient id="paint10_radial_11_761" cx="0" cy="0" r="1" gradientUnits="userSpaceOnUse" gradientTransform="translate(889.577 275.503) rotate(92.624) scale(31.6376 30.4126)">
<stop stop-color="#17FC6C"/>
<stop offset="0.04" stop-color="#17FC6C" stop-opacity="0.91"/>
<stop offset="0.18" stop-color="#17FC6C" stop-opacity="0.63"/>
<stop offset="0.32" stop-color="#17FC6C" stop-opacity="0.41"/>
<stop offset="0.44" stop-color="#17FC6C" stop-opacity="0.23"/>
<stop offset="0.54" stop-color="#17FC6C" stop-opacity="0.11"/>
<stop offset="0.63" stop-color="#17FC6C" stop-opacity="0.03"/>
<stop offset="0.69" stop-color="#17FC6C" stop-opacity="0"/>
</radialGradient>
<radialGradient id="paint11_radial_11_761" cx="0" cy="0" r="1" gradientUnits="userSpaceOnUse" gradientTransform="translate(801.249 886.471) rotate(92.624) scale(31.6376 30.4126)">
<stop stop-color="#17FC6C"/>
<stop offset="0.04" stop-color="#17FC6C" stop-opacity="0.91"/>
<stop offset="0.18" stop-color="#17FC6C" stop-opacity="0.63"/>
<stop offset="0.32" stop-color="#17FC6C" stop-opacity="0.41"/>
<stop offset="0.44" stop-color="#17FC6C" stop-opacity="0.23"/>
<stop offset="0.54" stop-color="#17FC6C" stop-opacity="0.11"/>
<stop offset="0.63" stop-color="#17FC6C" stop-opacity="0.03"/>
<stop offset="0.69" stop-color="#17FC6C" stop-opacity="0"/>
</radialGradient>
<radialGradient id="paint12_radial_11_761" cx="0" cy="0" r="1" gradientUnits="userSpaceOnUse" gradientTransform="translate(198.094 523.102) rotate(92.624) scale(31.6376 30.4126)">
<stop stop-color="#17FC6C"/>
<stop offset="0.04" stop-color="#17FC6C" stop-opacity="0.91"/>
<stop offset="0.18" stop-color="#17FC6C" stop-opacity="0.63"/>
<stop offset="0.32" stop-color="#17FC6C" stop-opacity="0.41"/>
<stop offset="0.44" stop-color="#17FC6C" stop-opacity="0.23"/>
<stop offset="0.54" stop-color="#17FC6C" stop-opacity="0.11"/>
<stop offset="0.63" stop-color="#17FC6C" stop-opacity="0.03"/>
<stop offset="0.69" stop-color="#17FC6C" stop-opacity="0"/>
</radialGradient>
<radialGradient id="paint13_radial_11_761" cx="0" cy="0" r="1" gradientUnits="userSpaceOnUse" gradientTransform="translate(641.641 364.268) rotate(92.624) scale(31.6376 30.4127)">
<stop stop-color="#17FC6C"/>
<stop offset="0.04" stop-color="#17FC6C" stop-opacity="0.91"/>
<stop offset="0.18" stop-color="#17FC6C" stop-opacity="0.63"/>
<stop offset="0.32" stop-color="#17FC6C" stop-opacity="0.41"/>
<stop offset="0.44" stop-color="#17FC6C" stop-opacity="0.23"/>
<stop offset="0.54" stop-color="#17FC6C" stop-opacity="0.11"/>
<stop offset="0.63" stop-color="#17FC6C" stop-opacity="0.03"/>
<stop offset="0.69" stop-color="#17FC6C" stop-opacity="0"/>
</radialGradient>
<radialGradient id="paint14_radial_11_761" cx="0" cy="0" r="1" gradientUnits="userSpaceOnUse" gradientTransform="translate(91.6237 111.481) rotate(92.624) scale(31.6376 30.4126)">
<stop stop-color="#17FC6C"/>
<stop offset="0.04" stop-color="#17FC6C" stop-opacity="0.91"/>
<stop offset="0.18" stop-color="#17FC6C" stop-opacity="0.63"/>
<stop offset="0.32" stop-color="#17FC6C" stop-opacity="0.41"/>
<stop offset="0.44" stop-color="#17FC6C" stop-opacity="0.23"/>
<stop offset="0.54" stop-color="#17FC6C" stop-opacity="0.11"/>
<stop offset="0.63" stop-color="#17FC6C" stop-opacity="0.03"/>
<stop offset="0.69" stop-color="#17FC6C" stop-opacity="0"/>
</radialGradient>
<radialGradient id="paint15_radial_11_761" cx="0" cy="0" r="1" gradientUnits="userSpaceOnUse" gradientTransform="translate(896.817 686.55) rotate(92.624) scale(31.6376 30.4126)">
<stop stop-color="#17FC6C"/>
<stop offset="0.04" stop-color="#17FC6C" stop-opacity="0.91"/>
<stop offset="0.18" stop-color="#17FC6C" stop-opacity="0.63"/>
<stop offset="0.32" stop-color="#17FC6C" stop-opacity="0.41"/>
<stop offset="0.44" stop-color="#17FC6C" stop-opacity="0.23"/>
<stop offset="0.54" stop-color="#17FC6C" stop-opacity="0.11"/>
<stop offset="0.63" stop-color="#17FC6C" stop-opacity="0.03"/>
<stop offset="0.69" stop-color="#17FC6C" stop-opacity="0"/>
</radialGradient>
<radialGradient id="paint16_radial_11_761" cx="0" cy="0" r="1" gradientUnits="userSpaceOnUse" gradientTransform="translate(1129.82 631.23) rotate(-22.8417) scale(221.694 25.7434)">
<stop stop-color="#0ACA83"/>
<stop offset="0.4" stop-color="#0ACA83" stop-opacity="0.53"/>
<stop offset="0.75" stop-color="#0ACA83" stop-opacity="0.15"/>
<stop offset="0.91" stop-color="#0ACA83" stop-opacity="0"/>
</radialGradient>
<radialGradient id="paint17_radial_11_761" cx="0" cy="0" r="1" gradientUnits="userSpaceOnUse" gradientTransform="translate(457.577 594.79) rotate(8.09068) scale(220.583 25.873)">
<stop stop-color="#0ACA83"/>
<stop offset="0.4" stop-color="#0ACA83" stop-opacity="0.53"/>
<stop offset="0.75" stop-color="#0ACA83" stop-opacity="0.15"/>
<stop offset="0.91" stop-color="#0ACA83" stop-opacity="0"/>
</radialGradient>
<radialGradient id="paint18_radial_11_761" cx="0" cy="0" r="1" gradientUnits="userSpaceOnUse" gradientTransform="translate(784.019 214.8) rotate(28.8092) scale(168.737 18.3463)">
<stop stop-color="#0ACA83"/>
<stop offset="0.4" stop-color="#0ACA83" stop-opacity="0.53"/>
<stop offset="0.75" stop-color="#0ACA83" stop-opacity="0.15"/>
<stop offset="0.91" stop-color="#0ACA83" stop-opacity="0"/>
</radialGradient>
<radialGradient id="paint19_radial_11_761" cx="0" cy="0" r="1" gradientUnits="userSpaceOnUse" gradientTransform="translate(720.655 378.509) rotate(92.624) scale(16.9858 16.3281)">
<stop stop-color="#17FC6C"/>
<stop offset="0.04" stop-color="#17FC6C" stop-opacity="0.91"/>
<stop offset="0.18" stop-color="#17FC6C" stop-opacity="0.63"/>
<stop offset="0.32" stop-color="#17FC6C" stop-opacity="0.41"/>
<stop offset="0.44" stop-color="#17FC6C" stop-opacity="0.23"/>
<stop offset="0.54" stop-color="#17FC6C" stop-opacity="0.11"/>
<stop offset="0.63" stop-color="#17FC6C" stop-opacity="0.03"/>
<stop offset="0.69" stop-color="#17FC6C" stop-opacity="0"/>
</radialGradient>
</defs>
</svg>
