<svg width="71" height="53" viewBox="0 0 71 53" fill="none" xmlns="http://www.w3.org/2000/svg">
<path fill-rule="evenodd" clip-rule="evenodd" d="M34.506 28.6086C35.642 30.6908 36.21 33.231 36.21 36.1876C36.21 39.3525 35.5 42.0176 34.2575 44.4746C33.439 46.0487 32.3799 47.4322 31.1335 48.5556C29.7135 49.7632 28.045 50.6794 26.128 51.1374C24.0827 51.618 22.0014 51.8552 19.9155 51.8454H0V0H21.3C26.7315 0.124929 30.53 1.87393 32.7665 5.5385C34.1155 7.74557 34.79 10.3691 34.79 13.4506C34.79 16.6155 34.1155 19.1557 32.7665 21.0713C31.95 22.154 30.885 23.1534 29.394 24.0279C31.6305 24.9857 33.3345 26.5265 34.506 28.6086ZM19.5218 20.4466H10.1853V9.0365H18.4213C20.519 9.0365 22.2553 9.28636 23.6398 9.8315C25.2018 10.6189 25.9828 12.2846 25.9828 14.6166C25.9828 16.7821 25.4148 18.3266 24.2078 19.1595C23.0718 20.0302 21.4388 20.4466 19.5218 20.4466ZM71 34.397C71 31.1905 71 28.7336 70.716 27.0262C70.3287 24.1112 69.509 21.5748 68.1987 19.3639C66.8692 16.9473 64.9684 15.0372 62.7285 13.8671C60.5275 12.7011 58.0425 12.1181 55.309 12.1181C50.6617 12.1181 46.8955 13.8254 43.9845 17.2818C41.0735 20.6132 39.618 25.6104 39.618 32.065C39.618 38.9361 41.251 43.8916 44.375 46.9315C47.6765 49.9714 51.3685 51.5122 55.593 51.5122C60.705 51.5122 64.681 49.7632 67.45 46.0986C69.3315 43.8083 70.361 41.6012 70.574 39.3525H62.125C61.628 40.4769 61.06 41.3097 60.35 41.9344C59.2527 43.0587 57.723 43.6417 55.8415 43.6417C54.0342 43.6417 52.5045 43.1874 51.262 42.2259C49.1675 40.7267 48.1025 38.1449 47.925 34.397H71ZM60.208 22.1124C61.5215 23.4449 62.267 25.4021 62.409 27.984H48.1735C48.4575 25.5687 49.203 23.6531 50.3745 22.2373C51.4718 20.8214 53.2468 20.1135 55.309 20.1135C57.2615 20.1135 58.8913 20.7798 60.208 22.1124ZM26.9058 35.4797C26.9058 32.7729 25.9473 30.899 24.1013 29.8996C23.0718 29.3582 21.584 29.0667 19.6638 28.9418H10.1853V42.8505H19.525C21.442 42.8505 22.933 42.559 23.998 41.9344C25.9505 40.81 26.909 38.6446 26.909 35.4797H26.9058ZM46.3275 7.37079H64.113V2.16543H46.3307V7.37079H46.3275Z" fill="white"/>
</svg>
