<svg width="732" height="106" viewBox="0 0 732 106" fill="none" xmlns="http://www.w3.org/2000/svg">
<path d="M697.209 15.8687H619.021V17.6954H697.209V15.8687Z" fill="#86C2D7"/>
<path d="M777 0H0V2.6202H777V0Z" fill="#86C2D7"/>
<path d="M748.519 15.8687H710.245V17.6954H748.519V15.8687Z" fill="#86C2D7"/>
<path d="M597.038 15.8687H525.361V17.6954H597.038V15.8687Z" fill="#86C2D7"/>
<path d="M298.115 15.8687H279.388V17.6954H298.115V15.8687Z" fill="#86C2D7"/>
<path d="M260.661 15.8687H131.971V17.6954H260.661V15.8687Z" fill="#86C2D7"/>
<path d="M110.166 15.8687H58.0107V17.6954H110.166V15.8687Z" fill="#86C2D7"/>
<path d="M176.365 60.5415H158.648V62.3682H176.365V60.5415Z" fill="#86C2D7"/>
<path d="M237.455 60.5415H192.859V62.3682H237.455V60.5415Z" fill="#86C2D7"/>
<path d="M566.689 103.682H553.25V105.509H566.689V103.682Z" fill="#86C2D7"/>
<path d="M610.667 103.682H577.075V105.509H610.667V103.682Z" fill="#86C2D7"/>
</svg>
