<svg width="502" height="515" viewBox="0 0 502 515" fill="none" xmlns="http://www.w3.org/2000/svg">
<g clip-path="url(#clip0_11_941)">
<path d="M354.13 424.333C300.734 424.333 250.677 378.161 257.461 322.238C267.825 236.788 338.96 185.228 354.13 96.8362C369.299 185.228 440.435 236.788 450.799 322.238C457.582 378.161 407.512 424.333 354.13 424.333Z" stroke="#5DFCEA" stroke-width="0.25" stroke-linejoin="round"/>
<path d="M357.845 142.482L368.168 144.032L361.546 151.324L344.035 144.316L357.845 142.482ZM357.845 142.482L361.546 126.433L354.13 130.499L357.845 142.482ZM357.845 142.482L361.546 151.324" stroke="#5DFCEA" stroke-width="0.25" stroke-linejoin="round"/>
<path d="M354.13 96.8362V130.499L344.035 144.316L357.131 164.474L334.384 184.29L350.038 189.82L322.768 210.546L339.943 227.249L359.312 211.698L354.13 199.032L376.217 196.729L362.582 177.14L373.579 156.072L357.131 164.474L361.546 151.324L373.579 156.072L373.593 170.814L379.663 168.212L378.99 175.775L373.593 170.814L362.582 177.14L357.131 164.474" stroke="#5DFCEA" stroke-width="0.25" stroke-linejoin="round"/>
<path d="M377.685 184.29L378.99 175.775" stroke="#5DFCEA" stroke-width="0.25" stroke-linejoin="round"/>
<path d="M395.115 195.478V208.186L407.969 216.773L399.678 231.671L408.36 239.489L410.486 256.59L397.349 257.941L392.692 240.385L373.754 239.717L372.166 222.274L390.579 222.828L395.115 208.186L384.724 206.736L395.115 195.478ZM395.115 195.478L385.787 193.218" stroke="#5DFCEA" stroke-width="0.25" stroke-linejoin="round"/>
<path d="M390.579 222.828L392.692 240.384L408.36 239.489L407.969 216.772L390.579 222.828ZM390.579 222.828L399.678 231.67L392.692 240.384L372.166 222.274L395.115 208.186" stroke="#5DFCEA" stroke-width="0.25" stroke-linejoin="round"/>
<path d="M392.692 240.385L410.486 256.59L422.587 241.948L408.36 239.489L415.399 229.268" stroke="#5DFCEA" stroke-width="0.25" stroke-linejoin="round"/>
<path d="M384.724 206.736L372.166 222.274L376.217 196.729" stroke="#5DFCEA" stroke-width="0.25" stroke-linejoin="round"/>
<path d="M350.038 189.82L354.13 199.032L362.582 177.14L377.684 184.29H388.533L385.787 193.217L376.217 196.729L377.684 184.29" stroke="#5DFCEA" stroke-width="0.25" stroke-linejoin="round"/>
<path d="M354.13 130.499L346.834 126.035L344.035 144.316L338.624 147.443L342.11 155.745L335.959 168.312L334.384 184.29L316.173 190.36L324.989 198.079L322.768 210.546L359.312 211.698" stroke="#5DFCEA" stroke-width="0.25" stroke-linejoin="round"/>
<path d="M344.035 144.316L342.11 155.745L357.131 164.474L350.038 189.82L362.582 177.14L378.99 175.775L385.276 178.547L377.684 184.29L385.787 193.217L384.724 206.736L376.217 196.729L359.312 211.697L372.166 222.274L351.222 252.453" stroke="#5DFCEA" stroke-width="0.25" stroke-linejoin="round"/>
<path d="M357.131 164.474L335.959 168.312L332.527 160.493L342.11 155.745" stroke="#5DFCEA" stroke-width="0.25" stroke-linejoin="round"/>
<path d="M335.959 168.312L324.504 175.775L334.384 184.29L324.989 198.079L350.038 189.82" stroke="#5DFCEA" stroke-width="0.25" stroke-linejoin="round"/>
<path d="M320.709 225.572L314.06 242.929L301.3 230.775L286.521 240.385L301.502 249.241L295.162 263.115L312.646 265.475L301.502 249.241L301.3 230.775L320.709 225.572ZM320.709 225.572L322.768 210.546L316.173 190.36L313.79 213.531L299.873 217.455L301.3 230.775L313.79 213.531" stroke="#5DFCEA" stroke-width="0.25" stroke-linejoin="round"/>
<path d="M301.502 249.241L314.06 242.929L312.646 265.475L329.808 277.53" stroke="#5DFCEA" stroke-width="0.25" stroke-linejoin="round"/>
<path d="M286.521 240.385L295.162 263.115L276.547 259.661L280.289 267.124L273.801 276.293L281.177 282.263L296.562 285.234L312.646 265.475" stroke="#5DFCEA" stroke-width="0.25" stroke-linejoin="round"/>
<path d="M274.366 295.839L261.714 299.677L267.219 309.045L279.75 303.174L274.366 295.839ZM274.366 295.839L281.177 282.263L265.214 287.694L274.366 295.839ZM274.366 295.839L267.219 309.045L268.834 321.839L277.422 329.9L269.79 339.467L256.855 330.397" stroke="#5DFCEA" stroke-width="0.25" stroke-linejoin="round"/>
<path d="M295.162 263.115L280.289 267.124L281.177 282.264" stroke="#5DFCEA" stroke-width="0.25" stroke-linejoin="round"/>
<path d="M265.214 287.694L273.801 276.293L271.58 270.706L280.289 267.124" stroke="#5DFCEA" stroke-width="0.25" stroke-linejoin="round"/>
<path d="M268.834 321.839L278.727 318.385L267.219 309.045L257.824 319.366L269.79 339.467L268.834 321.839ZM268.834 321.839L257.824 319.366" stroke="#5DFCEA" stroke-width="0.25" stroke-linejoin="round"/>
<path d="M278.727 318.385L277.422 329.9L298.661 340.078L320.009 311.164L277.422 329.9" stroke="#5DFCEA" stroke-width="0.25" stroke-linejoin="round"/>
<path d="M277.422 329.9L282.267 347.029L298.661 340.078L279.495 360.364L274.797 384.544L297.612 369.547L279.495 360.364L282.267 347.029L269.79 339.467L260.839 357.89L279.495 360.364L269.79 339.467" stroke="#5DFCEA" stroke-width="0.25" stroke-linejoin="round"/>
<path d="M321.059 367.017L354.13 385.568L392.692 364.003L346.956 362.894L321.059 367.017ZM321.059 367.017L327.358 400.963" stroke="#5DFCEA" stroke-width="0.25" stroke-linejoin="round"/>
<path d="M274.797 384.544L301.098 392.107L298.715 407.076L318.259 396.898L297.612 369.547L301.098 392.107L318.259 396.898L316.159 416.515L327.358 400.963L338.597 411.653L354.13 385.568L365.665 403.437L351.034 424.291L338.597 411.653" stroke="#5DFCEA" stroke-width="0.25" stroke-linejoin="round"/>
<path d="M316.159 416.515L338.597 411.653L365.665 403.436L402.047 411.653L382.301 383.62L392.692 364.002L369.286 340.078L346.956 362.894L354.13 385.567L327.358 400.963L318.259 396.897L321.059 367.016L297.612 369.547L298.662 340.078L316.173 337.263L320.009 311.163L278.727 318.385L281.177 282.263L295.162 263.115L296.562 285.234L329.808 277.529L314.06 242.929L339.943 227.249L320.709 225.572L313.79 213.531L322.768 210.546" stroke="#5DFCEA" stroke-width="0.25" stroke-linejoin="round"/>
<path d="M354.13 385.568L382.301 383.62L365.665 403.437L374.118 422.201" stroke="#5DFCEA" stroke-width="0.25" stroke-linejoin="round"/>
<path d="M402.047 411.653L410.338 387.515L420.702 398.362L420.823 382.412L430.003 377.692L431.726 362.894H414.645L410.338 387.515L382.301 383.62" stroke="#5DFCEA" stroke-width="0.25" stroke-linejoin="round"/>
<path d="M414.645 362.894L403.46 337.263L410.486 314.732L377.2 287.694L354.13 309.046L342.11 280.842L351.222 252.454L372.166 257.941L385.787 277.53L416.489 274.772L410.486 287.694L431.726 295.257L433.126 329.9L451.364 329.459" stroke="#5DFCEA" stroke-width="0.25" stroke-linejoin="round"/>
<path d="M420.823 382.412L431.309 387.274L430.003 377.692L414.645 362.894L420.823 382.412ZM420.823 382.412L410.338 387.515L392.692 364.003L414.645 362.894" stroke="#5DFCEA" stroke-width="0.25" stroke-linejoin="round"/>
<path d="M431.309 346.674L403.46 337.263L431.726 362.894L446.895 359.468L431.309 346.674Z" stroke="#5DFCEA" stroke-width="0.25" stroke-linejoin="round"/>
<path d="M433.126 329.9L448.564 308.477L431.726 295.256L410.486 314.732L433.126 329.9ZM433.126 329.9L431.309 346.674" stroke="#5DFCEA" stroke-width="0.25" stroke-linejoin="round"/>
<path d="M430.003 278.169L416.489 274.772L424.686 260.585L433.718 263.996L430.003 278.169Z" stroke="#5DFCEA" stroke-width="0.25" stroke-linejoin="round"/>
<path d="M433.718 263.997L416.489 274.772L397.349 257.941L385.787 277.53L377.2 287.694L351.222 252.454L354.13 309.046L378.021 314.149L369.285 340.078L342.11 326.133L336.484 341.955L346.956 362.894L298.661 340.078L321.059 367.017" stroke="#5DFCEA" stroke-width="0.25" stroke-linejoin="round"/>
<path d="M424.686 260.585L410.486 256.59L426.154 248.601L424.686 260.585Z" stroke="#5DFCEA" stroke-width="0.25" stroke-linejoin="round"/>
<path d="M430.003 377.692L440.542 373.698L431.726 362.894L431.309 346.674L449.291 351.067L433.126 329.9L403.46 337.263L369.285 340.078L336.484 341.954L316.173 337.263L346.956 362.894" stroke="#5DFCEA" stroke-width="0.25" stroke-linejoin="round"/>
<path d="M392.692 364.003L403.46 337.263L378.021 314.149L410.486 314.732V287.694L430.003 278.169L441.834 284.112L431.726 295.256L430.003 278.169" stroke="#5DFCEA" stroke-width="0.25" stroke-linejoin="round"/>
<path d="M410.486 314.732L385.787 277.53L410.486 287.694" stroke="#5DFCEA" stroke-width="0.25" stroke-linejoin="round"/>
<path d="M342.11 326.132L354.13 309.045L336.457 306.06L327.25 297.829" stroke="#5DFCEA" stroke-width="0.25" stroke-linejoin="round"/>
<path d="M359.312 211.698L351.222 252.453L314.06 242.929" stroke="#5DFCEA" stroke-width="0.25" stroke-linejoin="round"/>
<path d="M339.943 227.25L351.222 252.454L373.754 239.717L397.349 257.941H372.166L377.2 287.694L378.021 314.149L342.11 326.133L320.009 311.164L327.25 297.83L298.715 297.076L281.177 282.264" stroke="#5DFCEA" stroke-width="0.25" stroke-linejoin="round"/>
<path d="M373.754 239.716L372.166 257.941" stroke="#5DFCEA" stroke-width="0.25" stroke-linejoin="round"/>
<path d="M351.222 252.454L329.808 277.53" stroke="#5DFCEA" stroke-width="0.25" stroke-linejoin="round"/>
<path d="M342.11 280.842L327.25 297.829L342.11 326.132" stroke="#5DFCEA" stroke-width="0.25" stroke-linejoin="round"/>
<path d="M327.25 297.83L278.727 318.385L298.715 297.076L296.562 285.235L327.25 297.83ZM327.25 297.83L329.808 277.53L342.11 280.842L336.457 306.06L342.11 326.133L316.173 337.263" stroke="#5DFCEA" stroke-width="0.25" stroke-linejoin="round"/>
<path d="M354.13 424.333C300.734 424.333 250.677 378.161 257.461 322.238C267.825 236.788 338.96 185.228 354.13 96.8362C369.299 185.228 440.435 236.788 450.799 322.238C457.582 378.161 407.512 424.333 354.13 424.333Z" stroke="#5DFCEA" stroke-linecap="round" stroke-linejoin="round"/>
<path style="mix-blend-mode:screen" d="M345.946 227.249C345.946 230.747 343.268 233.575 339.956 233.575C336.645 233.575 333.967 230.747 333.967 227.249C333.967 223.752 336.645 220.924 339.956 220.924C343.268 220.924 345.946 223.752 345.946 227.249Z" fill="url(#paint0_radial_11_941)"/>
<path style="mix-blend-mode:screen" d="M382.342 196.729C382.342 200.226 379.663 203.055 376.352 203.055C373.041 203.055 370.362 200.226 370.362 196.729C370.362 193.232 373.041 190.403 376.352 190.403C379.663 190.403 382.342 193.232 382.342 196.729Z" fill="url(#paint1_radial_11_941)"/>
<path style="mix-blend-mode:screen" d="M378.95 239.716C378.95 243.213 376.271 246.042 372.96 246.042C369.649 246.042 366.97 243.213 366.97 239.716C366.97 236.219 369.649 233.39 372.96 233.39C376.271 233.39 378.95 236.219 378.95 239.716Z" fill="url(#paint2_radial_11_941)"/>
<path style="mix-blend-mode:screen" d="M322.162 190.36C322.162 193.857 319.484 196.686 316.173 196.686C312.862 196.686 310.183 193.857 310.183 190.36C310.183 186.863 312.862 184.034 316.173 184.034C319.484 184.034 322.162 186.863 322.162 190.36Z" fill="url(#paint3_radial_11_941)"/>
<path style="mix-blend-mode:screen" d="M307.491 248.601C307.491 252.098 304.813 254.927 301.502 254.927C298.19 254.927 295.512 252.098 295.512 248.601C295.512 245.104 298.19 242.275 301.502 242.275C304.813 242.275 307.491 245.104 307.491 248.601Z" fill="url(#paint4_radial_11_941)"/>
<path style="mix-blend-mode:screen" d="M302.821 285.235C302.821 288.732 300.142 291.561 296.831 291.561C293.52 291.561 290.841 288.732 290.841 285.235C290.841 281.738 293.52 278.909 296.831 278.909C300.142 278.909 302.821 281.738 302.821 285.235Z" fill="url(#paint5_radial_11_941)"/>
<path style="mix-blend-mode:screen" d="M263.814 329.9C263.814 333.397 261.135 336.226 257.824 336.226C254.513 336.226 251.835 333.397 251.835 329.9C251.835 326.403 254.513 323.574 257.824 323.574C261.135 323.574 263.814 326.403 263.814 329.9Z" fill="url(#paint6_radial_11_941)"/>
<path style="mix-blend-mode:screen" d="M348.113 280.842C348.113 284.339 345.435 287.168 342.123 287.168C338.812 287.168 336.134 284.339 336.134 280.842C336.134 277.345 338.812 274.516 342.123 274.516C345.435 274.516 348.113 277.345 348.113 280.842Z" fill="url(#paint7_radial_11_941)"/>
<path style="mix-blend-mode:screen" d="M287.732 346.674C287.732 350.171 285.054 353 281.742 353C278.431 353 275.753 350.171 275.753 346.674C275.753 343.177 278.431 340.348 281.742 340.348C285.054 340.348 287.732 343.177 287.732 346.674Z" fill="url(#paint8_radial_11_941)"/>
<path style="mix-blend-mode:screen" d="M375.935 340.675C375.935 344.172 373.256 347.001 369.945 347.001C366.634 347.001 363.955 344.172 363.955 340.675C363.955 337.178 366.634 334.349 369.945 334.349C373.256 334.349 375.935 337.178 375.935 340.675Z" fill="url(#paint9_radial_11_941)"/>
<path style="mix-blend-mode:screen" d="M427.728 396.912C427.728 400.409 425.05 403.238 421.739 403.238C418.428 403.238 415.749 400.409 415.749 396.912C415.749 393.415 418.428 390.586 421.739 390.586C425.05 390.586 427.728 393.415 427.728 396.912Z" fill="url(#paint10_radial_11_941)"/>
<path style="mix-blend-mode:screen" d="M327.048 367.016C327.048 370.513 324.37 373.342 321.059 373.342C317.748 373.342 315.069 370.513 315.069 367.016C315.069 363.519 317.748 360.69 321.059 360.69C324.37 360.69 327.048 363.519 327.048 367.016Z" fill="url(#paint11_radial_11_941)"/>
<path style="mix-blend-mode:screen" d="M398.695 364.003C398.695 367.5 396.017 370.329 392.706 370.329C389.395 370.329 386.716 367.5 386.716 364.003C386.716 360.506 389.395 357.677 392.706 357.677C396.017 357.677 398.695 360.506 398.695 364.003Z" fill="url(#paint12_radial_11_941)"/>
<path style="mix-blend-mode:screen" d="M384.011 287.694C384.011 291.191 381.332 294.02 378.021 294.02C374.71 294.02 372.031 291.191 372.031 287.694C372.031 284.197 374.71 281.368 378.021 281.368C381.332 281.368 384.011 284.197 384.011 287.694Z" fill="url(#paint13_radial_11_941)"/>
<path style="mix-blend-mode:screen" d="M421.739 274.516C421.739 278.013 419.06 280.842 415.749 280.842C412.438 280.842 409.759 278.013 409.759 274.516C409.759 271.019 412.438 268.19 415.749 268.19C419.06 268.19 421.739 271.019 421.739 274.516Z" fill="url(#paint14_radial_11_941)"/>
<path style="mix-blend-mode:screen" d="M437.716 362.823C437.716 366.32 435.037 369.149 431.726 369.149C428.415 369.149 425.736 366.32 425.736 362.823C425.736 359.326 428.415 356.497 431.726 356.497C435.037 356.497 437.716 359.326 437.716 362.823Z" fill="url(#paint15_radial_11_941)"/>
<path style="mix-blend-mode:screen" d="M360.119 385.838C360.119 389.335 357.441 392.164 354.13 392.164C350.819 392.164 348.14 389.335 348.14 385.838C348.14 382.341 350.819 379.512 354.13 379.512C357.441 379.512 360.119 382.341 360.119 385.838Z" fill="url(#paint16_radial_11_941)"/>
<path style="mix-blend-mode:screen" d="M322.162 413.7C322.162 417.197 319.484 420.026 316.173 420.026C312.862 420.026 310.183 417.197 310.183 413.7C310.183 410.203 312.862 407.374 316.173 407.374C319.484 407.374 322.162 410.203 322.162 413.7Z" fill="url(#paint17_radial_11_941)"/>
<path style="mix-blend-mode:screen" d="M325.999 311.164C325.999 314.661 323.32 317.489 320.009 317.489C316.698 317.489 314.019 314.661 314.019 311.164C314.019 307.667 316.698 304.838 320.009 304.838C323.32 304.838 325.999 307.667 325.999 311.164Z" fill="url(#paint18_radial_11_941)"/>
<path style="mix-blend-mode:screen" d="M287.167 282.263C287.167 285.76 284.488 288.589 281.177 288.589C277.866 288.589 275.187 285.76 275.187 282.263C275.187 278.766 277.866 275.938 281.177 275.938C284.488 275.938 287.167 278.766 287.167 282.263Z" fill="url(#paint19_radial_11_941)"/>
<path style="mix-blend-mode:screen" d="M439.708 329.9C439.708 333.397 437.029 336.226 433.718 336.226C430.407 336.226 427.728 333.397 427.728 329.9C427.728 326.403 430.407 323.574 433.718 323.574C437.029 323.574 439.708 326.403 439.708 329.9Z" fill="url(#paint20_radial_11_941)"/>
<path style="mix-blend-mode:screen" d="M447.824 285.235C447.824 288.732 445.145 291.561 441.834 291.561C438.523 291.561 435.845 288.732 435.845 285.235C435.845 281.738 438.523 278.909 441.834 278.909C445.145 278.909 447.824 281.738 447.824 285.235Z" fill="url(#paint21_radial_11_941)"/>
<path style="mix-blend-mode:screen" d="M356.028 189.521C356.028 193.019 353.349 195.847 350.038 195.847C346.727 195.847 344.048 193.019 344.048 189.521C344.048 186.024 346.727 183.196 350.038 183.196C353.349 183.196 356.028 186.024 356.028 189.521Z" fill="url(#paint22_radial_11_941)"/>
<path style="mix-blend-mode:screen" d="M360.119 129.631C360.119 133.128 357.441 135.957 354.13 135.957C350.819 135.957 348.14 133.128 348.14 129.631C348.14 126.134 350.819 123.305 354.13 123.305C357.441 123.305 360.119 126.134 360.119 129.631Z" fill="url(#paint23_radial_11_941)"/>
<path style="mix-blend-mode:screen" d="M397.309 222.274C397.309 225.771 394.631 228.6 391.319 228.6C388.008 228.6 385.33 225.771 385.33 222.274C385.33 218.777 388.008 215.948 391.319 215.948C394.631 215.948 397.309 218.777 397.309 222.274Z" fill="url(#paint24_radial_11_941)"/>
<path style="mix-blend-mode:screen" d="M413.636 216.872C413.636 220.369 410.957 223.198 407.646 223.198C404.335 223.198 401.656 220.369 401.656 216.872C401.656 213.375 404.335 210.546 407.646 210.546C410.957 210.546 413.636 213.375 413.636 216.872Z" fill="url(#paint25_radial_11_941)"/>
<path d="M117.936 462.132C80.6113 462.132 45.6291 429.863 50.367 390.77C57.6084 331.037 107.329 295 117.936 233.22C128.542 295 178.263 331.037 185.504 390.77C190.242 429.863 155.246 462.132 117.936 462.132Z" stroke="#5DFCEA" stroke-width="0.25" stroke-linejoin="round"/>
<path d="M120.533 265.119L127.761 266.214L123.131 271.303L110.896 266.413L120.533 265.119ZM120.533 265.119L123.131 253.903L117.936 256.746L120.533 265.119ZM120.533 265.119L123.131 271.303" stroke="#5DFCEA" stroke-width="0.25" stroke-linejoin="round"/>
<path d="M117.936 233.22V256.746L110.896 266.413L120.035 280.501L104.153 294.346L115.082 298.213L96.0229 312.699L108.029 324.37L121.57 313.509L117.936 304.653L133.374 303.046L123.844 289.357L131.544 274.63L120.035 280.501L123.131 271.303L131.544 274.63V284.922L135.783 283.102L135.312 288.404L131.544 284.922L123.844 289.357L120.035 280.501" stroke="#5DFCEA" stroke-width="0.25" stroke-linejoin="round"/>
<path d="M134.411 294.346L135.312 288.404" stroke="#5DFCEA" stroke-width="0.25" stroke-linejoin="round"/>
<path d="M146.592 302.165V311.05L155.569 317.049L149.782 327.455L155.852 332.927L157.333 344.883L148.153 345.821L144.896 333.553L131.665 333.084L130.547 320.901L143.429 321.285L146.592 311.05L139.337 310.04L146.592 302.165ZM146.592 302.165L140.064 300.587" stroke="#5DFCEA" stroke-width="0.25" stroke-linejoin="round"/>
<path d="M143.429 321.285L144.896 333.553L155.852 332.927L155.569 317.049L143.429 321.285ZM143.429 321.285L149.782 327.455L144.896 333.553L130.547 320.901L146.592 311.05" stroke="#5DFCEA" stroke-width="0.25" stroke-linejoin="round"/>
<path d="M144.896 333.553L157.333 344.883L165.799 334.648L155.852 332.927L160.765 325.791" stroke="#5DFCEA" stroke-width="0.25" stroke-linejoin="round"/>
<path d="M139.337 310.04L130.547 320.901L133.374 303.046" stroke="#5DFCEA" stroke-width="0.25" stroke-linejoin="round"/>
<path d="M115.082 298.213L117.936 304.653L123.844 289.357L134.41 294.347H141.988L140.064 300.587L133.374 303.046L134.41 294.347" stroke="#5DFCEA" stroke-width="0.25" stroke-linejoin="round"/>
<path d="M117.936 256.747L112.848 253.633L110.896 266.413L107.114 268.588L109.55 274.388L105.243 283.173L104.153 294.347L91.4062 298.597L97.5843 303.985L96.0229 312.699L121.57 313.509" stroke="#5DFCEA" stroke-width="0.25" stroke-linejoin="round"/>
<path d="M110.896 266.413L109.55 274.388L120.035 280.501L115.082 298.213L123.845 289.357L135.312 288.405L139.714 290.338L134.411 294.347L140.064 300.587L139.337 310.041L133.374 303.046L121.57 313.509L130.548 320.901L115.903 341.997" stroke="#5DFCEA" stroke-width="0.25" stroke-linejoin="round"/>
<path d="M120.035 280.501L105.243 283.173L102.847 277.714L109.55 274.388" stroke="#5DFCEA" stroke-width="0.25" stroke-linejoin="round"/>
<path d="M105.243 283.173L97.2477 288.404L104.153 294.346L97.5842 303.985L115.082 298.213" stroke="#5DFCEA" stroke-width="0.25" stroke-linejoin="round"/>
<path d="M94.5827 323.204L89.939 335.33L81.0151 326.843L70.6914 333.553L81.1497 339.751L76.7349 349.446L88.943 351.095L81.1497 339.751L81.0151 326.843L94.5827 323.204ZM94.5827 323.204L96.0229 312.698L91.4062 298.597L89.7506 314.788L80.0191 317.532L81.0151 326.843L89.7506 314.788" stroke="#5DFCEA" stroke-width="0.25" stroke-linejoin="round"/>
<path d="M81.1497 339.751L89.939 335.33L88.9429 351.095L100.949 359.511" stroke="#5DFCEA" stroke-width="0.25" stroke-linejoin="round"/>
<path d="M70.6914 333.553L76.7348 349.446L63.7191 347.029L66.3304 352.246L61.7944 358.658L66.9495 362.823L77.704 364.912L88.943 351.095" stroke="#5DFCEA" stroke-width="0.25" stroke-linejoin="round"/>
<path d="M62.1982 372.319L53.3416 375.005L57.1911 381.545L65.9535 377.451L62.1982 372.319ZM62.1982 372.319L66.9495 362.823L55.7913 366.618L62.1982 372.319ZM62.1982 372.319L57.1911 381.545L58.3218 390.486L64.3249 396.116L58.9948 402.811L49.9497 396.471" stroke="#5DFCEA" stroke-width="0.25" stroke-linejoin="round"/>
<path d="M76.7349 349.446L66.3304 352.246L66.9495 362.823" stroke="#5DFCEA" stroke-width="0.25" stroke-linejoin="round"/>
<path d="M55.7913 366.618L61.7944 358.658L60.2465 354.748L66.3304 352.246" stroke="#5DFCEA" stroke-width="0.25" stroke-linejoin="round"/>
<path d="M58.3218 390.486L65.2402 388.084L57.1911 381.544L50.6362 388.766L58.9948 402.811L58.3218 390.486ZM58.3218 390.486L50.6362 388.766" stroke="#5DFCEA" stroke-width="0.25" stroke-linejoin="round"/>
<path d="M65.2402 388.084L64.3249 396.115L79.1711 403.237L94.0982 383.023L64.3249 396.115" stroke="#5DFCEA" stroke-width="0.25" stroke-linejoin="round"/>
<path d="M64.3249 396.115L67.7168 408.099L79.1711 403.237L65.7785 417.425L62.4943 434.313L78.4443 423.836L65.7785 417.425L67.7168 408.099L58.9948 402.811L52.7359 415.69L65.7785 417.425L58.9948 402.811" stroke="#5DFCEA" stroke-width="0.25" stroke-linejoin="round"/>
<path d="M94.825 422.073L117.936 435.037L144.896 419.969L112.929 419.187L94.825 422.073ZM94.825 422.073L99.2398 445.798" stroke="#5DFCEA" stroke-width="0.25" stroke-linejoin="round"/>
<path d="M62.4943 434.313L80.8805 439.601L79.2115 450.063L92.8733 442.956L78.4443 423.836L80.8805 439.601L92.8733 442.956L91.4062 456.659L99.2398 445.799L107.087 453.276L117.936 435.038L126.012 447.519L115.782 462.104L107.087 453.276" stroke="#5DFCEA" stroke-width="0.25" stroke-linejoin="round"/>
<path d="M91.4061 456.659L107.087 453.276L126.012 447.519L151.437 453.276L137.641 433.673L144.896 419.969L128.542 403.237L112.928 419.187L117.936 435.038L99.2398 445.799L92.8733 442.956L94.8249 422.073L78.4443 423.836L79.1711 403.237L91.4061 401.276L94.0981 383.023L65.2401 388.084L66.9495 362.823L76.7349 349.446L77.704 364.912L100.949 359.51L89.939 335.33L108.029 324.37L94.5827 323.204L89.7506 314.788L96.0229 312.699" stroke="#5DFCEA" stroke-width="0.25" stroke-linejoin="round"/>
<path d="M117.936 435.038L137.641 433.673L126.012 447.519L131.92 460.64" stroke="#5DFCEA" stroke-width="0.25" stroke-linejoin="round"/>
<path d="M151.437 453.276L157.225 436.402L164.48 443.979L164.561 432.834L170.981 429.536L172.179 419.187H160.24L157.225 436.402L137.641 433.673" stroke="#5DFCEA" stroke-width="0.25" stroke-linejoin="round"/>
<path d="M160.24 419.187L152.42 401.276L157.333 385.525L134.061 366.618L117.936 381.544L109.55 361.842L115.903 341.997L130.548 345.821L140.064 359.51L161.532 357.591L157.333 366.618L172.179 371.906L173.162 396.115L185.908 395.817" stroke="#5DFCEA" stroke-width="0.25" stroke-linejoin="round"/>
<path d="M164.561 432.834L171.883 436.231L170.981 429.536L160.24 419.187L164.561 432.834ZM164.561 432.834L157.225 436.402L144.896 419.969L160.24 419.187" stroke="#5DFCEA" stroke-width="0.25" stroke-linejoin="round"/>
<path d="M171.883 407.857L152.42 401.276L172.179 419.187L182.785 416.799L171.883 407.857Z" stroke="#5DFCEA" stroke-width="0.25" stroke-linejoin="round"/>
<path d="M173.162 396.115L183.943 381.146L172.179 371.906L157.333 385.525L173.162 396.115ZM173.162 396.115L171.883 407.857" stroke="#5DFCEA" stroke-width="0.25" stroke-linejoin="round"/>
<path d="M170.981 359.965L161.532 357.591L167.266 347.683L173.579 350.057L170.981 359.965Z" stroke="#5DFCEA" stroke-width="0.25" stroke-linejoin="round"/>
<path d="M173.579 350.057L161.532 357.591L148.153 345.821L140.064 359.51L134.061 366.618L115.903 341.997L117.936 381.544L134.639 385.113L128.542 403.237L109.55 393.485L105.606 404.559L112.929 419.187L79.1711 403.237L94.825 422.073" stroke="#5DFCEA" stroke-width="0.25" stroke-linejoin="round"/>
<path d="M167.266 347.683L157.333 344.883L168.289 339.296L167.266 347.683Z" stroke="#5DFCEA" stroke-width="0.25" stroke-linejoin="round"/>
<path d="M170.981 429.536L178.344 426.736L172.179 419.187L171.883 407.858L184.454 410.928L173.162 396.115L152.42 401.276L128.542 403.237L105.606 404.56L91.4062 401.276L112.929 419.187" stroke="#5DFCEA" stroke-width="0.25" stroke-linejoin="round"/>
<path d="M144.896 419.969L152.42 401.276L134.639 385.113L157.333 385.525V366.618L170.981 359.965L179.245 364.116L172.179 371.906L170.981 359.965" stroke="#5DFCEA" stroke-width="0.25" stroke-linejoin="round"/>
<path d="M157.333 385.525L140.064 359.51L157.333 366.618" stroke="#5DFCEA" stroke-width="0.25" stroke-linejoin="round"/>
<path d="M109.55 393.485L117.936 381.544L105.593 379.455L99.1456 373.698" stroke="#5DFCEA" stroke-width="0.25" stroke-linejoin="round"/>
<path d="M121.57 313.509L115.903 341.997L89.939 335.33" stroke="#5DFCEA" stroke-width="0.25" stroke-linejoin="round"/>
<path d="M108.029 324.37L115.903 341.997L131.665 333.084L148.153 345.821H130.547L134.061 366.618L134.639 385.113L109.55 393.485L94.0981 383.023L99.1456 373.698L79.2115 373.186L66.9495 362.823" stroke="#5DFCEA" stroke-width="0.25" stroke-linejoin="round"/>
<path d="M131.665 333.084L130.547 345.821" stroke="#5DFCEA" stroke-width="0.25" stroke-linejoin="round"/>
<path d="M115.903 341.997L100.949 359.51" stroke="#5DFCEA" stroke-width="0.25" stroke-linejoin="round"/>
<path d="M109.55 361.842L99.1456 373.698L109.55 393.486" stroke="#5DFCEA" stroke-width="0.25" stroke-linejoin="round"/>
<path d="M99.1456 373.698L65.2401 388.084L79.2115 373.186L77.704 364.912L99.1456 373.698ZM99.1456 373.698L100.949 359.51L109.55 361.842L105.593 379.455L109.55 393.486L91.4061 401.276" stroke="#5DFCEA" stroke-width="0.25" stroke-linejoin="round"/>
<path d="M117.936 462.132C80.6113 462.132 45.6291 429.863 50.367 390.77C57.6084 331.037 107.329 295 117.936 233.22C128.542 295 178.263 331.037 185.504 390.77C190.242 429.863 155.246 462.132 117.936 462.132Z" stroke="#5DFCEA" stroke-linecap="round" stroke-linejoin="round"/>
<path style="mix-blend-mode:screen" d="M108.029 328.791C110.341 328.791 112.215 326.811 112.215 324.37C112.215 321.928 110.341 319.949 108.029 319.949C105.717 319.949 103.843 321.928 103.843 324.37C103.843 326.811 105.717 328.791 108.029 328.791Z" fill="url(#paint26_radial_11_941)"/>
<path style="mix-blend-mode:screen" d="M133.482 307.468C135.794 307.468 137.668 305.488 137.668 303.046C137.668 300.605 135.794 298.625 133.482 298.625C131.17 298.625 129.296 300.605 129.296 303.046C129.296 305.488 131.17 307.468 133.482 307.468Z" fill="url(#paint27_radial_11_941)"/>
<path style="mix-blend-mode:screen" d="M131.099 337.505C133.411 337.505 135.285 335.526 135.285 333.084C135.285 330.642 133.411 328.663 131.099 328.663C128.788 328.663 126.913 330.642 126.913 333.084C126.913 335.526 128.788 337.505 131.099 337.505Z" fill="url(#paint28_radial_11_941)"/>
<path style="mix-blend-mode:screen" d="M91.4062 303.018C93.7181 303.018 95.5922 301.039 95.5922 298.597C95.5922 296.155 93.7181 294.176 91.4062 294.176C89.0943 294.176 87.2202 296.155 87.2202 298.597C87.2202 301.039 89.0943 303.018 91.4062 303.018Z" fill="url(#paint29_radial_11_941)"/>
<path style="mix-blend-mode:screen" d="M81.1497 343.717C83.4616 343.717 85.3357 341.738 85.3357 339.296C85.3357 336.854 83.4616 334.875 81.1497 334.875C78.8378 334.875 76.9637 336.854 76.9637 339.296C76.9637 341.738 78.8378 343.717 81.1497 343.717Z" fill="url(#paint30_radial_11_941)"/>
<path style="mix-blend-mode:screen" d="M82.0785 364.912C82.0785 367.357 80.2075 369.333 77.8924 369.333C75.5773 369.333 73.7064 367.357 73.7064 364.912C73.7064 362.467 75.5773 360.491 77.8924 360.491C80.2075 360.491 82.0785 362.467 82.0785 364.912Z" fill="url(#paint31_radial_11_941)"/>
<path style="mix-blend-mode:screen" d="M50.6362 400.536C52.948 400.536 54.8222 398.557 54.8222 396.115C54.8222 393.674 52.948 391.694 50.6362 391.694C48.3243 391.694 46.4501 393.674 46.4501 396.115C46.4501 398.557 48.3243 400.536 50.6362 400.536Z" fill="url(#paint32_radial_11_941)"/>
<path style="mix-blend-mode:screen" d="M113.736 361.842C113.736 364.287 111.865 366.263 109.55 366.263C107.235 366.263 105.364 364.287 105.364 361.842C105.364 359.397 107.235 357.421 109.55 357.421C111.865 357.421 113.736 359.397 113.736 361.842Z" fill="url(#paint33_radial_11_941)"/>
<path style="mix-blend-mode:screen" d="M71.5259 407.858C71.5259 410.303 69.655 412.279 67.3399 412.279C65.0248 412.279 63.1539 410.303 63.1539 407.858C63.1539 405.413 65.0248 403.437 67.3399 403.437C69.655 403.437 71.5259 405.413 71.5259 407.858Z" fill="url(#paint34_radial_11_941)"/>
<path style="mix-blend-mode:screen" d="M133.186 403.664C133.186 406.109 131.315 408.085 129 408.085C126.685 408.085 124.814 406.109 124.814 403.664C124.814 401.219 126.685 399.243 129 399.243C131.315 399.243 133.186 401.219 133.186 403.664Z" fill="url(#paint35_radial_11_941)"/>
<path style="mix-blend-mode:screen" d="M165.207 447.391C167.519 447.391 169.393 445.412 169.393 442.97C169.393 440.528 167.519 438.549 165.207 438.549C162.895 438.549 161.021 440.528 161.021 442.97C161.021 445.412 162.895 447.391 165.207 447.391Z" fill="url(#paint36_radial_11_941)"/>
<path style="mix-blend-mode:screen" d="M94.8249 426.494C97.1368 426.494 99.011 424.515 99.011 422.073C99.011 419.631 97.1368 417.652 94.8249 417.652C92.5131 417.652 90.6389 419.631 90.6389 422.073C90.6389 424.515 92.5131 426.494 94.8249 426.494Z" fill="url(#paint37_radial_11_941)"/>
<path style="mix-blend-mode:screen" d="M144.896 424.39C147.208 424.39 149.082 422.411 149.082 419.969C149.082 417.527 147.208 415.548 144.896 415.548C142.584 415.548 140.71 417.527 140.71 419.969C140.71 422.411 142.584 424.39 144.896 424.39Z" fill="url(#paint38_radial_11_941)"/>
<path style="mix-blend-mode:screen" d="M134.639 371.039C136.951 371.039 138.825 369.06 138.825 366.618C138.825 364.177 136.951 362.197 134.639 362.197C132.327 362.197 130.453 364.177 130.453 366.618C130.453 369.06 132.327 371.039 134.639 371.039Z" fill="url(#paint39_radial_11_941)"/>
<path style="mix-blend-mode:screen" d="M161.021 361.828C163.333 361.828 165.207 359.848 165.207 357.407C165.207 354.965 163.333 352.986 161.021 352.986C158.709 352.986 156.835 354.965 156.835 357.407C156.835 359.848 158.709 361.828 161.021 361.828Z" fill="url(#paint40_radial_11_941)"/>
<path style="mix-blend-mode:screen" d="M176.365 419.145C176.365 421.59 174.494 423.566 172.179 423.566C169.864 423.566 167.993 421.59 167.993 419.145C167.993 416.7 169.864 414.724 172.179 414.724C174.494 414.724 176.365 416.7 176.365 419.145Z" fill="url(#paint41_radial_11_941)"/>
<path style="mix-blend-mode:screen" d="M122.135 435.222C122.135 437.667 120.264 439.643 117.949 439.643C115.634 439.643 113.763 437.667 113.763 435.222C113.763 432.777 115.634 430.801 117.949 430.801C120.264 430.801 122.135 432.777 122.135 435.222Z" fill="url(#paint42_radial_11_941)"/>
<path style="mix-blend-mode:screen" d="M91.4062 459.119C93.7181 459.119 95.5922 457.139 95.5922 454.698C95.5922 452.256 93.7181 450.277 91.4062 450.277C89.0943 450.277 87.2202 452.256 87.2202 454.698C87.2202 457.139 89.0943 459.119 91.4062 459.119Z" fill="url(#paint43_radial_11_941)"/>
<path style="mix-blend-mode:screen" d="M98.2842 383.023C98.2842 385.468 96.4132 387.444 94.0981 387.444C91.783 387.444 89.9121 385.468 89.9121 383.023C89.9121 380.578 91.783 378.602 94.0981 378.602C96.4132 378.602 98.2842 380.578 98.2842 383.023Z" fill="url(#paint44_radial_11_941)"/>
<path style="mix-blend-mode:screen" d="M66.9496 367.244C69.2615 367.244 71.1356 365.264 71.1356 362.823C71.1356 360.381 69.2615 358.402 66.9496 358.402C64.6377 358.402 62.7635 360.381 62.7635 362.823C62.7635 365.264 64.6377 367.244 66.9496 367.244Z" fill="url(#paint45_radial_11_941)"/>
<path style="mix-blend-mode:screen" d="M173.579 400.536C175.891 400.536 177.765 398.557 177.765 396.115C177.765 393.674 175.891 391.694 173.579 391.694C171.267 391.694 169.393 393.674 169.393 396.115C169.393 398.557 171.267 400.536 173.579 400.536Z" fill="url(#paint46_radial_11_941)"/>
<path style="mix-blend-mode:screen" d="M179.245 369.333C181.557 369.333 183.431 367.354 183.431 364.912C183.431 362.471 181.557 360.491 179.245 360.491C176.934 360.491 175.059 362.471 175.059 364.912C175.059 367.354 176.934 369.333 179.245 369.333Z" fill="url(#paint47_radial_11_941)"/>
<path style="mix-blend-mode:screen" d="M115.082 302.421C117.394 302.421 119.268 300.442 119.268 298C119.268 295.558 117.394 293.579 115.082 293.579C112.77 293.579 110.896 295.558 110.896 298C110.896 300.442 112.77 302.421 115.082 302.421Z" fill="url(#paint48_radial_11_941)"/>
<path style="mix-blend-mode:screen" d="M117.936 260.57C120.247 260.57 122.122 258.591 122.122 256.149C122.122 253.708 120.247 251.728 117.936 251.728C115.624 251.728 113.75 253.708 113.75 256.149C113.75 258.591 115.624 260.57 117.936 260.57Z" fill="url(#paint49_radial_11_941)"/>
<path style="mix-blend-mode:screen" d="M143.94 325.322C146.252 325.322 148.126 323.343 148.126 320.901C148.126 318.459 146.252 316.48 143.94 316.48C141.628 316.48 139.754 318.459 139.754 320.901C139.754 323.343 141.628 325.322 143.94 325.322Z" fill="url(#paint50_radial_11_941)"/>
<path style="mix-blend-mode:screen" d="M155.341 321.541C157.653 321.541 159.527 319.561 159.527 317.12C159.527 314.678 157.653 312.699 155.341 312.699C153.029 312.699 151.155 314.678 151.155 317.12C151.155 319.561 153.029 321.541 155.341 321.541Z" fill="url(#paint51_radial_11_941)"/>
<path d="M206.932 250.222C183.445 250.222 161.411 229.908 164.399 205.301C168.962 167.7 200.256 145.013 206.932 106.133C213.608 145.027 244.903 167.715 249.466 205.301C252.454 229.908 230.42 250.222 206.932 250.222Z" stroke="#5DFCEA" stroke-width="0.25" stroke-linejoin="round"/>
<path d="M208.574 126.205L213.11 126.888L210.203 130.1L202.504 127.016L208.574 126.205ZM208.574 126.205L210.203 119.155L206.932 120.931L208.574 126.205ZM208.574 126.205L210.203 130.1" stroke="#5DFCEA" stroke-width="0.25" stroke-linejoin="round"/>
<path d="M206.932 106.133V120.931L202.504 127.016L208.251 135.886L198.251 144.6L205.142 147.031L193.136 156.157L200.7 163.507L209.221 156.669L206.932 151.097L216.65 150.073L210.661 141.459L215.493 132.19L208.251 135.886L210.203 130.1L215.493 132.19V138.672L218.171 137.535L217.875 140.862L215.493 138.672L210.661 141.459L208.251 135.886" stroke="#5DFCEA" stroke-width="0.25" stroke-linejoin="round"/>
<path d="M217.296 144.6L217.875 140.862" stroke="#5DFCEA" stroke-width="0.25" stroke-linejoin="round"/>
<path d="M224.969 149.533V155.12L230.622 158.887L226.974 165.454L230.797 168.894L231.725 176.414L225.951 177.012L223.905 169.278L215.574 168.994L214.874 161.318L222.977 161.559L224.969 155.12L220.406 154.48L224.969 149.533ZM224.969 149.533L220.863 148.538" stroke="#5DFCEA" stroke-width="0.25" stroke-linejoin="round"/>
<path d="M222.977 161.559L223.905 169.278L230.797 168.894L230.622 158.887L222.977 161.559ZM222.977 161.559L226.974 165.454L223.905 169.278L214.874 161.318L224.969 155.12" stroke="#5DFCEA" stroke-width="0.25" stroke-linejoin="round"/>
<path d="M223.905 169.278L231.725 176.415L237.056 169.975L230.797 168.895L233.893 164.388" stroke="#5DFCEA" stroke-width="0.25" stroke-linejoin="round"/>
<path d="M220.406 154.48L214.874 161.318L216.65 150.073" stroke="#5DFCEA" stroke-width="0.25" stroke-linejoin="round"/>
<path d="M205.142 147.031L206.932 151.097L210.661 141.459L217.296 144.6H222.075L220.863 148.538L216.65 150.073L217.296 144.6" stroke="#5DFCEA" stroke-width="0.25" stroke-linejoin="round"/>
<path d="M206.932 120.931L203.729 118.97L202.504 127.016L200.122 128.395L201.656 132.048L198.937 137.578L198.251 144.6L190.242 147.273L194.119 150.67L193.136 156.158L209.221 156.669" stroke="#5DFCEA" stroke-width="0.25" stroke-linejoin="round"/>
<path d="M202.504 127.016L201.656 132.048L208.251 135.886L205.142 147.031L210.661 141.459L217.875 140.862L220.648 142.084L217.296 144.6L220.863 148.538L220.406 154.48L216.65 150.073L209.221 156.669L214.874 161.318L205.654 174.595" stroke="#5DFCEA" stroke-width="0.25" stroke-linejoin="round"/>
<path d="M208.251 135.886L198.937 137.578L197.43 134.138L201.656 132.048" stroke="#5DFCEA" stroke-width="0.25" stroke-linejoin="round"/>
<path d="M198.937 137.578L193.903 140.862L198.251 144.6L194.119 150.67L205.142 147.031" stroke="#5DFCEA" stroke-width="0.25" stroke-linejoin="round"/>
<path d="M192.234 162.768L189.313 170.401L183.701 165.056L177.199 169.278L183.781 173.188L180.995 179.286L188.681 180.324L183.781 173.188L183.701 165.056L192.234 162.768ZM192.234 162.768L193.136 156.157L190.242 147.273L189.192 157.465L183.068 159.2L183.701 165.056L189.192 157.465" stroke="#5DFCEA" stroke-width="0.25" stroke-linejoin="round"/>
<path d="M183.781 173.188L189.313 170.401L188.681 180.324L196.232 185.626" stroke="#5DFCEA" stroke-width="0.25" stroke-linejoin="round"/>
<path d="M177.199 169.278L180.995 179.286L172.798 177.765L174.454 181.049L171.587 185.086L174.844 187.716L181.614 189.024L188.681 180.324" stroke="#5DFCEA" stroke-width="0.25" stroke-linejoin="round"/>
<path d="M171.842 193.687L166.27 195.378L168.693 199.487L174.211 196.914L171.842 193.687ZM171.842 193.687L174.844 187.716L167.818 190.104L171.842 193.687ZM171.842 193.687L168.693 199.487L169.406 205.116L173.188 208.67L169.837 212.878L164.143 208.883" stroke="#5DFCEA" stroke-width="0.25" stroke-linejoin="round"/>
<path d="M180.995 179.286L174.454 181.049L174.844 187.716" stroke="#5DFCEA" stroke-width="0.25" stroke-linejoin="round"/>
<path d="M167.818 190.104L171.587 185.086L170.618 182.627L174.454 181.049" stroke="#5DFCEA" stroke-width="0.25" stroke-linejoin="round"/>
<path d="M169.406 205.116L173.754 203.609L168.693 199.486L164.574 204.035L169.837 212.877L169.406 205.116ZM169.406 205.116L164.574 204.035" stroke="#5DFCEA" stroke-width="0.25" stroke-linejoin="round"/>
<path d="M173.754 203.609L173.188 208.67L182.53 213.147L191.925 200.425L173.188 208.67" stroke="#5DFCEA" stroke-width="0.25" stroke-linejoin="round"/>
<path d="M173.188 208.67L175.315 216.204L182.53 213.148L174.104 222.075L172.031 232.708L182.072 226.112L174.104 222.075L175.315 216.204L169.837 212.877L165.893 220.98L174.104 222.075L169.837 212.877" stroke="#5DFCEA" stroke-width="0.25" stroke-linejoin="round"/>
<path d="M192.382 225.003L206.932 233.163L223.905 223.681L203.783 223.184L192.382 225.003ZM192.382 225.003L195.155 239.929" stroke="#5DFCEA" stroke-width="0.25" stroke-linejoin="round"/>
<path d="M172.031 232.708L183.606 236.034L182.556 242.616L191.157 238.153L182.072 226.112L183.606 236.034L191.157 238.153L190.229 246.781L195.155 239.93L200.108 244.635L206.932 233.163L212.02 241.024L205.573 250.193L200.108 244.635" stroke="#5DFCEA" stroke-width="0.25" stroke-linejoin="round"/>
<path d="M190.229 246.781L200.108 244.635L212.02 241.024L228.024 244.635L219.329 232.31L223.905 223.681L213.608 213.148L203.783 223.184L206.932 233.163L195.155 239.93L191.157 238.153L192.382 225.003L182.072 226.112L182.53 213.148L190.242 211.911L191.925 200.425L173.754 203.609L174.844 187.716L180.995 179.286L181.614 189.024L196.232 185.626L189.313 170.401L200.7 163.507L192.234 162.768L189.192 157.465L193.136 156.157" stroke="#5DFCEA" stroke-width="0.25" stroke-linejoin="round"/>
<path d="M206.932 233.163L219.329 232.31L212.02 241.024L215.735 249.269" stroke="#5DFCEA" stroke-width="0.25" stroke-linejoin="round"/>
<path d="M228.024 244.635L231.672 234.016L236.235 238.792L236.275 231.77L240.313 229.694L241.08 223.184H233.569L231.672 234.016L219.329 232.31" stroke="#5DFCEA" stroke-width="0.25" stroke-linejoin="round"/>
<path d="M233.569 223.184L228.643 211.911L231.725 201.988L217.081 190.104L206.932 199.486L201.656 187.09L205.654 174.595L214.874 177.012L220.863 185.626L234.377 184.418L231.725 190.104L241.08 193.431L241.699 208.67L249.708 208.471" stroke="#5DFCEA" stroke-width="0.25" stroke-linejoin="round"/>
<path d="M236.275 231.77L240.892 233.916L240.313 229.694L233.569 223.184L236.275 231.77ZM236.275 231.77L231.672 234.016L223.905 223.681L233.569 223.184" stroke="#5DFCEA" stroke-width="0.25" stroke-linejoin="round"/>
<path d="M240.892 216.048L228.643 211.911L241.08 223.184L247.743 221.677L240.892 216.048Z" stroke="#5DFCEA" stroke-width="0.25" stroke-linejoin="round"/>
<path d="M241.699 208.67L248.483 199.245L241.08 193.431L231.725 201.989L241.699 208.67ZM241.699 208.67L240.892 216.048" stroke="#5DFCEA" stroke-width="0.25" stroke-linejoin="round"/>
<path d="M240.313 185.91L234.377 184.418L237.984 178.177L241.955 179.67L240.313 185.91Z" stroke="#5DFCEA" stroke-width="0.25" stroke-linejoin="round"/>
<path d="M241.955 179.67L234.377 184.418L225.951 177.012L220.863 185.626L217.081 190.104L205.654 174.595L206.932 199.486L217.444 201.732L213.608 213.147L201.656 207.006L199.179 213.972L203.783 223.184L182.53 213.147L192.382 225.003" stroke="#5DFCEA" stroke-width="0.25" stroke-linejoin="round"/>
<path d="M237.984 178.177L231.725 176.415L238.63 172.903L237.984 178.177Z" stroke="#5DFCEA" stroke-width="0.25" stroke-linejoin="round"/>
<path d="M240.313 229.694L244.957 227.946L241.08 223.184L240.892 216.048L248.806 217.981L241.699 208.67L228.643 211.911L213.608 213.148L199.179 213.972L190.242 211.911L203.783 223.184" stroke="#5DFCEA" stroke-width="0.25" stroke-linejoin="round"/>
<path d="M223.905 223.681L228.643 211.911L217.445 201.733L231.725 201.988V190.104L240.313 185.911L245.522 188.526L241.08 193.431L240.313 185.911" stroke="#5DFCEA" stroke-width="0.25" stroke-linejoin="round"/>
<path d="M231.725 201.988L220.863 185.626L231.725 190.104" stroke="#5DFCEA" stroke-width="0.25" stroke-linejoin="round"/>
<path d="M201.656 207.007L206.932 199.486L199.166 198.179L195.115 194.554" stroke="#5DFCEA" stroke-width="0.25" stroke-linejoin="round"/>
<path d="M209.221 156.669L205.654 174.595L189.313 170.401" stroke="#5DFCEA" stroke-width="0.25" stroke-linejoin="round"/>
<path d="M200.7 163.507L205.654 174.595L215.574 168.994L225.951 177.012H214.874L217.081 190.104L217.444 201.732L201.656 207.006L191.925 200.425L195.115 194.554L182.556 194.227L174.844 187.716" stroke="#5DFCEA" stroke-width="0.25" stroke-linejoin="round"/>
<path d="M215.574 168.994L214.874 177.012" stroke="#5DFCEA" stroke-width="0.25" stroke-linejoin="round"/>
<path d="M205.654 174.595L196.232 185.626" stroke="#5DFCEA" stroke-width="0.25" stroke-linejoin="round"/>
<path d="M201.656 187.091L195.115 194.554L201.656 207.007" stroke="#5DFCEA" stroke-width="0.25" stroke-linejoin="round"/>
<path d="M195.115 194.554L173.754 203.609L182.557 194.227L181.614 189.024L195.115 194.554ZM195.115 194.554L196.232 185.626L201.656 187.09L199.166 198.179L201.656 207.006L190.242 211.911" stroke="#5DFCEA" stroke-width="0.25" stroke-linejoin="round"/>
<path d="M206.932 250.222C183.445 250.222 161.411 229.908 164.399 205.301C168.962 167.7 200.256 145.013 206.932 106.133C213.608 145.027 244.903 167.715 249.466 205.301C252.454 229.908 230.42 250.222 206.932 250.222Z" stroke="#5DFCEA" stroke-linecap="round" stroke-linejoin="round"/>
<path style="mix-blend-mode:screen" d="M200.7 166.293C202.157 166.293 203.339 165.046 203.339 163.507C203.339 161.968 202.157 160.721 200.7 160.721C199.243 160.721 198.062 161.968 198.062 163.507C198.062 165.046 199.243 166.293 200.7 166.293Z" fill="url(#paint52_radial_11_941)"/>
<path style="mix-blend-mode:screen" d="M216.718 152.86C218.175 152.86 219.356 151.612 219.356 150.073C219.356 148.535 218.175 147.287 216.718 147.287C215.261 147.287 214.08 148.535 214.08 150.073C214.08 151.612 215.261 152.86 216.718 152.86Z" fill="url(#paint53_radial_11_941)"/>
<path style="mix-blend-mode:screen" d="M215.224 171.78C216.681 171.78 217.862 170.533 217.862 168.994C217.862 167.455 216.681 166.208 215.224 166.208C213.767 166.208 212.586 167.455 212.586 168.994C212.586 170.533 213.767 171.78 215.224 171.78Z" fill="url(#paint54_radial_11_941)"/>
<path style="mix-blend-mode:screen" d="M192.867 147.273C192.867 148.808 191.682 150.059 190.229 150.059C188.775 150.059 187.59 148.808 187.59 147.273C187.59 145.738 188.775 144.487 190.229 144.487C191.682 144.487 192.867 145.738 192.867 147.273Z" fill="url(#paint55_radial_11_941)"/>
<path style="mix-blend-mode:screen" d="M186.419 172.903C186.419 174.439 185.235 175.69 183.781 175.69C182.328 175.69 181.143 174.439 181.143 172.903C181.143 171.368 182.328 170.117 183.781 170.117C185.235 170.117 186.419 171.368 186.419 172.903Z" fill="url(#paint56_radial_11_941)"/>
<path style="mix-blend-mode:screen" d="M181.735 191.81C183.192 191.81 184.374 190.563 184.374 189.024C184.374 187.485 183.192 186.238 181.735 186.238C180.278 186.238 179.097 187.485 179.097 189.024C179.097 190.563 180.278 191.81 181.735 191.81Z" fill="url(#paint57_radial_11_941)"/>
<path style="mix-blend-mode:screen" d="M167.199 208.67C167.199 210.205 166.014 211.456 164.561 211.456C163.107 211.456 161.922 210.205 161.922 208.67C161.922 207.134 163.107 205.883 164.561 205.883C166.014 205.883 167.199 207.134 167.199 208.67Z" fill="url(#paint58_radial_11_941)"/>
<path style="mix-blend-mode:screen" d="M201.656 189.877C203.113 189.877 204.294 188.629 204.294 187.09C204.294 185.552 203.113 184.304 201.656 184.304C200.199 184.304 199.018 185.552 199.018 187.09C199.018 188.629 200.199 189.877 201.656 189.877Z" fill="url(#paint59_radial_11_941)"/>
<path style="mix-blend-mode:screen" d="M175.086 218.834C176.543 218.834 177.724 217.586 177.724 216.047C177.724 214.509 176.543 213.261 175.086 213.261C173.629 213.261 172.448 214.509 172.448 216.047C172.448 217.586 173.629 218.834 175.086 218.834Z" fill="url(#paint60_radial_11_941)"/>
<path style="mix-blend-mode:screen" d="M213.891 216.19C215.348 216.19 216.529 214.942 216.529 213.403C216.529 211.865 215.348 210.617 213.891 210.617C212.434 210.617 211.253 211.865 211.253 213.403C211.253 214.942 212.434 216.19 213.891 216.19Z" fill="url(#paint61_radial_11_941)"/>
<path style="mix-blend-mode:screen" d="M239.317 238.153C239.317 239.688 238.132 240.939 236.679 240.939C235.225 240.939 234.041 239.688 234.041 238.153C234.041 236.617 235.225 235.366 236.679 235.366C238.132 235.366 239.317 236.617 239.317 238.153Z" fill="url(#paint62_radial_11_941)"/>
<path style="mix-blend-mode:screen" d="M195.02 225.003C195.02 226.539 193.836 227.79 192.382 227.79C190.929 227.79 189.744 226.539 189.744 225.003C189.744 223.468 190.929 222.217 192.382 222.217C193.836 222.217 195.02 223.468 195.02 225.003Z" fill="url(#paint63_radial_11_941)"/>
<path style="mix-blend-mode:screen" d="M223.905 226.468C225.362 226.468 226.543 225.22 226.543 223.681C226.543 222.142 225.362 220.895 223.905 220.895C222.448 220.895 221.267 222.142 221.267 223.681C221.267 225.22 222.448 226.468 223.905 226.468Z" fill="url(#paint64_radial_11_941)"/>
<path style="mix-blend-mode:screen" d="M217.445 192.89C218.902 192.89 220.083 191.643 220.083 190.104C220.083 188.565 218.902 187.318 217.445 187.318C215.988 187.318 214.806 188.565 214.806 190.104C214.806 191.643 215.988 192.89 217.445 192.89Z" fill="url(#paint65_radial_11_941)"/>
<path style="mix-blend-mode:screen" d="M236.679 184.304C236.679 185.84 235.494 187.091 234.041 187.091C232.587 187.091 231.402 185.84 231.402 184.304C231.402 182.769 232.587 181.518 234.041 181.518C235.494 181.518 236.679 182.769 236.679 184.304Z" fill="url(#paint66_radial_11_941)"/>
<path style="mix-blend-mode:screen" d="M243.705 223.155C243.705 224.69 242.52 225.941 241.067 225.941C239.613 225.941 238.428 224.69 238.428 223.155C238.428 221.62 239.613 220.369 241.067 220.369C242.52 220.369 243.705 221.62 243.705 223.155Z" fill="url(#paint67_radial_11_941)"/>
<path style="mix-blend-mode:screen" d="M206.932 236.063C208.389 236.063 209.57 234.816 209.57 233.277C209.57 231.738 208.389 230.49 206.932 230.49C205.475 230.49 204.294 231.738 204.294 233.277C204.294 234.816 205.475 236.063 206.932 236.063Z" fill="url(#paint68_radial_11_941)"/>
<path style="mix-blend-mode:screen" d="M192.867 245.53C192.867 247.066 191.682 248.317 190.229 248.317C188.775 248.317 187.59 247.066 187.59 245.53C187.59 243.995 188.775 242.744 190.229 242.744C191.682 242.744 192.867 243.995 192.867 245.53Z" fill="url(#paint69_radial_11_941)"/>
<path style="mix-blend-mode:screen" d="M194.563 200.425C194.563 201.96 193.378 203.211 191.925 203.211C190.471 203.211 189.286 201.96 189.286 200.425C189.286 198.889 190.471 197.638 191.925 197.638C193.378 197.638 194.563 198.889 194.563 200.425Z" fill="url(#paint70_radial_11_941)"/>
<path style="mix-blend-mode:screen" d="M177.469 187.716C177.469 189.251 176.284 190.502 174.831 190.502C173.377 190.502 172.192 189.251 172.192 187.716C172.192 186.181 173.377 184.93 174.831 184.93C176.284 184.93 177.469 186.181 177.469 187.716Z" fill="url(#paint71_radial_11_941)"/>
<path style="mix-blend-mode:screen" d="M244.593 208.67C244.593 210.205 243.409 211.456 241.955 211.456C240.501 211.456 239.317 210.205 239.317 208.67C239.317 207.134 240.501 205.883 241.955 205.883C243.409 205.883 244.593 207.134 244.593 208.67Z" fill="url(#paint72_radial_11_941)"/>
<path style="mix-blend-mode:screen" d="M245.522 191.81C246.979 191.81 248.16 190.563 248.16 189.024C248.16 187.485 246.979 186.238 245.522 186.238C244.065 186.238 242.884 187.485 242.884 189.024C242.884 190.563 244.065 191.81 245.522 191.81Z" fill="url(#paint73_radial_11_941)"/>
<path style="mix-blend-mode:screen" d="M207.767 146.903C207.767 148.438 206.582 149.689 205.129 149.689C203.675 149.689 202.491 148.438 202.491 146.903C202.491 145.368 203.675 144.117 205.129 144.117C206.582 144.117 207.767 145.368 207.767 146.903Z" fill="url(#paint74_radial_11_941)"/>
<path style="mix-blend-mode:screen" d="M209.57 120.562C209.57 122.097 208.386 123.348 206.932 123.348C205.479 123.348 204.294 122.097 204.294 120.562C204.294 119.027 205.479 117.776 206.932 117.776C208.386 117.776 209.57 119.027 209.57 120.562Z" fill="url(#paint75_radial_11_941)"/>
<path style="mix-blend-mode:screen" d="M223.3 164.104C224.757 164.104 225.938 162.857 225.938 161.318C225.938 159.779 224.757 158.531 223.3 158.531C221.843 158.531 220.661 159.779 220.661 161.318C220.661 162.857 221.843 164.104 223.3 164.104Z" fill="url(#paint76_radial_11_941)"/>
<path style="mix-blend-mode:screen" d="M230.487 161.73C231.944 161.73 233.125 160.483 233.125 158.944C233.125 157.405 231.944 156.157 230.487 156.157C229.03 156.157 227.849 157.405 227.849 158.944C227.849 160.483 229.03 161.73 230.487 161.73Z" fill="url(#paint77_radial_11_941)"/>
<path style="mix-blend-mode:screen" d="M130.453 185.896C132.468 185.896 134.101 184.172 134.101 182.044C134.101 179.916 132.468 178.192 130.453 178.192C128.439 178.192 126.806 179.916 126.806 182.044C126.806 184.172 128.439 185.896 130.453 185.896Z" fill="url(#paint78_radial_11_941)"/>
<path style="mix-blend-mode:screen" d="M216.529 438.165C218.544 438.165 220.177 436.44 220.177 434.313C220.177 432.185 218.544 430.46 216.529 430.46C214.515 430.46 212.882 432.185 212.882 434.313C212.882 436.44 214.515 438.165 216.529 438.165Z" fill="url(#paint79_radial_11_941)"/>
<path style="mix-blend-mode:screen" d="M383.284 134.564C385.298 134.564 386.931 132.839 386.931 130.712C386.931 128.584 385.298 126.859 383.284 126.859C381.269 126.859 379.636 128.584 379.636 130.712C379.636 132.839 381.269 134.564 383.284 134.564Z" fill="url(#paint80_radial_11_941)"/>
<path style="mix-blend-mode:screen" d="M108.002 112.175C110.017 112.175 111.65 110.45 111.65 108.322C111.65 106.195 110.017 104.47 108.002 104.47C105.988 104.47 104.354 106.195 104.354 108.322C104.354 110.45 105.988 112.175 108.002 112.175Z" fill="url(#paint81_radial_11_941)"/>
<path style="mix-blend-mode:screen" d="M249.708 379.412C251.722 379.412 253.355 377.688 253.355 375.56C253.355 373.432 251.722 371.708 249.708 371.708C247.693 371.708 246.06 373.432 246.06 375.56C246.06 377.688 247.693 379.412 249.708 379.412Z" fill="url(#paint82_radial_11_941)"/>
<path style="mix-blend-mode:screen" d="M458.242 404.816C460.256 404.816 461.89 403.091 461.89 400.963C461.89 398.836 460.256 397.111 458.242 397.111C456.227 397.111 454.594 398.836 454.594 400.963C454.594 403.091 456.227 404.816 458.242 404.816Z" fill="url(#paint83_radial_11_941)"/>
<path style="mix-blend-mode:screen" d="M91.4061 266.968C93.4207 266.968 95.0538 265.243 95.0538 263.115C95.0538 260.987 93.4207 259.263 91.4061 259.263C89.3916 259.263 87.7585 260.987 87.7585 263.115C87.7585 265.243 89.3916 266.968 91.4061 266.968Z" fill="url(#paint84_radial_11_941)"/>
<path style="mix-blend-mode:screen" d="M342.42 36.335C342.42 37.6143 341.437 38.6521 340.226 38.6521C339.014 38.6521 338.032 37.6143 338.032 36.335C338.032 35.0556 339.014 34.0178 340.226 34.0178C341.437 34.0178 342.42 35.0556 342.42 36.335Z" fill="url(#paint85_radial_11_941)"/>
<path style="mix-blend-mode:screen" d="M334.169 6.32591C334.169 9.82293 331.49 12.6518 328.179 12.6518C324.868 12.6518 322.189 9.82293 322.189 6.32591C322.189 2.82889 324.868 0 328.179 0C331.49 0 334.169 2.82889 334.169 6.32591Z" fill="url(#paint86_radial_11_941)"/>
<path style="mix-blend-mode:screen" d="M284.354 77.1902C284.354 78.4696 283.371 79.5073 282.16 79.5073C280.948 79.5073 279.966 78.4696 279.966 77.1902C279.966 75.9108 280.948 74.873 282.16 74.873C283.371 74.873 284.354 75.9108 284.354 77.1902Z" fill="url(#paint87_radial_11_941)"/>
<path style="mix-blend-mode:screen" d="M341.652 84.1416C342.864 84.1416 343.846 83.1042 343.846 81.8245C343.846 80.5447 342.864 79.5073 341.652 79.5073C340.441 79.5073 339.458 80.5447 339.458 81.8245C339.458 83.1042 340.441 84.1416 341.652 84.1416Z" fill="url(#paint88_radial_11_941)"/>
<path style="mix-blend-mode:screen" d="M255.348 53.3935C256.559 53.3935 257.542 52.3561 257.542 51.0764C257.542 49.7967 256.559 48.7593 255.348 48.7593C254.136 48.7593 253.154 49.7967 253.154 51.0764C253.154 52.3561 254.136 53.3935 255.348 53.3935Z" fill="url(#paint89_radial_11_941)"/>
<path style="mix-blend-mode:screen" d="M300.371 129.631C300.371 133.128 297.692 135.957 294.381 135.957C291.07 135.957 288.392 133.128 288.392 129.631C288.392 126.134 291.07 123.305 294.381 123.305C297.692 123.305 300.371 126.134 300.371 129.631Z" fill="url(#paint90_radial_11_941)"/>
<path style="mix-blend-mode:screen" d="M238.536 81.0427C238.536 84.5397 235.858 87.3686 232.547 87.3686C229.235 87.3686 226.557 84.5397 226.557 81.0427C226.557 77.5457 229.235 74.7168 232.547 74.7168C235.858 74.7168 238.536 77.5457 238.536 81.0427Z" fill="url(#paint91_radial_11_941)"/>
<path style="mix-blend-mode:screen" d="M458.242 225.373C458.242 228.87 455.563 231.699 452.252 231.699C448.941 231.699 446.263 228.87 446.263 225.373C446.263 221.876 448.941 219.047 452.252 219.047C455.563 219.047 458.242 221.876 458.242 225.373Z" fill="url(#paint92_radial_11_941)"/>
<path style="mix-blend-mode:screen" d="M251.512 445.799C251.512 449.296 248.833 452.125 245.522 452.125C242.211 452.125 239.532 449.296 239.532 445.799C239.532 442.302 242.211 439.473 245.522 439.473C248.833 439.473 251.512 442.302 251.512 445.799Z" fill="url(#paint93_radial_11_941)"/>
<path style="mix-blend-mode:screen" d="M203.419 298.597C203.419 302.094 200.741 304.923 197.43 304.923C194.119 304.923 191.44 302.094 191.44 298.597C191.44 295.1 194.119 292.271 197.43 292.271C200.741 292.271 203.419 295.1 203.419 298.597Z" fill="url(#paint94_radial_11_941)"/>
<path style="mix-blend-mode:screen" d="M41.8199 353.796C41.8199 357.293 39.1414 360.122 35.8302 360.122C32.5191 360.122 29.8406 357.293 29.8406 353.796C29.8406 350.299 32.5191 347.47 35.8302 347.47C39.1414 347.47 41.8199 350.299 41.8199 353.796Z" fill="url(#paint95_radial_11_941)"/>
<path style="mix-blend-mode:screen" d="M416.005 79.6353C416.005 80.8151 415.103 81.7676 413.986 81.7676C412.869 81.7676 411.967 80.8151 411.967 79.6353C411.967 78.4554 412.869 77.5029 413.986 77.5029C415.103 77.5029 416.005 78.4554 416.005 79.6353Z" fill="url(#paint96_radial_11_941)"/>
<path style="mix-blend-mode:screen" d="M418.024 183.252C419.139 183.252 420.043 182.298 420.043 181.12C420.043 179.942 419.139 178.988 418.024 178.988C416.909 178.988 416.005 179.942 416.005 181.12C416.005 182.298 416.909 183.252 418.024 183.252Z" fill="url(#paint97_radial_11_941)"/>
<path style="mix-blend-mode:screen" d="M489.792 140.862C489.792 144.359 487.113 147.187 483.802 147.187C480.491 147.187 477.813 144.359 477.813 140.862C477.813 137.365 480.491 134.536 483.802 134.536C487.113 134.536 489.792 137.365 489.792 140.862Z" fill="url(#paint98_radial_11_941)"/>
</g>
<defs>
<radialGradient id="paint0_radial_11_941" cx="0" cy="0" r="1" gradientUnits="userSpaceOnUse" gradientTransform="translate(339.943 227.249) scale(5.59931 5.91365)">
<stop offset="0.09" stop-color="#00FFFF"/>
<stop offset="0.91"/>
</radialGradient>
<radialGradient id="paint1_radial_11_941" cx="0" cy="0" r="1" gradientUnits="userSpaceOnUse" gradientTransform="translate(376.352 196.729) scale(5.59931 5.91365)">
<stop offset="0.09" stop-color="#00FFFF"/>
<stop offset="0.91"/>
</radialGradient>
<radialGradient id="paint2_radial_11_941" cx="0" cy="0" r="1" gradientUnits="userSpaceOnUse" gradientTransform="translate(372.96 239.716) scale(0.672994 0.710777)">
<stop offset="0.09" stop-color="#00FFFF"/>
<stop offset="0.91"/>
</radialGradient>
<radialGradient id="paint3_radial_11_941" cx="0" cy="0" r="1" gradientUnits="userSpaceOnUse" gradientTransform="translate(316.173 190.36) scale(5.59932 5.91365)">
<stop offset="0.09" stop-color="#00FFFF"/>
<stop offset="0.91"/>
</radialGradient>
<radialGradient id="paint4_radial_11_941" cx="0" cy="0" r="1" gradientUnits="userSpaceOnUse" gradientTransform="translate(301.502 248.601) scale(5.59931 5.91366)">
<stop offset="0.09" stop-color="#00FFFF"/>
<stop offset="0.91"/>
</radialGradient>
<radialGradient id="paint5_radial_11_941" cx="0" cy="0" r="1" gradientUnits="userSpaceOnUse" gradientTransform="translate(296.831 285.235) scale(0.672994 0.710777)">
<stop offset="0.09" stop-color="#00FFFF"/>
<stop offset="0.91"/>
</radialGradient>
<radialGradient id="paint6_radial_11_941" cx="0" cy="0" r="1" gradientUnits="userSpaceOnUse" gradientTransform="translate(257.824 329.9) scale(5.59931 5.91366)">
<stop offset="0.09" stop-color="#00FFFF"/>
<stop offset="0.91"/>
</radialGradient>
<radialGradient id="paint7_radial_11_941" cx="0" cy="0" r="1" gradientUnits="userSpaceOnUse" gradientTransform="translate(342.11 280.842) scale(0.672995 0.710776)">
<stop offset="0.09" stop-color="#00FFFF"/>
<stop offset="0.91"/>
</radialGradient>
<radialGradient id="paint8_radial_11_941" cx="0" cy="0" r="1" gradientUnits="userSpaceOnUse" gradientTransform="translate(281.729 346.674) scale(0.672995 0.710777)">
<stop offset="0.09" stop-color="#00FFFF"/>
<stop offset="0.91"/>
</radialGradient>
<radialGradient id="paint9_radial_11_941" cx="0" cy="0" r="1" gradientUnits="userSpaceOnUse" gradientTransform="translate(369.945 340.675) scale(0.672994 0.710777)">
<stop offset="0.09" stop-color="#00FFFF"/>
<stop offset="0.91"/>
</radialGradient>
<radialGradient id="paint10_radial_11_941" cx="0" cy="0" r="1" gradientUnits="userSpaceOnUse" gradientTransform="translate(421.739 396.912) scale(5.59931 5.91365)">
<stop offset="0.09" stop-color="#00FFFF"/>
<stop offset="0.91"/>
</radialGradient>
<radialGradient id="paint11_radial_11_941" cx="0" cy="0" r="1" gradientUnits="userSpaceOnUse" gradientTransform="translate(321.059 367.016) scale(5.59931 5.91366)">
<stop offset="0.09" stop-color="#00FFFF"/>
<stop offset="0.91"/>
</radialGradient>
<radialGradient id="paint12_radial_11_941" cx="0" cy="0" r="1" gradientUnits="userSpaceOnUse" gradientTransform="translate(392.692 364.003) scale(5.59931 5.91366)">
<stop offset="0.09" stop-color="#00FFFF"/>
<stop offset="0.91"/>
</radialGradient>
<radialGradient id="paint13_radial_11_941" cx="0" cy="0" r="1" gradientUnits="userSpaceOnUse" gradientTransform="translate(378.021 287.694) scale(5.59931 5.91366)">
<stop offset="0.09" stop-color="#00FFFF"/>
<stop offset="0.91"/>
</radialGradient>
<radialGradient id="paint14_radial_11_941" cx="0" cy="0" r="1" gradientUnits="userSpaceOnUse" gradientTransform="translate(415.749 274.516) scale(0.672994 0.710776)">
<stop offset="0.09" stop-color="#00FFFF"/>
<stop offset="0.91"/>
</radialGradient>
<radialGradient id="paint15_radial_11_941" cx="0" cy="0" r="1" gradientUnits="userSpaceOnUse" gradientTransform="translate(431.726 362.823) scale(5.59933 5.91365)">
<stop offset="0.09" stop-color="#00FFFF"/>
<stop offset="0.91"/>
</radialGradient>
<radialGradient id="paint16_radial_11_941" cx="0" cy="0" r="1" gradientUnits="userSpaceOnUse" gradientTransform="translate(354.13 385.838) scale(0.672994 0.710776)">
<stop offset="0.09" stop-color="#00FFFF"/>
<stop offset="0.91"/>
</radialGradient>
<radialGradient id="paint17_radial_11_941" cx="0" cy="0" r="1" gradientUnits="userSpaceOnUse" gradientTransform="translate(316.173 413.7) scale(5.59932 5.91365)">
<stop offset="0.09" stop-color="#00FFFF"/>
<stop offset="0.91"/>
</radialGradient>
<radialGradient id="paint18_radial_11_941" cx="0" cy="0" r="1" gradientUnits="userSpaceOnUse" gradientTransform="translate(320.009 311.164) scale(0.672994 0.710776)">
<stop offset="0.09" stop-color="#00FFFF"/>
<stop offset="0.91"/>
</radialGradient>
<radialGradient id="paint19_radial_11_941" cx="0" cy="0" r="1" gradientUnits="userSpaceOnUse" gradientTransform="translate(281.177 282.263) scale(5.59932 5.91365)">
<stop offset="0.09" stop-color="#00FFFF"/>
<stop offset="0.91"/>
</radialGradient>
<radialGradient id="paint20_radial_11_941" cx="0" cy="0" r="1" gradientUnits="userSpaceOnUse" gradientTransform="translate(433.718 329.9) scale(5.59931 5.91366)">
<stop offset="0.09" stop-color="#00FFFF"/>
<stop offset="0.91"/>
</radialGradient>
<radialGradient id="paint21_radial_11_941" cx="0" cy="0" r="1" gradientUnits="userSpaceOnUse" gradientTransform="translate(441.834 285.235) scale(0.672994 0.710777)">
<stop offset="0.09" stop-color="#00FFFF"/>
<stop offset="0.91"/>
</radialGradient>
<radialGradient id="paint22_radial_11_941" cx="0" cy="0" r="1" gradientUnits="userSpaceOnUse" gradientTransform="translate(350.038 189.521) scale(0.672995 0.710777)">
<stop offset="0.09" stop-color="#00FFFF"/>
<stop offset="0.91"/>
</radialGradient>
<radialGradient id="paint23_radial_11_941" cx="0" cy="0" r="1" gradientUnits="userSpaceOnUse" gradientTransform="translate(354.13 129.631) scale(0.672994 0.710776)">
<stop offset="0.09" stop-color="#00FFFF"/>
<stop offset="0.91"/>
</radialGradient>
<radialGradient id="paint24_radial_11_941" cx="0" cy="0" r="1" gradientUnits="userSpaceOnUse" gradientTransform="translate(391.319 222.274) scale(0.672994 0.710776)">
<stop offset="0.09" stop-color="#00FFFF"/>
<stop offset="0.91"/>
</radialGradient>
<radialGradient id="paint25_radial_11_941" cx="0" cy="0" r="1" gradientUnits="userSpaceOnUse" gradientTransform="translate(407.646 216.872) scale(0.672994 0.710776)">
<stop offset="0.09" stop-color="#00FFFF"/>
<stop offset="0.91"/>
</radialGradient>
<radialGradient id="paint26_radial_11_941" cx="0" cy="0" r="1" gradientUnits="userSpaceOnUse" gradientTransform="translate(108.029 324.37) scale(3.91683 4.13671)">
<stop offset="0.09" stop-color="#00FFFF"/>
<stop offset="0.91"/>
</radialGradient>
<radialGradient id="paint27_radial_11_941" cx="0" cy="0" r="1" gradientUnits="userSpaceOnUse" gradientTransform="translate(133.482 303.047) scale(3.91683 4.13671)">
<stop offset="0.09" stop-color="#00FFFF"/>
<stop offset="0.91"/>
</radialGradient>
<radialGradient id="paint28_radial_11_941" cx="0" cy="0" r="1" gradientUnits="userSpaceOnUse" gradientTransform="translate(131.099 333.084) scale(3.91683 4.13672)">
<stop offset="0.09" stop-color="#00FFFF"/>
<stop offset="0.91"/>
</radialGradient>
<radialGradient id="paint29_radial_11_941" cx="0" cy="0" r="1" gradientUnits="userSpaceOnUse" gradientTransform="translate(91.4062 298.597) scale(3.91682 4.13672)">
<stop offset="0.09" stop-color="#00FFFF"/>
<stop offset="0.91"/>
</radialGradient>
<radialGradient id="paint30_radial_11_941" cx="0" cy="0" r="1" gradientUnits="userSpaceOnUse" gradientTransform="translate(81.1497 339.296) scale(3.91683 4.13671)">
<stop offset="0.09" stop-color="#00FFFF"/>
<stop offset="0.91"/>
</radialGradient>
<radialGradient id="paint31_radial_11_941" cx="0" cy="0" r="1" gradientUnits="userSpaceOnUse" gradientTransform="translate(77.8924 364.912) scale(3.91683 4.13672)">
<stop offset="0.09" stop-color="#00FFFF"/>
<stop offset="0.91"/>
</radialGradient>
<radialGradient id="paint32_radial_11_941" cx="0" cy="0" r="1" gradientUnits="userSpaceOnUse" gradientTransform="translate(50.6362 396.115) scale(3.91683 4.13672)">
<stop offset="0.09" stop-color="#00FFFF"/>
<stop offset="0.91"/>
</radialGradient>
<radialGradient id="paint33_radial_11_941" cx="0" cy="0" r="1" gradientUnits="userSpaceOnUse" gradientTransform="translate(109.55 361.842) scale(3.91683 4.13672)">
<stop offset="0.09" stop-color="#00FFFF"/>
<stop offset="0.91"/>
</radialGradient>
<radialGradient id="paint34_radial_11_941" cx="0" cy="0" r="1" gradientUnits="userSpaceOnUse" gradientTransform="translate(67.3399 407.858) scale(3.91683 4.13672)">
<stop offset="0.09" stop-color="#00FFFF"/>
<stop offset="0.91"/>
</radialGradient>
<radialGradient id="paint35_radial_11_941" cx="0" cy="0" r="1" gradientUnits="userSpaceOnUse" gradientTransform="translate(129 403.664) scale(3.91682 4.13672)">
<stop offset="0.09" stop-color="#00FFFF"/>
<stop offset="0.91"/>
</radialGradient>
<radialGradient id="paint36_radial_11_941" cx="0" cy="0" r="1" gradientUnits="userSpaceOnUse" gradientTransform="translate(165.207 442.97) scale(3.91683 4.13672)">
<stop offset="0.09" stop-color="#00FFFF"/>
<stop offset="0.91"/>
</radialGradient>
<radialGradient id="paint37_radial_11_941" cx="0" cy="0" r="1" gradientUnits="userSpaceOnUse" gradientTransform="translate(94.8249 422.073) scale(3.91683 4.13672)">
<stop offset="0.09" stop-color="#00FFFF"/>
<stop offset="0.91"/>
</radialGradient>
<radialGradient id="paint38_radial_11_941" cx="0" cy="0" r="1" gradientUnits="userSpaceOnUse" gradientTransform="translate(144.896 419.969) scale(3.91683 4.13672)">
<stop offset="0.09" stop-color="#00FFFF"/>
<stop offset="0.91"/>
</radialGradient>
<radialGradient id="paint39_radial_11_941" cx="0" cy="0" r="1" gradientUnits="userSpaceOnUse" gradientTransform="translate(134.639 366.618) scale(3.91683 4.13673)">
<stop offset="0.09" stop-color="#00FFFF"/>
<stop offset="0.91"/>
</radialGradient>
<radialGradient id="paint40_radial_11_941" cx="0" cy="0" r="1" gradientUnits="userSpaceOnUse" gradientTransform="translate(161.021 357.407) scale(3.91683 4.13672)">
<stop offset="0.09" stop-color="#00FFFF"/>
<stop offset="0.91"/>
</radialGradient>
<radialGradient id="paint41_radial_11_941" cx="0" cy="0" r="1" gradientUnits="userSpaceOnUse" gradientTransform="translate(172.179 419.145) scale(3.91683 4.13672)">
<stop offset="0.09" stop-color="#00FFFF"/>
<stop offset="0.91"/>
</radialGradient>
<radialGradient id="paint42_radial_11_941" cx="0" cy="0" r="1" gradientUnits="userSpaceOnUse" gradientTransform="translate(117.936 435.222) scale(3.91683 4.13672)">
<stop offset="0.09" stop-color="#00FFFF"/>
<stop offset="0.91"/>
</radialGradient>
<radialGradient id="paint43_radial_11_941" cx="0" cy="0" r="1" gradientUnits="userSpaceOnUse" gradientTransform="translate(91.4062 454.698) scale(3.91682 4.13672)">
<stop offset="0.09" stop-color="#00FFFF"/>
<stop offset="0.91"/>
</radialGradient>
<radialGradient id="paint44_radial_11_941" cx="0" cy="0" r="1" gradientUnits="userSpaceOnUse" gradientTransform="translate(94.0981 383.023) scale(3.91682 4.13672)">
<stop offset="0.09" stop-color="#00FFFF"/>
<stop offset="0.91"/>
</radialGradient>
<radialGradient id="paint45_radial_11_941" cx="0" cy="0" r="1" gradientUnits="userSpaceOnUse" gradientTransform="translate(66.9496 362.823) scale(3.91683 4.13672)">
<stop offset="0.09" stop-color="#00FFFF"/>
<stop offset="0.91"/>
</radialGradient>
<radialGradient id="paint46_radial_11_941" cx="0" cy="0" r="1" gradientUnits="userSpaceOnUse" gradientTransform="translate(173.579 396.115) scale(3.91683 4.13672)">
<stop offset="0.09" stop-color="#00FFFF"/>
<stop offset="0.91"/>
</radialGradient>
<radialGradient id="paint47_radial_11_941" cx="0" cy="0" r="1" gradientUnits="userSpaceOnUse" gradientTransform="translate(179.245 364.912) scale(3.91683 4.13672)">
<stop offset="0.09" stop-color="#00FFFF"/>
<stop offset="0.91"/>
</radialGradient>
<radialGradient id="paint48_radial_11_941" cx="0" cy="0" r="1" gradientUnits="userSpaceOnUse" gradientTransform="translate(115.082 298) scale(3.91683 4.13672)">
<stop offset="0.09" stop-color="#00FFFF"/>
<stop offset="0.91"/>
</radialGradient>
<radialGradient id="paint49_radial_11_941" cx="0" cy="0" r="1" gradientUnits="userSpaceOnUse" gradientTransform="translate(117.936 256.149) scale(3.91683 4.13672)">
<stop offset="0.09" stop-color="#00FFFF"/>
<stop offset="0.91"/>
</radialGradient>
<radialGradient id="paint50_radial_11_941" cx="0" cy="0" r="1" gradientUnits="userSpaceOnUse" gradientTransform="translate(143.94 320.901) scale(3.91683 4.13672)">
<stop offset="0.09" stop-color="#00FFFF"/>
<stop offset="0.91"/>
</radialGradient>
<radialGradient id="paint51_radial_11_941" cx="0" cy="0" r="1" gradientUnits="userSpaceOnUse" gradientTransform="translate(155.341 317.12) scale(3.91682 4.13672)">
<stop offset="0.09" stop-color="#00FFFF"/>
<stop offset="0.91"/>
</radialGradient>
<radialGradient id="paint52_radial_11_941" cx="0" cy="0" r="1" gradientUnits="userSpaceOnUse" gradientTransform="translate(200.7 163.507) scale(2.46317 2.60144)">
<stop offset="0.09" stop-color="#00FFFF"/>
<stop offset="0.91"/>
</radialGradient>
<radialGradient id="paint53_radial_11_941" cx="0" cy="0" r="1" gradientUnits="userSpaceOnUse" gradientTransform="translate(216.718 150.073) scale(2.46316 2.60144)">
<stop offset="0.09" stop-color="#00FFFF"/>
<stop offset="0.91"/>
</radialGradient>
<radialGradient id="paint54_radial_11_941" cx="0" cy="0" r="1" gradientUnits="userSpaceOnUse" gradientTransform="translate(215.224 168.994) scale(2.46316 2.60144)">
<stop offset="0.09" stop-color="#00FFFF"/>
<stop offset="0.91"/>
</radialGradient>
<radialGradient id="paint55_radial_11_941" cx="0" cy="0" r="1" gradientUnits="userSpaceOnUse" gradientTransform="translate(190.242 147.273) scale(2.46316 2.60144)">
<stop offset="0.09" stop-color="#00FFFF"/>
<stop offset="0.91"/>
</radialGradient>
<radialGradient id="paint56_radial_11_941" cx="0" cy="0" r="1" gradientUnits="userSpaceOnUse" gradientTransform="translate(183.781 172.903) scale(2.46316 2.60144)">
<stop offset="0.09" stop-color="#00FFFF"/>
<stop offset="0.91"/>
</radialGradient>
<radialGradient id="paint57_radial_11_941" cx="0" cy="0" r="1" gradientUnits="userSpaceOnUse" gradientTransform="translate(181.735 189.024) scale(2.46316 2.60144)">
<stop offset="0.09" stop-color="#00FFFF"/>
<stop offset="0.91"/>
</radialGradient>
<radialGradient id="paint58_radial_11_941" cx="0" cy="0" r="1" gradientUnits="userSpaceOnUse" gradientTransform="translate(164.574 208.67) scale(2.46316 2.60144)">
<stop offset="0.09" stop-color="#00FFFF"/>
<stop offset="0.91"/>
</radialGradient>
<radialGradient id="paint59_radial_11_941" cx="0" cy="0" r="1" gradientUnits="userSpaceOnUse" gradientTransform="translate(201.656 187.09) scale(2.46316 2.60145)">
<stop offset="0.09" stop-color="#00FFFF"/>
<stop offset="0.91"/>
</radialGradient>
<radialGradient id="paint60_radial_11_941" cx="0" cy="0" r="1" gradientUnits="userSpaceOnUse" gradientTransform="translate(175.086 216.047) scale(2.46316 2.60144)">
<stop offset="0.09" stop-color="#00FFFF"/>
<stop offset="0.91"/>
</radialGradient>
<radialGradient id="paint61_radial_11_941" cx="0" cy="0" r="1" gradientUnits="userSpaceOnUse" gradientTransform="translate(213.891 213.403) scale(2.46316 2.60144)">
<stop offset="0.09" stop-color="#00FFFF"/>
<stop offset="0.91"/>
</radialGradient>
<radialGradient id="paint62_radial_11_941" cx="0" cy="0" r="1" gradientUnits="userSpaceOnUse" gradientTransform="translate(236.679 238.153) scale(2.46316 2.60144)">
<stop offset="0.09" stop-color="#00FFFF"/>
<stop offset="0.91"/>
</radialGradient>
<radialGradient id="paint63_radial_11_941" cx="0" cy="0" r="1" gradientUnits="userSpaceOnUse" gradientTransform="translate(192.382 225.003) scale(2.46316 2.60144)">
<stop offset="0.09" stop-color="#00FFFF"/>
<stop offset="0.91"/>
</radialGradient>
<radialGradient id="paint64_radial_11_941" cx="0" cy="0" r="1" gradientUnits="userSpaceOnUse" gradientTransform="translate(223.905 223.681) scale(2.46316 2.60144)">
<stop offset="0.09" stop-color="#00FFFF"/>
<stop offset="0.91"/>
</radialGradient>
<radialGradient id="paint65_radial_11_941" cx="0" cy="0" r="1" gradientUnits="userSpaceOnUse" gradientTransform="translate(217.445 190.104) scale(2.46316 2.60144)">
<stop offset="0.09" stop-color="#00FFFF"/>
<stop offset="0.91"/>
</radialGradient>
<radialGradient id="paint66_radial_11_941" cx="0" cy="0" r="1" gradientUnits="userSpaceOnUse" gradientTransform="translate(234.054 184.304) scale(2.46316 2.60144)">
<stop offset="0.09" stop-color="#00FFFF"/>
<stop offset="0.91"/>
</radialGradient>
<radialGradient id="paint67_radial_11_941" cx="0" cy="0" r="1" gradientUnits="userSpaceOnUse" gradientTransform="translate(241.08 223.155) scale(2.46316 2.60144)">
<stop offset="0.09" stop-color="#00FFFF"/>
<stop offset="0.91"/>
</radialGradient>
<radialGradient id="paint68_radial_11_941" cx="0" cy="0" r="1" gradientUnits="userSpaceOnUse" gradientTransform="translate(206.932 233.277) scale(2.46316 2.60144)">
<stop offset="0.09" stop-color="#00FFFF"/>
<stop offset="0.91"/>
</radialGradient>
<radialGradient id="paint69_radial_11_941" cx="0" cy="0" r="1" gradientUnits="userSpaceOnUse" gradientTransform="translate(190.242 245.53) scale(2.46316 2.60144)">
<stop offset="0.09" stop-color="#00FFFF"/>
<stop offset="0.91"/>
</radialGradient>
<radialGradient id="paint70_radial_11_941" cx="0" cy="0" r="1" gradientUnits="userSpaceOnUse" gradientTransform="translate(191.925 200.425) scale(2.46316 2.60144)">
<stop offset="0.09" stop-color="#00FFFF"/>
<stop offset="0.91"/>
</radialGradient>
<radialGradient id="paint71_radial_11_941" cx="0" cy="0" r="1" gradientUnits="userSpaceOnUse" gradientTransform="translate(174.844 187.716) scale(2.46316 2.60144)">
<stop offset="0.09" stop-color="#00FFFF"/>
<stop offset="0.91"/>
</radialGradient>
<radialGradient id="paint72_radial_11_941" cx="0" cy="0" r="1" gradientUnits="userSpaceOnUse" gradientTransform="translate(241.955 208.67) scale(2.46316 2.60144)">
<stop offset="0.09" stop-color="#00FFFF"/>
<stop offset="0.91"/>
</radialGradient>
<radialGradient id="paint73_radial_11_941" cx="0" cy="0" r="1" gradientUnits="userSpaceOnUse" gradientTransform="translate(245.522 189.024) scale(2.46316 2.60144)">
<stop offset="0.09" stop-color="#00FFFF"/>
<stop offset="0.91"/>
</radialGradient>
<radialGradient id="paint74_radial_11_941" cx="0" cy="0" r="1" gradientUnits="userSpaceOnUse" gradientTransform="translate(205.142 146.903) scale(2.46316 2.60144)">
<stop offset="0.09" stop-color="#00FFFF"/>
<stop offset="0.91"/>
</radialGradient>
<radialGradient id="paint75_radial_11_941" cx="0" cy="0" r="1" gradientUnits="userSpaceOnUse" gradientTransform="translate(206.932 120.562) scale(2.46316 2.60144)">
<stop offset="0.09" stop-color="#00FFFF"/>
<stop offset="0.91"/>
</radialGradient>
<radialGradient id="paint76_radial_11_941" cx="0" cy="0" r="1" gradientUnits="userSpaceOnUse" gradientTransform="translate(223.3 161.318) scale(2.46316 2.60144)">
<stop offset="0.09" stop-color="#00FFFF"/>
<stop offset="0.91"/>
</radialGradient>
<radialGradient id="paint77_radial_11_941" cx="0" cy="0" r="1" gradientUnits="userSpaceOnUse" gradientTransform="translate(230.487 158.944) scale(2.46316 2.60144)">
<stop offset="0.09" stop-color="#00FFFF"/>
<stop offset="0.91"/>
</radialGradient>
<radialGradient id="paint78_radial_11_941" cx="0" cy="0" r="1" gradientUnits="userSpaceOnUse" gradientTransform="translate(130.453 182.044) scale(3.41881 3.61075)">
<stop offset="0.09" stop-color="#00FFFF"/>
<stop offset="0.91"/>
</radialGradient>
<radialGradient id="paint79_radial_11_941" cx="0" cy="0" r="1" gradientUnits="userSpaceOnUse" gradientTransform="translate(216.529 434.313) scale(3.41881 3.61075)">
<stop offset="0.09" stop-color="#00FFFF"/>
<stop offset="0.91"/>
</radialGradient>
<radialGradient id="paint80_radial_11_941" cx="0" cy="0" r="1" gradientUnits="userSpaceOnUse" gradientTransform="translate(383.284 130.712) scale(3.41882 3.61075)">
<stop offset="0.09" stop-color="#00FFFF"/>
<stop offset="0.91"/>
</radialGradient>
<radialGradient id="paint81_radial_11_941" cx="0" cy="0" r="1" gradientUnits="userSpaceOnUse" gradientTransform="translate(108.002 108.322) scale(3.41881 3.61075)">
<stop offset="0.09" stop-color="#00FFFF"/>
<stop offset="0.91"/>
</radialGradient>
<radialGradient id="paint82_radial_11_941" cx="0" cy="0" r="1" gradientUnits="userSpaceOnUse" gradientTransform="translate(249.708 375.56) scale(3.41881 3.61073)">
<stop offset="0.09" stop-color="#00FFFF"/>
<stop offset="0.91"/>
</radialGradient>
<radialGradient id="paint83_radial_11_941" cx="0" cy="0" r="1" gradientUnits="userSpaceOnUse" gradientTransform="translate(458.242 400.963) scale(3.41882 3.61073)">
<stop offset="0.09" stop-color="#00FFFF"/>
<stop offset="0.91"/>
</radialGradient>
<radialGradient id="paint84_radial_11_941" cx="0" cy="0" r="1" gradientUnits="userSpaceOnUse" gradientTransform="translate(91.4061 263.115) scale(3.41882 3.61074)">
<stop offset="0.09" stop-color="#00FFFF"/>
<stop offset="0.91"/>
</radialGradient>
<radialGradient id="paint85_radial_11_941" cx="0" cy="0" r="1" gradientUnits="userSpaceOnUse" gradientTransform="translate(340.226 36.335) scale(2.0459 2.16076)">
<stop offset="0.09" stop-color="#00FFFF"/>
<stop offset="0.91"/>
</radialGradient>
<radialGradient id="paint86_radial_11_941" cx="0" cy="0" r="1" gradientUnits="userSpaceOnUse" gradientTransform="translate(328.179 6.32591) scale(5.59932 5.91366)">
<stop offset="0.09" stop-color="#00FFFF"/>
<stop offset="0.91"/>
</radialGradient>
<radialGradient id="paint87_radial_11_941" cx="0" cy="0" r="1" gradientUnits="userSpaceOnUse" gradientTransform="translate(282.16 77.1902) scale(2.0459 2.16076)">
<stop offset="0.09" stop-color="#00FFFF"/>
<stop offset="0.91"/>
</radialGradient>
<radialGradient id="paint88_radial_11_941" cx="0" cy="0" r="1" gradientUnits="userSpaceOnUse" gradientTransform="translate(341.652 81.8245) scale(2.04591 2.16076)">
<stop offset="0.09" stop-color="#00FFFF"/>
<stop offset="0.91"/>
</radialGradient>
<radialGradient id="paint89_radial_11_941" cx="0" cy="0" r="1" gradientUnits="userSpaceOnUse" gradientTransform="translate(255.348 51.0764) scale(2.0459 2.16076)">
<stop offset="0.09" stop-color="#00FFFF"/>
<stop offset="0.91"/>
</radialGradient>
<radialGradient id="paint90_radial_11_941" cx="0" cy="0" r="1" gradientUnits="userSpaceOnUse" gradientTransform="translate(294.368 129.631) scale(0.672995 0.710776)">
<stop offset="0.09" stop-color="#00FFFF"/>
<stop offset="0.91"/>
</radialGradient>
<radialGradient id="paint91_radial_11_941" cx="0" cy="0" r="1" gradientUnits="userSpaceOnUse" gradientTransform="translate(232.547 81.0427) scale(5.59931 5.91366)">
<stop offset="0.09" stop-color="#00FFFF"/>
<stop offset="0.91"/>
</radialGradient>
<radialGradient id="paint92_radial_11_941" cx="0" cy="0" r="1" gradientUnits="userSpaceOnUse" gradientTransform="translate(452.252 225.373) scale(5.59933 5.91366)">
<stop offset="0.09" stop-color="#00FFFF"/>
<stop offset="0.91"/>
</radialGradient>
<radialGradient id="paint93_radial_11_941" cx="0" cy="0" r="1" gradientUnits="userSpaceOnUse" gradientTransform="translate(245.522 445.799) scale(0.672994 0.710776)">
<stop offset="0.09" stop-color="#00FFFF"/>
<stop offset="0.91"/>
</radialGradient>
<radialGradient id="paint94_radial_11_941" cx="0" cy="0" r="1" gradientUnits="userSpaceOnUse" gradientTransform="translate(197.43 298.597) scale(0.672995 0.710776)">
<stop offset="0.09" stop-color="#00FFFF"/>
<stop offset="0.91"/>
</radialGradient>
<radialGradient id="paint95_radial_11_941" cx="0" cy="0" r="1" gradientUnits="userSpaceOnUse" gradientTransform="translate(35.8302 353.796) scale(5.59931 5.91366)">
<stop offset="0.09" stop-color="#00FFFF"/>
<stop offset="0.91"/>
</radialGradient>
<radialGradient id="paint96_radial_11_941" cx="0" cy="0" r="1" gradientUnits="userSpaceOnUse" gradientTransform="translate(413.986 79.6353) scale(1.88438 1.99017)">
<stop offset="0.09" stop-color="#00FFFF"/>
<stop offset="0.91"/>
</radialGradient>
<radialGradient id="paint97_radial_11_941" cx="0" cy="0" r="1" gradientUnits="userSpaceOnUse" gradientTransform="translate(418.024 181.12) scale(1.88438 1.99017)">
<stop offset="0.09" stop-color="#00FFFF"/>
<stop offset="0.91"/>
</radialGradient>
<radialGradient id="paint98_radial_11_941" cx="0" cy="0" r="1" gradientUnits="userSpaceOnUse" gradientTransform="translate(483.802 140.862) scale(0.672996 0.710776)">
<stop offset="0.09" stop-color="#00FFFF"/>
<stop offset="0.91"/>
</radialGradient>
<clipPath id="clip0_11_941">
<rect width="502" height="515" fill="white"/>
</clipPath>
</defs>
</svg>
