<svg width="246" height="196" viewBox="0 0 246 196" fill="none" xmlns="http://www.w3.org/2000/svg">
<path opacity="0.2" d="M9.62129 66.9727C9.62129 66.9727 -2.48392 141.339 36.1146 171.113C74.7132 200.887 122.665 185.513 122.665 185.513C122.665 185.513 7.31774 196.237 9.62129 66.9778V66.9727Z" fill="white"/>
<path opacity="0.3" d="M9.6213 66.9727C9.6213 66.9727 -16.8205 213.9 122.665 185.508C122.665 185.508 4.40611 212.993 9.6213 66.9727Z" fill="white"/>
<path opacity="0.2" d="M234.936 66.9727C234.936 66.9727 247.041 141.339 208.442 171.113C169.844 200.887 121.892 185.513 121.892 185.513C121.892 185.513 237.239 196.237 234.936 66.9778V66.9727Z" fill="white"/>
<path opacity="0.3" d="M234.936 66.9727C234.936 66.9727 261.378 213.9 121.892 185.508C121.892 185.508 240.151 212.993 234.936 66.9727Z" fill="white"/>
<path opacity="0.2" d="M123.144 18.2251C123.144 18.2251 76.2746 53.5005 72.1983 94.1844C72.1983 94.1844 69.1373 111.951 75.7954 130.872C75.7954 130.872 73.9402 67.091 123.144 18.2251Z" fill="white"/>
<path opacity="0.2" d="M123.144 18.2251C123.144 18.2251 193.467 63.6831 167.875 129.352C167.875 129.352 190.205 92.6841 123.144 18.2251Z" fill="white"/>
<path opacity="0.2" d="M75.6202 129.434C75.6202 129.434 53.6566 76.9492 116.636 23.4482C116.636 23.4482 60.8301 75.851 75.6202 129.434Z" fill="white"/>
<path opacity="0.2" d="M123.144 18.2251C123.144 18.2251 181.274 57.357 173.163 112.827C173.163 112.827 173.941 60.2288 123.144 18.2251Z" fill="white"/>
<path opacity="0.3" d="M122.665 185.508C122.665 185.508 94.3938 168.298 79.346 140.086C79.346 140.086 106.112 173.041 123.144 170.922C140.171 168.803 162.815 140.839 162.815 140.839C162.815 140.839 144.16 174.82 122.665 185.508Z" fill="white"/>
<path d="M61.8247 78.3668L66.8079 74.6392L63.6335 68.3286L69.6371 72.5615L73.1208 70.2001L72.6364 74.6392L78.0577 72.1026L71.3635 78.3668L74.5276 81.7593L71.2089 82.2542L72.6364 88.2142L69.9412 88.8845L70.8121 98.8453L68.3282 92.6069L65.9783 92.8595L66.3287 87.1315L60.7734 86.4871L65.1176 83.7545L61.8247 78.3668Z" stroke="white" stroke-width="0.5" stroke-miterlimit="10"/>
<path d="M65.1177 83.7546L66.808 74.6393L69.6372 72.5615L72.6364 74.6393L71.3635 78.3669L71.2089 82.2543L69.9412 88.8845L68.3282 92.607L66.3287 87.1316L65.1177 83.7546Z" stroke="white" stroke-width="0.5" stroke-miterlimit="10"/>
<path d="M68.5653 76.5261L66.808 74.6392H72.6364L68.5653 76.5261ZM68.5653 76.5261L71.3635 78.3667L65.1177 83.7545L71.2089 82.2542L66.3287 87.1315L69.7299 88.8844" stroke="white" stroke-width="0.5" stroke-miterlimit="10"/>
<path d="M70.3638 115.983L72.9714 121.376L69.1115 121.989L73.8423 126.011L68.2303 127.238L75.7954 130.873L74.6926 135.554L77.7176 134.703" stroke="white" stroke-width="0.5" stroke-miterlimit="10"/>
<path d="M182.702 78.3668L177.718 74.6392L180.898 68.3286L174.894 72.5615L171.405 70.2001L171.89 74.6392L167.808 71.9376L173.163 78.3668L170.004 81.7593L173.322 82.2542L171.89 88.2142L174.585 88.8845L173.714 98.8453L176.203 92.6069L178.553 92.8595L178.203 87.1315L183.758 86.4871L179.414 83.7545L182.702 78.3668Z" stroke="white" stroke-width="0.5" stroke-miterlimit="10"/>
<path d="M179.414 83.7546L177.718 74.6393L174.894 72.5615L171.89 74.6393L173.163 78.3669L173.322 82.2543L174.585 88.8845L176.203 92.607L178.203 87.1316L179.414 83.7546Z" stroke="white" stroke-width="0.5" stroke-miterlimit="10"/>
<path d="M175.966 76.5261L177.718 74.6392H171.89L175.966 76.5261ZM175.966 76.5261L173.163 78.3667L179.414 83.7545L173.322 82.2542L178.203 87.1315L174.801 88.8844" stroke="white" stroke-width="0.5" stroke-miterlimit="10"/>
<path d="M174.168 115.983L171.555 121.376L175.42 121.989L170.684 126.011L176.296 127.238L168.736 130.873L169.839 135.554L166.814 134.703" stroke="white" stroke-width="0.5" stroke-miterlimit="10"/>
<path d="M114.167 186.982L113.039 182.579L117.79 180.393L114.167 186.982Z" stroke="white" stroke-width="0.5" stroke-miterlimit="10"/>
<path d="M110.761 173.851L117.79 180.393L113.039 182.579L110.761 173.851Z" stroke="white" stroke-width="0.5" stroke-miterlimit="10"/>
<path d="M99.5162 180.924L101.33 185.833L104.433 183.502L111.065 181.796L114.167 186.982L108.035 184.513L103.649 188.266L101.33 185.833L97.2745 185.018L103.345 188.493L92.9251 185.714" stroke="white" stroke-width="0.5" stroke-miterlimit="10"/>
<path d="M104.432 183.502L108.035 184.513L111.065 181.796" stroke="white" stroke-width="0.5" stroke-miterlimit="10"/>
<path d="M87.4316 188.833L92.9251 185.714L91.343 181.198" stroke="white" stroke-width="0.5" stroke-miterlimit="10"/>
<path d="M110.761 173.851L107.416 177.975L102.773 175.037L99.5162 180.924L93.5023 176.408L91.343 181.198L86.839 177.398L85.8805 182.693L82.8091 177.996L74.3937 180.187L64.6436 179.357L62.273 173.645L56.0478 183.018" stroke="white" stroke-width="0.5" stroke-miterlimit="10"/>
<path d="M29.6421 154.63L36.1147 157.729L28.4568 157.435L29.6421 154.63ZM29.6421 154.63L34.0327 151.403" stroke="white" stroke-width="0.5" stroke-miterlimit="10"/>
<path d="M85.8805 182.693L87.4316 188.833L91.343 181.198L97.5476 185.193L99.5162 180.924L104.433 183.502L107.416 177.975L111.065 181.796L112.188 179.311L107.416 177.975L99.5162 180.924L91.343 181.198L85.8805 182.693ZM85.8805 182.693L80.3973 188.441L74.3937 180.187L67.4315 186.462L64.6435 179.357L56.0478 183.018L53.3165 174.475L46.5192 178.491L45.7617 169.87L39.8869 174.145L38.1399 166.411L38.1038 166.267L30.9201 166.091L28.4568 157.435L21.2266 152.738L21.5925 147.763L29.338 149.423L32.5691 146.314L34.0327 151.403L39.7838 153.883L42.4687 157.662L46.3234 152.81L50.6574 154.604L53.502 151.635L56.0581 153.016L58.8718 150.753L61.0001 154.053L61.9638 150.248L63.1078 158.219L61.0001 154.053L56.0581 153.016L50.6574 154.604L42.4687 157.662L36.1146 157.729L38.1038 166.267" stroke="white" stroke-width="0.5" stroke-miterlimit="10"/>
<path d="M39.7838 153.883L36.1147 157.729L34.0327 151.403L29.338 149.423L29.6421 154.63L21.5925 147.763L28.4568 157.435L38.1038 166.267L45.7617 169.87L53.3165 174.474L62.273 173.644L56.9805 169.803L53.3165 174.474L49.9668 166.937L45.7617 169.87L43.6437 163.137L38.1399 166.411L42.4687 157.662L45.9782 159.992L50.6574 154.604L54.677 156.538L56.0581 153.016L58.4956 156.192L61.0001 154.053L60.4384 158.023L63.1079 158.219" stroke="white" stroke-width="0.5" stroke-miterlimit="10"/>
<path d="M106.226 168.267L96.6613 171.02L90.8174 172.036L84.4015 172.371L83.4945 161.575L80.5159 167.045L84.4015 172.371L75.1564 173.505L62.273 173.644L74.3937 180.187L75.0327 173.531L82.8091 177.996L84.4272 172.608L86.839 177.398L90.8174 172.036L93.5023 176.408L96.6613 171.02L102.773 175.037L106.422 168.473" stroke="white" stroke-width="0.5" stroke-miterlimit="10"/>
<path d="M83.4945 161.575L87.3028 165.359L94.0228 167.339L101.835 164.488L96.6613 171.02L94.0228 167.339L90.8174 172.036L87.3028 165.359L84.4015 172.371" stroke="white" stroke-width="0.5" stroke-miterlimit="10"/>
<path d="M87.3028 165.359L96.9499 159.095L94.0228 167.339" stroke="white" stroke-width="0.5" stroke-miterlimit="10"/>
<path d="M67.2563 159.992L61.2629 165.865L69.364 169.113" stroke="white" stroke-width="0.5" stroke-miterlimit="10"/>
<path d="M63.1079 158.218L61.263 165.864L54.3678 165.359L56.9805 169.803L61.263 165.864L62.273 173.644L69.364 169.113L67.2563 159.992L63.1079 158.218ZM63.1079 158.218L66.8234 155.336L67.2563 159.992L74.3731 163.261L80.5159 167.045L75.1564 173.505L74.136 163.003L69.364 169.113L75.2388 173.572" stroke="white" stroke-width="0.5" stroke-miterlimit="10"/>
<path d="M56.9806 169.804L49.9669 166.937L54.3678 165.359L60.4385 158.023L61.263 165.865" stroke="white" stroke-width="0.5" stroke-miterlimit="10"/>
<path d="M43.6437 163.137L46.0915 159.899L51.2706 161.462L60.4384 158.023L58.4956 156.192L54.677 156.538L45.9781 159.992L40.4744 161.699L43.6437 163.137ZM43.6437 163.137L49.9668 166.937L51.2706 161.462L54.3678 165.359" stroke="white" stroke-width="0.5" stroke-miterlimit="10"/>
<path d="M51.2706 161.462L54.677 156.538" stroke="white" stroke-width="0.5" stroke-miterlimit="10"/>
<path d="M21.5926 147.763L15.1973 139.673L20.2578 134.368L12.1825 130.089L14.8365 127.31L11.6363 123.959L17.0473 124.825L20.4897 121.711L22.5356 123.861L26.5758 120.51L27.1582 124.809L28.3486 120.154L30.5645 125.572L34.311 126.067L35.4602 129.826L39.8612 130.986L39.2273 135.853L42.0513 133.048L45.9782 136.714L48.9723 131.775L53.6206 133.904L55.9396 130.486L59.5521 132.017L62.0927 129.352L64.2004 131.563L68.2355 128.434L69.1682 133.074L74.6926 135.554L74.3267 138.905L79.3461 140.086L78.6452 144.138L82.8194 144.551L84.1335 149.191L87.5141 148.649L86.6226 151.8L90.7195 152.568L90.5546 155.043L95.3781 156.893L92.3737 157.832L93.3116 159.518L89.5909 157.899L86.5247 161.018L83.6955 158.554L80.1809 162.188L76.6509 160.502L74.136 163.003L73.5949 158.806L66.8234 155.336L62.9121 148.582L61.9638 150.248L58.9337 147.304L58.8718 150.753L55.1717 147.938L53.5021 151.635L48.2199 148.232L46.3234 152.81L40.9743 148.918L39.5262 153.661L38.6037 148.18L32.5692 146.314L26.4728 142.648L21.5926 147.763Z" stroke="white" stroke-width="0.5" stroke-miterlimit="10"/>
<path d="M55.9396 130.486L56.3209 138.163L53.6205 133.904L45.9781 136.714L39.2273 135.853L35.4602 129.826L30.5645 125.573L27.1581 124.809L22.5356 123.861L17.0473 124.825L14.8365 127.31L20.2578 134.368L25.1844 136.601L15.1972 139.673L26.4727 142.648L33.7235 142.313L25.1844 136.601L26.4624 142.726" stroke="white" stroke-width="0.5" stroke-miterlimit="10"/>
<path d="M66.8234 155.336L71.3429 153.362L73.5949 158.806L76.6509 160.502L83.6955 158.554L89.5909 157.899L92.3737 157.832L90.5546 155.043L86.6226 151.8L84.1335 149.191L78.6452 144.138L74.3267 138.905L69.1682 133.074L64.2004 131.563L59.5521 132.017L62.7111 136.621L64.288 131.496" stroke="white" stroke-width="0.5" stroke-miterlimit="10"/>
<path d="M73.5949 158.806L75.7954 154.852L71.3429 153.362L62.912 148.583L58.9337 147.304L55.1717 147.938L48.2199 148.232L40.9743 148.918L38.6037 148.18L33.7235 142.313L32.5692 146.314" stroke="white" stroke-width="0.5" stroke-miterlimit="10"/>
<path d="M40.9742 148.918L44.7619 142.829L48.2198 148.232L51.6777 143.035L55.1717 147.938L57.8669 143.999L58.9336 147.304L63.0872 145.211L62.912 148.582L72.1984 149.562L71.3429 153.362" stroke="white" stroke-width="0.5" stroke-miterlimit="10"/>
<path d="M62.912 148.583L69.7918 143.448L72.1984 149.562L75.7954 154.852L76.6509 160.503" stroke="white" stroke-width="0.5" stroke-miterlimit="10"/>
<path d="M63.0873 145.211L69.7918 143.447L65.6433 139.096L63.0873 145.211Z" stroke="white" stroke-width="0.5" stroke-miterlimit="10"/>
<path d="M84.1335 149.191L80.3458 150.552L86.6226 151.8L85.6538 154.274L75.7954 154.852L83.6955 158.554L85.6022 154.156L89.5909 157.899L90.5546 155.043L85.6022 154.156" stroke="white" stroke-width="0.5" stroke-miterlimit="10"/>
<path d="M85.6022 154.156L80.3458 150.552L75.7954 154.852" stroke="white" stroke-width="0.5" stroke-miterlimit="10"/>
<path d="M65.6433 139.096L62.7111 136.621L69.1682 133.074L65.6433 139.096ZM65.6433 139.096L74.3267 138.905L73.6258 142.586L78.6452 144.138L80.3458 150.552L72.1984 149.562L78.6761 143.953L69.6268 143.494L73.7134 142.566" stroke="white" stroke-width="0.5" stroke-miterlimit="10"/>
<path d="M69.766 143.422L74.3267 138.905" stroke="white" stroke-width="0.5" stroke-miterlimit="10"/>
<path d="M62.7832 136.549L63.0151 145.133L57.8669 143.999L62.7832 136.549Z" stroke="white" stroke-width="0.5" stroke-miterlimit="10"/>
<path d="M59.5521 132.017L56.3209 138.163L62.7111 136.621L59.5521 132.017Z" stroke="white" stroke-width="0.5" stroke-miterlimit="10"/>
<path d="M22.5356 123.861L25.6224 129.97L27.1581 124.809L29.3483 129.774L30.5645 125.573" stroke="white" stroke-width="0.5" stroke-miterlimit="10"/>
<path d="M25.1844 136.601L29.8739 133.708L25.6224 129.97L29.3483 129.774L35.4602 129.826L29.7606 133.703L39.2273 135.853" stroke="white" stroke-width="0.5" stroke-miterlimit="10"/>
<path d="M14.8365 127.31L18.9643 129.414L19.1035 129.486L17.0473 124.825L25.6224 129.97L19.1756 129.491L20.2578 134.368L25.6224 129.97L25.1844 136.601L39.2273 135.853L33.7235 142.313L44.762 142.829L39.0417 135.549" stroke="white" stroke-width="0.5" stroke-miterlimit="10"/>
<path d="M45.9782 136.714L44.762 142.829L51.6777 143.035L45.9782 136.714Z" stroke="white" stroke-width="0.5" stroke-miterlimit="10"/>
<path d="M53.6205 133.904L51.6777 143.035L56.3209 138.163L57.8669 143.999L51.7653 143.122" stroke="white" stroke-width="0.5" stroke-miterlimit="10"/>
<path d="M67.6686 128.661L61.5 126.165L64.2158 124.222L58.5626 123.52L58.2895 118.004L54.1668 117.767L53.2804 112.755L46.8388 113.297L48.4724 107.713L43.8704 109.497L44.1951 104.047L38.9335 103.49L40.1755 99.835L34.6511 99.8299L34.0688 92.6067L31.42 97.9635L23.4013 95.3341L35.9652 104.248L30.9407 103.717L29.7297 108.852L25.2514 104.79L21.6131 109.765L18.1501 106.13L14.754 110.745L9.09052 107.842L11.8836 112.977L9.2915 115.694L14.012 118.566L10.9148 123.608L16.2073 119.169L20.4897 121.711L24.1125 117.921L26.5758 120.509L28.127 117.993L28.2352 120.607L33.136 119.272L34.311 126.067L39.9024 125.165L39.8611 130.986L42.9841 128.393L42.0513 133.048L46.21 128.527L48.9722 131.775L51.7447 126.939L56.3621 130.666L58.1658 126.49L62.0926 129.352L67.6686 128.661Z" stroke="white" stroke-width="0.5" stroke-miterlimit="10"/>
<path d="M38.9335 103.49L43.8704 109.497L46.8388 113.297L54.1668 117.767L58.5626 123.52L61.5 126.165L62.0927 129.352" stroke="white" stroke-width="0.5" stroke-miterlimit="10"/>
<path d="M61.5 126.165L58.1658 126.49L51.7447 126.939L46.21 128.527L42.984 128.393L39.9023 125.165L33.136 119.272L28.1269 117.994L24.1125 117.921L16.2073 119.169L14.0119 118.566L11.8836 112.977L14.754 110.745L21.6131 109.765L29.7296 108.853L35.9652 104.248L31.4199 97.9636L34.6511 99.83L35.9652 104.248L38.9335 103.491L34.6511 99.83" stroke="white" stroke-width="0.5" stroke-miterlimit="10"/>
<path d="M54.1668 117.767L48.7455 123.5L48.3848 118.653L44.1436 121.664L48.8125 123.567" stroke="white" stroke-width="0.5" stroke-miterlimit="10"/>
<path d="M42.9841 128.393L44.2673 124.454L46.2101 128.527L48.7455 123.5L51.7448 126.939" stroke="white" stroke-width="0.5" stroke-miterlimit="10"/>
<path d="M44.1436 121.665L44.2672 124.454L48.7455 123.5L44.1436 121.665Z" stroke="white" stroke-width="0.5" stroke-miterlimit="10"/>
<path d="M33.136 119.272L37.7689 115.9L39.9024 125.165L44.2673 124.454" stroke="white" stroke-width="0.5" stroke-miterlimit="10"/>
<path d="M44.1435 121.664L37.7689 115.9L44.3703 115.204L44.1435 121.664Z" stroke="white" stroke-width="0.5" stroke-miterlimit="10"/>
<path d="M48.3848 118.653L44.3703 115.204L46.8388 113.297L48.3848 118.653ZM48.3848 118.653L54.1668 117.767L51.7447 126.939L58.5626 123.52L58.1658 126.49" stroke="white" stroke-width="0.5" stroke-miterlimit="10"/>
<path d="M38.9335 103.49L36.5063 108.177L43.8704 109.497L37.7689 115.9L43.8704 109.497L44.3703 115.204" stroke="white" stroke-width="0.5" stroke-miterlimit="10"/>
<path d="M35.9652 104.249L36.5063 108.177L37.7689 115.9L28.127 117.994L25.4266 113.988L24.1125 117.922L19.8095 115.385L16.2073 119.169L16.501 115.612L14.012 118.566" stroke="white" stroke-width="0.5" stroke-miterlimit="10"/>
<path d="M11.8836 112.977L16.501 115.612L14.754 110.745L19.5621 112.951L21.6131 109.765L23.6796 112.781L29.7296 108.852L36.5063 108.177L28.1269 117.993L29.7296 108.852L25.4266 113.987L19.8094 115.385L16.501 115.612L19.5621 112.951L19.6806 115.251L23.6796 112.781L19.5621 112.951" stroke="white" stroke-width="0.5" stroke-miterlimit="10"/>
<path d="M9.09052 107.842L12.5587 101.165L18.1501 106.13L19.1035 97.8038L25.2514 104.79L23.0355 95.427L28.8484 87.1314L21.608 86.3374L19.5776 77.4129L12.6463 76.3869L10.3119 67.6943" stroke="white" stroke-width="0.5" stroke-miterlimit="10"/>
<path d="M8.16807 98.6752L12.5587 101.165L19.1035 97.8038L23.0355 95.427L21.608 86.3375L12.6463 76.387L8.74009 78.1863L11.7703 83.7545L7.76611 88.5957L9.96659 91.6324L8.16807 98.6752Z" stroke="white" stroke-width="0.5" stroke-miterlimit="10"/>
<path d="M21.608 86.3375L18.1398 91.6324L12.6464 76.387L11.7703 83.7545L9.96661 91.6324L12.5587 101.165L15.3725 95.6384L19.1035 97.8038L18.1398 91.6324L23.0355 95.427" stroke="white" stroke-width="0.5" stroke-miterlimit="10"/>
<path d="M18.1398 91.6323H9.96661L15.3725 95.6383L18.1398 91.6323Z" stroke="white" stroke-width="0.5" stroke-miterlimit="10"/>
<path d="M11.7703 83.7544L18.1398 91.6323" stroke="white" stroke-width="0.5" stroke-miterlimit="10"/>
<path d="M68.4518 127.841L66.071 121.376L64.2158 124.221L63.551 118.292L58.2894 118.004L58.0627 113.683L53.2804 112.755L53.8009 105.996L48.4723 107.713L50.1781 102.887L44.9784 103.227L44.4476 97.7056L40.9639 99.01L40.9536 93.215L34.0687 92.6066L39.1757 89.8328L36.6712 81.4238L45.169 94.5967L44.664 89.3276L49.5648 88.0593L45.6895 83.3624L50.4306 79.5471L46.9675 75.9124L51.3633 72.3549L48.6012 66.4155L53.4968 69.344L56.089 66.6269L58.8254 71.5764L63.6335 68.3283L59.3974 73.8759L61.8246 78.3665L58.2121 82.1663L60.6754 84.7493L58.2791 86.3785L60.7733 86.4868L59.4953 91.6322L65.9782 92.8592L65.1176 98.7264L70.6678 98.68L68.1942 101.954L72.6363 100.979L68.3281 105.341L71.4202 108.234L66.8079 111.141L70.3637 115.983L66.3802 117.875L69.1115 121.989L68.4518 127.841Z" stroke="white" stroke-width="0.5" stroke-miterlimit="10"/>
<path d="M44.4476 97.7058L50.1781 102.887L53.8009 105.996L58.0627 113.683L63.551 118.293L66.071 121.376L69.1115 121.989" stroke="white" stroke-width="0.5" stroke-miterlimit="10"/>
<path d="M66.071 121.376L66.3802 117.875L66.808 111.142L68.3282 105.342L68.1942 101.954L65.1177 98.7267L59.4954 91.6324L58.2792 86.3787L58.2122 82.1665L59.3974 73.8761L58.8254 71.5767L53.4969 69.3442L51.3634 72.3552L50.4306 79.5474L49.5649 88.0595L45.1691 94.597L39.1757 89.8331L40.9536 93.2152L45.1691 94.597L44.4476 97.7059L40.9536 93.2152" stroke="white" stroke-width="0.5" stroke-miterlimit="10"/>
<path d="M58.0627 113.683L63.5304 107.997L58.9078 107.62L61.7834 103.176L63.5922 108.069" stroke="white" stroke-width="0.5" stroke-miterlimit="10"/>
<path d="M68.1942 101.954L64.4374 103.3L68.3282 105.341L63.5304 107.997L66.8079 111.142" stroke="white" stroke-width="0.5" stroke-miterlimit="10"/>
<path d="M61.7834 103.176L64.4374 103.3L63.5304 107.997L61.7834 103.176Z" stroke="white" stroke-width="0.5" stroke-miterlimit="10"/>
<path d="M59.4953 91.6323L56.2797 96.4839L65.1176 98.7266L64.4374 103.3" stroke="white" stroke-width="0.5" stroke-miterlimit="10"/>
<path d="M61.7834 103.176L56.2796 96.4839L55.6149 103.408L61.7834 103.176Z" stroke="white" stroke-width="0.5" stroke-miterlimit="10"/>
<path d="M58.9079 107.62L55.6149 103.408L53.8009 105.996L58.9079 107.62ZM58.9079 107.62L58.0627 113.683L66.8079 111.142L63.551 118.293L66.3802 117.875" stroke="white" stroke-width="0.5" stroke-miterlimit="10"/>
<path d="M44.4476 97.7058L48.9155 95.1641L50.1781 102.887L56.2796 96.4839L50.1781 102.887L55.6149 103.408" stroke="white" stroke-width="0.5" stroke-miterlimit="10"/>
<path d="M45.1691 94.597L48.9155 95.1641L56.2797 96.484L58.2792 86.3787L54.4605 83.5483L58.2122 82.1665L55.7953 77.6553L59.3974 73.8761L56.0065 74.1855L58.8254 71.5767" stroke="white" stroke-width="0.5" stroke-miterlimit="10"/>
<path d="M53.4968 69.3442L56.0065 74.1855L51.3634 72.3552L53.4711 77.3975L50.4306 79.5474L53.3062 81.7128L49.5648 88.0595L48.9155 95.1641L58.2792 86.3787L49.5648 88.0595L54.4605 83.5483L55.7952 77.6553L56.0065 74.1855L53.4711 77.3975L55.6613 77.5212L53.3062 81.7128L53.4711 77.3975" stroke="white" stroke-width="0.5" stroke-miterlimit="10"/>
<path d="M48.6012 66.4155L42.2265 70.0503L46.9676 75.9124L39.0211 76.9126L45.6895 83.3624L36.7588 81.0372L28.8484 87.1312L28.0857 79.5368L19.5775 77.4127L18.6036 70.1431L10.3118 67.6941L19.9486 77.8045" stroke="white" stroke-width="0.5" stroke-miterlimit="10"/>
<path d="M39.856 65.4464L42.2265 70.0505L39.0211 76.9127L36.7588 81.0373L28.0857 79.537L18.6036 70.1433L20.3145 66.0445L25.6276 69.2256L30.245 65.0288L33.136 67.3334L39.856 65.4464Z" stroke="white" stroke-width="0.5" stroke-miterlimit="10"/>
<path d="M28.0857 79.5371L33.136 75.9023L18.6036 70.1434L25.6276 69.2256L33.136 67.3335L42.2265 70.0506L36.9598 72.9996L39.0211 76.9128L33.136 75.9023L36.7588 81.0374" stroke="white" stroke-width="0.5" stroke-miterlimit="10"/>
<path d="M33.136 75.9023V67.3335L36.9598 72.9996L33.136 75.9023Z" stroke="white" stroke-width="0.5" stroke-miterlimit="10"/>
<path d="M25.6276 69.2256L33.136 75.9022" stroke="white" stroke-width="0.5" stroke-miterlimit="10"/>
<path d="M79.0574 71.6952C71.884 68.5863 64.3086 66.5446 56.594 65.3588C47.251 63.9255 37.7585 63.6729 28.3279 64.2039C21.9945 64.5596 15.6868 65.2711 9.42031 66.2249C9.18326 66.261 8.92044 66.5291 8.87921 66.7663C8.81737 67.1014 8.76584 67.4417 8.7143 67.782C8.5597 68.8028 8.42056 69.8236 8.29173 70.8496C8.10105 72.3603 7.93615 73.8709 7.79185 75.3867C7.60118 77.3716 7.44658 79.3617 7.3229 81.3518C7.17345 83.7286 7.07554 86.1054 7.01885 88.4874C6.95701 91.2044 6.95186 93.9163 7.01885 96.6334C7.08585 99.6031 7.22499 102.573 7.44658 105.532C7.68879 108.724 8.02375 111.91 8.46179 115.086C8.89982 118.262 9.47184 121.597 10.1572 124.82C10.8426 128.042 11.6929 131.373 12.6772 134.59C13.6615 137.807 14.8674 141.169 16.2176 144.36C17.5677 147.551 19.088 150.66 20.8144 153.661C22.5407 156.661 24.5454 159.662 26.7098 162.451C28.8742 165.241 31.3014 167.911 33.9038 170.35C36.5063 172.789 39.5674 175.217 42.68 177.269C45.9369 179.419 49.3845 181.28 52.9609 182.847C56.8929 184.569 60.964 185.951 65.1279 187.008C69.7402 188.184 74.4503 188.962 79.1863 189.436C84.5045 189.967 89.8537 190.102 95.1926 189.926C101.294 189.73 107.375 189.127 113.415 188.251C116.62 187.781 119.815 187.235 123 186.611C123.974 186.42 123.562 184.93 122.588 185.121C116.285 186.348 109.926 187.302 103.531 187.869C97.8981 188.369 92.2294 188.57 86.5762 188.38C81.6444 188.209 76.7178 187.74 71.8531 186.879C67.4933 186.101 63.1851 185.018 59.0006 183.564C55.2078 182.249 51.5231 180.625 48.0034 178.687C44.7516 176.893 41.6236 174.815 38.7325 172.5C35.8415 170.185 33.3318 167.782 30.9355 165.117C28.5392 162.451 26.5346 159.817 24.6175 156.909C22.7005 154.001 21.0256 151.026 19.5209 147.928C18.0161 144.829 16.7535 141.782 15.5992 138.544C14.4448 135.306 13.5018 132.125 12.6721 128.857C11.8424 125.588 11.1879 122.407 10.6313 119.143C10.0748 115.88 9.68313 112.946 9.35332 109.713C9.04412 106.692 8.82768 103.661 8.68854 100.624C8.5597 97.8089 8.50302 94.9939 8.51332 92.1789C8.51848 89.6474 8.58032 87.1211 8.69369 84.5896C8.7916 82.4088 8.92559 80.233 9.1008 78.0573C9.23994 76.3199 9.40485 74.5875 9.60068 72.8552C9.67798 72.1747 9.76043 71.4941 9.84288 70.8084C9.87896 70.5197 9.92018 70.2258 9.95626 69.9371C9.98718 69.7154 9.93049 70.1381 9.95626 69.9164C9.96656 69.8494 9.97687 69.7824 9.98202 69.7102C9.99748 69.5916 10.0129 69.4679 10.0336 69.3493C10.1212 68.7048 10.25 68.0655 10.3273 67.4211C10.3376 67.3437 10.3531 67.2612 10.3685 67.1839L9.82742 67.7253C20.2733 66.1321 30.8531 65.2557 41.4226 65.565C49.905 65.8125 58.3822 66.8385 66.5966 69.0193C70.5802 70.0763 74.4967 71.4013 78.2793 73.0408C79.1811 73.4326 79.9696 72.1025 79.0574 71.7055V71.6952Z" fill="white"/>
<path d="M83.6388 143.468C75.2027 134.951 66.9471 126.264 58.7378 117.53C50.5285 108.796 42.4996 100.17 34.311 91.5553C29.6781 86.6831 25.0143 81.8367 20.299 77.0471C19.5982 76.3356 18.5057 77.4286 19.2065 78.1401C27.5755 86.647 35.7797 95.319 43.9477 104.022C52.1158 112.725 60.2014 121.402 68.4209 130.012C73.0899 134.899 77.7897 139.761 82.5462 144.561C83.2471 145.268 84.3396 144.175 83.6388 143.468Z" fill="white"/>
<path d="M71.6366 99.2219C68.4261 95.4686 65.2155 91.7204 62.005 87.967C61.5412 87.4256 61.0774 86.8843 60.6136 86.3429L60.7115 86.7193C61.7164 81.1511 62.7162 75.5829 63.7211 70.0148C63.8654 69.2156 64.0097 68.4216 64.154 67.6225C64.2416 67.1379 63.4943 66.9265 63.4067 67.4163C62.4534 72.7061 61.5 77.9958 60.5466 83.2856L60.021 86.2037C59.9746 86.4615 59.9128 86.6471 60.0674 86.8895C60.1601 87.0338 60.3044 87.1627 60.4126 87.2916C62.273 89.4673 64.1333 91.643 65.9989 93.8136C67.6995 95.7985 69.3949 97.7835 71.0955 99.7684C71.4202 100.145 71.9664 99.5983 71.6418 99.2219H71.6366Z" fill="white"/>
<path d="M68.4312 128.351C69.3485 122.876 70.271 117.406 71.1883 111.93C71.3171 111.152 71.4511 110.373 71.5799 109.59C71.6624 109.105 70.9152 108.894 70.8327 109.384C69.9154 114.859 68.993 120.329 68.0757 125.805C67.9468 126.583 67.8128 127.362 67.684 128.145C67.6016 128.63 68.3488 128.841 68.4312 128.351Z" fill="white"/>
<path d="M34.4398 92.71C35.2231 89.3433 36.0064 85.9766 36.7846 82.61L37.1247 81.1406L36.4805 81.3107C38.7892 83.7288 41.0979 86.1519 43.4066 88.57L44.3858 89.596C44.5713 89.7919 44.9836 89.7145 45.0299 89.4258C45.4937 86.7139 45.9627 84.0072 46.4265 81.2952L48.663 68.2719C48.8331 67.282 49.0032 66.2921 49.1732 65.3022C49.2557 64.8176 48.5136 64.6062 48.426 65.096C47.9622 67.8079 47.4932 70.5146 47.0294 73.2265L44.7929 86.2499C44.6228 87.2398 44.4528 88.2297 44.2827 89.2196L44.9269 89.0495C42.6182 86.6314 40.3095 84.2082 38.0008 81.7902L37.0216 80.7642C36.8258 80.558 36.4393 80.6508 36.3775 80.9343C35.5942 84.301 34.8109 87.6677 34.0327 91.0344L33.6926 92.5038C33.5792 92.9884 34.3264 93.1947 34.4398 92.71Z" fill="white"/>
<path d="M93.5693 159.327C87.6326 160.353 81.6805 161.322 75.8108 162.689C75.5274 162.756 75.0224 162.972 74.7493 162.905C74.4761 162.838 74.1205 162.457 73.8938 162.276C73.3836 161.864 72.8889 161.431 72.4045 160.987C71.4357 160.1 70.5132 159.162 69.6217 158.203C67.8283 156.28 66.1329 154.264 64.324 152.351C63.8705 151.877 63.4171 151.403 62.9481 150.944C62.541 150.547 62.2369 150.057 61.6391 150.093C60.2271 150.171 58.81 150.361 57.4083 150.562C54.5275 150.975 51.6777 151.552 48.8279 152.13C47.3953 152.418 45.9627 152.707 44.5249 152.975C43.8395 153.104 43.1593 153.223 42.4687 153.341C42.1028 153.403 41.7369 153.46 41.371 153.517C41.0515 153.568 40.5826 153.733 40.2734 153.63C39.7787 153.465 39.2685 152.913 38.8923 152.568C38.4594 152.171 38.0626 151.738 37.6813 151.289C36.9701 150.454 36.3259 149.557 35.6199 148.717C34.8315 147.773 33.9554 146.902 32.9196 146.221C32.631 146.03 32.4918 145.953 32.1466 145.979C31.7498 146.01 31.3529 146.072 30.9613 146.118C30.1677 146.211 29.3792 146.304 28.5856 146.402C25.3029 146.799 22.0254 147.242 18.7633 147.804C18.2738 147.887 18.4799 148.634 18.9695 148.552C21.9275 148.041 24.8958 147.629 27.8744 147.263C28.5856 147.175 29.3019 147.087 30.0182 147.005C30.6882 146.928 31.4818 146.701 32.1517 146.752C32.6825 146.794 33.2288 147.376 33.605 147.716C34.043 148.108 34.4501 148.536 34.8366 148.985C36.2744 150.645 37.4494 152.522 39.2324 153.852C39.6292 154.146 39.9745 154.476 40.4795 154.429C41.2525 154.357 42.0307 154.197 42.7985 154.068C44.2466 153.826 45.6895 153.548 47.1273 153.264C49.9411 152.707 52.7496 152.104 55.5788 151.63C57.063 151.382 58.5574 151.166 60.0519 151.011C60.6033 150.954 61.4845 150.696 61.9329 151.037C62.4688 151.449 62.9378 152.016 63.4016 152.506C66.9626 156.203 70.07 160.564 74.2958 163.56C74.8317 163.941 75.6717 163.514 76.2643 163.38C77.094 163.189 77.9237 163.008 78.7534 162.828C80.4025 162.477 82.0618 162.152 83.7161 161.843C87.0606 161.219 90.4206 160.657 93.7754 160.08C94.265 159.997 94.0588 159.25 93.5693 159.332V159.327Z" fill="white"/>
<path d="M108.426 173.81C99.9388 174.867 91.513 176.351 83.0255 177.403C82.8554 177.424 82.7008 177.506 82.6544 177.687C81.7475 181.043 81.1497 184.472 80.2839 187.838C80.1602 188.323 80.9075 188.524 81.0311 188.045C81.8969 184.678 82.4947 181.249 83.4017 177.893L83.0306 178.177C91.5182 177.125 99.9439 175.64 108.431 174.583C108.921 174.521 108.926 173.748 108.431 173.81H108.426Z" fill="white"/>
<path d="M67.9571 127.877C65.0352 128.419 62.1132 128.955 59.1913 129.496C54.5275 130.357 49.8586 131.218 45.1948 132.079C44.1126 132.28 43.0304 132.476 41.9534 132.677L42.3295 132.775C38.3202 129.001 34.3109 125.227 30.3016 121.453C29.776 120.958 29.2504 120.314 28.6526 119.901C28.2506 119.623 27.4982 119.932 27.055 120.02L17.7069 121.871C15.1508 122.376 12.5999 122.881 10.0438 123.387C9.55428 123.485 9.76041 124.227 10.25 124.134C15.5579 123.082 20.871 122.031 26.179 120.979L28.4567 120.525L28.0806 120.427C30.178 122.402 32.2754 124.377 34.3728 126.346C36.8 128.63 39.1912 130.955 41.6545 133.198C42.0616 133.569 42.613 133.332 43.1129 133.239C44.4939 132.987 45.8802 132.729 47.2613 132.476C51.4252 131.708 55.5942 130.94 59.7582 130.172C61.567 129.836 63.3706 129.506 65.1795 129.171C66.1225 128.996 67.1017 128.888 68.0293 128.645C68.0756 128.635 68.122 128.63 68.1633 128.62C68.6528 128.532 68.4467 127.784 67.9571 127.872V127.877Z" fill="white"/>
<path d="M33.9657 92.2359C30.75 93.0556 27.5343 93.8805 24.3186 94.7003C23.8548 94.8189 23.391 94.9375 22.9324 95.056C22.6438 95.1282 22.5665 95.4943 22.7623 95.7005L29.6884 102.96L30.6676 103.986L30.8376 103.341C28.2455 103.831 25.6585 104.321 23.0664 104.811C18.9385 105.589 14.8056 106.373 10.6777 107.151C9.72952 107.332 8.78131 107.512 7.83309 107.688C7.34353 107.78 7.54966 108.523 8.03923 108.435C10.6314 107.945 13.2183 107.456 15.8105 106.966C19.9383 106.187 24.0713 105.404 28.1991 104.625C29.1473 104.445 30.0955 104.264 31.0438 104.089C31.3426 104.032 31.3993 103.64 31.2138 103.444L24.2877 96.1851L23.3086 95.1592L23.1385 95.8036C26.3542 94.9839 29.5699 94.1589 32.7856 93.3392C33.2494 93.2206 33.7132 93.102 34.1718 92.9834C34.6305 92.8649 34.4501 92.1121 33.9657 92.2359Z" fill="white"/>
<path d="M130.364 186.982L131.488 182.579L126.741 180.393L130.364 186.982Z" stroke="white" stroke-width="0.5" stroke-miterlimit="10"/>
<path d="M133.765 173.851L126.741 180.393L131.488 182.579L133.765 173.851Z" stroke="white" stroke-width="0.5" stroke-miterlimit="10"/>
<path d="M145.015 180.924L143.201 185.833L140.099 183.502L133.466 181.796L130.364 186.982L136.497 184.513L140.882 188.266L143.201 185.833L147.252 185.018L141.181 188.493L151.601 185.714" stroke="white" stroke-width="0.5" stroke-miterlimit="10"/>
<path d="M140.099 183.502L136.497 184.513L133.466 181.796" stroke="white" stroke-width="0.5" stroke-miterlimit="10"/>
<path d="M157.1 188.833L151.601 185.714L153.183 181.198" stroke="white" stroke-width="0.5" stroke-miterlimit="10"/>
<path d="M133.765 173.851L137.11 177.975L141.758 175.037L145.015 180.924L151.024 176.408L153.183 181.198L157.692 177.398L158.651 182.693L161.722 177.996L170.138 180.187L179.883 179.357L182.258 173.645L188.484 183.018" stroke="white" stroke-width="0.5" stroke-miterlimit="10"/>
<path d="M214.884 154.63L208.417 157.729L216.069 157.435L214.884 154.63ZM214.884 154.63L210.493 151.403" stroke="white" stroke-width="0.5" stroke-miterlimit="10"/>
<path d="M158.651 182.693L157.1 188.833L153.183 181.198L146.979 185.193L145.015 180.924L140.099 183.502L137.11 177.975L133.466 181.796L132.343 179.311L137.11 177.975L145.015 180.924L153.183 181.198L158.651 182.693ZM158.651 182.693L164.129 188.441L170.138 180.187L177.095 186.462L179.883 179.357L188.484 183.018L191.215 174.475L198.007 178.491L198.77 169.87L204.644 174.145L206.391 166.411L206.422 166.267L213.606 166.091L216.069 157.435L223.305 152.738L222.934 147.763L215.193 149.423L211.962 146.314L210.493 151.403L204.747 153.883L202.057 157.662L198.208 152.81L193.874 154.604L191.029 151.635L188.468 153.016L185.654 150.753L183.531 154.053L182.562 150.248L181.423 158.219L183.531 154.053L188.468 153.016L193.874 154.604L202.057 157.662L208.417 157.729L206.422 166.267" stroke="white" stroke-width="0.5" stroke-miterlimit="10"/>
<path d="M204.748 153.883L208.417 157.729L210.493 151.403L215.193 149.423L214.884 154.63L222.934 147.763L216.069 157.435L206.422 166.267L198.77 169.87L191.215 174.474L182.258 173.644L187.546 169.803L191.215 174.474L194.564 166.937L198.77 169.87L200.888 163.137L206.391 166.411L202.057 157.662L198.548 159.992L193.874 154.604L189.854 156.538L188.468 153.016L186.031 156.192L183.531 154.053L184.088 158.023L181.423 158.219" stroke="white" stroke-width="0.5" stroke-miterlimit="10"/>
<path d="M138.305 168.267L147.87 171.02L153.709 172.036L160.13 172.371L161.032 161.575L164.015 167.045L160.13 172.371L169.375 173.505L182.258 173.644L170.138 180.187L169.499 173.531L161.722 177.996L160.099 172.608L157.692 177.398L153.709 172.036L151.024 176.408L147.87 171.02L141.758 175.037L138.11 168.473" stroke="white" stroke-width="0.5" stroke-miterlimit="10"/>
<path d="M161.032 161.575L157.223 165.359L150.503 167.339L142.696 164.488L147.87 171.02L150.503 167.339L153.709 172.036L157.223 165.359L160.13 172.371" stroke="white" stroke-width="0.5" stroke-miterlimit="10"/>
<path d="M157.223 165.359L147.581 159.095L150.503 167.339" stroke="white" stroke-width="0.5" stroke-miterlimit="10"/>
<path d="M177.27 159.992L183.268 165.865L175.162 169.113" stroke="white" stroke-width="0.5" stroke-miterlimit="10"/>
<path d="M181.423 158.218L183.268 165.864L190.164 165.359L187.546 169.803L183.268 165.864L182.258 173.644L175.162 169.113L177.27 159.992L181.423 158.218ZM181.423 158.218L177.708 155.336L177.27 159.992L170.153 163.261L164.015 167.045L169.375 173.505L170.395 163.003L175.162 169.113L169.292 173.572" stroke="white" stroke-width="0.5" stroke-miterlimit="10"/>
<path d="M187.546 169.804L194.564 166.937L190.164 165.359L184.088 158.023L183.268 165.865" stroke="white" stroke-width="0.5" stroke-miterlimit="10"/>
<path d="M200.888 163.137L198.44 159.899L193.261 161.462L184.088 158.023L186.031 156.192L189.854 156.538L198.548 159.992L204.057 161.699L200.888 163.137ZM200.888 163.137L194.564 166.937L193.261 161.462L190.164 165.359" stroke="white" stroke-width="0.5" stroke-miterlimit="10"/>
<path d="M193.261 161.462L189.854 156.538" stroke="white" stroke-width="0.5" stroke-miterlimit="10"/>
<path d="M222.934 147.763L229.334 139.673L224.273 134.368L232.344 130.089L229.695 127.31L232.89 123.959L227.484 124.825L224.042 121.711L221.996 123.861L217.955 120.51L217.373 124.809L216.178 120.154L213.962 125.572L210.22 126.067L209.071 129.826L204.67 130.986L205.299 135.853L202.475 133.048L198.548 136.714L195.554 131.775L190.906 133.904L188.592 130.486L184.979 132.017L182.439 129.352L180.331 131.563L176.291 128.434L175.363 133.074L169.839 135.554L170.205 138.905L165.18 140.086L165.886 144.138L161.712 144.551L160.393 149.191L157.012 148.649L157.909 151.8L153.807 152.568L153.977 155.043L149.153 156.893L152.158 157.832L151.22 159.518L154.94 157.899L158.001 161.018L160.836 158.554L164.35 162.188L167.875 160.502L170.395 163.003L170.936 158.806L177.708 155.336L181.619 148.582L182.562 150.248L185.592 147.304L185.654 150.753L189.36 147.938L191.029 151.635L196.311 148.232L198.208 152.81L203.557 148.918L205.005 153.661L205.928 148.18L211.962 146.314L218.053 142.648L222.934 147.763Z" stroke="white" stroke-width="0.5" stroke-miterlimit="10"/>
<path d="M188.592 130.486L188.205 138.163L190.906 133.904L198.548 136.714L205.299 135.853L209.071 129.826L213.962 125.573L217.373 124.809L221.996 123.861L227.484 124.825L229.695 127.31L224.274 134.368L219.342 136.601L229.334 139.673L218.053 142.648L210.808 142.313L219.342 136.601L218.064 142.726" stroke="white" stroke-width="0.5" stroke-miterlimit="10"/>
<path d="M177.708 155.336L173.188 153.362L170.936 158.806L167.875 160.502L160.836 158.554L154.94 157.899L152.158 157.832L153.977 155.043L157.909 151.8L160.393 149.191L165.886 144.138L170.205 138.905L175.363 133.074L180.331 131.563L184.979 132.017L181.815 136.621L180.243 131.496" stroke="white" stroke-width="0.5" stroke-miterlimit="10"/>
<path d="M170.936 158.806L168.736 154.852L173.188 153.362L181.619 148.583L185.592 147.304L189.36 147.938L196.311 148.232L203.557 148.918L205.928 148.18L210.808 142.313L211.962 146.314" stroke="white" stroke-width="0.5" stroke-miterlimit="10"/>
<path d="M203.557 148.918L199.769 142.829L196.311 148.232L192.848 143.035L189.36 147.938L186.664 143.999L185.593 147.304L181.444 145.211L181.619 148.582L172.333 149.562L173.188 153.362" stroke="white" stroke-width="0.5" stroke-miterlimit="10"/>
<path d="M181.619 148.583L174.734 143.448L172.333 149.562L168.736 154.852L167.875 160.503" stroke="white" stroke-width="0.5" stroke-miterlimit="10"/>
<path d="M181.444 145.211L174.734 143.447L178.888 139.096L181.444 145.211Z" stroke="white" stroke-width="0.5" stroke-miterlimit="10"/>
<path d="M160.393 149.191L164.186 150.552L157.909 151.8L158.878 154.274L168.736 154.852L160.836 158.554L158.924 154.156L154.94 157.899L153.977 155.043L158.924 154.156" stroke="white" stroke-width="0.5" stroke-miterlimit="10"/>
<path d="M158.924 154.156L164.186 150.552L168.736 154.852" stroke="white" stroke-width="0.5" stroke-miterlimit="10"/>
<path d="M178.888 139.096L181.815 136.621L175.363 133.074L178.888 139.096ZM178.888 139.096L170.205 138.905L170.906 142.586L165.886 144.138L164.186 150.552L172.333 149.562L165.85 143.953L174.904 143.494L170.818 142.566" stroke="white" stroke-width="0.5" stroke-miterlimit="10"/>
<path d="M174.765 143.422L170.205 138.905" stroke="white" stroke-width="0.5" stroke-miterlimit="10"/>
<path d="M181.748 136.549L181.516 145.133L186.664 143.999L181.748 136.549Z" stroke="white" stroke-width="0.5" stroke-miterlimit="10"/>
<path d="M184.979 132.017L188.205 138.163L181.815 136.621L184.979 132.017Z" stroke="white" stroke-width="0.5" stroke-miterlimit="10"/>
<path d="M221.996 123.861L218.904 129.97L217.373 124.809L215.183 129.774L213.962 125.573" stroke="white" stroke-width="0.5" stroke-miterlimit="10"/>
<path d="M219.342 136.601L214.657 133.708L218.904 129.97L215.183 129.774L209.071 129.826L214.771 133.703L205.299 135.853" stroke="white" stroke-width="0.5" stroke-miterlimit="10"/>
<path d="M229.695 127.31L225.567 129.414L225.428 129.486L227.484 124.825L218.904 129.97L225.356 129.491L224.274 134.368L218.904 129.97L219.342 136.601L205.299 135.853L210.808 142.313L199.769 142.829L205.49 135.549" stroke="white" stroke-width="0.5" stroke-miterlimit="10"/>
<path d="M198.548 136.714L199.769 142.829L192.848 143.035L198.548 136.714Z" stroke="white" stroke-width="0.5" stroke-miterlimit="10"/>
<path d="M190.906 133.904L192.848 143.035L188.205 138.163L186.664 143.999L192.766 143.122" stroke="white" stroke-width="0.5" stroke-miterlimit="10"/>
<path d="M176.863 128.661L183.026 126.165L180.31 124.222L185.969 123.52L186.242 118.004L190.364 117.767L191.246 112.755L197.693 113.297L196.054 107.713L200.656 109.497L200.336 104.047L205.598 103.49L204.351 99.835L209.88 99.8299L210.457 92.6067L213.106 97.9635L221.125 95.3341L208.561 104.248L213.585 103.717L214.796 108.852L219.28 104.79L222.913 109.765L226.381 106.13L229.772 110.745L235.436 107.842L232.648 112.977L235.24 115.694L230.514 118.566L233.616 123.608L228.324 119.169L224.042 121.711L220.419 117.921L217.955 120.509L216.399 117.993L216.296 120.607L211.39 119.272L210.22 126.067L204.624 125.165L204.67 130.986L201.547 128.393L202.475 133.048L198.316 128.527L195.554 131.775L192.781 126.939L188.169 130.666L186.36 126.49L182.439 129.352L176.863 128.661Z" stroke="white" stroke-width="0.5" stroke-miterlimit="10"/>
<path d="M205.598 103.49L200.656 109.497L197.693 113.297L190.365 117.767L185.969 123.52L183.026 126.165L182.439 129.352" stroke="white" stroke-width="0.5" stroke-miterlimit="10"/>
<path d="M183.026 126.165L186.36 126.49L192.781 126.939L198.316 128.527L201.547 128.393L204.624 125.165L211.39 119.272L216.399 117.994L220.419 117.921L228.324 119.169L230.514 118.566L232.648 112.977L229.772 110.745L222.913 109.765L214.796 108.853L208.561 104.248L213.106 97.9636L209.88 99.83L208.561 104.248L205.598 103.491L209.88 99.83" stroke="white" stroke-width="0.5" stroke-miterlimit="10"/>
<path d="M190.365 117.767L195.781 123.5L196.147 118.653L200.383 121.664L195.719 123.567" stroke="white" stroke-width="0.5" stroke-miterlimit="10"/>
<path d="M201.547 128.393L200.264 124.454L198.316 128.527L195.781 123.5L192.781 126.939" stroke="white" stroke-width="0.5" stroke-miterlimit="10"/>
<path d="M200.383 121.665L200.264 124.454L195.781 123.5L200.383 121.665Z" stroke="white" stroke-width="0.5" stroke-miterlimit="10"/>
<path d="M211.39 119.272L206.762 115.9L204.624 125.165L200.264 124.454" stroke="white" stroke-width="0.5" stroke-miterlimit="10"/>
<path d="M200.383 121.664L206.762 115.9L200.156 115.204L200.383 121.664Z" stroke="white" stroke-width="0.5" stroke-miterlimit="10"/>
<path d="M196.147 118.653L200.156 115.204L197.693 113.297L196.147 118.653ZM196.147 118.653L190.364 117.767L192.781 126.939L185.969 123.52L186.36 126.49" stroke="white" stroke-width="0.5" stroke-miterlimit="10"/>
<path d="M205.598 103.49L208.025 108.177L200.656 109.497L206.762 115.9L200.656 109.497L200.156 115.204" stroke="white" stroke-width="0.5" stroke-miterlimit="10"/>
<path d="M208.561 104.249L208.025 108.177L206.762 115.9L216.399 117.994L219.1 113.988L220.419 117.922L224.717 115.385L228.324 119.169L228.03 115.612L230.514 118.566" stroke="white" stroke-width="0.5" stroke-miterlimit="10"/>
<path d="M232.648 112.977L228.03 115.612L229.772 110.745L224.964 112.951L222.913 109.765L220.847 112.781L214.797 108.852L208.025 108.177L216.399 117.993L214.797 108.852L219.1 113.987L224.717 115.385L228.03 115.612L224.964 112.951L224.851 115.251L220.847 112.781L224.964 112.951" stroke="white" stroke-width="0.5" stroke-miterlimit="10"/>
<path d="M235.436 107.842L231.967 101.165L226.381 106.13L225.428 97.8038L219.28 104.79L221.491 95.427L215.683 87.1314L222.923 86.3374L224.954 77.4129L231.88 76.3869L234.219 67.6943" stroke="white" stroke-width="0.5" stroke-miterlimit="10"/>
<path d="M236.363 98.6752L231.967 101.165L225.428 97.8038L221.491 95.427L222.923 86.3375L231.88 76.387L235.791 78.1863L232.761 83.7545L236.76 88.5957L234.56 91.6324L236.363 98.6752Z" stroke="white" stroke-width="0.5" stroke-miterlimit="10"/>
<path d="M222.923 86.3375L226.392 91.6324L231.88 76.387L232.761 83.7545L234.56 91.6324L231.967 101.165L229.159 95.6384L225.428 97.8038L226.392 91.6324L221.491 95.427" stroke="white" stroke-width="0.5" stroke-miterlimit="10"/>
<path d="M226.391 91.6323H234.56L229.159 95.6383L226.391 91.6323Z" stroke="white" stroke-width="0.5" stroke-miterlimit="10"/>
<path d="M232.761 83.7544L226.391 91.6323" stroke="white" stroke-width="0.5" stroke-miterlimit="10"/>
<path d="M176.074 127.841L178.46 121.376L180.31 124.221L180.98 118.292L186.242 118.004L186.463 113.683L191.246 112.755L190.73 105.996L196.054 107.713L194.353 102.887L199.548 103.227L200.084 97.7056L203.567 99.01L203.573 93.215L210.457 92.6066L205.35 89.8328L207.86 81.4238L199.357 94.5967L199.867 89.3276L194.966 88.0593L198.842 83.3624L194.096 79.5471L197.564 75.9124L193.168 72.3549L195.93 66.4155L191.034 69.344L188.442 66.6269L185.706 71.5764L180.898 68.3283L185.129 73.8759L182.701 78.3665L186.319 82.1663L183.851 84.7493L186.247 86.3785L183.758 86.4868L185.031 91.6322L178.553 92.8592L179.414 98.7264L173.858 98.68L176.337 101.954L171.89 100.979L176.203 105.341L173.111 108.234L177.718 111.141L174.168 115.983L178.146 117.875L175.42 121.989L176.074 127.841Z" stroke="white" stroke-width="0.5" stroke-miterlimit="10"/>
<path d="M200.084 97.7058L194.353 102.887L190.73 105.996L186.463 113.683L180.98 118.293L178.46 121.376L175.42 121.989" stroke="white" stroke-width="0.5" stroke-miterlimit="10"/>
<path d="M178.46 121.376L178.146 117.875L177.718 111.142L176.203 105.342L176.337 101.954L179.414 98.7267L185.031 91.6324L186.247 86.3787L186.319 82.1665L185.129 73.8761L185.706 71.5767L191.034 69.3442L193.168 72.3552L194.096 79.5474L194.966 88.0595L199.357 94.597L205.35 89.8331L203.573 93.2152L199.357 94.597L200.084 97.7059L203.573 93.2152" stroke="white" stroke-width="0.5" stroke-miterlimit="10"/>
<path d="M186.463 113.683L181.001 107.997L185.623 107.62L182.748 103.176L180.934 108.069" stroke="white" stroke-width="0.5" stroke-miterlimit="10"/>
<path d="M176.337 101.954L180.089 103.3L176.203 105.341L181.001 107.997L177.718 111.142" stroke="white" stroke-width="0.5" stroke-miterlimit="10"/>
<path d="M182.748 103.176L180.089 103.3L181.001 107.997L182.748 103.176Z" stroke="white" stroke-width="0.5" stroke-miterlimit="10"/>
<path d="M185.031 91.6323L188.246 96.4839L179.414 98.7266L180.089 103.3" stroke="white" stroke-width="0.5" stroke-miterlimit="10"/>
<path d="M182.748 103.176L188.246 96.4839L188.911 103.408L182.748 103.176Z" stroke="white" stroke-width="0.5" stroke-miterlimit="10"/>
<path d="M185.623 107.62L188.911 103.408L190.73 105.996L185.623 107.62ZM185.623 107.62L186.463 113.683L177.718 111.142L180.98 118.293L178.146 117.875" stroke="white" stroke-width="0.5" stroke-miterlimit="10"/>
<path d="M200.084 97.7058L195.616 95.1641L194.353 102.887L188.246 96.4839L194.353 102.887L188.911 103.408" stroke="white" stroke-width="0.5" stroke-miterlimit="10"/>
<path d="M199.357 94.597L195.616 95.1641L188.247 96.484L186.247 86.3787L190.071 83.5483L186.319 82.1665L188.736 77.6553L185.129 73.8761L188.52 74.1855L185.706 71.5767" stroke="white" stroke-width="0.5" stroke-miterlimit="10"/>
<path d="M191.034 69.3442L188.52 74.1855L193.168 72.3552L191.06 77.3975L194.096 79.5474L191.225 81.7128L194.966 88.0595L195.616 95.1641L186.247 86.3787L194.966 88.0595L190.071 83.5483L188.736 77.6553L188.52 74.1855L191.06 77.3975L188.87 77.5212L191.225 81.7128L191.06 77.3975" stroke="white" stroke-width="0.5" stroke-miterlimit="10"/>
<path d="M195.93 66.4155L202.3 70.0503L197.564 75.9124L205.505 76.9126L198.842 83.3624L207.772 81.0372L215.683 87.1312L216.44 79.5368L224.954 77.4127L225.928 70.1431L234.219 67.6941L224.578 77.8045" stroke="white" stroke-width="0.5" stroke-miterlimit="10"/>
<path d="M204.67 65.4464L202.3 70.0505L205.505 76.9127L207.772 81.0373L216.44 79.537L225.928 70.1433L224.217 66.0445L218.899 69.2256L214.286 65.0288L211.39 67.3334L204.67 65.4464Z" stroke="white" stroke-width="0.5" stroke-miterlimit="10"/>
<path d="M216.44 79.5371L211.39 75.9023L225.928 70.1434L218.899 69.2256L211.39 67.3335L202.3 70.0506L207.571 72.9996L205.505 76.9128L211.39 75.9023L207.772 81.0374" stroke="white" stroke-width="0.5" stroke-miterlimit="10"/>
<path d="M211.39 75.9023V67.3335L207.572 72.9996L211.39 75.9023Z" stroke="white" stroke-width="0.5" stroke-miterlimit="10"/>
<path d="M218.899 69.2256L211.39 75.9022" stroke="white" stroke-width="0.5" stroke-miterlimit="10"/>
<path d="M168.128 72.2468C174.935 69.2977 182.166 67.3953 189.499 66.3435C198.368 65.0752 207.401 65.0443 216.327 65.6475C222.48 66.0599 228.607 66.7869 234.699 67.7201L234.158 67.1787C234.214 67.5087 234.266 67.8438 234.317 68.1789C234.379 68.5811 234.436 68.9832 234.493 69.3854C234.508 69.5091 234.529 69.638 234.544 69.7617C234.56 69.8649 234.621 70.3186 234.575 69.9886C234.611 70.2773 234.652 70.5609 234.688 70.8496C234.879 72.3499 235.044 73.8554 235.193 75.3609C235.384 77.3252 235.539 79.2947 235.668 81.2642C235.817 83.6255 235.92 85.9868 235.982 88.3533C236.049 91.0394 236.054 93.7256 236.003 96.4065C235.946 99.3453 235.812 102.279 235.601 105.207C235.389 108.136 235.049 111.539 234.652 114.457C234.214 117.689 233.668 120.907 232.998 124.093C232.328 127.279 231.493 130.615 230.525 133.816C229.545 137.065 228.407 140.271 227.103 143.406C225.799 146.541 224.299 149.598 222.63 152.532C220.96 155.465 219.012 158.44 216.899 161.183C214.786 163.926 212.405 166.555 209.875 168.948C207.345 171.34 204.376 173.717 201.341 175.738C198.11 177.888 194.688 179.744 191.143 181.311C187.314 183.002 183.325 184.337 179.269 185.374C174.755 186.529 170.148 187.312 165.51 187.771C160.243 188.297 154.94 188.431 149.648 188.266C143.608 188.075 137.579 187.503 131.601 186.627C128.421 186.163 125.252 185.616 122.098 185.002C121.124 184.812 120.712 186.302 121.686 186.492C128.076 187.735 134.518 188.704 141.001 189.287C146.664 189.792 152.359 190.004 158.048 189.813C163.062 189.643 168.066 189.163 173.008 188.297C177.414 187.524 181.764 186.436 185.994 184.977C189.865 183.641 193.642 181.997 197.234 180.027C200.573 178.197 203.748 176.083 206.732 173.717C209.715 171.35 212.204 168.984 214.632 166.303C217.059 163.622 219.197 160.843 221.166 157.878C223.088 154.986 224.809 151.959 226.335 148.84C227.86 145.721 229.205 142.499 230.38 139.225C231.555 135.951 232.503 132.785 233.338 129.501C234.173 126.217 234.848 123 235.41 119.705C235.972 116.411 236.399 113.24 236.734 109.987C237.049 106.945 237.27 103.898 237.409 100.846C237.538 98.0048 237.6 95.1537 237.59 92.3077C237.579 89.7505 237.518 87.1984 237.404 84.6412C237.306 82.45 237.167 80.2588 236.992 78.0728C236.848 76.3301 236.683 74.5875 236.487 72.8449C236.343 71.5456 236.178 70.2515 235.992 68.9575C235.899 68.3078 235.817 67.6531 235.698 67.0086C235.683 66.9261 235.673 66.8488 235.657 66.7663C235.616 66.5291 235.358 66.261 235.116 66.2249C224.712 64.637 214.183 63.5852 203.645 63.745C195.384 63.8688 187.092 64.7607 179.089 66.8539C175.075 67.9005 171.158 69.2616 167.35 70.9115C166.438 71.3085 167.226 72.6386 168.128 72.2468Z" fill="white"/>
<path d="M160.784 145.829C169.195 137.013 177.6 128.202 186.005 119.386C194.343 110.642 202.681 101.898 211.019 93.1483C215.786 88.1472 220.553 83.1462 225.32 78.1399C226.005 77.4181 224.913 76.3251 224.227 77.0469C215.781 85.9096 207.334 94.7723 198.883 103.635C190.555 112.369 182.233 121.097 173.905 129.831C169.169 134.801 164.428 139.766 159.692 144.736C159.006 145.458 160.099 146.551 160.784 145.829Z" fill="white"/>
<path d="M173.436 99.7685C176.868 95.7573 180.3 91.7462 183.732 87.735C184.026 87.3896 184.603 86.941 184.546 86.4564C184.464 85.7036 184.273 84.9509 184.139 84.2085C183.562 80.9965 182.985 77.7896 182.408 74.5776C181.98 72.1905 181.547 69.8034 181.119 67.4163C181.032 66.9265 180.285 67.1327 180.372 67.6225C181.377 73.1907 182.377 78.7589 183.382 84.3271C183.526 85.1262 183.67 85.9202 183.815 86.7193L183.913 86.343C180.702 90.0963 177.491 93.8445 174.281 97.5979C173.817 98.1393 173.353 98.6806 172.889 99.222C172.57 99.5983 173.111 100.15 173.436 99.7685Z" fill="white"/>
<path d="M176.842 128.151C175.925 122.675 175.002 117.205 174.085 111.73C173.956 110.951 173.822 110.173 173.693 109.389C173.611 108.899 172.864 109.105 172.946 109.595C173.864 115.071 174.786 120.541 175.703 126.016C175.832 126.795 175.966 127.573 176.095 128.357C176.177 128.847 176.925 128.64 176.842 128.151Z" fill="white"/>
<path d="M210.834 92.5038C210.05 89.1371 209.267 85.7704 208.489 82.4037C208.375 81.9139 208.262 81.4242 208.149 80.9344C208.082 80.6508 207.7 80.558 207.505 80.7642C205.196 83.1823 202.887 85.6054 200.578 88.0235C200.254 88.3638 199.924 88.7092 199.599 89.0495L200.243 89.2196C199.78 86.5077 199.311 83.8009 198.847 81.089L196.61 68.0657L196.1 65.096C196.018 64.6062 195.271 64.8124 195.353 65.3022C195.817 68.0141 196.286 70.7209 196.75 73.4328L198.986 86.4561L199.496 89.4258C199.548 89.7146 199.955 89.7919 200.14 89.596C202.449 87.1779 204.758 84.7548 207.067 82.3367C207.391 81.9964 207.721 81.651 208.046 81.3107L207.401 81.1406C208.185 84.5073 208.968 87.874 209.746 91.2407C209.86 91.7304 209.973 92.2202 210.086 92.71C210.2 93.1998 210.947 92.9884 210.834 92.5038Z" fill="white"/>
<path d="M150.375 160.003C153.595 160.59 156.796 161.271 160.006 161.936C161.578 162.261 163.15 162.58 164.727 162.885C165.474 163.029 166.221 163.168 166.968 163.302C167.752 163.441 168.659 163.74 169.457 163.73C169.916 163.725 170.323 163.318 170.679 163.05C171.127 162.714 171.56 162.354 171.972 161.977C172.843 161.178 173.647 160.307 174.42 159.415C175.976 157.61 177.424 155.708 179.084 153.991C179.944 153.104 180.857 152.259 181.867 151.547C182.31 151.233 182.738 150.856 183.289 150.856C184.047 150.856 184.84 150.784 185.587 150.944C186.855 151.222 188.087 151.568 189.375 151.733C190.066 151.82 190.751 151.846 191.442 151.882C192.199 151.924 192.957 152.14 193.699 152.305C195.116 152.625 196.533 152.97 197.971 153.182C199.311 153.383 200.754 153.243 202.037 153.661C203.093 154.006 204.026 154.331 205.015 153.661C206.123 152.908 207.103 151.991 208.03 151.026C209.251 149.763 210.334 148.304 211.632 147.124C212.648 146.201 214.374 146.649 215.569 146.943C218.852 147.758 222.274 147.799 225.572 148.541C226.057 148.65 226.263 147.907 225.778 147.794C222.846 147.134 219.831 147.02 216.889 146.438C216.224 146.304 215.569 146.072 214.905 145.953C214.405 145.866 213.848 145.84 213.343 145.819C212.838 145.799 212.297 145.84 211.818 146.056C211.194 146.34 210.761 146.907 210.313 147.397C209.267 148.531 208.257 149.701 207.17 150.794C206.706 151.264 206.226 151.717 205.727 152.145C205.227 152.573 204.546 153.269 203.871 153.3C203.325 153.326 202.763 153.068 202.253 152.903C201.671 152.712 201.166 152.651 200.553 152.635C198.965 152.589 197.399 152.321 195.853 151.98C194.518 151.692 193.163 151.264 191.802 151.109C191.153 151.032 190.483 151.068 189.829 150.996C189.076 150.913 188.334 150.784 187.597 150.619C186.963 150.48 186.335 150.32 185.706 150.155C185.026 149.98 184.284 150.062 183.588 150.062C182.98 150.062 182.701 150.073 182.181 150.403C181.66 150.733 181.207 151.057 180.748 151.423C176.981 154.398 174.616 158.724 170.983 161.828C170.591 162.163 169.957 162.838 169.432 162.931C169.081 162.993 168.535 162.782 168.184 162.72C167.685 162.632 167.19 162.544 166.69 162.452C164.943 162.132 163.206 161.786 161.47 161.431C157.847 160.688 154.234 159.91 150.601 159.245C150.117 159.157 149.906 159.899 150.395 159.992L150.375 160.003Z" fill="white"/>
<path d="M136.45 174.635C144.824 176.088 153.26 177.135 161.696 178.177L161.325 177.893C161.81 181.291 163.253 184.503 163.49 187.941C163.526 188.436 164.299 188.436 164.263 187.941C164.015 184.43 162.562 181.162 162.067 177.687C162.042 177.506 161.851 177.424 161.696 177.403C153.333 176.372 144.964 175.331 136.656 173.892C136.172 173.81 135.961 174.552 136.45 174.64V174.635Z" fill="white"/>
<path d="M176.368 128.625C178.666 129.048 180.965 129.47 183.263 129.898L195.879 132.224C197.466 132.518 199.058 132.811 200.645 133.105L201.98 133.353C202.227 133.399 202.485 133.487 202.712 133.353C202.913 133.239 203.093 132.997 203.263 132.842L204.655 131.533C206.087 130.187 207.52 128.836 208.953 127.491L213.575 123.139L215.317 121.5C215.642 121.196 216.033 120.902 216.317 120.556C216.358 120.51 216.409 120.469 216.456 120.427L216.08 120.525C221.388 121.577 226.701 122.629 232.009 123.681L234.286 124.134C234.771 124.232 234.982 123.485 234.493 123.387C229.097 122.32 223.701 121.252 218.306 120.18C217.657 120.051 216.945 119.814 216.286 119.778C215.765 119.752 215.214 120.525 214.874 120.85L207.845 127.465C205.964 129.233 204.083 131.007 202.202 132.775L202.578 132.677C199.656 132.136 196.734 131.6 193.812 131.058C189.148 130.197 184.479 129.336 179.816 128.475C178.733 128.274 177.651 128.078 176.574 127.877C176.09 127.79 175.878 128.532 176.368 128.625Z" fill="white"/>
<path d="M210.359 92.9833C213.575 93.803 216.791 94.6279 220.007 95.4477C220.47 95.5663 220.934 95.6849 221.393 95.8034L221.223 95.159C218.914 97.577 216.605 100 214.297 102.418C213.972 102.759 213.642 103.104 213.317 103.444C213.132 103.64 213.189 104.032 213.488 104.089C216.08 104.578 218.667 105.068 221.259 105.558C225.387 106.337 229.52 107.12 233.647 107.899C234.596 108.079 235.544 108.26 236.492 108.435C236.976 108.528 237.188 107.78 236.698 107.687C234.106 107.198 231.519 106.708 228.927 106.218C224.799 105.439 220.666 104.656 216.538 103.877C215.59 103.697 214.642 103.516 213.694 103.341L213.864 103.986C216.172 101.568 218.481 99.1444 220.79 96.7263C221.115 96.386 221.444 96.0406 221.769 95.7003C221.965 95.4941 221.888 95.128 221.599 95.0559C218.383 94.2361 215.168 93.4112 211.952 92.5914C211.488 92.4728 211.024 92.3543 210.566 92.2357C210.107 92.1171 209.88 92.8595 210.359 92.9833Z" fill="white"/>
<path d="M116.136 180.605L118.311 176.656L123.144 178.63L116.136 180.605Z" stroke="white" stroke-width="0.5" stroke-miterlimit="10"/>
<path d="M122.588 168.793L123.144 178.63L118.31 176.656L122.588 168.793Z" stroke="white" stroke-width="0.5" stroke-miterlimit="10"/>
<path d="M109.864 165.452L107.839 170.273L111.606 170.923L117.445 174.635L116.136 180.605L113.466 174.31L107.839 173.712V170.273L105.52 166.69L107.473 173.65L101.98 163.957" stroke="white" stroke-width="0.5" stroke-miterlimit="10"/>
<path d="M111.606 170.923L113.466 174.31L117.445 174.635" stroke="white" stroke-width="0.5" stroke-miterlimit="10"/>
<path d="M95.9862 162.086L101.98 163.957L103.902 159.595" stroke="white" stroke-width="0.5" stroke-miterlimit="10"/>
<path d="M122.588 168.793L117.445 169.231L116.136 163.705L109.864 165.452L108.658 157.806L103.902 159.595L103.278 153.563L99.0318 156.6L100.026 150.996L92.6004 146.309L86.267 138.493L88.4365 132.698L77.7176 134.704" stroke="white" stroke-width="0.5" stroke-miterlimit="10"/>
<path d="M78.1917 95.0562L80.6756 102.042L75.4604 96.1595L78.1917 95.0562ZM78.1917 95.0562L83.4687 96.0306" stroke="white" stroke-width="0.5" stroke-miterlimit="10"/>
<path d="M99.0318 156.6L95.9862 162.086L103.902 159.595L105.597 167.02L109.864 165.452L111.606 170.922L117.445 169.231V174.635L119.913 173.712L117.445 169.231L109.864 165.452L103.902 159.595L99.0318 156.6ZM99.0318 156.6H91.276L92.6005 146.309L83.4481 145.582L86.267 138.493L77.7176 134.704L81.5465 126.64L74.033 124.444L79.31 117.782L72.2705 116.452L76.2541 109.683L76.3262 109.559L71.3635 104.104L75.4604 96.1593L73.5125 87.4771L77.125 84.2341L81.4847 91.148L85.865 91.3439L83.4687 96.0304L85.865 102.042L85.2157 106.713L91.2091 106.136L93.0643 110.621L97.0787 110.626L97.9548 113.503L101.475 113.988L100.753 117.896L104 115.921L99.4338 122.407L100.753 117.896L97.9548 113.503L93.0643 110.621L85.2157 106.713L80.6756 102.042L76.3262 109.559" stroke="white" stroke-width="0.5" stroke-miterlimit="10"/>
<path d="M85.8651 102.042H80.6756L83.4687 96.0304L81.4847 91.148L78.1917 95.056L77.125 84.2341L75.4604 96.1593L76.3262 109.559L79.31 117.782L81.5466 126.64L88.4366 132.698L87.2874 126.052L81.5466 126.64L84.2624 118.824L79.31 117.782L82.3505 111.451L76.2541 109.683L85.2157 106.713L86.1227 110.961L93.0643 110.621L94.6 114.967L97.9548 113.503L97.5374 117.556L100.753 117.896L97.6765 120.288L99.4338 122.407" stroke="white" stroke-width="0.5" stroke-miterlimit="10"/>
<path d="M123.144 161.482L114.523 156.337L109.71 152.723L104.943 148.201L111.585 139.901L105.793 141.556L104.943 148.201L97.6405 142.148L88.4366 132.698L92.6005 146.309L97.5374 142.076L100.026 150.996L104.804 148.392L103.278 153.563L109.71 152.723L108.658 157.806L114.523 156.337L116.136 163.705L123.144 161.776" stroke="white" stroke-width="0.5" stroke-miterlimit="10"/>
<path d="M111.585 139.901L111.73 145.397L115.146 151.779L122.588 155.553L114.523 156.337L115.146 151.779L109.71 152.723L111.73 145.397L104.943 148.201" stroke="white" stroke-width="0.5" stroke-miterlimit="10"/>
<path d="M111.73 145.396L122.768 148.119L115.146 151.779" stroke="white" stroke-width="0.5" stroke-miterlimit="10"/>
<path d="M101.17 126.738L92.9715 126.444L96.5118 134.75" stroke="white" stroke-width="0.5" stroke-miterlimit="10"/>
<path d="M99.4338 122.407L92.9715 126.444L88.4365 120.974L87.2874 126.052L92.9715 126.444L88.4365 132.698L96.5118 134.75L101.17 126.738L99.4338 122.407ZM99.4338 122.407L104 123.124L101.17 126.738L104 134.322L105.793 141.556L97.6404 142.148L104 133.966L96.5118 134.75L97.6559 142.257" stroke="white" stroke-width="0.5" stroke-miterlimit="10"/>
<path d="M87.2873 126.052L84.2623 118.824L88.4365 120.974L97.6765 120.288L92.9715 126.444" stroke="white" stroke-width="0.5" stroke-miterlimit="10"/>
<path d="M82.3505 111.451L86.267 110.977L88.8746 115.921L97.6765 120.288L97.5374 117.556L94.6 114.967L86.1227 110.961L81.0828 108.084L82.3505 111.451ZM82.3505 111.451L84.2624 118.824L88.8746 115.921L88.4366 120.974" stroke="white" stroke-width="0.5" stroke-miterlimit="10"/>
<path d="M88.8746 115.921L94.5999 114.968" stroke="white" stroke-width="0.5" stroke-miterlimit="10"/>
<path d="M77.1249 84.234L78.0577 73.7679H85.2157L82.3917 64.7608H86.1381V60.0176L89.3796 64.6423L93.9145 64.9928V68.0296L99.0318 68.6534L96.5376 72.1232L100.521 69.7206L98.4392 75.1909L100.753 78.3152L99.0318 81.8263L101.356 85.9096L97.6301 88.8845L101.516 88.9979L101.825 94.4991L107.272 93.2256L109.122 98.1802L113.064 97.4842L114.585 101.243H118.182V104.367L123.144 105.151L120.671 109.121L122.907 114.967L120.387 117.066L123.144 121.623L119.913 123.969L122.588 127.356L120.387 131.615L123.144 133.739L120.387 135.301L122.768 138.885L120.98 140.509L123.144 145.396L120.387 143.834L119.913 145.721L118.372 141.813L114.105 141.746L113.765 137.905L108.828 137.869L107.473 134.064L104 133.966L106.447 130.594L104 123.124L105.793 115.447L104 115.921L103.84 111.595L101.474 113.988L100.753 109.25L97.0787 110.626L95.6409 104.3L91.209 106.136L90.0547 99.4176L85.8289 101.696L88.8746 97.1388L85.865 91.3438L84.0304 84.234H77.1249Z" stroke="white" stroke-width="0.5" stroke-miterlimit="10"/>
<path d="M113.064 97.4845L108.158 103.197L109.122 98.1806L101.825 94.4994L97.6301 88.8848L99.0318 81.8266L98.4392 75.1912L96.5376 72.1235L93.9146 68.0299L89.3796 64.6426L86.1382 64.7612L85.2157 73.7682L87.1946 79.0013L78.0577 73.7682L84.0305 84.2343L89.3796 89.3746L87.1946 79.0013L83.9686 84.2807" stroke="white" stroke-width="0.5" stroke-miterlimit="10"/>
<path d="M104 123.124L108.529 125.078L106.447 130.594L107.473 134.064L113.765 137.905L118.372 141.813L120.387 143.834L120.98 140.509L120.387 135.302V131.615L119.913 123.969L120.387 117.066L120.671 109.121L118.182 104.367L114.585 101.243L113.714 106.842L118.29 104.383" stroke="white" stroke-width="0.5" stroke-miterlimit="10"/>
<path d="M106.448 130.595L110.673 129.434L108.529 125.078L105.793 115.447L103.84 111.596L100.753 109.25L95.6409 104.3L90.0547 99.4179L88.8746 97.139L89.3796 89.3745L85.8651 91.344" stroke="white" stroke-width="0.5" stroke-miterlimit="10"/>
<path d="M90.0547 99.4178L96.8365 97.9175L95.6409 104.3L101.588 103.197L100.753 109.25L105.314 108.466L103.84 111.596L108.189 113.194L105.793 115.447L111.699 123.026L108.529 125.078" stroke="white" stroke-width="0.5" stroke-miterlimit="10"/>
<path d="M105.793 115.447L114.121 116.922L111.699 123.026L110.673 129.435L107.473 134.064" stroke="white" stroke-width="0.5" stroke-miterlimit="10"/>
<path d="M108.189 113.194L114.121 116.922V110.766L108.189 113.194Z" stroke="white" stroke-width="0.5" stroke-miterlimit="10"/>
<path d="M120.387 131.615L116.79 129.764L120.387 135.302L118.032 136.333L110.673 129.434L113.765 137.905L118.079 136.214L118.372 141.813L120.98 140.509L118.079 136.214" stroke="white" stroke-width="0.5" stroke-miterlimit="10"/>
<path d="M118.079 136.214L116.79 129.764L110.673 129.434" stroke="white" stroke-width="0.5" stroke-miterlimit="10"/>
<path d="M114.121 110.766L113.714 106.842L120.671 109.121L114.121 110.766ZM114.121 110.766L120.387 117.066L117.414 119.149L119.913 123.969L116.79 129.764L111.699 123.026L120.063 123.861L113.971 116.829L117.486 119.205" stroke="white" stroke-width="0.5" stroke-miterlimit="10"/>
<path d="M114.121 116.88L120.387 117.066" stroke="white" stroke-width="0.5" stroke-miterlimit="10"/>
<path d="M113.817 106.842L108.189 113.086L105.314 108.466L113.817 106.842Z" stroke="white" stroke-width="0.5" stroke-miterlimit="10"/>
<path d="M114.585 101.243L108.158 103.197L113.714 106.842L114.585 101.243Z" stroke="white" stroke-width="0.5" stroke-miterlimit="10"/>
<path d="M93.9146 68.0298L91.9769 74.6394L96.5376 72.1234L94.7443 77.2585L98.4392 75.1911" stroke="white" stroke-width="0.5" stroke-miterlimit="10"/>
<path d="M87.1946 79.0011L92.4613 80.4344L91.9769 74.6394L94.7442 77.2585L99.0318 81.8265L92.384 80.3468L97.6301 88.8847" stroke="white" stroke-width="0.5" stroke-miterlimit="10"/>
<path d="M86.1381 64.7612L87.6429 69.3034L87.6945 69.458L89.3796 64.6426L91.9769 74.6395L87.7357 69.5147L85.2157 73.7682L91.9769 74.6395L87.1946 79.0013L97.6301 88.8848L89.3796 89.3746L96.8365 97.9176L97.7022 88.5342" stroke="white" stroke-width="0.5" stroke-miterlimit="10"/>
<path d="M101.825 94.4993L96.8365 97.9175L101.588 103.197L101.825 94.4993Z" stroke="white" stroke-width="0.5" stroke-miterlimit="10"/>
<path d="M109.122 98.1804L101.588 103.197H108.158L105.314 108.466L101.588 103.321" stroke="white" stroke-width="0.5" stroke-miterlimit="10"/>
<path d="M122.588 104.888L119.913 98.5518L123.144 99.1911L119.614 94.4994L123.144 90.4006L120.387 87.1732L123.144 82.9712L118.218 78.5786L123.144 75.8409L118.687 73.6909L122.588 70.0768L119.243 65.7821L122.588 64.1219L118.687 60.018L123.144 54.4807L117.661 56.3058L113.76 48.5001L116.636 64.1219L113.441 60.018L109.122 62.7505L108.694 56.5585L102.763 57.3782V52.238L97.2591 52.9856L95.2081 46.7368L93.7187 52.4339H90.0547L91.4564 57.966L85.8651 59.2343L92.6005 60.018L93.9146 64.9932L99.0318 64.9984V68.6538L101.825 68.03L100.135 69.953L104.505 72.6443L100.753 78.3156L105.314 81.8267L101.356 85.91L105.314 86.3946L101.516 88.9983L107.504 88.8849L107.272 93.226L112.492 91.8649L113.24 97.9177L117.331 96.3091L118.182 101.243L122.588 104.888Z" stroke="white" stroke-width="0.5" stroke-miterlimit="10"/>
<path d="M119.243 65.7817L118.687 73.6906L118.218 78.5782L120.387 87.1728L119.614 94.4991L119.913 98.5515L118.182 101.243" stroke="white" stroke-width="0.5" stroke-miterlimit="10"/>
<path d="M119.913 98.5515L117.331 96.3088L112.492 91.8646L107.504 88.8846L105.314 86.3944V81.8264L104.505 72.644L101.825 68.0297L99.0318 64.9981L92.6005 60.0177L91.4564 57.9657L93.7187 52.4336L97.2591 52.9853L102.763 57.3779L109.122 62.7502L116.636 64.1216L117.661 56.3055L118.687 60.0177L116.636 64.1216L119.243 65.7818L118.687 60.0177" stroke="white" stroke-width="0.5" stroke-miterlimit="10"/>
<path d="M120.387 87.173L112.693 87.2091L115.703 83.5125L110.673 82.502L112.693 87.3071" stroke="white" stroke-width="0.5" stroke-miterlimit="10"/>
<path d="M105.314 86.3945L108.88 84.5591L107.504 88.8847L112.693 87.2091L112.492 91.8647" stroke="white" stroke-width="0.5" stroke-miterlimit="10"/>
<path d="M110.673 82.502L108.88 84.5591L112.693 87.2091L110.673 82.502Z" stroke="white" stroke-width="0.5" stroke-miterlimit="10"/>
<path d="M104.505 72.644L110.05 73.6907L105.314 81.8264L108.88 84.5589" stroke="white" stroke-width="0.5" stroke-miterlimit="10"/>
<path d="M110.673 82.5018L110.05 73.6907L115.193 78.0988L110.673 82.5018Z" stroke="white" stroke-width="0.5" stroke-miterlimit="10"/>
<path d="M115.703 83.5124L115.193 78.0989L118.218 78.5784L115.703 83.5124ZM115.703 83.5124L120.387 87.173L112.492 91.8647L119.614 94.4992L117.331 96.3089" stroke="white" stroke-width="0.5" stroke-miterlimit="10"/>
<path d="M119.243 65.7817L114.368 67.2924L118.687 73.6906H110.05H118.687L115.193 78.0988" stroke="white" stroke-width="0.5" stroke-miterlimit="10"/>
<path d="M116.636 64.1219L114.368 67.2927L110.05 73.6909L101.825 68.0299L102.613 63.1939L99.0318 64.9984L97.7023 60.0179H92.6005L95.2081 57.7236L91.4564 57.966" stroke="white" stroke-width="0.5" stroke-miterlimit="10"/>
<path d="M93.7188 52.4336L95.2081 57.7234L97.2591 52.9853L99.1658 58.11L102.763 57.3779L102.196 61.0437L109.122 62.7502L114.368 67.2924L101.825 68.0297L109.122 62.7502L102.613 63.1936L97.7023 60.0177L95.2081 57.7234L99.1658 58.11L97.7023 59.8217L102.196 61.0437L99.1658 58.11" stroke="white" stroke-width="0.5" stroke-miterlimit="10"/>
<path d="M95.2081 46.7366L102.165 44.5815L102.763 52.2378L109.06 47.0563L108.694 56.5583L113.441 48.2937L123.144 46.7366L118.558 40.8075L123.144 32.9915L118.934 27.1294L123.144 19.2515" stroke="white" stroke-width="0.5" stroke-miterlimit="10"/>
<path d="M100.738 39.57L102.165 44.5813L109.06 47.0561L113.441 48.2935L118.558 40.8073L118.934 27.1292L114.956 25.5L113.343 31.6869L107.251 32.1406L106.762 35.9197L100.738 39.57Z" stroke="white" stroke-width="0.5" stroke-miterlimit="10"/>
<path d="M118.558 40.8075L112.534 41.9779L118.934 27.1294L113.343 31.6871L106.762 35.9199L102.165 44.5815L107.88 42.7564L109.06 47.0563L112.534 41.9779L113.441 48.2936" stroke="white" stroke-width="0.5" stroke-miterlimit="10"/>
<path d="M112.534 41.9779L106.762 35.9199L107.88 42.7564L112.534 41.9779Z" stroke="white" stroke-width="0.5" stroke-miterlimit="10"/>
<path d="M113.343 31.687L112.534 41.9778" stroke="white" stroke-width="0.5" stroke-miterlimit="10"/>
<path d="M130.148 180.605L127.973 176.656L123.144 178.63L130.148 180.605Z" stroke="white" stroke-width="0.5" stroke-miterlimit="10"/>
<path d="M123.696 168.793L123.144 178.63L127.973 176.656L123.696 168.793Z" stroke="white" stroke-width="0.5" stroke-miterlimit="10"/>
<path d="M136.419 165.452L138.45 170.273L134.683 170.923L128.844 174.635L130.148 180.605L132.817 174.31L138.45 173.712V170.273L140.764 166.69L138.816 173.65L144.309 163.957" stroke="white" stroke-width="0.5" stroke-miterlimit="10"/>
<path d="M134.683 170.923L132.817 174.31L128.844 174.635" stroke="white" stroke-width="0.5" stroke-miterlimit="10"/>
<path d="M149.122 161.441L144.309 163.957L142.382 159.595" stroke="white" stroke-width="0.5" stroke-miterlimit="10"/>
<path d="M123.696 168.793L128.844 169.231L130.148 163.705L136.419 165.452L137.625 157.806L142.382 159.595L143.005 153.563L147.257 156.6L146.262 150.996L153.688 146.309L160.022 138.493L157.847 132.698L166.535 133.997" stroke="white" stroke-width="0.5" stroke-miterlimit="10"/>
<path d="M168.097 95.0562L165.613 102.042L170.828 96.1595L168.097 95.0562ZM168.097 95.0562L162.815 96.0306" stroke="white" stroke-width="0.5" stroke-miterlimit="10"/>
<path d="M147.257 156.6L149.122 161.441L142.382 159.595L140.691 167.02L136.419 165.452L134.683 170.922L128.844 169.231V174.635L126.37 173.712L128.844 169.231L136.419 165.452L142.382 159.595L147.257 156.6ZM147.257 156.6L153.662 155.703L153.688 146.309L161.475 144.876L160.022 138.493L166.535 133.997L164.742 126.64L170.498 123.366L166.979 117.782L172.436 114.967L170.035 109.683L169.957 109.559L173.755 104.176L170.828 96.1593L172.771 87.4771L169.159 84.2341L164.804 91.148L160.418 91.3439L162.815 96.0304L160.418 102.042L161.073 106.713L155.074 106.136L153.219 110.621L149.205 110.626L148.329 113.503L144.814 113.988L145.536 117.896L142.284 115.921L146.855 122.407L145.536 117.896L148.329 113.503L153.219 110.621L161.073 106.713L165.613 102.042L169.957 109.559" stroke="white" stroke-width="0.5" stroke-miterlimit="10"/>
<path d="M160.418 102.042H165.613L162.815 96.0304L164.804 91.148L168.097 95.056L169.159 84.2341L170.828 96.1593L169.957 109.559L166.979 117.782L164.742 126.64L157.847 132.698L158.996 126.052L164.742 126.64L162.026 118.824L166.979 117.782L163.933 111.451L170.035 109.683L161.073 106.713L160.161 110.961L153.219 110.621L151.684 114.967L148.329 113.503L148.746 117.556L145.536 117.896L148.607 120.288L146.855 122.407" stroke="white" stroke-width="0.5" stroke-miterlimit="10"/>
<path d="M123.144 161.482L131.761 156.337L136.574 152.723L141.341 148.201L134.698 139.901L140.496 141.556L141.341 148.201L148.643 142.148L157.847 132.698L153.688 146.309L148.746 142.076L146.262 150.996L141.48 148.392L143.005 153.563L136.574 152.723L137.625 157.806L131.761 156.337L130.148 163.705L123.144 161.776" stroke="white" stroke-width="0.5" stroke-miterlimit="10"/>
<path d="M134.698 139.901L134.559 145.397L131.142 151.779L123.696 155.553L131.761 156.337L131.142 151.779L136.574 152.723L134.559 145.397L141.341 148.201" stroke="white" stroke-width="0.5" stroke-miterlimit="10"/>
<path d="M134.559 145.396L123.515 148.119L131.142 151.779" stroke="white" stroke-width="0.5" stroke-miterlimit="10"/>
<path d="M145.113 126.738L153.312 126.444L149.772 134.75" stroke="white" stroke-width="0.5" stroke-miterlimit="10"/>
<path d="M146.855 122.407L153.312 126.444L157.847 120.974L158.996 126.052L153.312 126.444L157.847 132.698L149.772 134.75L145.113 126.738L146.855 122.407ZM146.855 122.407L142.284 123.124L145.113 126.738L142.284 134.322L140.496 141.556L148.643 142.148L142.284 133.966L149.772 134.75L148.633 142.257" stroke="white" stroke-width="0.5" stroke-miterlimit="10"/>
<path d="M158.996 126.052L162.026 118.824L157.847 120.974L148.607 120.288L153.312 126.444" stroke="white" stroke-width="0.5" stroke-miterlimit="10"/>
<path d="M163.933 111.451L160.022 110.977L157.414 115.921L148.607 120.288L148.746 117.556L151.683 114.967L160.161 110.961L165.206 108.084L163.933 111.451ZM163.933 111.451L162.026 118.824L157.414 115.921L157.847 120.974" stroke="white" stroke-width="0.5" stroke-miterlimit="10"/>
<path d="M157.414 115.921L151.683 114.968" stroke="white" stroke-width="0.5" stroke-miterlimit="10"/>
<path d="M169.158 84.234L168.226 73.7679H161.073L163.892 64.7608H160.145V60.0176L156.909 64.6423L152.374 64.9928V68.0296L147.257 68.6534L149.746 72.1232L145.762 69.7206L147.849 75.1909L145.536 78.3152L147.257 81.8263L144.927 85.9096L148.653 88.8845L144.768 88.9979L144.464 94.4991L139.017 93.2256L137.167 98.1802L133.224 97.4842L131.699 101.243H128.107V104.367L123.144 105.151L125.613 109.121L123.376 114.967L125.896 117.066L123.144 121.623L126.37 123.969L123.696 127.356L125.896 131.615L123.144 133.739L125.896 135.301L123.515 138.885L125.304 140.509L123.144 145.396L125.896 143.834L126.37 145.721L127.911 141.813L132.183 141.746L132.518 137.905L137.46 137.869L138.816 134.064L142.284 133.966L139.836 130.594L142.284 123.124L140.496 115.447L142.284 115.921L142.444 111.595L144.814 113.988L145.536 109.25L149.205 110.626L150.648 104.3L155.074 106.136L156.234 99.4176L160.454 101.696L157.414 97.1388L160.418 91.3438L162.258 84.234H169.158Z" stroke="white" stroke-width="0.5" stroke-miterlimit="10"/>
<path d="M133.224 97.4845L138.13 103.197L137.167 98.1806L144.464 94.4994L148.653 88.8848L147.257 81.8266L147.849 75.1912L149.746 72.1235L152.374 68.0299L156.909 64.6426L160.145 64.7612L161.073 73.7682L159.089 79.0013L168.226 73.7682L162.258 84.2343L156.909 89.3746L159.089 79.0013L162.32 84.2807" stroke="white" stroke-width="0.5" stroke-miterlimit="10"/>
<path d="M142.284 123.124L137.754 125.078L139.836 130.594L138.816 134.064L132.518 137.905L127.911 141.813L125.896 143.834L125.304 140.509L125.896 135.302V131.615L126.37 123.969L125.896 117.066L125.613 109.121L128.107 104.367L131.699 101.243L132.57 106.842L127.999 104.383" stroke="white" stroke-width="0.5" stroke-miterlimit="10"/>
<path d="M139.836 130.595L135.615 129.434L137.754 125.078L140.496 115.447L142.444 111.596L145.536 109.25L150.648 104.3L156.234 99.4179L157.414 97.139L156.909 89.3745L160.418 91.344" stroke="white" stroke-width="0.5" stroke-miterlimit="10"/>
<path d="M156.234 99.4178L149.447 97.9175L150.648 104.3L144.696 103.197L145.536 109.25L140.97 108.466L142.444 111.596L138.099 113.194L140.496 115.447L134.59 123.026L137.754 125.078" stroke="white" stroke-width="0.5" stroke-miterlimit="10"/>
<path d="M140.496 115.447L132.168 116.922L134.59 123.026L135.615 129.435L138.816 134.064" stroke="white" stroke-width="0.5" stroke-miterlimit="10"/>
<path d="M138.099 113.194L132.168 116.922V110.766L138.099 113.194Z" stroke="white" stroke-width="0.5" stroke-miterlimit="10"/>
<path d="M125.896 131.615L129.493 129.764L125.896 135.302L128.251 136.333L135.615 129.434L132.518 137.905L128.205 136.214L127.911 141.813L125.304 140.509L128.205 136.214" stroke="white" stroke-width="0.5" stroke-miterlimit="10"/>
<path d="M128.205 136.214L129.493 129.764L135.615 129.434" stroke="white" stroke-width="0.5" stroke-miterlimit="10"/>
<path d="M132.168 110.766L132.57 106.842L125.613 109.121L132.168 110.766ZM132.168 110.766L125.896 117.066L128.875 119.149L126.37 123.969L129.493 129.764L134.59 123.026L126.221 123.861L132.312 116.829L128.803 119.205" stroke="white" stroke-width="0.5" stroke-miterlimit="10"/>
<path d="M132.168 116.88L125.896 117.066" stroke="white" stroke-width="0.5" stroke-miterlimit="10"/>
<path d="M132.467 106.842L138.099 113.086L140.97 108.466L132.467 106.842Z" stroke="white" stroke-width="0.5" stroke-miterlimit="10"/>
<path d="M131.699 101.243L138.13 103.197L132.57 106.842L131.699 101.243Z" stroke="white" stroke-width="0.5" stroke-miterlimit="10"/>
<path d="M152.374 68.0298L154.307 74.6394L149.746 72.1234L151.544 77.2585L147.849 75.1911" stroke="white" stroke-width="0.5" stroke-miterlimit="10"/>
<path d="M159.089 79.0011L153.827 80.4344L154.307 74.6394L151.544 77.2585L147.257 81.8265L153.905 80.3468L148.653 88.8847" stroke="white" stroke-width="0.5" stroke-miterlimit="10"/>
<path d="M160.145 64.7612L158.646 69.3034L158.594 69.458L156.909 64.6426L154.307 74.6395L158.548 69.5147L161.073 73.7682L154.307 74.6395L159.089 79.0013L148.653 88.8848L156.909 89.3746L149.447 97.9176L148.586 88.5342" stroke="white" stroke-width="0.5" stroke-miterlimit="10"/>
<path d="M144.464 94.4993L149.447 97.9175L144.696 103.197L144.464 94.4993Z" stroke="white" stroke-width="0.5" stroke-miterlimit="10"/>
<path d="M137.167 98.1804L144.696 103.197H138.13L140.97 108.466L144.696 103.321" stroke="white" stroke-width="0.5" stroke-miterlimit="10"/>
<path d="M123.696 104.888L126.37 98.5518L123.144 99.1911L126.669 94.4994L123.144 90.4006L125.896 87.1732L123.144 82.9712L128.066 78.5786L123.144 75.8409L127.602 73.6909L123.696 70.0768L127.04 65.7821L123.696 64.1219L127.602 60.018L123.144 54.4807L128.627 56.3058L132.523 48.5001L129.653 64.1219L132.843 60.018L137.167 62.7505L137.594 56.5585L143.521 57.3782V52.238L149.03 52.9856L151.075 46.7368L152.57 52.4339H156.234L154.827 57.966L160.418 59.2343L153.688 60.018L152.374 64.9932L147.257 64.9984V68.6538L144.464 68.03L146.149 69.953L141.784 72.6443L145.536 78.3156L140.97 81.8267L144.927 85.91L140.97 86.3946L144.768 88.9983L138.78 88.8849L139.017 93.226L133.796 91.8649L133.044 97.9177L128.952 96.3091L128.107 101.243L123.696 104.888Z" stroke="white" stroke-width="0.5" stroke-miterlimit="10"/>
<path d="M127.04 65.7817L127.602 73.6906L128.066 78.5782L125.896 87.1728L126.669 94.4991L126.37 98.5515L128.107 101.243" stroke="white" stroke-width="0.5" stroke-miterlimit="10"/>
<path d="M126.37 98.5515L128.952 96.3088L133.796 91.8646L138.78 88.8846L140.97 86.3944V81.8264L141.784 72.644L144.464 68.0297L147.257 64.9981L153.688 60.0177L154.827 57.9657L152.57 52.4336L149.03 52.9853L143.521 57.3779L137.167 62.7502L129.653 64.1216L128.627 56.3055L127.602 60.0177L129.653 64.1216L127.04 65.7818L127.602 60.0177" stroke="white" stroke-width="0.5" stroke-miterlimit="10"/>
<path d="M125.896 87.173L133.595 87.2091L130.581 83.5125L135.615 82.502L133.595 87.3071" stroke="white" stroke-width="0.5" stroke-miterlimit="10"/>
<path d="M140.97 86.3945L137.409 84.5591L138.78 88.8847L133.595 87.2091L133.796 91.8647" stroke="white" stroke-width="0.5" stroke-miterlimit="10"/>
<path d="M135.615 82.502L137.409 84.5591L133.595 87.2091L135.615 82.502Z" stroke="white" stroke-width="0.5" stroke-miterlimit="10"/>
<path d="M141.784 72.644L136.234 73.6907L140.97 81.8264L137.409 84.5589" stroke="white" stroke-width="0.5" stroke-miterlimit="10"/>
<path d="M135.615 82.5018L136.234 73.6907L131.096 78.0988L135.615 82.5018Z" stroke="white" stroke-width="0.5" stroke-miterlimit="10"/>
<path d="M130.581 83.5124L131.096 78.0989L128.066 78.5784L130.581 83.5124ZM130.581 83.5124L125.896 87.173L133.796 91.8647L126.669 94.4992L128.952 96.3089" stroke="white" stroke-width="0.5" stroke-miterlimit="10"/>
<path d="M127.04 65.7817L131.915 67.2924L127.602 73.6906H136.234H127.602L131.096 78.0988" stroke="white" stroke-width="0.5" stroke-miterlimit="10"/>
<path d="M129.653 64.1219L131.915 67.2927L136.234 73.6909L144.464 68.0299L143.67 63.1939L147.257 64.9984L148.586 60.0179H153.688L151.075 57.7236L154.827 57.966" stroke="white" stroke-width="0.5" stroke-miterlimit="10"/>
<path d="M152.57 52.4336L151.075 57.7234L149.03 52.9853L147.118 58.11L143.521 57.3779L144.093 61.0437L137.167 62.7502L131.915 67.2924L144.464 68.0297L137.167 62.7502L143.67 63.1936L148.586 60.0177L151.075 57.7234L147.118 58.11L148.586 59.8217L144.093 61.0437L147.118 58.11" stroke="white" stroke-width="0.5" stroke-miterlimit="10"/>
<path d="M151.075 46.7366L144.124 44.5815L143.521 52.2378L137.228 47.0563L137.594 56.5583L132.843 48.2937L123.144 46.7366L127.726 40.8075L123.144 32.9915L127.355 27.1294L123.144 19.2515V33.5431" stroke="white" stroke-width="0.5" stroke-miterlimit="10"/>
<path d="M145.551 39.57L144.124 44.5813L137.228 47.0561L132.843 48.2935L127.726 40.8073L127.355 27.1292L131.328 25.5L132.941 31.6869L139.037 32.1406L139.527 35.9197L145.551 39.57Z" stroke="white" stroke-width="0.5" stroke-miterlimit="10"/>
<path d="M127.726 40.8075L133.75 41.9779L127.355 27.1294L132.941 31.6871L139.527 35.9199L144.124 44.5815L138.408 42.7564L137.228 47.0563L133.75 41.9779L132.843 48.2936" stroke="white" stroke-width="0.5" stroke-miterlimit="10"/>
<path d="M133.75 41.9779L139.527 35.9199L138.408 42.7564L133.75 41.9779Z" stroke="white" stroke-width="0.5" stroke-miterlimit="10"/>
<path d="M132.941 31.687L133.75 41.9778" stroke="white" stroke-width="0.5" stroke-miterlimit="10"/>
<path d="M123.531 186.529C124.587 185.797 125.613 185.013 126.628 184.224C129.23 182.208 131.756 180.089 134.214 177.898C137.816 174.686 141.269 171.304 144.556 167.767C148.53 163.493 152.256 158.987 155.672 154.259C159.424 149.062 162.794 143.576 165.613 137.817C168.597 131.734 170.978 125.346 172.524 118.741C174.162 111.75 174.858 104.537 174.472 97.3657C174.049 89.462 172.333 81.6562 169.545 74.2526C166.211 65.4157 161.444 57.182 155.806 49.6185C148.756 40.1578 140.423 31.7127 131.477 24.041C128.926 21.855 126.329 19.736 123.685 17.6685C123.433 17.4726 123.046 17.3334 122.748 17.5499C121.665 18.3284 120.619 19.1585 119.583 19.9937C116.919 22.1282 114.337 24.3658 111.822 26.6756C108.143 30.0577 104.608 33.5997 101.243 37.2964C97.1869 41.7509 93.3786 46.4271 89.8795 51.3302C86.0557 56.6922 82.6133 62.3325 79.7171 68.2462C76.6766 74.464 74.2288 80.9911 72.6467 87.7348C71.0646 94.4785 70.2916 101.959 70.6988 109.136C71.1419 117.019 72.9095 124.794 75.8109 132.136C79.2275 140.777 84.1026 148.742 89.8383 156.022C97.0787 165.21 105.654 173.284 114.806 180.528C117.404 182.585 120.057 184.58 122.748 186.518C123.557 187.101 124.33 185.761 123.526 185.183C113.518 177.97 104.036 169.938 95.8058 160.724C89.3796 153.532 83.7367 145.582 79.5574 136.874C76.1046 129.682 73.6928 121.943 72.6931 114.014C71.7913 106.863 71.9974 99.5827 73.2497 92.4884C74.5019 85.3941 76.5117 79.1763 79.2533 72.9121C81.9949 66.6479 85.1384 61.1106 88.787 55.6301C92.1573 50.5723 95.878 45.7569 99.8615 41.1683C103.268 37.25 106.865 33.4914 110.622 29.9082C113.379 27.2788 116.218 24.7422 119.156 22.3138C120.078 21.5508 121.006 20.8032 121.949 20.0711C122.253 19.8339 122.031 20.0041 122.346 19.7617C122.485 19.6535 122.624 19.5504 122.763 19.4421C122.949 19.3029 123.16 19.174 123.335 19.0142C123.392 18.9626 123.464 18.9214 123.526 18.875L122.588 18.7564C132.384 26.4229 141.65 34.8577 149.689 44.3803C156.028 51.8922 161.583 60.1259 165.711 69.0659C169.092 76.3871 171.472 84.2186 172.467 92.2357C173.359 99.3764 173.183 106.641 171.962 113.735C170.818 120.376 168.808 126.867 166.118 133.043C163.541 138.962 160.367 144.613 156.77 149.97C153.472 154.883 149.818 159.549 145.896 163.978C142.567 167.736 139.048 171.33 135.368 174.743C132.673 177.243 129.895 179.656 127.02 181.951C125.999 182.765 125.401 183.229 124.391 183.987C123.907 184.348 123.417 184.704 122.933 185.054C122.871 185.101 122.804 185.142 122.742 185.188C121.928 185.75 122.701 187.091 123.521 186.524L123.531 186.529Z" fill="white"/>
<path d="M123.917 185.864V39.4461C123.917 37.4715 123.953 35.4865 123.917 33.5119C123.917 33.4242 123.917 33.3366 123.917 33.2541C123.917 32.259 122.371 32.259 122.371 33.2541V179.666C122.371 181.641 122.335 183.626 122.371 185.601C122.371 185.688 122.371 185.776 122.371 185.858C122.371 186.853 123.917 186.853 123.917 185.858V185.864Z" fill="white"/>
<path d="M123.34 148.727C128.344 145.051 133.353 141.37 138.357 137.694L141.645 135.281C142.026 134.997 142.634 134.719 142.675 134.214C142.758 133.167 142.675 132.084 142.675 131.032V115.926L142.485 116.261C144.696 114.57 146.912 112.874 149.122 111.183L159.058 103.578L160.31 102.619C160.532 102.449 160.764 102.325 160.81 102.032C160.887 101.557 160.81 101.006 160.81 100.526V91.5603C160.81 91.5035 160.851 91.1323 160.81 91.1014C160.96 91.2148 160.506 91.4623 160.867 91.2251C161.382 90.8952 161.851 90.4569 162.33 90.0754L171.426 82.945L171.642 82.7749C172.034 82.4707 171.483 81.9242 171.096 82.2284C168.205 84.4969 165.314 86.7603 162.418 89.0288L160.563 90.4827C160.295 90.6941 160.068 90.8024 160.032 91.1633C159.975 91.7923 160.032 92.4574 160.032 93.0915V102.042L160.223 101.707C155.378 105.414 150.529 109.126 145.685 112.833L142.691 115.127C142.294 115.431 141.908 115.612 141.897 116.143C141.846 119.2 141.897 122.257 141.897 125.315V134.322L142.088 133.987C139.934 135.57 137.78 137.152 135.626 138.735L125.319 146.309C124.525 146.891 123.737 147.474 122.943 148.057C122.546 148.351 122.933 149.021 123.335 148.727H123.34Z" fill="white"/>
<path d="M123.417 169.505C126.025 167.447 128.638 165.39 131.245 163.328L143.665 153.527C144.618 152.774 145.577 152.022 146.53 151.264L146.061 151.326C148.499 152.934 150.931 154.543 153.369 156.156C153.786 156.43 154.173 155.765 153.76 155.486C151.323 153.878 148.89 152.269 146.453 150.655C146.298 150.552 146.118 150.614 145.984 150.717C143.376 152.774 140.764 154.831 138.156 156.894C134.018 160.162 129.875 163.426 125.736 166.695C124.783 167.447 123.825 168.2 122.871 168.958C122.48 169.267 123.031 169.809 123.417 169.505Z" fill="white"/>
<path d="M123.34 105.223C125.262 103.81 127.179 102.403 129.102 100.99L139.62 93.2619L143.572 90.3592L144.665 89.5549C144.886 89.3951 145.103 89.2816 145.159 88.9981C145.34 88.1525 145.252 87.1575 145.299 86.2913L145.613 80.1921L145.948 73.7217C146.01 72.474 146.206 71.1541 146.144 69.9064C146.144 69.8446 146.149 69.7827 146.154 69.7208L145.963 70.056C150.431 66.8594 154.899 63.6629 159.367 60.4663C160.001 60.0126 160.635 59.5589 161.269 59.1052C161.671 58.8165 161.284 58.1462 160.877 58.435C156.327 61.6882 151.776 64.9466 147.226 68.1999C146.695 68.5814 146.041 68.932 145.567 69.3857C145.175 69.7569 145.319 70.7674 145.293 71.2572L144.783 81.1511C144.649 83.765 144.515 86.3841 144.376 88.9981L144.567 88.663C142.134 90.452 139.702 92.2359 137.27 94.0249C133.389 96.876 129.509 99.7271 125.628 102.578L122.938 104.553C122.541 104.847 122.928 105.517 123.33 105.223H123.34Z" fill="white"/>
<path d="M123.34 54.8157C126.174 53.0112 129.004 51.2015 131.838 49.397L133.044 48.6288L132.462 48.2937V60.0178C132.462 60.2911 132.797 60.5282 133.044 60.3529C135.203 58.7804 137.362 57.2079 139.522 55.6303C142.969 53.1194 146.412 50.6086 149.859 48.1029C150.653 47.5255 151.446 46.948 152.24 46.3655C152.637 46.0767 152.256 45.4065 151.848 45.6952C149.689 47.2677 147.53 48.8402 145.371 50.4178C141.923 52.9287 138.481 55.4395 135.033 57.9452C134.239 58.5226 133.446 59.1001 132.652 59.6827L133.235 60.0178V48.2937C133.235 48.0101 132.905 47.7987 132.652 47.9586L124.154 53.3772L122.948 54.1454C122.531 54.4135 122.918 55.0838 123.34 54.8157Z" fill="white"/>
<path d="M123.34 148.057C121.186 146.474 119.032 144.891 116.878 143.308L106.571 135.734C105.778 135.152 104.989 134.569 104.195 133.987L104.386 134.322V116.607C104.386 116.39 104.427 116.138 104.386 115.921C104.335 115.653 104.154 115.555 103.958 115.4L101.474 113.503C98.4495 111.188 95.4245 108.873 92.4046 106.563C90.2917 104.945 88.1737 103.326 86.0608 101.707L86.2515 102.042V91.4211C86.2515 91.0859 86.2361 90.89 85.9681 90.6735C85.4631 90.261 84.9426 89.8692 84.4272 89.467L79.0162 85.2239C77.7434 84.2237 76.4653 83.2235 75.1924 82.2284C74.8059 81.9242 74.2545 82.4707 74.6462 82.7749C77.3775 84.9197 80.1139 87.0593 82.8452 89.2041L84.8653 90.7869C85.0456 90.9313 85.226 91.0962 85.4218 91.2251C85.7826 91.4571 85.3291 91.2148 85.4785 91.1014C85.4373 91.1323 85.4785 91.5345 85.4785 91.586V101.578C85.4785 101.923 85.4321 102.16 85.7053 102.413C85.9423 102.63 86.2258 102.81 86.4834 103.006C89.5909 105.383 92.6984 107.765 95.811 110.141L100.856 114.003C101.773 114.704 102.68 115.555 103.67 116.158C103.716 116.189 103.763 116.23 103.804 116.261L103.613 115.926V133.837C103.613 134.085 103.562 134.399 103.727 134.605C103.83 134.734 104.046 134.843 104.18 134.941L107.014 137.023L116.388 143.911C118.573 145.52 120.763 147.123 122.948 148.732C123.35 149.026 123.737 148.356 123.34 148.062V148.057Z" fill="white"/>
<path d="M123.417 168.958C120.81 166.901 118.197 164.844 115.589 162.781C111.451 159.513 107.308 156.249 103.17 152.98C102.217 152.228 101.258 151.475 100.305 150.717C100.176 150.614 99.9903 150.557 99.8357 150.655C97.0941 152.47 94.3526 154.28 91.611 156.095C91.1987 156.368 91.5852 157.038 92.0026 156.765C94.7442 154.95 97.4858 153.14 100.227 151.325L99.7584 151.264C102.366 153.321 104.979 155.378 107.586 157.44C111.724 160.709 115.868 163.972 120.006 167.241C120.959 167.994 121.918 168.747 122.871 169.505C123.258 169.809 123.809 169.267 123.417 168.958Z" fill="white"/>
<path d="M123.34 104.553C120.908 102.764 118.475 100.98 116.043 99.1909C112.163 96.3398 108.282 93.4887 104.402 90.6376C103.505 89.9777 102.608 89.3177 101.712 88.663L101.902 88.9981C101.614 83.3835 101.325 77.7689 101.036 72.1543C100.995 71.381 101.052 70.5251 100.913 69.7621C100.825 69.2774 100.109 68.9526 99.7378 68.6845C97.1148 66.8078 94.4917 64.9312 91.8738 63.0545C89.7197 61.5129 87.5708 59.9765 85.4167 58.435C85.0096 58.1462 84.6231 58.8165 85.025 59.1052C89.493 62.3017 93.9609 65.4983 98.4289 68.6948C99.0627 69.1485 99.6966 69.6023 100.33 70.056L100.14 69.7208C100.289 72.6544 100.444 75.588 100.593 78.5268C100.768 81.9502 100.902 85.3788 101.124 88.797C101.16 89.3641 101.67 89.5807 102.098 89.9003L105.535 92.4266C109.009 94.9787 112.477 97.5308 115.95 100.078C117.455 101.186 118.965 102.295 120.47 103.398C121.253 103.97 122.016 104.63 122.84 105.141C122.876 105.166 122.912 105.192 122.948 105.223C123.35 105.517 123.737 104.847 123.34 104.553Z" fill="white"/>
<path d="M123.34 54.1452C120.506 52.3407 117.677 50.531 114.842 48.7265L113.636 47.9583C113.384 47.7985 113.054 48.0099 113.054 48.2935V60.0176L113.636 59.6824C111.477 58.11 109.318 56.5375 107.159 54.9598C103.711 52.449 100.269 49.9381 96.821 47.4324C96.0274 46.855 95.2338 46.2776 94.4402 45.695C94.0382 45.4011 93.6517 46.0713 94.0485 46.3652C96.2078 47.9377 98.367 49.5102 100.526 51.0879C103.974 53.5987 107.416 56.1095 110.864 58.6152C111.658 59.1927 112.451 59.7701 113.245 60.3527C113.487 60.5331 113.827 60.2908 113.827 60.0176V48.2935L113.245 48.6286C116.079 50.4331 118.908 52.2427 121.743 54.0472C122.145 54.305 122.547 54.5577 122.948 54.8154C123.35 55.0732 123.758 54.4133 123.34 54.1452Z" fill="white"/>
<path d="M42.3141 70.2929C43.0252 70.2929 43.0252 69.1328 42.3141 69.1328C41.6029 69.1328 41.6029 70.2929 42.3141 70.2929Z" fill="white"/>
<path d="M50.3894 79.6713C51.1006 79.6713 51.1006 78.5112 50.3894 78.5112C49.6782 78.5112 49.6782 79.6713 50.3894 79.6713Z" fill="white"/>
<path d="M56.7228 96.9945C57.434 96.9945 57.434 95.8345 56.7228 95.8345C56.0117 95.8345 56.0117 96.9945 56.7228 96.9945Z" fill="white"/>
<path d="M23.4374 95.2982C24.1486 95.2982 24.1486 94.1382 23.4374 94.1382C22.7263 94.1382 22.7263 95.2982 23.4374 95.2982Z" fill="white"/>
<path d="M19.2117 77.5883C19.9228 77.5883 19.9228 76.4282 19.2117 76.4282C18.5005 76.4282 18.5005 77.5883 19.2117 77.5883Z" fill="white"/>
<path d="M28.2815 118.092C28.9927 118.092 28.9927 116.932 28.2815 116.932C27.5704 116.932 27.5704 118.092 28.2815 118.092Z" fill="white"/>
<path d="M37.9698 117.05C38.681 117.05 38.681 115.89 37.9698 115.89C37.2587 115.89 37.2587 117.05 37.9698 117.05Z" fill="white"/>
<path d="M56.5992 138.545C57.3103 138.545 57.3103 137.385 56.5992 137.385C55.888 137.385 55.888 138.545 56.5992 138.545Z" fill="white"/>
<path d="M41.3246 149.222C42.0358 149.222 42.0358 148.062 41.3246 148.062C40.6135 148.062 40.6135 149.222 41.3246 149.222Z" fill="white"/>
<path d="M25.2978 137.111C26.0089 137.111 26.0089 135.951 25.2978 135.951C24.5866 135.951 24.5866 137.111 25.2978 137.111Z" fill="white"/>
<path d="M61.4433 166.416C62.1544 166.416 62.1544 165.256 61.4433 165.256C60.7321 165.256 60.7321 166.416 61.4433 166.416Z" fill="white"/>
<path d="M62.9378 159.121C63.649 159.121 63.649 157.961 62.9378 157.961C62.2266 157.961 62.2266 159.121 62.9378 159.121Z" fill="white"/>
<path d="M76.5993 161.209C77.3105 161.209 77.3105 160.049 76.5993 160.049C75.8881 160.049 75.8881 161.209 76.5993 161.209Z" fill="white"/>
<path d="M78.8359 143.623C79.547 143.623 79.547 142.463 78.8359 142.463C78.1247 142.463 78.1247 143.623 78.8359 143.623Z" fill="white"/>
<path d="M87.1585 177.357C87.8697 177.357 87.8697 176.197 87.1585 176.197C86.4473 176.197 86.4473 177.357 87.1585 177.357Z" fill="white"/>
<path d="M109.766 74.0721C110.477 74.0721 110.477 72.9121 109.766 72.9121C109.055 72.9121 109.055 74.0721 109.766 74.0721Z" fill="white"/>
<path d="M98.9596 88.9205C99.6708 88.9205 99.6708 87.7605 98.9596 87.7605C98.2485 87.7605 98.2485 88.9205 98.9596 88.9205Z" fill="white"/>
<path d="M90.7607 74.8507C91.4718 74.8507 91.4718 73.6907 90.7607 73.6907C90.0495 73.6907 90.0495 74.8507 90.7607 74.8507Z" fill="white"/>
<path d="M97.2796 60.1981C97.9908 60.1981 97.9908 59.0381 97.2796 59.0381C96.5685 59.0381 96.5685 60.1981 97.2796 60.1981Z" fill="white"/>
<path d="M106.782 36.7548C107.494 36.7548 107.494 35.5947 106.782 35.5947C106.071 35.5947 106.071 36.7548 106.782 36.7548Z" fill="white"/>
<path d="M123.046 19.8236C123.758 19.8236 123.758 18.6636 123.046 18.6636C122.335 18.6636 122.335 19.8236 123.046 19.8236Z" fill="white"/>
<path d="M96.1614 104.744C96.8725 104.744 96.8725 103.583 96.1614 103.583C95.4502 103.583 95.4502 104.744 96.1614 104.744Z" fill="white"/>
<path d="M107.901 103.96C108.612 103.96 108.612 102.8 107.901 102.8C107.19 102.8 107.19 103.96 107.901 103.96Z" fill="white"/>
<path d="M77.532 84.8168C78.2432 84.8168 78.2432 83.6567 77.532 83.6567C76.8209 83.6567 76.8209 84.8168 77.532 84.8168Z" fill="white"/>
<path d="M85.5403 106.893C86.2515 106.893 86.2515 105.733 85.5403 105.733C84.8292 105.733 84.8292 106.893 85.5403 106.893Z" fill="white"/>
<path d="M101.006 118.422C101.717 118.422 101.717 117.262 101.006 117.262C100.294 117.262 100.294 118.422 101.006 118.422Z" fill="white"/>
<path d="M89.2713 133.657C89.9825 133.657 89.9825 132.497 89.2713 132.497C88.5602 132.497 88.5602 133.657 89.2713 133.657Z" fill="white"/>
<path d="M98.2124 142.648C98.9236 142.648 98.9236 141.488 98.2124 141.488C97.5013 141.488 97.5013 142.648 98.2124 142.648Z" fill="white"/>
<path d="M116.1 151.831C116.811 151.831 116.811 150.671 116.1 150.671C115.388 150.671 115.388 151.831 116.1 151.831Z" fill="white"/>
<path d="M104.175 160.229C104.886 160.229 104.886 159.069 104.175 159.069C103.464 159.069 103.464 160.229 104.175 160.229Z" fill="white"/>
<path d="M117.218 169.608C117.929 169.608 117.929 168.448 117.218 168.448C116.507 168.448 116.507 169.608 117.218 169.608Z" fill="white"/>
<path d="M203.763 70.2929C204.474 70.2929 204.474 69.1328 203.763 69.1328C203.052 69.1328 203.052 70.2929 203.763 70.2929Z" fill="white"/>
<path d="M195.688 79.671C196.399 79.671 196.399 78.511 195.688 78.511C194.977 78.511 194.977 79.671 195.688 79.671Z" fill="white"/>
<path d="M189.354 96.9943C190.066 96.9943 190.066 95.8342 189.354 95.8342C188.643 95.8342 188.643 96.9943 189.354 96.9943Z" fill="white"/>
<path d="M222.645 95.298C223.356 95.298 223.356 94.1379 222.645 94.1379C221.934 94.1379 221.934 95.298 222.645 95.298Z" fill="white"/>
<path d="M226.866 77.588C227.577 77.588 227.577 76.428 226.866 76.428C226.154 76.428 226.154 77.588 226.866 77.588Z" fill="white"/>
<path d="M217.801 118.091C218.512 118.091 218.512 116.931 217.801 116.931C217.09 116.931 217.09 118.091 217.801 118.091Z" fill="white"/>
<path d="M208.107 117.05C208.819 117.05 208.819 115.89 208.107 115.89C207.396 115.89 207.396 117.05 208.107 117.05Z" fill="white"/>
<path d="M189.478 138.544C190.189 138.544 190.189 137.384 189.478 137.384C188.767 137.384 188.767 138.544 189.478 138.544Z" fill="white"/>
<path d="M204.758 149.222C205.469 149.222 205.469 148.062 204.758 148.062C204.047 148.062 204.047 149.222 204.758 149.222Z" fill="white"/>
<path d="M220.78 137.111C221.491 137.111 221.491 135.951 220.78 135.951C220.068 135.951 220.068 137.111 220.78 137.111Z" fill="white"/>
<path d="M184.634 166.416C185.345 166.416 185.345 165.256 184.634 165.256C183.923 165.256 183.923 166.416 184.634 166.416Z" fill="white"/>
<path d="M183.145 159.121C183.856 159.121 183.856 157.961 183.145 157.961C182.434 157.961 182.434 159.121 183.145 159.121Z" fill="white"/>
<path d="M169.478 161.209C170.189 161.209 170.189 160.049 169.478 160.049C168.767 160.049 168.767 161.209 169.478 161.209Z" fill="white"/>
<path d="M167.241 143.623C167.953 143.623 167.953 142.463 167.241 142.463C166.53 142.463 166.53 143.623 167.241 143.623Z" fill="white"/>
<path d="M158.919 177.357C159.63 177.357 159.63 176.197 158.919 176.197C158.208 176.197 158.208 177.357 158.919 177.357Z" fill="white"/>
<path d="M136.316 74.0717C137.027 74.0717 137.027 72.9116 136.316 72.9116C135.605 72.9116 135.605 74.0717 136.316 74.0717Z" fill="white"/>
<path d="M147.123 88.9203C147.834 88.9203 147.834 87.7603 147.123 87.7603C146.412 87.7603 146.412 88.9203 147.123 88.9203Z" fill="white"/>
<path d="M155.317 74.8505C156.028 74.8505 156.028 73.6904 155.317 73.6904C154.605 73.6904 154.605 74.8505 155.317 74.8505Z" fill="white"/>
<path d="M148.798 60.1976C149.509 60.1976 149.509 59.0376 148.798 59.0376C148.086 59.0376 148.086 60.1976 148.798 60.1976Z" fill="white"/>
<path d="M139.295 36.7548C140.006 36.7548 140.006 35.5947 139.295 35.5947C138.584 35.5947 138.584 36.7548 139.295 36.7548Z" fill="white"/>
<path d="M149.916 104.743C150.627 104.743 150.627 103.583 149.916 103.583C149.205 103.583 149.205 104.743 149.916 104.743Z" fill="white"/>
<path d="M138.177 103.96C138.888 103.96 138.888 102.8 138.177 102.8C137.465 102.8 137.465 103.96 138.177 103.96Z" fill="white"/>
<path d="M168.545 84.8165C169.256 84.8165 169.256 83.6565 168.545 83.6565C167.834 83.6565 167.834 84.8165 168.545 84.8165Z" fill="white"/>
<path d="M160.537 106.893C161.248 106.893 161.248 105.733 160.537 105.733C159.826 105.733 159.826 106.893 160.537 106.893Z" fill="white"/>
<path d="M145.072 118.422C145.783 118.422 145.783 117.261 145.072 117.261C144.361 117.261 144.361 118.422 145.072 118.422Z" fill="white"/>
<path d="M156.811 133.657C157.522 133.657 157.522 132.497 156.811 132.497C156.1 132.497 156.1 133.657 156.811 133.657Z" fill="white"/>
<path d="M147.865 142.648C148.576 142.648 148.576 141.488 147.865 141.488C147.154 141.488 147.154 142.648 147.865 142.648Z" fill="white"/>
<path d="M129.978 151.83C130.689 151.83 130.689 150.67 129.978 150.67C129.266 150.67 129.266 151.83 129.978 151.83Z" fill="white"/>
<path d="M141.902 160.229C142.614 160.229 142.614 159.069 141.902 159.069C141.191 159.069 141.191 160.229 141.902 160.229Z" fill="white"/>
<path d="M128.859 169.608C129.571 169.608 129.571 168.448 128.859 168.448C128.148 168.448 128.148 169.608 128.859 169.608Z" fill="white"/>
</svg>
