<svg width="165" height="175" viewBox="0 0 165 175" fill="none" xmlns="http://www.w3.org/2000/svg">
<path d="M156.04 120.016C156.04 120.016 164.435 136.958 160.187 154.016C158.243 161.823 155.357 168.659 152.172 173.616L134.376 168.938C133.9 163.018 134.565 155.598 136.509 147.792C140.757 130.733 156.04 120.017 156.04 120.017V120.016Z" fill="#D0DA58"/>
<path d="M134.376 168.937C133.9 163.018 134.565 155.597 136.509 147.791C140.757 130.732 156.04 120.016 156.04 120.016L143.274 171.276L134.376 168.937Z" fill="#187231"/>
<path d="M165 149.766C165 149.766 165.1 159.283 159.727 166.966C157.268 170.481 154.71 170.71 152.308 172.651L145.505 170.377C146.529 167.419 148.356 163.901 150.815 160.386C156.188 152.704 165 149.766 165 149.766V149.766Z" fill="#D0DA58"/>
<path d="M145.505 170.377C146.529 167.42 148.356 163.901 150.815 160.386C156.188 152.704 165 149.767 165 149.767L148.854 172.85L145.505 170.377Z" fill="#187231"/>
<path d="M16.1264 123.294C16.1264 123.294 8.68782 139.386 12.7637 155.753C14.629 163.242 17.3397 169.817 20.3001 174.597L36.4483 170.351C36.8104 164.697 36.1147 157.593 34.2494 150.104C30.1734 133.737 16.1264 123.294 16.1264 123.294Z" fill="#187231"/>
<path d="M36.4482 170.351C36.8103 164.697 36.1145 157.593 34.2492 150.104C30.1733 133.737 16.1263 123.294 16.1263 123.294L28.3745 172.474L36.4489 170.351H36.4482Z" fill="#D0DA58"/>
<path d="M0.000128846 149.487C0.000128846 149.487 -0.099889 159.005 5.27334 166.687C7.73218 170.202 10.2903 170.432 12.6922 172.372L19.4949 170.099C18.4713 167.141 16.644 163.622 14.1852 160.107C8.81193 152.425 0.000128846 149.487 0.000128846 149.487Z" fill="#187231"/>
<path d="M19.4951 170.099C18.4715 167.141 16.6442 163.622 14.1853 160.107C8.81211 152.425 0.000305176 149.487 0.000305176 149.487L16.1463 172.571L19.4951 170.098V170.099Z" fill="#D0DA58"/>
<path d="M158.017 169.763H8.3702C6.96263 169.763 5.82156 170.935 5.82156 172.382C5.82156 173.828 6.96263 175 8.3702 175H158.017C159.424 175 160.565 173.828 160.565 172.382C160.565 170.935 159.424 169.763 158.017 169.763Z" fill="#481D8E"/>
<path d="M133.345 0H40.4307C38.8667 0 37.5988 1.3027 37.5988 2.90967V166.892C37.5988 168.499 38.8667 169.802 40.4307 169.802H133.345C134.909 169.802 136.176 168.499 136.176 166.892V2.90967C136.176 1.3027 134.909 0 133.345 0Z" fill="#404040"/>
<path d="M133.396 2.02148H40.378C39.9611 2.02148 39.6231 2.36874 39.6231 2.7971V161.492C39.6231 161.92 39.9611 162.268 40.378 162.268H133.396C133.813 162.268 134.151 161.92 134.151 161.492V2.7971C134.151 2.36874 133.813 2.02148 133.396 2.02148Z" fill="#737373"/>
<path d="M133.055 3.37109H40.7198V160.918H133.055V3.37109Z" fill="#E5EDFF"/>
<path d="M125.324 153.2L125.324 11.0896L48.4496 11.0896L48.4496 153.2H125.324Z" fill="white"/>
<path d="M69.8236 71.5137C70.0572 72.2713 70.1849 73.0769 70.1849 73.914C70.1849 78.2984 66.7259 81.8532 62.4587 81.8532C58.1915 81.8532 54.7325 78.2992 54.7325 73.914C54.7325 71.0959 56.1664 68.6265 58.3208 67.2178L56.8395 64.7507C53.882 66.6695 51.9167 70.0547 51.9167 73.914C51.9167 79.8969 56.6365 84.7463 62.4595 84.7463C68.2824 84.7463 73.0022 79.8969 73.0022 73.914C73.0022 72.7664 72.827 71.6607 72.5051 70.6218L69.825 71.5137H69.8236Z" fill="#585FB0"/>
<path d="M62.4587 63.0818C60.3919 63.0818 58.466 63.6954 56.8394 64.7508L58.3207 67.2179C59.518 66.4355 60.935 65.9757 62.4587 65.9757C65.9111 65.9757 68.8335 68.3033 69.8235 71.5137L72.5035 70.6219C71.1471 66.2495 67.1632 63.0818 62.4579 63.0818H62.4587Z" fill="#F99CCB"/>
<path d="M70.4535 64.008C68.5678 62.4245 66.3667 61.5049 64.1159 61.2146L63.7085 64.3275C65.4169 64.5436 67.088 65.2389 68.5189 66.4398C71.7815 69.1785 72.7963 73.6941 71.3238 77.5152L74.1717 78.6568C76.1129 73.6019 74.7682 67.631 70.4535 64.008Z" fill="#AA7EFA"/>
<path d="M121.397 64.49H80.53V88.5782H121.397V64.49Z" fill="#F99CCB"/>
<g style="mix-blend-mode:multiply">
<path d="M121.397 75.5816C120.61 75.9049 119.363 76.298 117.874 76.3362C115.312 76.4022 116.145 71.5978 112.814 69.2942C109.483 66.9907 105.512 69.1622 101.924 73.0455C98.3377 76.9288 98.4012 76.7968 94.4297 74.362C90.9568 72.2324 84.1534 72.1161 80.5294 74.365V88.578H121.397V75.5816H121.397Z" fill="#D1DEFF"/>
</g>
<g style="mix-blend-mode:multiply">
<path d="M121.397 82.2436C120.698 82.3643 119.709 82.4056 118.451 82.128C115.761 81.5355 114.8 77.9814 110.764 81.3382C106.728 84.6949 104.423 84.9582 98.8495 80.5483C93.7478 76.5112 86.4458 75.5121 80.5294 79.2596V88.5782H121.397V82.2436H121.397Z" fill="#D1DEFF"/>
</g>
<path d="M83.9358 94.896H79.6869C79.1974 94.896 78.8006 95.3037 78.8006 95.8066V100.172C78.8006 100.675 79.1974 101.083 79.6869 101.083H83.9358C84.4253 101.083 84.8221 100.675 84.8221 100.172V95.8066C84.8221 95.3037 84.4253 94.896 83.9358 94.896Z" fill="#AA7EFA"/>
<g style="mix-blend-mode:multiply">
<path d="M103.566 95.554H87.9855C87.6181 95.554 87.3204 95.8599 87.3204 96.2373V96.6476C87.3204 97.025 87.6181 97.331 87.9855 97.331H103.566C103.933 97.331 104.231 97.025 104.231 96.6476V96.2373C104.231 95.8599 103.933 95.554 103.566 95.554Z" fill="#D1DEFF"/>
</g>
<g style="mix-blend-mode:multiply">
<path d="M119.9 99.0862H87.9855C87.6181 99.0862 87.3204 99.3921 87.3204 99.7695V100.18C87.3204 100.557 87.6181 100.863 87.9855 100.863H119.9C120.267 100.863 120.565 100.557 120.565 100.18V99.7695C120.565 99.3921 120.267 99.0862 119.9 99.0862Z" fill="#D1DEFF"/>
</g>
<path d="M83.9358 107.763H79.6869C79.1974 107.763 78.8006 108.17 78.8006 108.673V113.039C78.8006 113.542 79.1974 113.95 79.6869 113.95H83.9358C84.4253 113.95 84.8221 113.542 84.8221 113.039V108.673C84.8221 108.17 84.4253 107.763 83.9358 107.763Z" fill="#F99CCB"/>
<g style="mix-blend-mode:multiply">
<path d="M103.566 108.421H87.9855C87.6181 108.421 87.3204 108.727 87.3204 109.105V109.515C87.3204 109.892 87.6181 110.198 87.9855 110.198H103.566C103.933 110.198 104.231 109.892 104.231 109.515V109.105C104.231 108.727 103.933 108.421 103.566 108.421Z" fill="#D1DEFF"/>
</g>
<g style="mix-blend-mode:multiply">
<path d="M119.9 111.953H87.9855C87.6181 111.953 87.3204 112.259 87.3204 112.636V113.046C87.3204 113.424 87.6181 113.73 87.9855 113.73H119.9C120.267 113.73 120.565 113.424 120.565 113.046V112.636C120.565 112.259 120.267 111.953 119.9 111.953Z" fill="#D1DEFF"/>
</g>
<path d="M67.6539 55.1285C76.14 55.1285 83.0194 48.0602 83.0194 39.341C83.0194 30.6218 76.14 23.5535 67.6539 23.5535C59.1677 23.5535 52.2883 30.6218 52.2883 39.341C52.2883 48.0602 59.1677 55.1285 67.6539 55.1285Z" fill="#B2C4EB"/>
<path d="M80.1444 48.5305C81.952 45.9419 83.0193 42.7705 83.0193 39.341C83.0193 30.6217 76.14 23.5535 67.6538 23.5535V39.341L80.1444 48.5305Z" fill="#E5EDFF"/>
<path d="M83.0193 39.3408H67.6538L80.1444 48.5304C81.952 45.9418 83.0193 42.7703 83.0193 39.3408Z" fill="#F99CCB"/>
<path d="M125.201 11.1152H48.668C46.7097 11.1152 45.1221 12.7464 45.1221 14.7585C45.1221 16.7706 46.7097 18.4018 48.668 18.4018H125.201C127.159 18.4018 128.747 16.7706 128.747 14.7585C128.747 12.7464 127.159 11.1152 125.201 11.1152Z" fill="#797FC9"/>
<path d="M124.019 16.3769H71.3723C70.5021 16.3769 69.7961 15.6523 69.7961 14.7574C69.7961 13.8633 70.5014 13.1379 71.3723 13.1379H124.019C124.889 13.1379 125.595 13.8625 125.595 14.7574C125.595 15.6515 124.89 16.3769 124.019 16.3769Z" fill="white"/>
<path d="M51.4123 15.1046C51.5856 14.3499 51.1307 13.5936 50.3961 13.4154C49.6615 13.2373 48.9254 13.7047 48.752 14.4595C48.5786 15.2143 49.0336 15.9706 49.7682 16.1487C50.5028 16.3269 51.2389 15.8594 51.4123 15.1046Z" fill="white"/>
<path d="M55.4002 15.0097C55.5211 14.2442 55.0152 13.5229 54.2701 13.3987C53.5251 13.2744 52.8231 13.7942 52.7022 14.5597C52.5812 15.3252 53.0872 16.0465 53.8322 16.1708C54.5772 16.295 55.2792 15.7752 55.4002 15.0097Z" fill="white"/>
<path d="M58.9802 15.7761C59.5139 15.2277 59.5139 14.3387 58.9802 13.7903C58.4465 13.2419 57.5812 13.2419 57.0475 13.7903C56.5138 14.3387 56.5137 15.2277 57.0475 15.7761C57.5812 16.3245 58.4465 16.3245 58.9802 15.7761Z" fill="white"/>
<g style="mix-blend-mode:multiply">
<path d="M93.9032 43.6421H89.5695V53.0537H93.9032V43.6421Z" fill="#D1DEFF"/>
</g>
<g style="mix-blend-mode:multiply">
<path d="M101.644 38.2788H97.3103V53.0544H101.644V38.2788Z" fill="#D1DEFF"/>
</g>
<g style="mix-blend-mode:multiply">
<path d="M109.384 42.3264H105.05V53.0537H109.384V42.3264Z" fill="#D1DEFF"/>
</g>
<g style="mix-blend-mode:multiply">
<path d="M117.124 45.7678H112.79V53.0544H117.124V45.7678Z" fill="#D1DEFF"/>
</g>
<path d="M114.9 152.427L109.155 148.708L105.21 155.141L110.955 158.86C111.278 159.069 111.705 158.969 111.909 158.638C112.112 158.306 112.539 158.207 112.862 158.416L114.651 159.574C114.821 159.685 114.873 159.917 114.765 160.092C114.657 160.268 114.709 160.5 114.88 160.611L127.257 168.621C128.631 169.511 130.485 169.222 131.438 167.87C132.482 166.39 132.079 164.336 130.597 163.376L118.131 155.309C117.96 155.198 117.734 155.251 117.626 155.427C117.518 155.602 117.293 155.655 117.122 155.544L115.333 154.386C115.011 154.177 114.913 153.739 115.117 153.407C115.321 153.075 115.224 152.636 114.901 152.427H114.9Z" fill="#585FB0"/>
<path d="M92.5971 163.035C103.645 163.035 112.601 153.833 112.601 142.482C112.601 131.131 103.645 121.929 92.5971 121.929C81.5494 121.929 72.5935 131.131 72.5935 142.482C72.5935 153.833 81.5494 163.035 92.5971 163.035Z" fill="#797FC9"/>
<path d="M104.978 155.204C111.816 148.178 111.816 136.787 104.978 129.761C98.1405 122.735 87.0539 122.735 80.216 129.761C73.378 136.787 73.378 148.178 80.216 155.204C87.0539 162.229 98.1405 162.229 104.978 155.204Z" fill="#B2C4EB"/>
<path d="M79.2612 143.164C79.6284 150.732 85.896 156.561 93.2615 156.184C100.627 155.807 106.3 149.367 105.933 141.799C105.566 134.231 99.2984 128.402 91.9328 128.78C84.5673 129.157 78.894 135.597 79.2612 143.164ZM99.6357 142.122C99.8291 146.116 96.8352 149.515 92.9476 149.714C89.06 149.912 85.7521 146.836 85.5587 142.842C85.3652 138.847 88.3592 135.449 92.2467 135.25C96.1343 135.051 99.4422 138.127 99.6357 142.122Z" fill="#AA7EFA"/>
<path d="M94.1929 128.863C93.4549 128.772 92.7 128.741 91.9327 128.78C84.5671 129.157 78.8938 135.597 79.2611 143.165C79.2611 143.172 79.2625 143.18 79.2625 143.188L85.5578 142.829C85.3717 138.841 88.3627 135.449 92.2459 135.25C92.654 135.229 93.0555 135.247 93.4476 135.295L94.1922 128.863H94.1929Z" fill="white"/>
<g style="mix-blend-mode:screen">
<path d="M85.4886 133.407C85.4236 133.513 85.3426 133.61 85.2455 133.697C84.3957 134.446 83.6598 135.324 83.0575 136.307C82.6903 136.906 81.9208 137.085 81.3382 136.708C80.7556 136.331 80.5812 135.541 80.9476 134.942C81.6828 133.743 82.5822 132.671 83.6211 131.754C84.1438 131.293 84.9308 131.354 85.3791 131.891C85.7441 132.329 85.7726 132.945 85.4886 133.409V133.407Z" fill="#38475C"/>
</g>
<g style="mix-blend-mode:screen">
<path d="M100.328 132.279C99.9605 132.878 99.191 133.057 98.6084 132.68C95.2815 130.527 91.0246 130.324 87.4998 132.151C86.8851 132.47 86.1353 132.217 85.8251 131.585C85.6207 131.169 85.6579 130.692 85.8835 130.324C86.0003 130.134 86.1667 129.973 86.3763 129.864C90.6778 127.634 95.8743 127.882 99.9378 130.512C100.52 130.89 100.695 131.68 100.328 132.279H100.328Z" fill="#38475C"/>
</g>
<path d="M57.4032 95.1196H54.9597C53.9988 95.1196 53.2199 95.9199 53.2199 96.9071V99.4177C53.2199 100.405 53.9988 101.205 54.9597 101.205H57.4032C58.364 101.205 59.1429 100.405 59.1429 99.4177V96.9071C59.1429 95.9199 58.364 95.1196 57.4032 95.1196Z" fill="#797FC9"/>
<g style="mix-blend-mode:multiply">
<path d="M67.9109 95.4399H60.7862C60.4983 95.4399 60.265 95.6797 60.265 95.9755V96.5696C60.265 96.8654 60.4983 97.1052 60.7862 97.1052H67.9109C68.1987 97.1052 68.4321 96.8654 68.4321 96.5696V95.9755C68.4321 95.6797 68.1987 95.4399 67.9109 95.4399Z" fill="#D1DEFF"/>
</g>
<g style="mix-blend-mode:multiply">
<path d="M70.6332 98.8774H60.7862C60.4983 98.8774 60.265 99.1172 60.265 99.413V100.007C60.265 100.303 60.4983 100.543 60.7862 100.543H70.6332C70.9211 100.543 71.1545 100.303 71.1545 100.007V99.413C71.1545 99.1172 70.9211 98.8774 70.6332 98.8774Z" fill="#D1DEFF"/>
</g>
<path d="M57.4032 107.929H54.9597C53.9988 107.929 53.2199 108.729 53.2199 109.717V112.227C53.2199 113.215 53.9988 114.015 54.9597 114.015H57.4032C58.364 114.015 59.1429 113.215 59.1429 112.227V109.717C59.1429 108.729 58.364 107.929 57.4032 107.929Z" fill="#F99CCB"/>
<g style="mix-blend-mode:multiply">
<path d="M67.9107 108.249H60.7861C60.4982 108.249 60.2648 108.489 60.2648 108.785V109.379C60.2648 109.675 60.4982 109.915 60.7861 109.915H67.9107C68.1986 109.915 68.432 109.675 68.432 109.379V108.785C68.432 108.489 68.1986 108.249 67.9107 108.249Z" fill="#D1DEFF"/>
</g>
<g style="mix-blend-mode:multiply">
<path d="M70.6331 111.687H60.7861C60.4982 111.687 60.2648 111.927 60.2648 112.223V112.817C60.2648 113.112 60.4982 113.352 60.7861 113.352H70.6331C70.921 113.352 71.1544 113.112 71.1544 112.817V112.223C71.1544 111.927 70.921 111.687 70.6331 111.687Z" fill="#D1DEFF"/>
</g>
<path d="M57.4032 123.641H54.9597C53.9988 123.641 53.2199 124.441 53.2199 125.428V127.939C53.2199 128.926 53.9988 129.726 54.9597 129.726H57.4032C58.364 129.726 59.1429 128.926 59.1429 127.939V125.428C59.1429 124.441 58.364 123.641 57.4032 123.641Z" fill="#AA7EFA"/>
<g style="mix-blend-mode:multiply">
<path d="M67.9107 123.961H60.7861C60.4982 123.961 60.2648 124.201 60.2648 124.497V125.091C60.2648 125.387 60.4982 125.626 60.7861 125.626H67.9107C68.1986 125.626 68.432 125.387 68.432 125.091V124.497C68.432 124.201 68.1986 123.961 67.9107 123.961Z" fill="#D1DEFF"/>
</g>
<g style="mix-blend-mode:multiply">
<path d="M70.6331 127.399H60.7861C60.4982 127.399 60.2648 127.639 60.2648 127.935V128.529C60.2648 128.824 60.4982 129.064 60.7861 129.064H70.6331C70.921 129.064 71.1544 128.824 71.1544 128.529V127.935C71.1544 127.639 70.921 127.399 70.6331 127.399Z" fill="#D1DEFF"/>
</g>
</svg>
