<svg width="202" height="209" viewBox="0 0 202 209" fill="none" xmlns="http://www.w3.org/2000/svg">
<path d="M191.031 143.002C191.031 143.002 201.308 163.187 196.107 183.513C193.727 192.815 190.194 200.961 186.296 206.867L164.509 201.292C163.926 194.24 164.74 185.398 167.12 176.097C172.321 155.771 191.031 143.003 191.031 143.003V143.002Z" fill="#D0DA58"/>
<path d="M164.509 201.291C163.926 194.239 164.74 185.397 167.12 176.096C172.321 155.77 191.031 143.002 191.031 143.002L175.402 204.079L164.509 201.291Z" fill="#187231"/>
<path d="M202 178.449C202 178.449 202.122 189.789 195.544 198.943C192.534 203.131 189.402 203.404 186.462 205.717L178.134 203.008C179.387 199.484 181.624 195.291 184.634 191.103C191.212 181.95 202 178.45 202 178.45V178.449Z" fill="#D0DA58"/>
<path d="M178.134 203.008C179.387 199.484 181.624 195.291 184.634 191.103C191.212 181.95 202 178.45 202 178.45L182.233 205.954L178.134 203.008Z" fill="#187231"/>
<path d="M19.7426 146.907C19.7426 146.907 10.636 166.081 15.6259 185.583C17.9095 194.506 21.2281 202.34 24.8523 208.036L44.6215 202.977C45.0649 196.24 44.2131 187.775 41.9295 178.852C36.9396 159.35 19.7426 146.907 19.7426 146.907Z" fill="#187231"/>
<path d="M44.6214 202.977C45.0647 196.24 44.213 187.775 41.9294 178.852C36.9395 159.35 19.7425 146.907 19.7425 146.907L34.7372 205.506L44.6223 202.977H44.6214Z" fill="#D0DA58"/>
<path d="M0.000157739 178.117C0.000157739 178.117 -0.122288 189.457 6.45585 198.611C9.46606 202.799 12.5978 203.073 15.5383 205.385L23.8665 202.676C22.6134 199.152 20.3763 194.959 17.3661 190.771C10.7879 181.617 0.000157739 178.117 0.000157739 178.117Z" fill="#187231"/>
<path d="M23.8666 202.676C22.6135 199.152 20.3764 194.959 17.3662 190.771C10.7881 181.617 0.000305176 178.117 0.000305176 178.117L19.7669 205.622L23.8666 202.675V202.676Z" fill="#D0DA58"/>
<path d="M193.451 202.276H10.2472C8.52395 202.276 7.12701 203.673 7.12701 205.396C7.12701 207.119 8.52395 208.516 10.2472 208.516H193.451C195.174 208.516 196.571 207.119 196.571 205.396C196.571 203.673 195.174 202.276 193.451 202.276Z" fill="#481D8E"/>
<path d="M163.246 0H49.497C47.5823 0 46.0301 1.55219 46.0301 3.46692V198.855C46.0301 200.77 47.5823 202.322 49.497 202.322H163.246C165.161 202.322 166.713 200.77 166.713 198.855V3.46692C166.713 1.55219 165.161 0 163.246 0Z" fill="#404040"/>
<path d="M163.309 2.40869H49.4324C48.922 2.40869 48.5083 2.82245 48.5083 3.33285V192.421C48.5083 192.931 48.922 193.345 49.4324 193.345H163.309C163.82 193.345 164.233 192.931 164.233 192.421V3.33285C164.233 2.82245 163.82 2.40869 163.309 2.40869Z" fill="#737373"/>
<path d="M162.892 4.0166H49.851V191.736H162.892V4.0166Z" fill="#E5EDFF"/>
<path d="M153.427 182.54V13.2134L59.3141 13.2134L59.3141 182.54H153.427Z" fill="white"/>
<path d="M85.4809 85.2098C85.7669 86.1125 85.9234 87.0724 85.9234 88.0699C85.9234 93.2939 81.6887 97.5295 76.4646 97.5295C71.2405 97.5295 67.0059 93.2948 67.0059 88.0699C67.0059 84.712 68.7612 81.7697 71.3987 80.0912L69.5853 77.1516C65.9646 79.4379 63.5586 83.4714 63.5586 88.0699C63.5586 95.1986 69.3368 100.977 76.4655 100.977C83.5942 100.977 89.3724 95.1986 89.3724 88.0699C89.3724 86.7024 89.1579 85.385 88.7638 84.1471L85.4827 85.2098H85.4809Z" fill="#585FB0"/>
<path d="M76.4646 75.1631C73.9343 75.1631 71.5766 75.8942 69.5852 77.1517L71.3987 80.0913C72.8645 79.1591 74.5993 78.6112 76.4646 78.6112C80.6912 78.6112 84.269 81.3846 85.4809 85.2099L88.7619 84.1472C87.1013 78.9375 82.224 75.1631 76.4637 75.1631H76.4646Z" fill="#F99CCB"/>
<path d="M86.2522 76.2669C83.9436 74.3801 81.2489 73.2844 78.4934 72.9385L77.9947 76.6476C80.0861 76.905 82.1319 77.7335 83.8837 79.1645C87.878 82.4276 89.1203 87.8081 87.3176 92.3609L90.8042 93.7212C93.1807 87.6981 91.5344 80.5838 86.2522 76.2669Z" fill="#AA7EFA"/>
<path d="M148.62 76.8408H98.5882V105.542H148.62V76.8408Z" fill="#F99CCB"/>
<g style="mix-blend-mode:multiply">
<path d="M148.62 90.057C147.656 90.4422 146.13 90.9105 144.306 90.9561C141.169 91.0348 142.189 85.3102 138.112 82.5654C134.034 79.8207 129.172 82.4081 124.78 87.0352C120.389 91.6622 120.467 91.5049 115.605 88.6037C111.353 86.0663 103.024 85.9278 98.5875 88.6073V105.542H148.619V90.057H148.62Z" fill="#D1DEFF"/>
</g>
<g style="mix-blend-mode:multiply">
<path d="M148.62 97.9946C147.764 98.1385 146.553 98.1876 145.012 97.857C141.719 97.1509 140.543 92.9162 135.602 96.9158C130.661 100.915 127.839 101.229 121.016 95.9747C114.77 91.1644 105.831 89.9739 98.5875 94.4392V105.542H148.619V97.9946H148.62Z" fill="#D1DEFF"/>
</g>
<path d="M102.758 113.071H97.556C96.9567 113.071 96.4709 113.556 96.4709 114.156V119.357C96.4709 119.957 96.9567 120.442 97.556 120.442H102.758C103.357 120.442 103.843 119.957 103.843 119.357V114.156C103.843 113.556 103.357 113.071 102.758 113.071Z" fill="#AA7EFA"/>
<g style="mix-blend-mode:multiply">
<path d="M126.789 113.854H107.716C107.266 113.854 106.901 114.219 106.901 114.669V115.158C106.901 115.607 107.266 115.972 107.716 115.972H126.789C127.239 115.972 127.604 115.607 127.604 115.158V114.669C127.604 114.219 127.239 113.854 126.789 113.854Z" fill="#D1DEFF"/>
</g>
<g style="mix-blend-mode:multiply">
<path d="M146.787 118.063H107.716C107.266 118.063 106.901 118.428 106.901 118.877V119.366C106.901 119.816 107.266 120.181 107.716 120.181H146.787C147.236 120.181 147.601 119.816 147.601 119.366V118.877C147.601 118.428 147.236 118.063 146.787 118.063Z" fill="#D1DEFF"/>
</g>
<path d="M102.758 128.401H97.556C96.9567 128.401 96.4709 128.887 96.4709 129.486V134.688C96.4709 135.287 96.9567 135.773 97.556 135.773H102.758C103.357 135.773 103.843 135.287 103.843 134.688V129.486C103.843 128.887 103.357 128.401 102.758 128.401Z" fill="#F99CCB"/>
<g style="mix-blend-mode:multiply">
<path d="M126.789 129.186H107.716C107.266 129.186 106.901 129.551 106.901 130V130.489C106.901 130.939 107.266 131.303 107.716 131.303H126.789C127.239 131.303 127.604 130.939 127.604 130.489V130C127.604 129.551 127.239 129.186 126.789 129.186Z" fill="#D1DEFF"/>
</g>
<g style="mix-blend-mode:multiply">
<path d="M146.787 133.394H107.716C107.266 133.394 106.901 133.758 106.901 134.208V134.697C106.901 135.147 107.266 135.511 107.716 135.511H146.787C147.236 135.511 147.601 135.147 147.601 134.697V134.208C147.601 133.758 147.236 133.394 146.787 133.394Z" fill="#D1DEFF"/>
</g>
<path d="M82.8247 65.6864C93.2138 65.6864 101.636 57.2644 101.636 46.8753C101.636 36.4862 93.2138 28.0642 82.8247 28.0642C72.4356 28.0642 64.0136 36.4862 64.0136 46.8753C64.0136 57.2644 72.4356 65.6864 82.8247 65.6864Z" fill="#B2C4EB"/>
<path d="M98.1162 57.8249C100.329 54.7405 101.636 50.9616 101.636 46.8753C101.636 36.4862 93.2138 28.0642 82.8247 28.0642V46.8753L98.1162 57.8249Z" fill="#E5EDFF"/>
<path d="M101.636 46.8752H82.8247L98.1162 57.8248C100.329 54.7404 101.636 50.9615 101.636 46.8752Z" fill="#F99CCB"/>
<path d="M153.276 13.2439H59.5815C57.184 13.2439 55.2404 15.1874 55.2404 17.5849C55.2404 19.9824 57.184 21.9259 59.5815 21.9259H153.276C155.674 21.9259 157.617 19.9824 157.617 17.5849C157.617 15.1874 155.674 13.2439 153.276 13.2439Z" fill="#797FC9"/>
<path d="M151.829 19.5136H87.377C86.3117 19.5136 85.4474 18.6502 85.4474 17.5839C85.4474 16.5186 86.3108 15.6543 87.377 15.6543H151.829C152.895 15.6543 153.759 16.5177 153.759 17.5839C153.759 18.6493 152.896 19.5136 151.829 19.5136Z" fill="white"/>
<path d="M62.9411 17.9975C63.1533 17.0981 62.5964 16.197 61.697 15.9847C60.7977 15.7725 59.8966 16.3294 59.6843 17.2288C59.472 18.1281 60.029 19.0293 60.9284 19.2415C61.8277 19.4538 62.7288 18.8968 62.9411 17.9975Z" fill="white"/>
<path d="M67.8233 17.8844C67.9713 16.9723 67.3519 16.1129 66.4398 15.9648C65.5277 15.8167 64.6683 16.4361 64.5202 17.3482C64.3722 18.2603 64.9915 19.1198 65.9037 19.2678C66.8158 19.4159 67.6752 18.7965 67.8233 17.8844Z" fill="white"/>
<path d="M72.2061 18.7976C72.8595 18.1442 72.8595 17.0848 72.2061 16.4314C71.5527 15.778 70.4933 15.778 69.8399 16.4314C69.1865 17.0848 69.1865 18.1442 69.8399 18.7976C70.4933 19.451 71.5527 19.451 72.2061 18.7976Z" fill="white"/>
<g style="mix-blend-mode:multiply">
<path d="M114.96 52.0002H109.655V63.2143H114.96V52.0002Z" fill="#D1DEFF"/>
</g>
<g style="mix-blend-mode:multiply">
<path d="M124.437 45.6099H119.131V63.2153H124.437V45.6099Z" fill="#D1DEFF"/>
</g>
<g style="mix-blend-mode:multiply">
<path d="M133.913 50.4326H128.607V63.2144H133.913V50.4326Z" fill="#D1DEFF"/>
</g>
<g style="mix-blend-mode:multiply">
<path d="M143.388 54.5332H138.083V63.2153H143.388V54.5332Z" fill="#D1DEFF"/>
</g>
<path d="M140.665 181.62L133.632 177.188L128.803 184.853L135.836 189.284C136.231 189.534 136.754 189.415 137.003 189.02C137.253 188.625 137.775 188.506 138.17 188.755L140.36 190.135C140.569 190.268 140.632 190.544 140.501 190.753C140.368 190.962 140.432 191.239 140.641 191.371L155.794 200.915C157.476 201.975 159.745 201.631 160.912 200.02C162.19 198.256 161.696 195.809 159.882 194.666L144.621 185.053C144.412 184.921 144.135 184.985 144.003 185.194C143.871 185.403 143.595 185.465 143.386 185.334L141.196 183.954C140.801 183.705 140.682 183.183 140.931 182.787C141.181 182.392 141.062 181.869 140.667 181.62H140.665Z" fill="#585FB0"/>
<path d="M113.361 194.259C126.886 194.259 137.851 183.295 137.851 169.77C137.851 156.245 126.886 145.281 113.361 145.281C99.8363 145.281 88.8721 156.245 88.8721 169.77C88.8721 183.295 99.8363 194.259 113.361 194.259Z" fill="#797FC9"/>
<path d="M128.519 184.928C136.89 176.557 136.89 162.984 128.519 154.613C120.148 146.241 106.575 146.241 98.2038 154.613C89.8324 162.984 89.8324 176.557 98.2038 184.928C106.575 193.299 120.148 193.299 128.519 184.928Z" fill="#B2C4EB"/>
<path d="M97.0349 170.583C97.4845 179.6 105.157 186.546 114.175 186.096C123.192 185.647 130.137 177.974 129.688 168.957C129.238 159.939 121.565 152.994 112.548 153.444C103.531 153.893 96.5854 161.566 97.0349 170.583ZM121.978 169.341C122.215 174.1 118.55 178.15 113.79 178.387C109.031 178.624 104.981 174.958 104.745 170.199C104.508 165.44 108.173 161.39 112.932 161.153C117.692 160.916 121.741 164.582 121.978 169.341Z" fill="#AA7EFA"/>
<path d="M115.315 153.543C114.411 153.435 113.487 153.397 112.548 153.444C103.531 153.893 96.5852 161.566 97.0348 170.583C97.0348 170.592 97.0366 170.601 97.0366 170.611L104.744 170.184C104.516 165.432 108.177 161.39 112.931 161.153C113.431 161.128 113.923 161.149 114.403 161.207L115.314 153.543H115.315Z" fill="white"/>
<g style="mix-blend-mode:screen">
<path d="M104.659 158.957C104.579 159.083 104.48 159.199 104.361 159.302C103.321 160.195 102.42 161.242 101.683 162.412C101.233 163.126 100.291 163.339 99.5777 162.891C98.8645 162.441 98.6509 161.499 99.0995 160.786C99.9996 159.358 101.101 158.079 102.373 156.987C103.012 156.438 103.976 156.511 104.525 157.151C104.972 157.672 105.006 158.407 104.659 158.959V158.957Z" fill="#38475C"/>
</g>
<g style="mix-blend-mode:screen">
<path d="M122.825 157.613C122.376 158.326 121.434 158.54 120.721 158.091C116.648 155.525 111.436 155.284 107.121 157.461C106.368 157.841 105.451 157.539 105.071 156.786C104.82 156.29 104.866 155.722 105.142 155.284C105.285 155.058 105.489 154.866 105.746 154.736C111.012 152.078 117.373 152.374 122.348 155.508C123.061 155.958 123.275 156.9 122.826 157.613H122.825Z" fill="#38475C"/>
</g>
<path d="M70.2754 113.337H67.2839C66.1077 113.337 65.1541 114.29 65.1541 115.467V118.458C65.1541 119.634 66.1077 120.588 67.2839 120.588H70.2754C71.4517 120.588 72.4052 119.634 72.4052 118.458V115.467C72.4052 114.29 71.4517 113.337 70.2754 113.337Z" fill="#797FC9"/>
<g style="mix-blend-mode:multiply">
<path d="M83.1394 113.719H74.4171C74.0646 113.719 73.7789 114.004 73.7789 114.357V115.065C73.7789 115.417 74.0646 115.703 74.4171 115.703H83.1394C83.4918 115.703 83.7775 115.417 83.7775 115.065V114.357C83.7775 114.004 83.4918 113.719 83.1394 113.719Z" fill="#D1DEFF"/>
</g>
<g style="mix-blend-mode:multiply">
<path d="M86.4722 117.814H74.4171C74.0646 117.814 73.7789 118.1 73.7789 118.453V119.16C73.7789 119.513 74.0646 119.799 74.4171 119.799H86.4722C86.8247 119.799 87.1104 119.513 87.1104 119.16V118.453C87.1104 118.1 86.8247 117.814 86.4722 117.814Z" fill="#D1DEFF"/>
</g>
<path d="M70.2754 128.6H67.2839C66.1077 128.6 65.1541 129.553 65.1541 130.729V133.721C65.1541 134.897 66.1077 135.851 67.2839 135.851H70.2754C71.4517 135.851 72.4052 134.897 72.4052 133.721V130.729C72.4052 129.553 71.4517 128.6 70.2754 128.6Z" fill="#F99CCB"/>
<g style="mix-blend-mode:multiply">
<path d="M83.1392 128.981H74.4169C74.0644 128.981 73.7787 129.267 73.7787 129.619V130.327C73.7787 130.68 74.0644 130.965 74.4169 130.965H83.1392C83.4916 130.965 83.7773 130.68 83.7773 130.327V129.619C83.7773 129.267 83.4916 128.981 83.1392 128.981Z" fill="#D1DEFF"/>
</g>
<g style="mix-blend-mode:multiply">
<path d="M86.472 133.077H74.4169C74.0644 133.077 73.7787 133.363 73.7787 133.716V134.423C73.7787 134.776 74.0644 135.062 74.4169 135.062H86.472C86.8245 135.062 87.1102 134.776 87.1102 134.423V133.716C87.1102 133.363 86.8245 133.077 86.472 133.077Z" fill="#D1DEFF"/>
</g>
<path d="M70.2754 147.321H67.2839C66.1077 147.321 65.1541 148.274 65.1541 149.45V152.442C65.1541 153.618 66.1077 154.572 67.2839 154.572H70.2754C71.4517 154.572 72.4052 153.618 72.4052 152.442V149.45C72.4052 148.274 71.4517 147.321 70.2754 147.321Z" fill="#AA7EFA"/>
<g style="mix-blend-mode:multiply">
<path d="M83.1392 147.702H74.4169C74.0644 147.702 73.7787 147.988 73.7787 148.34V149.048C73.7787 149.401 74.0644 149.686 74.4169 149.686H83.1392C83.4916 149.686 83.7773 149.401 83.7773 149.048V148.34C83.7773 147.988 83.4916 147.702 83.1392 147.702Z" fill="#D1DEFF"/>
</g>
<g style="mix-blend-mode:multiply">
<path d="M86.472 151.798H74.4169C74.0644 151.798 73.7787 152.084 73.7787 152.436V153.144C73.7787 153.497 74.0644 153.782 74.4169 153.782H86.472C86.8245 153.782 87.1102 153.497 87.1102 153.144V152.436C87.1102 152.084 86.8245 151.798 86.472 151.798Z" fill="#D1DEFF"/>
</g>
</svg>
