<svg width="286" height="203" viewBox="0 0 286 203" fill="none" xmlns="http://www.w3.org/2000/svg">
<g clip-path="url(#clip0_11_8440)">
<path d="M252.55 60.378C253.486 75.4902 255.562 163.667 178.115 180.601C178.115 180.601 162.699 122.925 250.672 59.3991C251.442 58.8433 252.487 59.3904 252.548 60.378H252.55Z" fill="#D0DA58"/>
<path d="M244.799 73.1657C243.301 77.7382 241.719 82.2717 240.096 86.7922C238.473 91.3113 236.802 95.8116 235.081 100.29C231.638 109.247 228.007 118.124 224.121 126.878C220.229 135.627 216.094 144.262 211.522 152.644C209.248 156.841 206.831 160.954 204.268 164.965C201.7 168.971 198.977 172.878 195.968 176.544C195.791 176.761 195.481 176.782 195.278 176.595C195.074 176.405 195.054 176.076 195.23 175.86H195.231L195.233 175.855C198.223 172.249 200.945 168.387 203.517 164.419C206.084 160.446 208.511 156.366 210.797 152.195C215.394 143.868 219.562 135.273 223.489 126.56C227.412 117.842 231.082 108.996 234.565 100.066C236.306 95.6022 237.999 91.1149 239.642 86.6088C241.283 82.1013 242.889 77.5765 244.405 73.0227C244.443 72.9058 244.561 72.8452 244.67 72.887C244.777 72.9275 244.834 73.0531 244.796 73.1671L244.799 73.1657Z" fill="#DCE5FE"/>
<path d="M186.445 201.178C186.445 201.178 187.954 183.798 205.613 167.429C221.998 152.242 262.112 117.275 272.176 96.991C272.621 96.0929 273.898 96.4654 273.84 97.479C273.216 108.356 269.639 135.469 250.165 161.217C225.05 194.418 186.446 201.178 186.446 201.178H186.445Z" fill="#187231"/>
<path d="M264.909 115.998C264.457 118.361 263.731 120.656 262.889 122.894C262.786 123.174 262.687 123.457 262.579 123.736L262.239 124.564L261.558 126.223L260.812 127.851C260.56 128.391 260.327 128.944 260.043 129.466C257.906 133.725 255.441 137.804 252.656 141.621C251.996 142.606 251.242 143.511 250.522 144.445L249.432 145.839C249.247 146.068 249.075 146.309 248.88 146.529L248.305 147.196L246.001 149.867C245.627 150.322 245.209 150.732 244.805 151.158L243.589 152.427L242.373 153.696L241.763 154.328L241.127 154.93L238.582 157.339C238.155 157.736 237.739 158.15 237.303 158.534L235.997 159.689L233.384 161.998L230.746 164.275C229.865 165.031 228.991 165.796 228.099 166.538C226.326 168.036 224.544 169.523 222.748 170.988C220.96 172.465 219.151 173.912 217.348 175.369L211.901 179.677C208.267 182.544 204.63 185.402 201.089 188.383C200.193 189.116 199.335 189.893 198.463 190.655C198.024 191.031 197.608 191.437 197.185 191.832C196.765 192.232 196.335 192.62 195.924 193.031C195.119 193.868 194.282 194.675 193.536 195.572L192.959 196.229C192.864 196.34 192.763 196.445 192.674 196.559L192.408 196.907L191.341 198.3L191.337 198.306C191.295 198.362 191.217 198.37 191.164 198.325C191.114 198.282 191.105 198.204 191.143 198.147C192.476 196.188 194.004 194.388 195.628 192.698C196.034 192.275 196.457 191.875 196.871 191.461C197.289 191.053 197.699 190.634 198.132 190.245C198.991 189.459 199.839 188.654 200.721 187.898L202.032 186.747C202.472 186.367 202.92 185.999 203.364 185.625L204.698 184.506L206.042 183.402C207.831 181.926 209.635 180.474 211.434 179.013C215.031 176.095 218.628 173.181 222.194 170.224C225.763 167.273 229.287 164.262 232.788 161.222L235.394 158.917L236.697 157.764C237.132 157.38 237.546 156.976 237.972 156.583L240.509 154.208L241.143 153.615L241.751 152.991L242.963 151.74C246.236 148.443 249.239 144.857 252.06 141.123C254.895 137.398 257.418 133.403 259.621 129.221C259.913 128.707 260.151 128.164 260.422 127.637L261.212 126.046L261.938 124.42L262.3 123.607C262.416 123.334 262.523 123.056 262.634 122.78C262.851 122.227 263.085 121.678 263.288 121.12L263.887 119.435C264.252 118.3 264.628 117.164 264.883 115.991C264.885 115.983 264.893 115.977 264.901 115.978C264.909 115.98 264.915 115.988 264.913 115.997L264.909 115.998Z" fill="#DCE5FE"/>
<path d="M33.829 43.4609C32.1444 64.2761 25.9409 185.134 108.023 194.676C108.023 194.676 127.12 113.154 35.8801 41.7933C35.082 41.1696 33.939 42.1009 33.829 43.4609Z" fill="#D0DA58"/>
<path d="M41.9805 59.3816C43.3461 65.1264 44.8094 70.8496 46.3149 76.5569C47.823 82.2643 49.3854 87.9557 51.0035 93.6283C54.2342 104.975 57.6971 116.248 61.4355 127.416C63.3183 132.993 65.2676 138.546 67.3106 144.059C69.3712 149.564 71.5214 155.028 73.7978 160.433C76.096 165.825 78.5299 171.151 81.1728 176.355C83.8226 181.549 86.6732 186.64 89.9569 191.39C90.1347 191.647 90.0831 192.008 89.8429 192.197C89.6013 192.387 89.2619 192.332 89.0841 192.076L89.0814 192.073C85.776 187.244 82.9294 182.102 80.2864 176.864C77.6516 171.619 75.2313 166.26 72.9494 160.838C70.6906 155.407 68.5581 149.917 66.5178 144.392C64.4952 138.859 62.5676 133.288 60.7066 127.693C57.0129 116.494 53.5976 105.193 50.413 93.8204C48.8194 88.1347 47.28 82.4317 45.7963 76.7129C44.3153 70.9926 42.8764 65.2622 41.5339 59.5014C41.5041 59.37 41.5787 59.2372 41.7022 59.2055C41.8258 59.1723 41.9507 59.2531 41.9805 59.3845V59.3816Z" fill="#DCE5FE"/>
<path d="M0.0095192 92.3926C-0.123511 91.291 1.22308 90.7322 1.82443 91.6404C7.63161 100.419 23.5355 122.927 39.529 132.035C65.569 146.863 89.8646 177.7 83.9529 200.622C83.9529 200.622 14.4514 212.375 0.0095192 92.3926Z" fill="#187231"/>
<path d="M6.809 105.482C6.91353 105.7 7.06149 105.974 7.19452 106.226L7.61261 106.992L8.46509 108.518L10.1986 111.555C11.3687 113.569 12.5619 115.568 13.7727 117.556C16.1863 121.535 18.6623 125.473 21.2129 129.352C26.3319 137.097 31.6341 144.708 37.3123 151.992C40.167 155.619 43.0312 159.239 46.0366 162.723C49.042 166.206 52.1234 169.615 55.3257 172.894C61.7057 179.472 68.554 185.549 75.9888 190.757C76.0906 190.826 76.1191 190.97 76.0539 191.077C75.9901 191.181 75.8598 191.213 75.7594 191.151C71.9164 188.721 68.25 185.983 64.6975 183.09C61.1681 180.165 57.8017 177.025 54.518 173.796C48.0199 167.256 41.9616 160.235 36.2942 152.883C33.4544 149.212 30.73 145.445 28.0572 141.637C25.3871 137.829 22.793 133.959 20.3089 130.012C17.8179 126.069 15.3813 122.088 13.0519 118.039C11.8913 116.01 10.7483 113.971 9.62979 111.917C9.07323 110.888 8.51803 109.858 7.97641 108.82L7.17551 107.255L6.78321 106.467C6.65561 106.195 6.52801 105.954 6.39634 105.634C6.34883 105.517 6.3977 105.382 6.50765 105.33C6.61353 105.281 6.73434 105.329 6.78593 105.436L6.809 105.483V105.482Z" fill="#DCE5FE"/>
<path d="M87.652 3.51423L199.135 4.81942C205.298 4.8916 210.132 10.5469 210.128 17.6518L210.029 193.422C210.026 198.339 206.284 202.418 201.769 202.438L82.2466 203C78.029 203.02 74.5702 199.268 74.5702 194.662V18.5066C74.5702 10.16 80.4263 3.42904 87.652 3.51423Z" fill="#481D8E"/>
<path d="M189.841 20.3647H96.1306C92.2008 20.3647 89.0447 23.8096 89.0447 27.8811V172.945C89.0447 177.016 92.2008 180.172 96.1306 180.172H189.841C193.771 180.172 196.985 177.016 196.985 172.945V27.8797C196.985 23.8082 193.771 20.3633 189.841 20.3633V20.3647Z" fill="url(#paint0_linear_11_8440)"/>
<path d="M120.372 2.77486C120.456 2.75464 120.546 2.75609 120.637 2.78208L125.487 4.13058C125.836 4.22731 126.206 4.23309 126.557 4.14646C126.907 4.05983 127.238 3.8808 127.511 3.63103L131.305 0.145713C131.377 0.0792983 131.456 0.0359846 131.54 0.0157715C131.694 -0.0232109 131.867 0.0172153 132.001 0.124056C132.092 0.196245 132.202 0.329074 132.216 0.55575L132.509 5.87901C132.552 6.6601 132.953 7.36756 133.581 7.77182L137.87 10.5324C138.134 10.7027 138.142 10.9742 138.133 11.0839C138.123 11.1936 138.072 11.4593 137.784 11.5791L133.114 13.5196C132.43 13.804 131.921 14.4277 131.753 15.19L130.61 20.3819C130.539 20.7024 130.299 20.7948 130.199 20.8194C130.098 20.8439 129.844 20.8742 129.647 20.6201L126.468 16.4967C126.003 15.8917 125.287 15.5712 124.554 15.6362L119.559 16.0837C119.251 16.1112 119.093 15.896 119.04 15.8022C118.987 15.7083 118.882 15.46 119.048 15.1828L121.753 10.6941C122.149 10.0357 122.215 9.21273 121.93 8.49227L119.986 3.57761C119.904 3.3697 119.948 3.19789 120 3.0896C120.076 2.93223 120.215 2.81384 120.369 2.7763L120.372 2.77486Z" fill="#D0DA58"/>
<path d="M99.4265 16.3032C99.4903 16.2873 99.5596 16.2887 99.6288 16.309L103.336 17.3398C103.602 17.4135 103.886 17.4178 104.155 17.3514C104.423 17.285 104.676 17.1492 104.883 16.9572L107.784 14.2934C107.839 14.2429 107.9 14.2097 107.964 14.1938C108.082 14.1649 108.215 14.1952 108.316 14.2761C108.386 14.331 108.47 14.4335 108.479 14.6053L108.703 18.6739C108.736 19.2702 109.043 19.8116 109.523 20.1206L112.801 22.2314C113.004 22.3613 113.009 22.5692 113.002 22.653C112.996 22.7367 112.956 22.9403 112.736 23.0312L109.168 24.5155C108.645 24.7335 108.255 25.2099 108.128 25.7918L107.254 29.7608C107.199 30.0048 107.016 30.0755 106.939 30.0943C106.863 30.113 106.667 30.1361 106.518 29.9412L104.088 26.7894C103.732 26.3274 103.185 26.082 102.625 26.1311L98.8062 26.4732C98.5713 26.4949 98.4505 26.3303 98.4098 26.2581C98.3691 26.1859 98.289 25.9968 98.4152 25.7846L100.483 22.3527C100.785 21.8488 100.837 21.2207 100.618 20.6692L99.132 16.9125C99.0695 16.7536 99.1021 16.6223 99.1415 16.54C99.1998 16.4187 99.3044 16.3292 99.4238 16.3003L99.4265 16.3032Z" fill="#D0DA58"/>
<path d="M93.675 36.4686C93.7157 36.4585 93.7578 36.4599 93.8012 36.4714L96.1211 37.1168C96.2881 37.163 96.4646 37.1659 96.6329 37.124C96.8012 37.0822 96.9587 36.997 97.089 36.8772L98.9039 35.2096C98.9378 35.1778 98.9758 35.1576 99.0166 35.1475C99.0912 35.1287 99.174 35.1475 99.2378 35.1995C99.2813 35.2341 99.3342 35.2976 99.3396 35.4059L99.4795 37.9528C99.4998 38.3267 99.6912 38.6646 99.9926 38.858L102.044 40.1791C102.17 40.26 102.174 40.3913 102.17 40.4433C102.166 40.4953 102.141 40.6238 102.003 40.6801L99.77 41.6085C99.4428 41.7442 99.1985 42.043 99.1184 42.4069L98.5713 44.8902C98.5374 45.0432 98.422 45.088 98.3745 45.0995C98.327 45.1111 98.2048 45.1255 98.1112 45.0043L96.5908 43.032C96.3682 42.7433 96.0261 42.5888 95.6759 42.6206L93.2868 42.8342C93.1388 42.8472 93.0641 42.7447 93.0384 42.7C93.0126 42.6552 92.9623 42.5368 93.0424 42.404L94.3361 40.2556C94.5261 39.9409 94.5573 39.5467 94.4216 39.2017L93.4917 36.8512C93.4524 36.7515 93.4727 36.6692 93.4985 36.6173C93.5352 36.5422 93.6003 36.4859 93.675 36.4671V36.4686Z" fill="#D0DA58"/>
<path d="M155.987 7.39218C155.922 7.40517 155.861 7.43694 155.804 7.48458L152.806 10.0242C152.59 10.2061 152.333 10.3317 152.062 10.3866C151.792 10.4415 151.508 10.4256 151.245 10.3404L147.578 9.15361C147.509 9.13051 147.441 9.12617 147.376 9.13917C147.256 9.16371 147.148 9.2489 147.085 9.36729C147.043 9.44814 147.004 9.57664 147.061 9.73979L148.405 13.5572C148.602 14.1174 148.527 14.744 148.205 15.2334L146.01 18.5743C145.874 18.7808 145.949 18.9728 145.986 19.0465C146.024 19.1201 146.138 19.289 146.374 19.2789L150.202 19.0984C150.763 19.0725 151.3 19.341 151.64 19.8175L153.95 23.0703C154.092 23.271 154.288 23.2566 154.365 23.2407C154.443 23.2248 154.63 23.1627 154.692 22.9202L155.715 18.9916C155.864 18.4155 156.271 17.955 156.802 17.76L160.424 16.4289C160.648 16.3466 160.694 16.1444 160.705 16.0621C160.714 15.9784 160.717 15.7705 160.519 15.6319L157.322 13.3839C156.853 13.0547 156.567 12.5003 156.556 11.904L156.486 7.82821C156.483 7.65495 156.401 7.54955 156.335 7.4918C156.236 7.40662 156.106 7.36908 155.986 7.39362L155.987 7.39218Z" fill="#D0DA58"/>
<path d="M166.805 20.0225C166.764 20.0311 166.726 20.0499 166.691 20.0802L164.815 21.6684C164.681 21.7825 164.519 21.8619 164.349 21.8951C164.18 21.9297 164.003 21.9196 163.838 21.8662L161.543 21.1227C161.5 21.1082 161.458 21.1053 161.417 21.114C161.343 21.1299 161.275 21.1818 161.235 21.2569C161.208 21.3075 161.185 21.3883 161.22 21.4894L162.062 23.8774C162.186 24.2283 162.138 24.6195 161.937 24.9256L160.563 27.0162C160.479 27.1447 160.525 27.266 160.548 27.3122C160.572 27.3584 160.644 27.4638 160.791 27.4566L163.187 27.344C163.539 27.3281 163.874 27.4956 164.087 27.7944L165.533 29.8302C165.623 29.9558 165.745 29.9471 165.792 29.937C165.841 29.9269 165.958 29.8879 165.997 29.7363L166.637 27.2775C166.73 26.9166 166.986 26.6293 167.317 26.5066L169.584 25.6735C169.723 25.6215 169.753 25.4959 169.759 25.4439C169.766 25.3919 169.766 25.262 169.642 25.1754L167.641 23.7691C167.348 23.5627 167.169 23.2162 167.162 22.8422L167.117 20.2925C167.116 20.1842 167.064 20.1178 167.022 20.0817C166.96 20.0283 166.878 20.0052 166.804 20.021L166.805 20.0225Z" fill="#D0DA58"/>
<path d="M154.308 42.9759H146.321V26.2886C145.23 26.1991 144.127 26.1543 143.016 26.1543C119.473 26.1543 100.388 46.454 100.388 71.4937C100.388 96.5334 119.473 116.833 143.016 116.833C166.558 116.833 185.644 96.5334 185.644 71.4937C185.644 52.1584 174.263 35.653 158.239 29.1343C156.958 28.6131 154.308 42.9759 154.308 42.9759Z" fill="#187231"/>
<path d="M143.016 110.6C163.139 110.6 179.452 93.2492 179.452 71.8458C179.452 50.4424 163.139 33.0916 143.016 33.0916C122.892 33.0916 106.579 50.4424 106.579 71.8458C106.579 93.2492 122.892 110.6 143.016 110.6Z" fill="url(#paint1_linear_11_8440)"/>
<path opacity="0.15" d="M140.677 102.879C158.145 102.879 172.305 87.8175 172.305 69.2385C172.305 50.6594 158.145 35.5981 140.677 35.5981C123.209 35.5981 109.048 50.6594 109.048 69.2385C109.048 87.8175 123.209 102.879 140.677 102.879Z" fill="url(#paint2_linear_11_8440)"/>
<path d="M141.468 20.584C144.027 21.7448 151.574 25.5362 153.019 26.2639C153.138 26.3246 153.169 26.4906 153.08 26.5945L144.058 37.0967C143.679 37.537 143.124 37.7579 142.566 37.6886L138.692 37.2093C138.55 37.192 138.472 37.023 138.547 36.8917L143.605 28.0643C143.669 27.9531 143.622 27.8073 143.508 27.7597L136.179 24.7205C135.592 24.4765 135.556 23.6059 136.122 23.3085L141.305 20.5884C141.357 20.5609 141.417 20.5595 141.469 20.584H141.468Z" fill="#187231"/>
<path d="M184.559 120.497H101.917C97.4762 120.497 93.8759 124.327 93.8759 129.05V168.401C93.8759 173.125 97.4762 176.954 101.917 176.954H184.559C189 176.954 192.601 173.125 192.601 168.401V129.05C192.601 124.327 189 120.497 184.559 120.497Z" fill="#7D97F4"/>
<path d="M238.64 51.565H193.634C191.809 51.565 190.285 50.088 190.112 48.1562L187.275 16.1488C187.083 13.9701 188.672 12.0773 190.729 12.0354L238.571 11.0666C240.55 11.0262 242.175 12.7212 242.175 14.8277V47.8039C242.175 49.8815 240.592 51.565 238.639 51.565H238.64Z" fill="#187231"/>
<path opacity="0.56" d="M190.153 19.0018L192.165 46.6793C192.252 47.8819 193.188 48.8132 194.323 48.8262L237.519 49.307C238.735 49.32 239.729 48.2746 239.729 46.981V17.184C239.729 15.8687 238.704 14.8148 237.467 14.8595L192.26 16.4982C191.015 16.543 190.058 17.6821 190.153 19.0018Z" fill="white"/>
<path d="M198.609 43.0192L236.271 43.7296C236.932 43.7426 237.43 44.375 237.326 45.0694L237.16 46.1739C237.076 46.737 236.617 47.1499 236.082 47.1485L198.751 46.9926C198.196 46.9897 197.732 46.545 197.673 45.9574L197.508 44.2985C197.439 43.6069 197.954 43.0063 198.609 43.0192Z" fill="#D0DA58"/>
<path d="M194.03 35.1146L193.509 34.6511L202.12 23.7158L212.052 31.6726L223.485 21.5054L235.512 31.3881L235.097 31.9599L223.502 22.4323L212.073 32.5951L202.226 24.7048L194.03 35.1146Z" fill="#D0DA58"/>
<path d="M193.769 37.2384C194.993 37.2384 195.985 36.1835 195.985 34.8821C195.985 33.5808 194.993 32.5259 193.769 32.5259C192.546 32.5259 191.554 33.5808 191.554 34.8821C191.554 36.1835 192.546 37.2384 193.769 37.2384Z" fill="#D0DA58"/>
<path d="M204.082 24.3676C204.164 23.2451 203.375 22.2644 202.32 22.1773C201.264 22.0901 200.342 22.9294 200.26 24.052C200.178 25.1745 200.968 26.1551 202.023 26.2423C203.078 26.3295 204 25.4901 204.082 24.3676Z" fill="#D0DA58"/>
<path d="M213.979 32.1346C213.979 33.2607 213.121 34.1732 212.062 34.1732C211.004 34.1732 210.146 33.2607 210.146 32.1346C210.146 31.0084 211.004 30.0959 212.062 30.0959C213.121 30.0959 213.979 31.0084 213.979 32.1346Z" fill="#D0DA58"/>
<path d="M225.41 21.9688C225.41 23.095 224.552 24.0074 223.493 24.0074C222.435 24.0074 221.577 23.095 221.577 21.9688C221.577 20.8427 222.435 19.9302 223.493 19.9302C224.552 19.9302 225.41 20.8427 225.41 21.9688Z" fill="#D0DA58"/>
<path d="M235.305 33.7125C236.363 33.7125 237.221 32.7998 237.221 31.6739C237.221 30.548 236.363 29.6353 235.305 29.6353C234.246 29.6353 233.388 30.548 233.388 31.6739C233.388 32.7998 234.246 33.7125 235.305 33.7125Z" fill="#D0DA58"/>
<path d="M274.5 63.2856C274.426 63.2856 274.356 63.2394 274.326 63.1629C274.287 63.0619 274.333 62.9449 274.428 62.903C274.654 62.8034 274.884 62.698 275.108 62.5883C275.202 62.5421 275.313 62.5854 275.356 62.6865C275.4 62.7861 275.359 62.9045 275.264 62.9507C275.036 63.0633 274.802 63.1716 274.57 63.2727C274.547 63.2828 274.523 63.2871 274.5 63.2871V63.2856Z" fill="#7D97F4"/>
<path d="M267.513 64.7481C267.167 64.7481 266.817 64.738 266.47 64.7164C266.367 64.7106 266.288 64.6168 266.294 64.5056C266.299 64.3959 266.39 64.3136 266.492 64.3179C267.005 64.3482 267.521 64.3554 268.037 64.341C268.137 64.3367 268.227 64.4247 268.23 64.5345C268.232 64.6442 268.151 64.7366 268.048 64.7395C267.87 64.7452 267.691 64.7481 267.514 64.7481H267.513ZM270.566 64.4796C270.476 64.4796 270.396 64.4103 270.381 64.3136C270.364 64.2053 270.433 64.1028 270.535 64.084C271.042 63.9945 271.55 63.879 272.047 63.7447C272.147 63.7173 272.249 63.7822 272.275 63.8876C272.301 63.9945 272.24 64.1028 272.14 64.1302C271.634 64.2688 271.116 64.3843 270.597 64.4767C270.586 64.4781 270.577 64.4796 270.566 64.4796ZM263.966 64.3785C263.954 64.3785 263.941 64.3785 263.929 64.3742C263.416 64.2659 262.9 64.1331 262.397 63.9772C262.298 63.9468 262.241 63.8357 262.269 63.7303C262.298 63.6249 262.401 63.5642 262.501 63.5945C262.994 63.7461 263.499 63.8775 264.003 63.9829C264.104 64.0046 264.17 64.1085 264.151 64.2168C264.133 64.3121 264.054 64.3771 263.967 64.3771L263.966 64.3785ZM260.069 63.056C260.043 63.056 260.017 63.0502 259.993 63.0387C259.515 62.8106 259.04 62.5579 258.582 62.2879C258.491 62.2345 258.459 62.1132 258.509 62.0165C258.559 61.9198 258.673 61.8851 258.764 61.9385C259.213 62.2042 259.678 62.4511 260.146 62.6749C260.241 62.7196 260.283 62.838 260.24 62.9376C260.208 63.0113 260.141 63.056 260.069 63.056ZM256.546 60.8441C256.507 60.8441 256.467 60.8311 256.433 60.8037C256.015 60.4687 255.605 60.1107 255.214 59.7396C255.137 59.666 255.13 59.5404 255.199 59.4581C255.269 59.3758 255.387 59.3686 255.464 59.4422C255.847 59.806 256.249 60.1569 256.659 60.4846C256.742 60.551 256.758 60.6752 256.695 60.7633C256.659 60.8152 256.603 60.8427 256.546 60.8427V60.8441ZM253.572 57.8584C253.519 57.8584 253.466 57.8338 253.429 57.7876C253.091 57.3617 252.766 56.917 252.463 56.4637C252.403 56.3741 252.422 56.25 252.508 56.1865C252.592 56.1229 252.709 56.1431 252.768 56.2341C253.066 56.6788 253.383 57.1148 253.716 57.5321C253.782 57.6158 253.773 57.7414 253.694 57.8136C253.659 57.8454 253.615 57.8613 253.573 57.8613L253.572 57.8584ZM251.295 54.2474C251.228 54.2474 251.162 54.2085 251.128 54.1406C250.888 53.6468 250.664 53.1343 250.463 52.6203C250.424 52.5192 250.469 52.4023 250.565 52.3604C250.66 52.3185 250.77 52.3662 250.809 52.4687C251.006 52.9726 251.225 53.4736 251.461 53.9572C251.509 54.0554 251.473 54.1752 251.381 54.2258C251.354 54.2417 251.324 54.2474 251.295 54.2474ZM249.833 50.1861C249.751 50.1861 249.673 50.1269 249.652 50.0373C249.521 49.4988 249.41 48.9473 249.323 48.3972C249.305 48.2889 249.375 48.1864 249.476 48.1676C249.578 48.1489 249.675 48.2225 249.692 48.3308C249.778 48.8693 249.886 49.4107 250.014 49.9377C250.04 50.0446 249.98 50.1528 249.88 50.1803C249.863 50.1846 249.848 50.1861 249.832 50.1861H249.833ZM249.258 45.8792C249.157 45.8792 249.073 45.794 249.071 45.6858C249.065 45.4836 249.062 45.2829 249.062 45.0808C249.062 44.7242 249.072 44.3632 249.09 44.0081C249.095 43.8983 249.185 43.8146 249.286 43.8204C249.39 43.8262 249.468 43.92 249.463 44.0297C249.445 44.3777 249.436 44.7314 249.436 45.0808C249.436 45.2772 249.438 45.475 249.444 45.6728C249.447 45.7825 249.365 45.8749 249.262 45.8778C249.261 45.8778 249.258 45.8778 249.257 45.8778L249.258 45.8792ZM249.59 41.5421C249.578 41.5421 249.566 41.5421 249.554 41.5377C249.452 41.5161 249.386 41.4121 249.406 41.3038C249.508 40.7566 249.631 40.208 249.776 39.6724C249.805 39.567 249.909 39.5049 250.009 39.5366C250.108 39.567 250.166 39.6781 250.136 39.7835C249.995 40.3076 249.873 40.8447 249.774 41.3818C249.756 41.4771 249.677 41.5421 249.59 41.5421Z" fill="#7D97F4"/>
<path d="M250.831 37.3797C250.805 37.3797 250.78 37.3739 250.755 37.3623C250.66 37.3176 250.618 37.1992 250.66 37.0996C250.762 36.857 250.871 36.6116 250.983 36.3719C251.029 36.2737 251.142 36.2333 251.234 36.2824C251.327 36.3315 251.365 36.4513 251.319 36.5495C251.209 36.7848 251.103 37.0245 251.002 37.2627C250.971 37.3363 250.903 37.3811 250.831 37.3811V37.3797Z" fill="#7D97F4"/>
<path d="M261.311 27.0105C261.235 27.0105 261.163 26.9599 261.134 26.8791C261.099 26.7751 261.149 26.6611 261.247 26.6235C261.482 26.5326 261.723 26.4459 261.964 26.3651C262.061 26.3319 262.167 26.3896 262.199 26.495C262.23 26.6004 262.175 26.7116 262.076 26.7448C261.84 26.8242 261.604 26.9094 261.375 26.9975C261.354 27.0061 261.332 27.009 261.311 27.009V27.0105Z" fill="#7D97F4"/>
<path d="M284.842 51.578C284.822 51.578 284.801 51.5751 284.781 51.5679C284.683 51.5318 284.63 51.4192 284.664 51.3152C284.827 50.807 284.972 50.2843 285.095 49.7646C285.119 49.6577 285.221 49.5928 285.321 49.6202C285.422 49.6462 285.483 49.7545 285.457 49.8613C285.332 50.3926 285.184 50.9254 285.019 51.4451C284.991 51.5274 284.92 51.5809 284.841 51.5809L284.842 51.578ZM285.712 47.3982C285.712 47.3982 285.699 47.3982 285.692 47.3982C285.589 47.3866 285.514 47.2885 285.526 47.1787C285.581 46.646 285.613 46.1031 285.625 45.5646C285.628 45.4548 285.719 45.3596 285.817 45.3697C285.92 45.3726 286.003 45.4635 286 45.5732C285.988 46.1219 285.955 46.6763 285.9 47.2206C285.889 47.3231 285.809 47.3982 285.714 47.3982H285.712ZM285.7 43.1159C285.606 43.1159 285.525 43.0408 285.514 42.9383C285.457 42.4027 285.38 41.8656 285.282 41.3415C285.262 41.2332 285.328 41.1293 285.43 41.1076C285.532 41.0859 285.629 41.1567 285.65 41.265C285.749 41.8006 285.829 42.3493 285.887 42.895C285.9 43.0047 285.825 43.1029 285.722 43.1159C285.715 43.1159 285.708 43.1159 285.7 43.1159ZM284.815 38.9405C284.738 38.9405 284.664 38.8885 284.639 38.8062C284.474 38.2994 284.287 37.7926 284.082 37.3018C284.04 37.2007 284.082 37.0837 284.177 37.039C284.272 36.9942 284.382 37.039 284.424 37.1401C284.633 37.6425 284.824 38.1579 284.991 38.6762C285.025 38.7802 284.974 38.8943 284.876 38.9289C284.856 38.9361 284.835 38.9405 284.815 38.9405ZM283.09 35.0754C283.027 35.0754 282.966 35.0422 282.931 34.9816C282.665 34.5253 282.378 34.0749 282.077 33.6446C282.016 33.5566 282.032 33.431 282.116 33.366C282.199 33.2996 282.317 33.3198 282.378 33.4064C282.685 33.8468 282.978 34.3059 283.25 34.7722C283.304 34.8661 283.277 34.9888 283.189 35.0466C283.158 35.0668 283.124 35.0769 283.09 35.0769V35.0754ZM280.608 31.7071C280.559 31.7071 280.511 31.6869 280.474 31.6464C280.121 31.2624 279.748 30.8899 279.366 30.539C279.287 30.4668 279.279 30.3412 279.347 30.2575C279.415 30.1738 279.533 30.1651 279.612 30.2373C280.001 30.5953 280.382 30.9765 280.743 31.3678C280.815 31.4457 280.813 31.5728 280.74 31.6493C280.703 31.6869 280.656 31.7056 280.608 31.7056V31.7071ZM277.496 28.9927C277.46 28.9927 277.425 28.9826 277.394 28.961C276.97 28.6679 276.53 28.3907 276.085 28.1366C275.994 28.0846 275.96 27.9633 276.009 27.8666C276.058 27.7698 276.172 27.7323 276.263 27.7857C276.716 28.0456 277.166 28.3286 277.597 28.6275C277.684 28.6881 277.709 28.8108 277.652 28.9032C277.616 28.9624 277.555 28.9942 277.494 28.9942L277.496 28.9927ZM273.901 27.0667C273.879 27.0667 273.858 27.0624 273.836 27.0537C273.364 26.866 272.876 26.6986 272.39 26.5542C272.291 26.5253 272.233 26.4141 272.26 26.3087C272.287 26.2033 272.392 26.1412 272.491 26.1701C272.988 26.3174 273.484 26.4892 273.968 26.6798C274.064 26.7188 274.114 26.8328 274.078 26.9353C274.049 27.0162 273.978 27.0653 273.902 27.0653L273.901 27.0667ZM264.448 26.1326C264.358 26.1326 264.279 26.0633 264.263 25.9666C264.246 25.8583 264.315 25.7558 264.417 25.737C264.923 25.646 265.44 25.5753 265.956 25.5276C266.06 25.5175 266.15 25.5998 266.158 25.7096C266.166 25.8193 266.09 25.916 265.987 25.9247C265.482 25.9709 264.974 26.0402 264.479 26.1297C264.468 26.1311 264.457 26.1326 264.448 26.1326ZM269.996 26.0272C269.988 26.0272 269.979 26.0272 269.97 26.0257C269.47 25.9536 268.961 25.9045 268.456 25.877C268.353 25.8713 268.273 25.7774 268.279 25.6677C268.284 25.558 268.372 25.4728 268.475 25.4785C268.99 25.506 269.51 25.5565 270.02 25.6301C270.123 25.6446 270.194 25.7457 270.18 25.8539C270.168 25.9536 270.087 26.0272 269.994 26.0272H269.996Z" fill="#7D97F4"/>
<path d="M283.52 54.7399C283.489 54.7399 283.458 54.7313 283.429 54.7154C283.338 54.662 283.306 54.5407 283.356 54.444C283.477 54.2144 283.593 53.9791 283.703 53.7466C283.749 53.6484 283.862 53.608 283.954 53.6585C284.047 53.7076 284.083 53.8275 284.037 53.9256C283.925 54.1624 283.806 54.4021 283.683 54.636C283.649 54.701 283.585 54.7385 283.519 54.7385L283.52 54.7399Z" fill="#7D97F4"/>
<path d="M278.856 53.94C278.918 53.8664 278.932 53.7581 278.887 53.6715L277.61 51.1766C278.218 50.0187 278.658 48.7496 278.894 47.4068L281.375 46.3601C281.462 46.324 281.518 46.2316 281.514 46.132L281.368 42.7275C281.364 42.6279 281.301 42.5427 281.211 42.5138L278.651 41.7111C278.302 40.3972 277.756 39.1758 277.05 38.0814L278.111 35.4739C278.147 35.3829 278.127 35.2761 278.058 35.2097L275.692 32.9126C275.622 32.8448 275.521 32.8318 275.439 32.8794L273.093 34.238C272.005 33.5912 270.812 33.1234 269.549 32.8722L268.565 30.2329C268.531 30.1405 268.444 30.0813 268.35 30.0857L265.15 30.2402C265.056 30.2445 264.976 30.3123 264.949 30.4076L264.194 33.1306C262.959 33.5017 261.81 34.0821 260.781 34.8329L258.33 33.7053C258.244 33.6663 258.144 33.6879 258.081 33.7616L255.922 36.2781C255.858 36.3517 255.846 36.46 255.89 36.5466L257.168 39.0415C256.56 40.1994 256.12 41.4685 255.884 42.8112L253.402 43.858C253.315 43.8941 253.26 43.9865 253.264 44.0861L253.409 47.4906C253.413 47.5902 253.477 47.6754 253.566 47.7043L256.127 48.507C256.475 49.8209 257.021 51.0423 257.727 52.1367L256.667 54.7442C256.63 54.8351 256.651 54.942 256.72 55.0098L259.086 57.3069C259.155 57.3748 259.257 57.3878 259.338 57.3401L261.684 55.9815C262.773 56.6298 263.966 57.0961 265.228 57.3473L266.212 59.9866C266.246 60.079 266.333 60.1382 266.427 60.1339L269.628 59.9794C269.722 59.975 269.802 59.9072 269.829 59.8119L270.583 57.0889C271.819 56.7179 272.967 56.1374 273.996 55.3867L276.448 56.5128C276.533 56.5518 276.634 56.5302 276.697 56.4565L278.857 53.94H278.856Z" fill="#91B3FA"/>
<path d="M267.391 48.4362C266.048 48.4362 264.803 47.5064 264.396 46.0698C263.899 44.3142 264.837 42.456 266.487 41.9276C267.286 41.672 268.132 41.7616 268.866 42.1817C269.602 42.6018 270.14 43.3006 270.381 44.151C270.878 45.9067 269.94 47.7648 268.291 48.2933C267.991 48.3886 267.688 48.4348 267.391 48.4348V48.4362ZM267.392 42.3838C267.144 42.3838 266.894 42.4228 266.65 42.5008C265.296 42.9339 264.527 44.4586 264.935 45.898C265.344 47.3375 266.776 48.1561 268.129 47.7215C269.483 47.287 270.252 45.7638 269.844 44.3243C269.645 43.6269 269.204 43.0538 268.602 42.7087C268.223 42.4921 267.81 42.3824 267.392 42.3824V42.3838Z" fill="white"/>
<path d="M267.331 53.5877C263.079 53.5877 259.527 50.0157 259.333 45.4534C259.327 45.3234 259.325 45.192 259.325 45.0635C259.325 40.5416 262.682 36.7617 266.973 36.5553C269.109 36.4528 271.158 37.2396 272.738 38.7744C274.318 40.3091 275.242 42.407 275.339 44.6795C275.344 44.8094 275.347 44.9408 275.347 45.0708C275.347 45.4895 275.318 45.9082 275.261 46.3196C275.253 46.3774 275.245 46.4337 275.235 46.49L274.682 46.3904C274.751 45.9572 274.785 45.514 274.785 45.0708C274.785 44.9495 274.782 44.8282 274.777 44.7069C274.745 43.9793 274.623 43.2703 274.417 42.5961C274.023 41.3126 273.321 40.1518 272.359 39.2162C270.889 37.7897 268.987 37.0548 266.998 37.153C263.009 37.3465 259.887 40.8592 259.887 45.065C259.887 45.1848 259.889 45.3061 259.895 45.4274C260.081 49.792 263.574 53.182 267.674 52.9827C269.024 52.9178 270.328 52.4659 271.447 51.6761L271.758 52.1742C270.554 53.0232 269.15 53.5097 267.7 53.579C267.577 53.5848 267.455 53.5877 267.332 53.5877H267.331Z" fill="white"/>
<path d="M256.982 31.362L256.165 30.0293C256.456 29.3536 256.649 28.6245 256.724 27.8637L258.066 27.162C258.114 27.1374 258.141 27.084 258.134 27.0277L257.91 25.1334C257.903 25.0786 257.865 25.0338 257.814 25.0223L256.351 24.6945C256.101 23.977 255.745 23.32 255.305 22.7425L255.789 21.2366C255.805 21.1832 255.789 21.1255 255.748 21.0908L254.331 19.9199C254.289 19.8853 254.232 19.8838 254.188 19.9141L252.935 20.7833C252.3 20.4729 251.614 20.2679 250.899 20.1885L250.239 18.7605C250.216 18.71 250.166 18.6811 250.113 18.6884L248.332 18.9266C248.281 18.9338 248.238 18.9742 248.228 19.0291L247.919 20.5855C247.245 20.8512 246.627 21.2294 246.084 21.6972L244.668 21.1832C244.618 21.1659 244.564 21.1832 244.531 21.2265L243.43 22.7339C243.398 22.7786 243.396 22.8393 243.425 22.8855L244.242 24.2181C243.95 24.8938 243.758 25.6229 243.683 26.3838L242.34 27.0854C242.293 27.11 242.266 27.1634 242.272 27.2197L242.496 29.114C242.503 29.1688 242.541 29.2136 242.593 29.2251L244.056 29.5529C244.306 30.2705 244.662 30.9274 245.101 31.5049L244.618 33.0108C244.602 33.0642 244.618 33.1219 244.659 33.1566L246.076 34.3275C246.117 34.3622 246.175 34.3636 246.219 34.3333L247.471 33.4641C248.107 33.7745 248.792 33.9796 249.508 34.059L250.167 35.4869C250.19 35.5374 250.241 35.5663 250.294 35.5591L252.075 35.3208C252.126 35.3136 252.168 35.2732 252.179 35.2183L252.487 33.6619C253.162 33.3963 253.78 33.018 254.323 32.5502L255.738 33.0642C255.789 33.0815 255.843 33.0642 255.875 33.0209L256.976 31.5136C257.009 31.4688 257.01 31.4082 256.982 31.362Z" fill="#91B3FA"/>
<path d="M250.201 29.1199C249.946 29.1199 249.69 29.0636 249.449 28.9509C248.99 28.7373 248.638 28.346 248.456 27.8493C248.08 26.8257 248.557 25.6663 249.521 25.2664C249.988 25.0729 250.497 25.0845 250.956 25.2981C251.415 25.5118 251.768 25.9031 251.95 26.3998C252.326 27.4234 251.848 28.5828 250.884 28.9827C250.663 29.0751 250.432 29.1199 250.203 29.1199H250.201ZM250.201 25.727C250.04 25.727 249.878 25.7587 249.723 25.8237C249.049 26.1038 248.715 26.9152 248.978 27.6313C249.106 27.9793 249.353 28.2521 249.673 28.4023C249.995 28.5525 250.351 28.5597 250.678 28.424C251.352 28.1439 251.686 27.3324 251.423 26.6149C251.295 26.2669 251.048 25.9941 250.728 25.8439C250.558 25.7645 250.381 25.7255 250.201 25.7255V25.727Z" fill="white"/>
<path d="M256.015 35.4798C255.958 35.4798 255.903 35.4524 255.866 35.4004C255.804 35.3123 255.82 35.1882 255.903 35.1217C256.097 34.9658 256.288 34.7983 256.47 34.6265C256.547 34.5529 256.665 34.5616 256.735 34.6424C256.804 34.7247 256.797 34.8503 256.72 34.9239C256.531 35.103 256.332 35.2762 256.129 35.4394C256.095 35.4668 256.056 35.4798 256.017 35.4798H256.015Z" fill="#7D97F4"/>
<path d="M250.047 37.5588H250.044C249.535 37.5501 249.02 37.4982 248.518 37.4043C248.416 37.3855 248.348 37.2816 248.366 37.1733C248.384 37.065 248.481 36.9928 248.583 37.0116C249.067 37.1011 249.561 37.1516 250.051 37.1603C250.154 37.1618 250.237 37.2527 250.235 37.3624C250.234 37.4707 250.15 37.5588 250.048 37.5588H250.047ZM252.47 37.27C252.385 37.27 252.308 37.2094 252.288 37.1184C252.263 37.0116 252.324 36.9033 252.425 36.8773C252.831 36.7719 253.237 36.6362 253.629 36.4731C253.695 36.4456 253.761 36.4182 253.826 36.3893C253.922 36.3475 254.031 36.3951 254.07 36.4962C254.109 36.5972 254.065 36.7142 253.97 36.756C253.902 36.7864 253.834 36.8152 253.765 36.8441C253.356 37.013 252.935 37.1545 252.513 37.2643C252.498 37.2686 252.483 37.27 252.468 37.27H252.47ZM246.22 36.6405C246.194 36.6405 246.168 36.6348 246.143 36.6232C245.678 36.3994 245.226 36.1338 244.801 35.8364C244.715 35.7757 244.691 35.653 244.748 35.5606C244.805 35.4682 244.922 35.4436 245.008 35.5043C245.418 35.7916 245.851 36.0457 246.299 36.2608C246.392 36.307 246.434 36.424 246.392 36.525C246.361 36.5987 246.293 36.642 246.221 36.642L246.22 36.6405ZM243.054 34.1803C243.003 34.1803 242.953 34.1587 242.916 34.1139C242.574 33.7111 242.26 33.2765 241.982 32.8217C241.925 32.7293 241.951 32.6066 242.036 32.5459C242.123 32.4868 242.239 32.5127 242.296 32.6037C242.563 33.0412 242.866 33.4599 243.194 33.8468C243.263 33.9291 243.258 34.0547 243.181 34.1283C243.145 34.163 243.101 34.1803 243.056 34.1803H243.054ZM241.078 30.5781C240.999 30.5781 240.927 30.5261 240.9 30.4423C240.737 29.9269 240.611 29.3956 240.525 28.8614C240.508 28.7531 240.577 28.6506 240.679 28.6318C240.782 28.6131 240.877 28.6867 240.895 28.795C240.977 29.309 241.098 29.8201 241.254 30.3153C241.287 30.4192 241.234 30.5333 241.136 30.568C241.116 30.5752 241.097 30.5781 241.077 30.5781H241.078Z" fill="#7D97F4"/>
<path d="M240.612 26.4244C240.612 26.4244 240.601 26.4244 240.596 26.4244C240.493 26.4143 240.417 26.3175 240.426 26.2078C240.449 25.9392 240.482 25.6678 240.524 25.4022C240.542 25.2939 240.637 25.2202 240.74 25.239C240.842 25.2578 240.911 25.3603 240.893 25.4686C240.853 25.7241 240.821 25.984 240.8 26.2439C240.791 26.3478 240.709 26.4258 240.614 26.4258L240.612 26.4244Z" fill="#7D97F4"/>
<path d="M244.438 19.123C244.381 19.123 244.324 19.0956 244.287 19.0436C244.224 18.9555 244.242 18.8299 244.325 18.7649C244.529 18.6032 244.74 18.4488 244.955 18.3044C245.042 18.2466 245.158 18.2741 245.213 18.3665C245.268 18.4589 245.241 18.583 245.154 18.6408C244.948 18.7794 244.744 18.9281 244.549 19.0826C244.515 19.11 244.476 19.1216 244.438 19.1216V19.123Z" fill="#7D97F4"/>
<path d="M259.759 26.1312C259.665 26.1312 259.584 26.0561 259.573 25.955C259.516 25.4468 259.422 24.9371 259.292 24.4419C259.265 24.3365 259.323 24.2253 259.422 24.1965C259.523 24.1676 259.626 24.2297 259.653 24.3351C259.788 24.8505 259.887 25.3789 259.945 25.9088C259.957 26.0185 259.884 26.1167 259.781 26.1297C259.773 26.1297 259.766 26.1297 259.759 26.1297V26.1312ZM258.551 22.2344C258.486 22.2344 258.423 22.1983 258.388 22.1333C258.149 21.6872 257.875 21.2584 257.575 20.8584C257.51 20.7718 257.523 20.6476 257.605 20.5783C257.686 20.509 257.803 20.5235 257.868 20.6101C258.18 21.0259 258.465 21.472 258.714 21.9369C258.765 22.0322 258.734 22.1535 258.645 22.2084C258.615 22.2257 258.584 22.2344 258.552 22.2344H258.551ZM256.002 19.1562C255.962 19.1562 255.923 19.1432 255.889 19.1158C255.505 18.8068 255.094 18.5281 254.669 18.2841C254.578 18.2322 254.544 18.1109 254.593 18.0142C254.642 17.9174 254.754 17.8799 254.847 17.9333C255.289 18.186 255.715 18.4762 256.116 18.7967C256.199 18.8631 256.215 18.9873 256.152 19.0753C256.116 19.1273 256.06 19.1548 256.003 19.1548L256.002 19.1562ZM247.229 17.5897C247.15 17.5897 247.076 17.5363 247.051 17.4525C247.018 17.3486 247.072 17.236 247.17 17.2013C247.648 17.0353 248.141 16.9082 248.635 16.823C248.737 16.8043 248.833 16.8793 248.849 16.9876C248.866 17.0959 248.796 17.1984 248.695 17.2157C248.219 17.298 247.746 17.4208 247.286 17.5796C247.267 17.5868 247.246 17.5897 247.227 17.5897H247.229ZM252.52 17.3904C252.505 17.3904 252.49 17.389 252.475 17.3847C252.007 17.2605 251.526 17.1739 251.046 17.1277C250.942 17.1176 250.866 17.0208 250.876 16.9111C250.885 16.8014 250.976 16.722 251.08 16.7306C251.579 16.7783 252.079 16.8692 252.566 16.9977C252.666 17.0237 252.728 17.132 252.703 17.2388C252.681 17.3298 252.605 17.3904 252.521 17.3904H252.52Z" fill="#7D97F4"/>
<path d="M259.608 29.4765C259.595 29.4765 259.583 29.4751 259.569 29.4722C259.469 29.4491 259.403 29.3422 259.425 29.2354C259.477 28.9827 259.519 28.7243 259.553 28.4658C259.566 28.3561 259.663 28.281 259.763 28.2955C259.866 28.3099 259.937 28.411 259.923 28.5193C259.889 28.7864 259.845 29.0564 259.792 29.3191C259.773 29.413 259.695 29.4765 259.608 29.4765Z" fill="#7D97F4"/>
<path d="M250.167 32.0075C247.877 32.0075 245.886 30.1898 245.594 27.7122C245.57 27.5058 245.557 27.3007 245.557 27.0986C245.557 24.6629 247.267 22.5463 249.596 22.2359C250.818 22.0728 252.027 22.4265 253 23.2292C253.974 24.0334 254.593 25.1914 254.746 26.4922C254.771 26.6972 254.783 26.9037 254.783 27.1087C254.783 27.2516 254.777 27.3946 254.765 27.5361L254.206 27.4841C254.217 27.3599 254.221 27.2343 254.221 27.1087C254.221 26.9282 254.21 26.7463 254.188 26.5673C254.07 25.5667 253.636 24.6875 253.006 24.0305C252.987 24.0103 252.966 23.9901 252.946 23.9699C252.943 23.9685 252.942 23.9656 252.939 23.9627C252.091 23.1166 250.907 22.6618 249.665 22.8279C247.619 23.1007 246.119 24.9604 246.118 27.0986C246.118 27.2762 246.129 27.4567 246.149 27.6386C246.428 29.9949 248.456 31.6711 250.672 31.3766C251.401 31.2798 252.09 30.9752 252.664 30.4958L253.01 30.9665C252.356 31.5123 251.571 31.8588 250.742 31.97C250.547 31.9959 250.355 32.0089 250.165 32.0089L250.167 32.0075Z" fill="white"/>
</g>
<defs>
<linearGradient id="paint0_linear_11_8440" x1="223.453" y1="193.237" x2="-32.3302" y2="-67.827" gradientUnits="userSpaceOnUse">
<stop stop-color="#4042E2"/>
<stop offset="1" stop-color="#4F52FF"/>
</linearGradient>
<linearGradient id="paint1_linear_11_8440" x1="106.578" y1="71.8458" x2="179.452" y2="71.8458" gradientUnits="userSpaceOnUse">
<stop stop-color="#4042E2"/>
<stop offset="1" stop-color="#4F52FF"/>
</linearGradient>
<linearGradient id="paint2_linear_11_8440" x1="109.048" y1="69.2385" x2="172.305" y2="69.2385" gradientUnits="userSpaceOnUse">
<stop stop-color="#DAE3FE"/>
<stop offset="1" stop-color="#E9EFFD"/>
</linearGradient>
<clipPath id="clip0_11_8440">
<rect width="286" height="203" fill="white"/>
</clipPath>
</defs>
</svg>
