<svg width="218" height="203" viewBox="0 0 218 203" fill="none" xmlns="http://www.w3.org/2000/svg">
<g clip-path="url(#clip0_11_8347)">
<path d="M39.3987 0.491847C39.9707 -0.428246 41.3934 0.0352421 41.3157 1.11671C40.5587 11.5743 39.4284 39.0569 46.6258 56.4645C58.3441 84.8076 58.8026 124.108 39.9502 137.549C39.9502 137.549 -22.9439 100.707 39.3995 0.491847H39.3987Z" fill="#D0DA58"/>
<path opacity="0.43" d="M36.6927 14.8279C36.634 15.081 36.5845 15.3778 36.532 15.6577L36.3873 16.512L36.1161 18.226C35.941 19.3694 35.7742 20.5144 35.6127 21.6601C35.2951 23.9523 35.0057 26.2491 34.7376 28.5474C34.1961 33.1441 33.7414 37.7506 33.3766 42.3641C32.6637 51.591 32.2303 60.8424 32.2738 70.0946C32.3141 74.7195 32.3949 79.3452 32.6591 83.9625C32.928 88.5783 33.2966 93.1902 33.8564 97.7792C33.9143 98.3543 33.9897 98.9272 34.0704 99.4993L34.3035 101.217L34.5365 102.935C34.6211 103.506 34.7216 104.075 34.813 104.646C35.0065 105.785 35.1733 106.93 35.3888 108.065L36.0537 111.467C36.9951 115.993 38.1527 120.472 39.561 124.879V124.88C39.5838 124.95 39.5457 125.024 39.4764 125.047C39.4086 125.069 39.3355 125.032 39.3119 124.965C37.7772 120.589 36.551 116.108 35.5206 111.584L34.813 108.176C34.5838 107.038 34.4025 105.892 34.1953 104.751C34.0963 104.179 33.9897 103.609 33.8975 103.036L33.6432 101.314L33.3888 99.5926C33.3012 99.019 33.2182 98.4446 33.1534 97.8687C31.9958 88.6586 31.4931 79.3743 31.4763 70.0984C31.4581 65.4597 31.5921 60.8218 31.7909 56.1892C31.995 51.5566 32.2943 46.9278 32.7155 42.3098C33.1313 37.6925 33.6203 33.0813 34.2266 28.4855C34.5327 26.1879 34.8602 23.8934 35.2159 21.6035C35.3979 20.4586 35.5807 19.3144 35.7787 18.1725L36.088 16.4616L36.2525 15.6072C36.3142 15.3204 36.3614 15.0459 36.4444 14.7369C36.4634 14.6665 36.535 14.6252 36.6043 14.6443C36.6729 14.6627 36.7133 14.7323 36.6973 14.8003L36.6904 14.8294L36.6927 14.8279Z" fill="white"/>
<path d="M39.8725 141.637C39.8725 141.637 45.1497 127.571 36.7993 107.823C29.0521 89.4989 9.25296 46.354 8.59948 26.6145C8.57054 25.7403 7.38393 25.5177 7.05187 26.3261C3.48595 35.0016 -3.74337 57.4334 2.58114 85.1723C10.7374 120.943 39.8725 141.636 39.8725 141.636V141.637Z" fill="#187231"/>
<path opacity="0.45" d="M7.46467 44.2538C7.23847 45.2641 7.12499 46.2951 7.00313 47.3208L6.86756 48.865C6.82643 49.3797 6.81424 49.8975 6.78606 50.413C6.7754 50.6707 6.75941 50.9285 6.75255 51.187L6.74798 51.9618L6.73884 53.5105L6.79444 55.0586C6.82034 55.5741 6.81348 56.0903 6.86146 56.605C7.10823 60.7244 7.68706 64.8247 8.6231 68.8408C9.54085 72.8585 10.665 76.8333 12.1136 80.6926L12.6384 82.1466L12.9027 82.8724L13.2004 83.586L14.3916 86.4388C14.5935 86.913 14.7816 87.3918 14.9941 87.8629L15.6308 89.2771L16.9042 92.1055C18.6354 95.8615 20.397 99.6031 22.2158 103.319C23.1153 105.182 24.0452 107.03 24.9645 108.884L27.7383 114.439C29.5852 118.144 31.4695 121.836 33.1816 125.619C33.6196 126.559 34.0125 127.523 34.42 128.477C34.6295 128.952 34.8077 129.441 34.9966 129.926C35.1801 130.412 35.3774 130.892 35.5503 131.383C36.2464 133.344 36.8191 135.354 37.1733 137.408C37.1855 137.48 37.1375 137.549 37.0659 137.561C36.9973 137.573 36.9318 137.529 36.9151 137.462L36.9136 137.455C36.6714 136.452 36.4619 135.444 36.1276 134.467C35.8473 133.476 35.4634 132.517 35.1154 131.548C34.9311 131.067 34.7224 130.594 34.5274 130.117C34.3271 129.641 34.1382 129.162 33.9173 128.695C33.4863 127.757 33.0719 126.813 32.6104 125.887C30.8168 122.166 28.9021 118.497 26.9912 114.824L24.1305 109.31C23.1967 107.46 22.2531 105.615 21.3391 103.755C19.4831 100.05 17.7184 96.2967 15.9811 92.5322L14.7031 89.6978L14.0641 88.2805C13.8501 87.8086 13.6643 87.3207 13.4632 86.8411L12.2781 83.9539L11.9819 83.2319L11.7191 82.4969L11.1974 81.0253L10.6764 79.5538C10.5066 79.062 10.3169 78.5771 10.1806 78.0746L9.29409 75.0803C8.97649 74.0891 8.76552 73.0673 8.50962 72.0585C8.2697 71.0458 7.99095 70.0416 7.82111 69.0137C6.97342 64.9371 6.48827 60.7864 6.33899 56.6295C6.3032 56.111 6.32071 55.5894 6.3169 55.0693L6.31995 53.5098L6.38774 51.951L6.42201 51.1725C6.43876 50.9132 6.46466 50.6547 6.48522 50.3954C6.63907 48.3242 6.91021 46.2553 7.43344 44.2461C7.43573 44.2377 7.44487 44.2324 7.45325 44.2347C7.46162 44.237 7.46695 44.2461 7.46467 44.2545V44.2538Z" fill="white"/>
<path d="M10.2019 172.089C10.2019 174.025 11.7808 175.608 13.7099 175.608H203.402C205.331 175.608 206.91 174.024 206.91 172.089L208.488 62.6191C208.488 60.6833 206.217 56.905 202.055 57.1888L16.6681 52.3719C14.2477 52.3091 11.9064 53.2445 10.1928 54.9608C8.47836 56.6763 7.5408 59.0228 7.59792 61.4512L10.2027 172.089H10.2019Z" fill="#481D8E"/>
<path d="M13.665 168.713C13.665 170.546 15.1586 172.045 16.9834 172.045H198.828C200.653 172.045 202.146 170.545 202.146 168.713L203.636 69.335C203.461 63.3548 198.239 61.2056 195.074 61.3326L17.3916 56.5447C15.6909 56.4988 14.0458 57.1566 12.8417 58.3635C11.6376 59.5704 10.9803 61.2209 11.0229 62.9288L13.665 168.712V168.713Z" fill="#7D97F4"/>
<path d="M200.181 121.464H200.174C199.926 121.46 199.727 121.255 199.731 121.006L199.849 112.947C199.853 112.698 200.056 112.516 200.305 112.502C200.553 112.506 200.752 112.711 200.748 112.96L200.63 121.019C200.627 121.266 200.426 121.464 200.181 121.464Z" fill="#BDD0FB"/>
<path d="M200.47 101.715H200.463C200.215 101.711 200.016 101.505 200.02 101.257L200.471 70.3889C200.463 68.5441 199.905 67.0718 198.812 66.0209C196.777 64.0629 193.549 64.1639 193.41 64.1685L136.623 62.6396C136.375 62.6335 136.179 62.4254 136.186 62.1761C136.193 61.9306 136.392 61.7363 136.635 61.7363C136.639 61.7363 136.643 61.7363 136.647 61.7363L193.403 63.2652C193.755 63.2484 197.166 63.1857 199.435 65.3685C200.71 66.5953 201.361 68.2863 201.371 70.3935L200.919 101.27C200.915 101.517 200.715 101.716 200.47 101.716V101.715Z" fill="#BDD0FB"/>
<path d="M1.38388 184.695L217.494 184.695C217.773 184.695 218 184.468 218 184.187V175.585C218 175.305 217.773 175.077 217.494 175.077L1.38388 175.077C1.10416 175.077 0.87738 175.305 0.87738 175.585V184.187C0.87738 184.468 1.10416 184.695 1.38388 184.695Z" fill="#481D8E"/>
<path d="M103.74 197.548C86.1981 197.553 25.6918 197.496 4.26965 196.517C2.00001 196.413 0.207151 194.887 0.169832 193.027C-0.0152427 183.828 -0.278002 150.114 0.791316 135.096C1.01371 131.968 4.16226 129.54 7.99246 129.552C26.4032 129.608 78.1828 129.955 101.864 132.067C104.701 132.32 106.928 134.191 107.166 136.519C108.191 146.553 110.51 180.452 109.222 193.421C108.99 195.759 106.609 197.548 103.741 197.548H103.74Z" fill="#481D8E"/>
<path d="M98.442 193.34C84.2789 193.551 37.1641 194.169 19.7641 193.326C17.221 193.203 15.1959 191.52 15.0885 189.437C14.646 180.858 13.8752 151.607 15.3543 139.068C15.6209 136.81 17.8913 135.079 20.6628 135.013C35.1146 134.665 78.9924 133.714 96.1983 134.534C98.9431 134.665 101.151 136.451 101.353 138.695C102.185 147.983 103.988 179.085 103.064 189.748C102.891 191.749 100.894 193.304 98.4428 193.341L98.442 193.34Z" fill="#91B3FA"/>
<path opacity="0.5" d="M106.524 174.88C105.987 174.869 105.549 174.517 105.53 174.077C105.434 171.903 105.162 165.78 105.022 163.042C104.995 162.502 105.595 162.092 106.241 162.206L106.351 162.226C106.792 162.305 107.118 162.612 107.153 162.979C107.323 164.83 107.786 170.417 107.551 174.107C107.523 174.551 107.067 174.89 106.524 174.88Z" fill="white"/>
<path d="M92.0672 127.128C91.7984 139.865 90.9271 183.804 91.3429 199.373C91.3871 201.023 92.5128 202.347 93.9164 202.4C100.861 202.667 126.318 203.344 137.677 202.784C140.043 202.668 141.924 200.416 141.973 197.636C142.209 184.265 142.73 146.661 141.493 129.435C141.344 127.37 139.966 125.727 138.211 125.521C130.648 124.632 105.081 122.459 95.2676 123.207C93.4975 123.342 92.1114 125.045 92.0672 127.128Z" fill="#481D8E"/>
<path d="M95.1663 131.036C94.7923 141.318 93.6133 175.521 93.988 188.168C94.0429 190.017 95.2828 191.511 96.8548 191.62C103.326 192.065 125.406 193.046 134.899 192.153C136.608 191.993 137.95 190.368 138.043 188.357C138.524 177.868 139.905 146.019 139.546 133.514C139.489 131.519 138.174 129.889 136.481 129.711C129.48 128.972 106.017 127.215 97.9507 127.732C96.4366 127.829 95.2318 129.256 95.167 131.036H95.1663Z" fill="#BDD0FB"/>
<path d="M56.0059 176.18C63.2681 176.18 69.1553 170.268 69.1553 162.976C69.1553 155.683 63.2681 149.771 56.0059 149.771C48.7437 149.771 42.8565 155.683 42.8565 162.976C42.8565 170.268 48.7437 176.18 56.0059 176.18Z" fill="white"/>
<path d="M54.9267 173.11C54.229 173.156 53.5801 172.83 53.2191 172.248L47.1559 162.471C46.5877 161.555 46.8939 160.299 47.839 159.668C48.7842 159.037 50.0097 159.267 50.5778 160.183L54.7827 166.97L60.3312 155.623C60.8293 154.604 62.0258 154.137 63.0022 154.579C63.9793 155.02 64.3678 156.203 63.8704 157.221L56.7005 171.897C56.3723 172.57 55.7195 173.032 54.996 173.105C54.9724 173.107 54.9495 173.11 54.9259 173.111L54.9267 173.11Z" fill="url(#paint0_linear_11_8347)"/>
<path d="M46.9624 81.2596L47.7377 81.4126H47.7392C47.9616 81.4569 48.1063 81.6734 48.0629 81.8967C48.0188 82.12 47.8032 82.2653 47.5808 82.2218C47.5763 82.221 47.5702 82.2195 47.5656 82.2187L46.7933 82.0351C46.5808 81.9846 46.4498 81.7705 46.5001 81.5571C46.5496 81.3491 46.7529 81.2183 46.9601 81.2588H46.9624V81.2596Z" fill="white"/>
<path d="M49.5451 81.7553L50.3219 81.8953H50.3242C50.5748 81.9411 50.7416 82.1813 50.6966 82.4329C50.6517 82.6846 50.4125 82.8521 50.162 82.8069C50.1566 82.8062 50.1498 82.8046 50.1445 82.8039L49.3691 82.6333C49.1285 82.5805 48.9761 82.3419 49.0287 82.1002C49.0805 81.8647 49.3074 81.7132 49.542 81.7553H49.5458H49.5451Z" fill="white"/>
<path d="M52.1338 82.2019L52.9114 82.3251H52.9152C53.194 82.3694 53.3852 82.6325 53.341 82.9125C53.2968 83.1924 53.0356 83.3844 52.7561 83.34C52.75 83.3392 52.7424 83.3377 52.737 83.337L51.9571 83.1825C51.6883 83.1297 51.5131 82.8673 51.5664 82.5974C51.6182 82.3343 51.8673 82.1606 52.1293 82.2012H52.1338V82.2019Z" fill="white"/>
<path d="M54.7279 82.5888L55.5071 82.6913H55.5116C55.8193 82.7326 56.0356 83.0156 55.996 83.3246C55.9556 83.6336 55.6739 83.8508 55.3662 83.811C55.3601 83.8102 55.3509 83.8087 55.3448 83.8079L54.5604 83.6741C54.2626 83.6236 54.0623 83.3399 54.1133 83.0408C54.1628 82.7494 54.4324 82.5506 54.7218 82.588H54.7279V82.5888Z" fill="white"/>
<path d="M57.3273 82.9023L58.108 82.9804H58.1141C58.4507 83.0148 58.696 83.3154 58.6625 83.6534C58.6289 83.9915 58.3289 84.2377 57.993 84.2048C57.9861 84.2048 57.9762 84.2033 57.9694 84.2018L57.1803 84.0924C56.8536 84.0473 56.6259 83.7444 56.6708 83.4163C56.715 83.0966 57.0029 82.8702 57.3197 82.9016H57.3273V82.9023Z" fill="white"/>
<path d="M59.929 83.1304L60.7089 83.1802H60.7165C61.0821 83.2039 61.3594 83.5197 61.3357 83.8869C61.3129 84.254 60.9976 84.5324 60.6328 84.5087C60.6252 84.5087 60.6153 84.5071 60.6076 84.5064L59.8148 84.4253C59.4591 84.3886 59.2002 84.0696 59.2367 83.7125C59.2718 83.3637 59.5756 83.1083 59.9207 83.1297H59.9298L59.929 83.1304Z" fill="white"/>
<path d="M62.533 83.2605L63.3144 83.2788H63.3228C63.7166 83.288 64.0281 83.6169 64.0189 84.0123C64.0098 84.4077 63.6831 84.7205 63.2893 84.7113C63.2809 84.7113 63.2703 84.7106 63.2619 84.7098L62.4645 84.6601C62.0799 84.6364 61.7874 84.3037 61.811 83.9167C61.8346 83.5396 62.1499 83.2513 62.5223 83.2597H62.533V83.2605Z" fill="white"/>
<path d="M65.1378 83.2849L65.9184 83.2711H65.9276C66.3495 83.2635 66.6968 83.6015 66.7044 84.0245C66.7113 84.4482 66.3754 84.797 65.9542 84.8046C65.9458 84.8046 65.9337 84.8046 65.9253 84.8046L65.1263 84.7878C64.7128 84.7786 64.3853 84.4352 64.3944 84.0207C64.4028 83.6161 64.7288 83.2925 65.1279 83.2857H65.1393L65.1378 83.2849Z" fill="white"/>
<path d="M67.7379 83.2037L68.5171 83.1593H68.5262C68.9748 83.1333 69.3594 83.4775 69.3853 83.928C69.4112 84.3785 69.0677 84.7647 68.6191 84.7907C68.61 84.7907 68.5971 84.7915 68.5879 84.7923L67.789 84.8075C67.348 84.816 66.9839 84.4634 66.9756 84.0205C66.9679 83.5884 67.3015 83.2297 67.7273 83.2045H67.7387L67.7379 83.2037Z" fill="white"/>
<path d="M70.3343 83.0203L71.1119 82.9469H71.1203C71.5956 82.901 72.0175 83.2513 72.0624 83.7293C72.1074 84.2066 71.7585 84.6303 71.2825 84.6747C71.2726 84.6754 71.2589 84.677 71.2498 84.677L70.4524 84.7213C69.984 84.7473 69.5834 84.3871 69.5575 83.9175C69.5323 83.4586 69.8728 83.0647 70.3244 83.0211H70.3351L70.3343 83.0203Z" fill="white"/>
<path d="M72.9246 82.745L73.7007 82.6463H73.7083C74.2095 82.5813 74.6672 82.9377 74.7312 83.441C74.7944 83.9442 74.4395 84.4047 73.9383 84.4682C73.9277 84.4697 73.914 84.4712 73.9033 84.472L73.1082 84.5423C72.6131 84.5859 72.1767 84.2188 72.1333 83.7217C72.0906 83.2368 72.4379 82.8077 72.9147 82.7465L72.9246 82.745Z" fill="white"/>
<path d="M75.5095 82.3901L76.2841 82.2707H76.2902C76.8173 82.1881 77.31 82.5514 77.3908 83.0807C77.4722 83.61 77.1105 84.1048 76.5834 84.1866C76.5728 84.1882 76.5575 84.1905 76.5469 84.1912L75.7548 84.2822C75.2338 84.3427 74.7624 83.9671 74.7022 83.4432C74.6436 82.9323 74.9985 82.4696 75.4996 82.3916L75.5088 82.3901H75.5095Z" fill="white"/>
<path d="M78.0892 81.9709L78.8615 81.8347H78.8668C79.419 81.7361 79.946 82.107 80.0427 82.6615C80.1402 83.2168 79.7708 83.7453 79.2179 83.8432C79.2065 83.8455 79.1912 83.8478 79.1798 83.8493L78.3915 83.9571C77.8439 84.0321 77.3397 83.6474 77.2651 83.0975C77.192 82.5613 77.5553 82.0657 78.0815 81.9724L78.0892 81.9709Z" fill="white"/>
<path d="M80.6627 81.4997L81.4342 81.3505H81.4388C82.0168 81.2381 82.5759 81.6175 82.6878 82.1987C82.7998 82.78 82.4212 83.3406 81.8424 83.4531C81.8302 83.4554 81.8142 83.4584 81.8021 83.4599L81.0161 83.5808C80.4426 83.6695 79.9056 83.2741 79.818 82.6974C79.732 82.1353 80.1044 81.6091 80.6558 81.5012L80.6627 81.4997Z" fill="white"/>
<path d="M31.7711 91.6053C39.8565 91.6053 46.411 85.0232 46.411 76.9037C46.411 68.7843 39.8565 62.2021 31.7711 62.2021C23.6857 62.2021 17.1312 68.7843 17.1312 76.9037C17.1312 85.0232 23.6857 91.6053 31.7711 91.6053Z" fill="white"/>
<path d="M30.5692 88.1881C29.7924 88.2393 29.0704 87.876 28.6682 87.2282L21.918 76.3431C21.285 75.3228 21.6263 73.9255 22.6788 73.2226C23.7306 72.5197 25.0962 72.7767 25.7276 73.7962L30.4093 81.3528L36.5868 68.7193C37.1413 67.5858 38.4733 67.0657 39.5609 67.5575C40.6485 68.0493 41.0811 69.3663 40.5274 70.499L32.5449 86.8389C32.1793 87.5869 31.4527 88.1016 30.6477 88.1835C30.6218 88.1858 30.5959 88.1881 30.57 88.1904L30.5692 88.1881Z" fill="url(#paint1_linear_11_8347)"/>
<path d="M116.166 109.714L115.907 110.438L115.899 110.46C115.741 110.903 115.253 111.134 114.812 110.975C114.377 110.818 114.147 110.34 114.292 109.902L114.548 109.128C114.698 108.676 115.185 108.431 115.636 108.581C116.087 108.731 116.33 109.22 116.181 109.673C116.179 109.678 116.177 109.684 116.176 109.689L116.166 109.714H116.166Z" fill="white"/>
<path d="M115.368 112.162L115.164 112.911L115.16 112.928C115.04 113.366 114.59 113.624 114.154 113.504C113.725 113.386 113.47 112.945 113.575 112.514L113.77 111.727C113.879 111.281 114.329 111.008 114.773 111.119C115.217 111.229 115.488 111.681 115.377 112.127C115.376 112.132 115.375 112.137 115.374 112.142L115.368 112.162Z" fill="white"/>
<path d="M114.745 114.678L114.587 115.442L114.584 115.455C114.495 115.883 114.08 116.157 113.654 116.068C113.235 115.981 112.963 115.574 113.039 115.153L113.183 114.359C113.262 113.925 113.677 113.636 114.109 113.716C114.542 113.795 114.829 114.211 114.75 114.646C114.749 114.651 114.748 114.656 114.747 114.661L114.743 114.678H114.745Z" fill="white"/>
<path d="M114.267 117.236L114.149 118.009L114.147 118.019C114.084 118.433 113.699 118.717 113.287 118.654C112.881 118.591 112.601 118.214 112.652 117.807L112.755 117.009C112.809 116.588 113.192 116.292 113.611 116.346C114.03 116.4 114.326 116.785 114.272 117.206C114.272 117.21 114.27 117.216 114.269 117.22L114.267 117.235V117.236Z" fill="white"/>
<path d="M113.913 119.823L113.828 120.603V120.612C113.784 121.011 113.427 121.299 113.03 121.255C112.639 121.213 112.355 120.864 112.387 120.472L112.455 119.672C112.489 119.267 112.844 118.966 113.247 119.001C113.651 119.035 113.95 119.391 113.916 119.796C113.916 119.801 113.915 119.805 113.914 119.811L113.913 119.823Z" fill="white"/>
<path d="M113.666 122.429L113.611 123.213V123.22C113.584 123.603 113.253 123.891 112.872 123.864C112.497 123.838 112.213 123.515 112.23 123.139L112.267 122.339C112.284 121.95 112.613 121.649 113 121.668C113.387 121.686 113.686 122.015 113.668 122.404C113.668 122.408 113.668 122.413 113.667 122.417V122.428L113.666 122.429Z" fill="white"/>
<path d="M113.515 125.046L113.487 125.833V125.84C113.473 126.205 113.168 126.491 112.804 126.478C112.445 126.465 112.164 126.166 112.168 125.808L112.177 125.008C112.182 124.637 112.485 124.34 112.854 124.344C113.224 124.348 113.52 124.653 113.516 125.024C113.516 125.028 113.516 125.032 113.516 125.037V125.047L113.515 125.046Z" fill="white"/>
<path d="M113.451 127.67L113.447 128.458V128.464C113.445 128.812 113.163 129.093 112.816 129.092C112.475 129.09 112.198 128.814 112.191 128.474L112.175 127.675C112.168 127.321 112.447 127.029 112.8 127.022C113.152 127.015 113.443 127.296 113.45 127.65C113.45 127.654 113.45 127.659 113.45 127.663V127.671L113.451 127.67Z" fill="white"/>
<path d="M113.467 130.297L113.486 131.086V131.091C113.495 131.422 113.234 131.696 112.905 131.705C112.582 131.713 112.311 131.458 112.295 131.136L112.256 130.337C112.24 130.001 112.498 129.716 112.832 129.7C113.166 129.684 113.451 129.942 113.467 130.278C113.467 130.282 113.467 130.286 113.467 130.29V130.298V130.297Z" fill="white"/>
<path d="M113.557 132.925L113.599 133.713V133.718C113.616 134.031 113.377 134.298 113.066 134.314C112.759 134.33 112.497 134.096 112.473 133.791L112.412 132.995C112.388 132.678 112.624 132.401 112.94 132.376C113.256 132.352 113.532 132.589 113.557 132.906C113.557 132.91 113.557 132.914 113.557 132.918V132.925Z" fill="white"/>
<path d="M113.721 135.551L113.784 136.338V136.342C113.808 136.637 113.589 136.895 113.297 136.918C113.008 136.942 112.754 136.729 112.724 136.441L112.641 135.647C112.61 135.348 112.826 135.081 113.124 135.049C113.422 135.018 113.688 135.235 113.719 135.534C113.719 135.538 113.72 135.541 113.72 135.545V135.552L113.721 135.551Z" fill="white"/>
<path d="M113.956 138.173L114.041 138.958V138.963C114.071 139.239 113.872 139.487 113.598 139.517C113.326 139.547 113.083 139.353 113.047 139.084L112.943 138.292C112.905 138.011 113.102 137.754 113.381 137.716C113.661 137.679 113.917 137.876 113.955 138.157C113.955 138.16 113.955 138.163 113.956 138.167V138.174V138.173Z" fill="white"/>
<path d="M114.265 140.788L114.372 141.57V141.575C114.408 141.833 114.228 142.07 113.972 142.106C113.719 142.141 113.486 141.966 113.445 141.715L113.318 140.927C113.275 140.665 113.453 140.418 113.714 140.375C113.975 140.333 114.221 140.511 114.263 140.773C114.263 140.776 114.264 140.779 114.265 140.782V140.789V140.788Z" fill="white"/>
<path d="M114.649 143.392L114.78 144.171V144.175C114.821 144.415 114.661 144.641 114.423 144.681C114.189 144.721 113.966 144.565 113.921 144.332L113.77 143.548C113.722 143.305 113.881 143.069 114.123 143.022C114.365 142.974 114.6 143.133 114.647 143.377C114.647 143.38 114.648 143.382 114.649 143.385L114.65 143.391L114.649 143.392Z" fill="white"/>
<path d="M115.118 145.982L115.276 146.756V146.76C115.322 146.981 115.181 147.196 114.962 147.241C114.745 147.286 114.534 147.149 114.485 146.934L114.306 146.156C114.254 145.932 114.393 145.708 114.617 145.657C114.84 145.605 115.064 145.745 115.115 145.969C115.115 145.972 115.117 145.975 115.117 145.977L115.118 145.983L115.118 145.982Z" fill="white"/>
<path d="M125.543 168.963C130.215 164.27 130.215 156.663 125.543 151.97C120.87 147.278 113.294 147.278 108.622 151.97C103.949 156.663 103.949 164.27 108.622 168.963C113.294 173.655 120.87 173.655 125.543 168.963Z" fill="white"/>
<path d="M116.1 169.688C115.466 169.731 114.875 169.434 114.547 168.904L109.029 160.007C108.512 159.174 108.791 158.032 109.652 157.456C110.511 156.882 111.627 157.092 112.144 157.925L115.97 164.101L121.019 153.776C121.472 152.849 122.56 152.425 123.45 152.826C124.339 153.228 124.693 154.305 124.24 155.23L117.716 168.584C117.418 169.195 116.824 169.617 116.166 169.682C116.144 169.685 116.123 169.686 116.102 169.688L116.1 169.688Z" fill="url(#paint2_linear_11_8347)"/>
<path d="M166.637 67.6427C169.31 43.9733 152.269 22.598 128.574 19.8996C104.879 17.2011 83.5042 34.2015 80.8312 57.8708C78.1583 81.5402 95.1997 102.916 118.894 105.614C142.589 108.312 163.964 91.312 166.637 67.6427Z" fill="white"/>
<path d="M165.197 67.4712C167.781 44.5888 151.306 23.9242 128.399 21.3155C105.493 18.7068 84.8281 35.1419 82.244 58.0243C79.66 80.9067 96.1347 101.571 119.042 104.18C141.948 106.789 162.613 90.3536 165.197 67.4712Z" fill="#187131"/>
<path opacity="0.66" d="M162.192 65.3404C162.187 65.3404 162.181 65.3404 162.176 65.3404C162.031 65.332 161.92 65.2066 161.929 65.0605C162.026 63.4521 162.021 61.826 161.916 60.2268C161.906 60.0807 162.016 59.9553 162.161 59.9453C162.305 59.9392 162.431 60.0463 162.441 60.1916C162.549 61.813 162.553 63.462 162.455 65.0926C162.446 65.2326 162.33 65.3412 162.192 65.3412V65.3404Z" fill="white"/>
<path opacity="0.66" d="M159.872 49.6995C159.766 49.6995 159.665 49.6337 159.625 49.5274C154.569 35.8997 142.457 26.4127 128.017 24.7691C125.713 24.5067 123.382 24.4517 121.087 24.6046C120.946 24.6107 120.815 24.5037 120.806 24.3584C120.797 24.2123 120.907 24.0868 121.052 24.0769C123.378 23.9216 125.742 23.9775 128.076 24.2436C135.348 25.0712 142.2 27.9102 147.893 32.4533C153.433 36.8741 157.66 42.7135 160.12 49.3431C160.171 49.48 160.101 49.6322 159.965 49.6834C159.935 49.6949 159.903 49.7003 159.873 49.7003L159.872 49.6995Z" fill="white"/>
<path opacity="0.3" d="M159.559 67.9155C161.861 47.5359 147.188 29.1315 126.787 26.8081C106.386 24.4848 87.9816 39.1223 85.6802 59.502C83.3787 79.8816 98.0514 98.286 118.453 100.609C138.854 102.933 157.258 88.2952 159.559 67.9155Z" fill="white"/>
<path d="M133.502 73.7786L131.594 73.4039C131.602 72.5212 131.535 71.6379 131.392 70.7644L133.231 70.1204C133.726 69.9468 133.988 69.3954 133.814 68.8898L132.726 65.7188C132.552 65.211 132.008 64.9395 131.511 65.1131L129.664 65.7571C129.24 64.9884 128.744 64.2519 128.183 63.5521L129.464 62.0423C129.809 61.6369 129.762 61.0205 129.361 60.6648L126.845 58.4361C126.442 58.0789 125.835 58.1187 125.49 58.5248L124.205 60.0384C123.441 59.5681 122.648 59.1688 121.834 58.8468L122.192 56.8736C122.289 56.3412 121.943 55.8234 121.418 55.7164L118.131 55.0448C117.605 54.937 117.099 55.2827 117.004 55.8166L116.647 57.7921C115.761 57.7699 114.877 57.8265 114.003 57.9596L113.333 56.0521C113.152 55.5359 112.594 55.2575 112.089 55.4319L108.92 56.5217C108.413 56.6961 108.15 57.2567 108.333 57.7738L109.002 59.6637C108.233 60.0912 107.498 60.5945 106.802 61.1658L105.293 59.851C104.88 59.4908 104.262 59.5313 103.914 59.9413L101.738 62.505C101.389 62.915 101.444 63.5383 101.857 63.897L103.358 65.1965C102.898 65.9796 102.512 66.7919 102.205 67.6271L100.286 67.25C99.7528 67.1452 99.2447 67.4925 99.1511 68.0263L98.5646 71.3579C98.4709 71.8903 98.8266 72.405 99.359 72.5082L101.268 72.8784C101.265 73.7832 101.343 74.688 101.498 75.5806L99.6834 76.2131C99.1762 76.3898 98.915 76.9473 99.1 77.4575L100.253 80.6415C100.437 81.1493 100.996 81.4178 101.501 81.2403L103.297 80.6116C103.74 81.391 104.259 82.1352 104.843 82.8403L103.614 84.2882C103.269 84.6943 103.322 85.3069 103.732 85.6565L106.291 87.8347C106.7 88.1819 107.31 88.1353 107.654 87.7299L108.879 86.2867C109.661 86.7502 110.47 87.1402 111.3 87.4508L110.964 89.3123C110.869 89.8355 111.217 90.3388 111.74 90.4359L115.003 91.0439C115.524 91.1411 116.023 90.7969 116.118 90.2745L116.459 88.4045C117.345 88.4121 118.229 88.3433 119.101 88.1957L119.737 89.9923C119.914 90.4925 120.46 90.7541 120.957 90.5774L124.06 89.4753C124.556 89.2993 124.815 88.7517 124.64 88.2523L124.007 86.4488C124.761 86.0182 125.483 85.515 126.167 84.9436L127.615 86.198C128.014 86.5429 128.614 86.497 128.955 86.0955L131.089 83.583C131.43 83.1815 131.384 82.5749 130.987 82.2285L129.531 80.9596C129.979 80.1917 130.357 79.3955 130.659 78.5779L132.546 78.9435C133.061 79.0437 133.557 78.7011 133.654 78.1795L134.263 74.9113C134.36 74.3882 134.021 73.8819 133.506 73.7802L133.502 73.7786ZM123.909 79.589C120.448 83.6648 114.332 84.1268 110.228 80.6017C106.099 77.0552 105.57 70.8233 109.069 66.7024C112.569 62.5815 118.74 62.1685 122.831 65.7601C126.897 69.3304 127.37 75.5133 123.908 79.589H123.909Z" fill="white"/>
<path d="M145.679 48.1331L144.616 47.922C144.609 47.444 144.56 46.966 144.468 46.4925L145.478 46.1507C145.751 46.0589 145.887 45.7614 145.784 45.4868L145.139 43.7682C145.035 43.4929 144.73 43.3445 144.457 43.4363L143.444 43.7782C143.2 43.3613 142.915 42.9613 142.595 42.582L143.283 41.7712C143.468 41.5533 143.434 41.2206 143.207 41.0271L141.787 39.8163C141.559 39.6221 141.225 39.642 141.039 39.8599L140.349 40.6722C139.921 40.416 139.477 40.198 139.024 40.0221L139.196 38.9597C139.243 38.6729 139.045 38.393 138.754 38.3333L136.933 37.9616C136.641 37.902 136.367 38.0871 136.321 38.3739L136.15 39.4377C135.662 39.4232 135.175 39.4507 134.694 39.5203L134.301 38.4909C134.195 38.2125 133.885 38.061 133.608 38.1528L131.878 38.7295C131.601 38.8221 131.464 39.1226 131.57 39.4018L131.962 40.4213C131.544 40.6492 131.145 40.9177 130.77 41.2236L129.924 40.5108C129.692 40.3158 129.353 40.3357 129.167 40.5552L128.001 41.928C127.814 42.1475 127.851 42.4833 128.083 42.6776L128.924 43.3827C128.68 43.8026 128.477 44.2394 128.319 44.6883L127.259 44.478C126.965 44.4199 126.689 44.6049 126.644 44.8918L126.362 46.6853C126.317 46.9721 126.518 47.2513 126.812 47.3086L127.866 47.5159C127.876 48.0039 127.929 48.4926 128.025 48.9752L127.034 49.3094C126.757 49.4027 126.62 49.7025 126.728 49.9787L127.4 51.7026C127.508 51.9779 127.819 52.1255 128.095 52.0322L129.076 51.7003C129.33 52.1232 129.624 52.5278 129.955 52.9118L129.295 53.6888C129.11 53.9068 129.147 54.2388 129.377 54.4292L130.815 55.62C131.044 55.8105 131.38 55.7875 131.565 55.5703L132.223 54.7948C132.66 55.0495 133.112 55.2644 133.573 55.4365L133.411 56.443C133.365 56.726 133.564 57.0006 133.854 57.0556L135.665 57.4013C135.954 57.4564 136.225 57.2728 136.271 56.9899L136.435 55.978C136.925 55.9864 137.413 55.9535 137.893 55.8778L138.268 56.8552C138.372 57.1275 138.678 57.2721 138.95 57.1788L140.654 56.5967C140.926 56.5034 141.063 56.2082 140.959 55.9359L140.584 54.9546C140.996 54.7244 141.389 54.4552 141.76 54.1493L142.579 54.8361C142.804 55.025 143.136 55.0028 143.32 54.7864L144.468 53.4334C144.652 53.2169 144.618 52.8881 144.394 52.6984L143.57 52.0039C143.807 51.5902 144.007 51.1603 144.162 50.7182L145.213 50.9247C145.5 50.9813 145.77 50.7978 145.817 50.5156L146.11 48.7473C146.157 48.4643 145.962 48.1889 145.675 48.1316L145.679 48.1331ZM140.445 51.2383C138.583 53.4303 135.209 53.6521 132.899 51.7255C130.579 49.7905 130.211 46.4245 132.087 44.2149C133.964 42.0053 137.362 41.8034 139.667 43.756C141.962 45.7002 142.306 49.0463 140.445 51.2383H140.445Z" fill="white"/>
<path d="M91.6103 98.6296L91.0208 99.1374L91.0101 99.1466C90.6521 99.4548 90.1137 99.4135 89.8067 99.054C89.5036 98.6992 89.5409 98.1653 89.8875 97.8556L90.4884 97.3202C90.8433 97.0035 91.3871 97.0357 91.7024 97.3928C92.0177 97.7492 91.9857 98.2953 91.6301 98.612C91.6278 98.6143 91.6247 98.6166 91.6224 98.6189L91.6087 98.6303L91.6103 98.6296Z" fill="white"/>
<path d="M89.6727 100.359L89.1061 100.896L89.0984 100.903C88.7649 101.218 88.2386 101.203 87.924 100.868C87.6125 100.537 87.6247 100.016 87.9484 99.6988L88.5211 99.1374C88.8524 98.8131 89.3825 98.8192 89.7055 99.1519C90.0284 99.4846 90.0223 100.017 89.691 100.341C89.6887 100.343 89.6864 100.346 89.6841 100.348L89.6735 100.358L89.6727 100.359Z" fill="white"/>
<path d="M87.8067 102.178L87.2591 102.737L87.253 102.744C86.94 103.064 86.4282 103.069 86.1098 102.754C85.7945 102.444 85.7869 101.937 86.0893 101.616L86.6392 101.034C86.9491 100.706 87.4655 100.692 87.7915 101.004C88.1182 101.315 88.1319 101.833 87.822 102.162C87.8197 102.164 87.8174 102.166 87.8151 102.168L87.806 102.178H87.8067Z" fill="white"/>
<path d="M86.0024 104.067L85.4723 104.646L85.4678 104.652C85.1738 104.973 84.6764 104.994 84.3566 104.698C84.0405 104.406 84.0169 103.914 84.301 103.592L84.8303 102.994C85.1212 102.665 85.6224 102.635 85.9499 102.927C86.2774 103.219 86.3071 103.723 86.0161 104.051C86.0139 104.054 86.0123 104.056 86.01 104.058L86.0024 104.067V104.067Z" fill="white"/>
<path d="M84.2545 106.016L83.7404 106.611L83.7366 106.615C83.4601 106.935 82.9773 106.969 82.6589 106.692C82.3436 106.417 82.3078 105.939 82.5743 105.619L83.0862 105.007C83.3596 104.679 83.8455 104.637 84.1722 104.911C84.4982 105.186 84.5409 105.674 84.2674 106.002C84.2652 106.004 84.2636 106.006 84.2613 106.009L84.2545 106.016Z" fill="white"/>
<path d="M82.5584 108.015L82.0588 108.623L82.0549 108.628C81.7945 108.945 81.3268 108.99 81.0108 108.728C80.6985 108.47 80.6513 108.007 80.9026 107.69L81.3984 107.065C81.6559 106.741 82.1265 106.686 82.4502 106.945C82.7732 107.203 82.8272 107.676 82.569 108.001C82.5675 108.003 82.5652 108.006 82.5637 108.008L82.5576 108.015H82.5584Z" fill="white"/>
<path d="M80.9102 110.057L80.4251 110.677L80.422 110.681C80.1768 110.994 79.7244 111.049 79.4121 110.803C79.1029 110.559 79.0473 110.111 79.2842 109.798L79.7648 109.162C80.007 108.841 80.4624 108.779 80.7823 109.022C81.1014 109.265 81.1639 109.723 80.9217 110.044C80.9201 110.046 80.9179 110.048 80.9163 110.051L80.911 110.058L80.9102 110.057Z" fill="white"/>
<path d="M79.3078 112.137L78.8356 112.767L78.8325 112.771C78.601 113.08 78.1646 113.142 77.8569 112.911C77.5522 112.681 77.489 112.248 77.7114 111.94L78.1783 111.294C78.4068 110.978 78.8462 110.907 79.1608 111.137C79.4753 111.366 79.5454 111.808 79.3169 112.123C79.3154 112.126 79.3139 112.128 79.3123 112.13L79.3078 112.137Z" fill="white"/>
<path d="M77.7487 114.251L77.2895 114.892L77.2872 114.895C77.0694 115.198 76.6482 115.267 76.3458 115.048C76.0465 114.832 75.9772 114.415 76.1859 114.112L76.639 113.457C76.8538 113.146 77.278 113.07 77.5873 113.285C77.8965 113.501 77.9726 113.927 77.7579 114.238C77.7563 114.24 77.7548 114.242 77.7533 114.244L77.7487 114.251Z" fill="white"/>
<path d="M76.2316 116.397L75.7845 117.047L75.7822 117.05C75.5774 117.348 75.1714 117.423 74.8751 117.217C74.5819 117.014 74.5065 116.612 74.703 116.315L75.1432 115.652C75.3451 115.347 75.7541 115.265 76.0572 115.467C76.3603 115.67 76.4426 116.081 76.2407 116.385C76.2392 116.387 76.2377 116.39 76.2362 116.391L76.2324 116.397H76.2316Z" fill="white"/>
<path d="M74.7563 118.574L74.3222 119.233L74.3199 119.236C74.128 119.527 73.7373 119.607 73.4471 119.414C73.16 119.223 73.08 118.836 73.2635 118.546L73.6908 117.874C73.8797 117.577 74.2735 117.489 74.5697 117.679C74.866 117.869 74.9528 118.264 74.7639 118.562C74.7624 118.564 74.7609 118.566 74.7601 118.568L74.7563 118.574Z" fill="white"/>
<path d="M73.3229 120.779L72.901 121.446L72.8987 121.449C72.719 121.734 72.3435 121.818 72.0602 121.637C71.7799 121.459 71.6953 121.087 71.8675 120.804L72.2818 120.124C72.4585 119.834 72.837 119.742 73.1264 119.92C73.4158 120.097 73.5072 120.477 73.3305 120.768C73.329 120.77 73.3283 120.772 73.3267 120.774L73.3229 120.779Z" fill="white"/>
<path d="M71.9322 123.013L71.5232 123.688L71.5217 123.691C71.3541 123.969 70.9939 124.057 70.7182 123.889C70.4448 123.722 70.3564 123.366 70.5171 123.09L70.9177 122.402C71.083 122.118 71.4455 122.023 71.7273 122.189C72.0091 122.355 72.1043 122.719 71.9398 123.002C71.9383 123.004 71.9375 123.005 71.936 123.008L71.9322 123.013Z" fill="white"/>
<path d="M70.5857 125.274L70.1904 125.958L70.1889 125.961C70.0327 126.231 69.6885 126.323 69.4196 126.166C69.1538 126.01 69.0616 125.67 69.2109 125.402L69.5978 124.706C69.7509 124.43 70.0982 124.331 70.3724 124.485C70.6473 124.639 70.7456 124.988 70.5917 125.263C70.591 125.266 70.5895 125.267 70.5887 125.269L70.5857 125.275V125.274Z" fill="white"/>
<path d="M69.2848 127.562L68.904 128.254L68.9025 128.257C68.7578 128.519 68.4295 128.614 68.1683 128.47C67.9101 128.326 67.8149 128.001 67.952 127.74L68.3244 127.035C68.4661 126.768 68.7974 126.665 69.0639 126.808C69.3305 126.95 69.4326 127.282 69.2909 127.55C69.2901 127.552 69.2886 127.554 69.2878 127.556L69.2848 127.561V127.562Z" fill="white"/>
<path d="M68.0335 129.879L67.6679 130.579L67.6664 130.582C67.5338 130.837 67.22 130.934 66.9672 130.801C66.7166 130.67 66.6184 130.36 66.7448 130.107L67.1012 129.394C67.2315 129.134 67.5468 129.029 67.8057 129.16C68.0647 129.291 68.169 129.607 68.0388 129.868C68.038 129.869 68.0373 129.871 68.0357 129.873L68.0327 129.878L68.0335 129.879Z" fill="white"/>
<path d="M66.8354 132.222L66.4874 132.931L66.4858 132.934C66.3648 133.181 66.0677 133.282 65.8217 133.161C65.5788 133.041 65.4775 132.746 65.5932 132.502L65.9329 131.78C66.0517 131.529 66.351 131.421 66.6016 131.539C66.8522 131.659 66.9596 131.959 66.8415 132.211C66.8408 132.212 66.84 132.215 66.8392 132.216L66.8362 132.222L66.8354 132.222Z" fill="white"/>
<path d="M65.6968 134.594L65.3678 135.312L65.3663 135.315C65.2566 135.554 64.9755 135.658 64.7379 135.549C64.5033 135.44 64.399 135.162 64.5026 134.925L64.8225 134.195C64.9291 133.951 65.2124 133.841 65.4554 133.948C65.6983 134.055 65.808 134.34 65.7014 134.583C65.7014 134.585 65.6999 134.587 65.6991 134.589L65.696 134.595L65.6968 134.594Z" fill="white"/>
<path d="M64.6244 136.997L64.3175 137.723L64.316 137.727C64.2185 137.957 63.9542 138.065 63.725 137.967C63.498 137.871 63.3914 137.609 63.4828 137.381L63.7806 136.64C63.875 136.405 64.1423 136.291 64.3769 136.386C64.6115 136.481 64.7242 136.75 64.6298 136.985C64.629 136.987 64.6282 136.988 64.6275 136.991L64.6244 136.997Z" fill="white"/>
<path d="M63.6305 139.43L63.3495 140.167L63.348 140.171C63.2634 140.393 63.0152 140.504 62.7943 140.419C62.5757 140.335 62.4653 140.09 62.5445 139.87L62.8164 139.119C62.8986 138.892 63.1484 138.775 63.3746 138.857C63.6008 138.94 63.7174 139.191 63.6351 139.418C63.6351 139.419 63.6336 139.421 63.6336 139.423L63.6313 139.429L63.6305 139.43Z" fill="white"/>
<path d="M62.7288 141.898L62.479 142.646L62.4774 142.651C62.4058 142.864 62.1758 142.98 61.9633 142.908C61.7531 142.837 61.6389 142.61 61.7051 142.398L61.9458 141.635C62.0151 141.417 62.2467 141.296 62.4645 141.365C62.6823 141.434 62.8026 141.667 62.7341 141.886C62.7341 141.888 62.7333 141.889 62.7326 141.891L62.7303 141.898H62.7288Z" fill="white"/>
</g>
<defs>
<linearGradient id="paint0_linear_11_8347" x1="71.1752" y1="125.662" x2="48.8939" y2="172.415" gradientUnits="userSpaceOnUse">
<stop stop-color="#FF928E"/>
<stop offset="1" stop-color="#FE7062"/>
</linearGradient>
<linearGradient id="paint1_linear_11_8347" x1="48.6593" y1="35.3619" x2="23.8528" y2="87.4136" gradientUnits="userSpaceOnUse">
<stop stop-color="#FF928E"/>
<stop offset="1" stop-color="#FE7062"/>
</linearGradient>
<linearGradient id="paint2_linear_11_8347" x1="130.885" y1="126.514" x2="110.611" y2="169.056" gradientUnits="userSpaceOnUse">
<stop stop-color="#FF928E"/>
<stop offset="1" stop-color="#FE7062"/>
</linearGradient>
<clipPath id="clip0_11_8347">
<rect width="218" height="203" fill="white"/>
</clipPath>
</defs>
</svg>
