<svg width="220" height="175" viewBox="0 0 220 175" fill="none" xmlns="http://www.w3.org/2000/svg">
<g clip-path="url(#clip0_11_8440)">
<path d="M194.269 52.05C194.989 65.0777 196.586 141.092 137.012 155.691C137.012 155.691 125.153 105.969 192.825 51.2061C193.417 50.7269 194.221 51.1987 194.268 52.05H194.269Z" fill="#D0DA58"/>
<path d="M188.307 63.0739C187.155 67.0157 185.937 70.9239 184.69 74.8209C183.441 78.7166 182.155 82.5962 180.831 86.4571C178.183 94.1789 175.39 101.831 172.4 109.377C169.407 116.92 166.226 124.364 162.709 131.589C160.96 135.207 159.101 138.753 157.129 142.211C155.154 145.665 153.059 149.033 150.745 152.193C150.608 152.38 150.37 152.399 150.213 152.237C150.057 152.074 150.041 151.79 150.177 151.603H150.178L150.179 151.599C152.479 148.49 154.573 145.161 156.552 141.741C158.526 138.315 160.393 134.798 162.152 131.202C165.687 124.024 168.894 116.615 171.915 109.103C174.933 101.588 177.755 93.9623 180.434 86.2642C181.774 82.4157 183.076 78.5474 184.34 74.6628C185.602 70.777 186.837 66.8763 188.004 62.9507C188.033 62.8499 188.124 62.7976 188.207 62.8337C188.29 62.8685 188.334 62.9768 188.305 63.0751L188.307 63.0739Z" fill="#DCE5FE"/>
<path d="M143.419 173.429C143.419 173.429 144.58 158.446 158.164 144.336C170.767 131.243 201.624 101.099 209.366 83.613C209.708 82.8388 210.691 83.1599 210.646 84.0337C210.166 93.4109 207.414 116.784 192.434 138.98C173.116 167.602 143.42 173.429 143.42 173.429H143.419Z" fill="#187231"/>
<path d="M203.776 99.9988C203.429 102.035 202.87 104.014 202.223 105.943C202.143 106.185 202.067 106.429 201.984 106.669L201.722 107.383L201.198 108.813L200.625 110.216C200.431 110.682 200.251 111.158 200.033 111.609C198.389 115.281 196.493 118.797 194.35 122.088C193.843 122.936 193.263 123.717 192.709 124.522L191.87 125.723C191.728 125.921 191.596 126.129 191.447 126.318L191.004 126.893L189.232 129.196C188.944 129.588 188.622 129.941 188.312 130.308L187.376 131.403L186.441 132.497L185.972 133.042L185.482 133.561L183.524 135.637C183.196 135.979 182.876 136.336 182.541 136.667L181.536 137.663L179.526 139.653L177.497 141.616C176.819 142.268 176.147 142.928 175.461 143.568C174.097 144.858 172.726 146.14 171.345 147.404C169.97 148.677 168.578 149.924 167.191 151.18L163.001 154.894C160.205 157.366 157.408 159.829 154.684 162.399C153.994 163.032 153.335 163.701 152.664 164.358C152.326 164.682 152.006 165.032 151.681 165.373C151.358 165.717 151.027 166.052 150.71 166.406C150.091 167.128 149.448 167.823 148.874 168.596L148.43 169.163C148.357 169.259 148.28 169.349 148.211 169.448L148.006 169.748L147.185 170.949L147.182 170.954C147.15 171.002 147.09 171.008 147.05 170.97C147.011 170.933 147.004 170.865 147.033 170.817C148.058 169.128 149.234 167.576 150.483 166.12C150.795 165.755 151.121 165.41 151.439 165.053C151.761 164.701 152.076 164.34 152.409 164.005C153.07 163.327 153.722 162.633 154.401 161.981L155.409 160.989C155.748 160.662 156.092 160.344 156.434 160.022L157.46 159.057L158.494 158.105C159.87 156.833 161.258 155.581 162.641 154.321C165.409 151.806 168.176 149.294 170.919 146.745C173.664 144.201 176.375 141.605 179.068 138.985L181.072 136.997L182.075 136.004C182.409 135.673 182.728 135.324 183.055 134.986L185.007 132.938L185.495 132.427L185.962 131.889L186.895 130.81C189.412 127.969 191.722 124.877 193.892 121.658C196.073 118.447 198.013 115.003 199.708 111.397C199.933 110.954 200.116 110.486 200.324 110.032L200.932 108.66L201.491 107.259L201.769 106.558C201.858 106.323 201.941 106.083 202.026 105.845C202.193 105.368 202.373 104.895 202.53 104.414L202.99 102.961C203.271 101.983 203.56 101.003 203.757 99.9926C203.758 99.9851 203.764 99.9801 203.77 99.9814C203.776 99.9826 203.781 99.9901 203.78 99.9976L203.776 99.9988Z" fill="#DCE5FE"/>
<path d="M26.0223 37.4663C24.7265 55.4104 19.9545 159.599 83.0948 167.825C83.0948 167.825 97.7845 97.5467 27.6001 36.0287C26.9861 35.4911 26.1069 36.2939 26.0223 37.4663Z" fill="#D0DA58"/>
<path d="M32.2927 51.191C33.3432 56.1434 34.4688 61.0772 35.6268 65.9973C36.7869 70.9174 37.9888 75.8238 39.2335 80.714C41.7187 90.4957 44.3824 100.214 47.2581 109.841C48.7064 114.649 50.2059 119.436 51.7774 124.188C53.3624 128.934 55.0165 133.645 56.7676 138.304C58.5354 142.953 60.4076 147.544 62.4407 152.03C64.4789 156.508 66.6717 160.897 69.1976 164.992C69.3344 165.213 69.2947 165.524 69.1099 165.687C68.9241 165.85 68.663 165.803 68.5262 165.583L68.5241 165.58C65.9815 161.417 63.7918 156.985 61.7588 152.469C59.732 147.947 57.8702 143.327 56.1149 138.654C54.3774 133.971 52.737 129.239 51.1676 124.476C49.6117 119.706 48.129 114.903 46.6974 110.08C43.8561 100.426 41.2289 90.6837 38.7792 80.8796C37.5534 75.9782 36.3692 71.0618 35.2279 66.1317C34.0887 61.2005 32.9819 56.2604 31.9492 51.2943C31.9262 51.181 31.9836 51.0665 32.0787 51.0391C32.1737 51.0105 32.2697 51.0802 32.2927 51.1935V51.191Z" fill="#DCE5FE"/>
<path d="M0.00739993 79.6488C-0.094931 78.6992 0.940909 78.2175 1.40349 79.0004C5.87054 86.5678 18.1043 105.972 30.407 113.823C50.4378 126.606 69.1267 153.19 64.5793 172.95C64.5793 172.95 11.1166 183.082 0.00739993 79.6488Z" fill="#187231"/>
<path d="M5.23769 90.9328C5.3181 91.1207 5.43191 91.3572 5.53425 91.5738L5.85586 92.2347L6.51161 93.5503L7.84504 96.1678C8.74514 97.904 9.66298 99.6279 10.5944 101.342C12.451 104.772 14.3556 108.166 16.3176 111.511C20.2553 118.187 24.3339 124.749 28.7018 131.028C30.8977 134.154 33.1009 137.275 35.4128 140.278C37.7246 143.281 40.095 146.22 42.5582 149.047C47.4659 154.717 52.7339 159.956 58.4529 164.445C58.5312 164.505 58.5532 164.63 58.503 164.722C58.454 164.811 58.3537 164.839 58.2764 164.785C55.3203 162.69 52.5 160.331 49.7673 157.836C47.0524 155.315 44.4628 152.608 41.9369 149.825C36.9384 144.186 32.2781 138.134 27.9186 131.796C25.7342 128.631 23.6385 125.383 21.5824 122.101C19.5285 118.818 17.5331 115.482 15.6222 112.079C13.7061 108.68 11.8318 105.249 10.0399 101.757C9.14715 100.009 8.26794 98.2513 7.40753 96.4802C6.97941 95.5927 6.55233 94.7053 6.1357 93.8104L5.51963 92.4612L5.21786 91.7816C5.1197 91.5476 5.02155 91.3398 4.92026 91.0635C4.88371 90.9626 4.9213 90.8469 5.00588 90.8021C5.08733 90.7598 5.18026 90.8008 5.21994 90.8929L5.23769 90.934V90.9328Z" fill="#DCE5FE"/>
<path d="M67.4246 3.0295L153.181 4.15466C157.922 4.21689 161.64 9.09218 161.637 15.2171L161.561 166.743C161.559 170.982 158.68 174.498 155.207 174.516L63.2666 175C60.0223 175.017 57.3617 171.783 57.3617 167.812V15.9539C57.3617 8.75861 61.8663 2.95606 67.4246 3.0295Z" fill="#481D8E"/>
<path d="M146.031 17.5557H73.9466C70.9237 17.5557 68.4959 20.5254 68.4959 24.0353V149.09C68.4959 152.6 70.9237 155.321 73.9466 155.321H146.031C149.054 155.321 151.527 152.6 151.527 149.09V24.0341C151.527 20.5242 149.054 17.5544 146.031 17.5544V17.5557Z" fill="url(#paint0_linear_11_8440)"/>
<path d="M92.5938 2.39229C92.6586 2.37486 92.7275 2.37611 92.7974 2.39851L96.5283 3.56101C96.7967 3.6444 97.0818 3.64938 97.3512 3.5747C97.6206 3.50002 97.8754 3.34569 98.0852 3.13036L101.004 0.125783C101.059 0.068529 101.12 0.0311896 101.184 0.0137645C101.303 -0.019841 101.436 0.0150091 101.539 0.107113C101.609 0.169346 101.694 0.283853 101.704 0.479263L101.93 5.06828C101.963 5.74164 102.271 6.35151 102.755 6.70001L106.053 9.07978C106.257 9.22665 106.263 9.46064 106.256 9.55524C106.249 9.64983 106.209 9.87885 105.988 9.98215L102.396 11.655C101.869 11.9002 101.478 12.4378 101.348 13.095L100.469 17.5708C100.415 17.8471 100.23 17.9267 100.153 17.9479C100.075 17.9691 99.8802 17.9952 99.7288 17.7761L97.2833 14.2214C96.9251 13.6999 96.3748 13.4236 95.811 13.4796L91.9684 13.8655C91.7313 13.8891 91.6102 13.7036 91.5695 13.6227C91.5287 13.5418 91.4473 13.3278 91.5757 13.0888L93.6558 9.21918C93.9607 8.65162 94.0118 7.94217 93.7926 7.32109L92.2973 3.08431C92.2336 2.90508 92.268 2.75697 92.3077 2.66362C92.3662 2.52795 92.4727 2.42589 92.5917 2.39353L92.5938 2.39229Z" fill="#D0DA58"/>
<path d="M76.4819 14.0545C76.531 14.0408 76.5842 14.042 76.6375 14.0594L79.4892 14.9481C79.6939 15.0116 79.9121 15.0153 80.1188 14.9581C80.3256 14.9008 80.5198 14.7838 80.6796 14.6183L82.911 12.3219C82.9528 12.2783 82.9998 12.2497 83.0489 12.236C83.1397 12.2111 83.242 12.2373 83.3203 12.307C83.3736 12.3543 83.4383 12.4426 83.4456 12.5908L83.6179 16.0982C83.643 16.6122 83.879 17.079 84.2486 17.3453L86.7704 19.165C86.9259 19.277 86.9301 19.4562 86.9249 19.5284C86.9197 19.6006 86.8894 19.7761 86.7202 19.8545L83.9751 21.134C83.573 21.322 83.2733 21.7327 83.1752 22.2343L82.5027 25.6558C82.461 25.8662 82.32 25.9272 82.2605 25.9433C82.202 25.9595 82.0516 25.9794 81.9368 25.8114L80.0677 23.0943C79.7941 22.696 79.3733 22.4845 78.942 22.5268L76.0047 22.8218C75.8241 22.8404 75.7311 22.6985 75.6998 22.6363C75.6685 22.5741 75.6069 22.411 75.704 22.2281L77.2943 19.2695C77.5272 18.8351 77.5668 18.2937 77.3987 17.8183L76.2553 14.5797C76.2073 14.4428 76.2324 14.3295 76.2626 14.2586C76.3075 14.154 76.3879 14.0769 76.4798 14.052L76.4819 14.0545Z" fill="#D0DA58"/>
<path d="M72.0577 31.4384C72.089 31.4297 72.1214 31.431 72.1548 31.4409L73.9393 31.9973C74.0678 32.0371 74.2035 32.0396 74.333 32.0035C74.4625 31.9674 74.5836 31.894 74.6838 31.7907L76.0799 30.3531C76.106 30.3257 76.1353 30.3083 76.1666 30.2996C76.224 30.2834 76.2877 30.2996 76.3368 30.3444C76.3702 30.3743 76.4109 30.429 76.4151 30.5224L76.5227 32.7179C76.5383 33.0403 76.6856 33.3315 76.9174 33.4983L78.4951 34.6372C78.5922 34.7069 78.5954 34.8201 78.5922 34.865C78.5891 34.9098 78.5703 35.0205 78.4638 35.0691L76.7461 35.8694C76.4945 35.9864 76.3065 36.244 76.2449 36.5577L75.8241 38.6985C75.798 38.8304 75.7092 38.869 75.6727 38.8789C75.6361 38.8889 75.5422 38.9013 75.4701 38.7968L74.3006 37.0966C74.1294 36.8477 73.8662 36.7145 73.5968 36.7419L71.759 36.9261C71.6452 36.9373 71.5878 36.8489 71.568 36.8103C71.5481 36.7718 71.5095 36.6697 71.5711 36.5552L72.5662 34.7031C72.7124 34.4318 72.7364 34.092 72.632 33.7946L71.9167 31.7683C71.8864 31.6824 71.9021 31.6114 71.9219 31.5666C71.9501 31.5019 72.0003 31.4534 72.0577 31.4372V31.4384Z" fill="#D0DA58"/>
<path d="M119.99 6.37256C119.94 6.38376 119.893 6.41114 119.849 6.45222L117.543 8.64155C117.377 8.79838 117.179 8.90666 116.971 8.95396C116.763 9.00126 116.544 8.98757 116.342 8.91413L113.522 7.89103C113.468 7.87112 113.416 7.86738 113.366 7.87858C113.274 7.89974 113.191 7.97318 113.142 8.07524C113.11 8.14494 113.08 8.25571 113.124 8.39636L114.157 11.6872C114.309 12.1701 114.251 12.7103 114.004 13.1322L112.315 16.0124C112.211 16.1903 112.268 16.3559 112.297 16.4194C112.326 16.4828 112.414 16.6285 112.595 16.6197L115.54 16.4642C115.971 16.4418 116.385 16.6733 116.646 17.084L118.423 19.8882C118.533 20.0612 118.683 20.0488 118.743 20.0351C118.802 20.0214 118.946 19.9679 118.994 19.7587L119.78 16.3721C119.895 15.8754 120.209 15.4784 120.617 15.3104L123.403 14.1628C123.575 14.0919 123.611 13.9176 123.619 13.8467C123.626 13.7745 123.628 13.5953 123.476 13.4758L121.017 11.5378C120.657 11.2541 120.436 10.7761 120.428 10.2621L120.374 6.74844C120.371 6.59909 120.309 6.50823 120.258 6.45844C120.181 6.38501 120.081 6.35265 119.989 6.37381L119.99 6.37256Z" fill="#D0DA58"/>
<path d="M128.312 17.2606C128.28 17.2681 128.251 17.2843 128.224 17.3104L126.781 18.6795C126.677 18.7778 126.553 18.8463 126.423 18.8749C126.292 18.9048 126.156 18.8961 126.029 18.85L124.264 18.209C124.231 18.1966 124.198 18.1941 124.167 18.2016C124.11 18.2153 124.057 18.2601 124.027 18.3248C124.006 18.3684 123.989 18.4381 124.016 18.5252L124.663 20.5838C124.758 20.8863 124.722 21.2236 124.567 21.4874L123.51 23.2897C123.446 23.4005 123.481 23.505 123.499 23.5448C123.517 23.5847 123.572 23.6755 123.686 23.6693L125.529 23.5722C125.799 23.5585 126.057 23.7029 126.221 23.9606L127.333 25.7155C127.402 25.8238 127.496 25.8163 127.533 25.8076C127.57 25.7989 127.66 25.7653 127.69 25.6346L128.182 23.515C128.254 23.2038 128.45 22.9561 128.705 22.8503L130.449 22.1322C130.557 22.0874 130.58 21.9791 130.584 21.9343C130.589 21.8895 130.589 21.7774 130.494 21.7028L128.955 20.4905C128.729 20.3125 128.591 20.0138 128.586 19.6914L128.552 17.4934C128.551 17.4 128.511 17.3428 128.479 17.3117C128.431 17.2656 128.368 17.2457 128.31 17.2594L128.312 17.2606Z" fill="#D0DA58"/>
<path d="M118.699 37.0483H112.555V22.6626C111.715 22.5855 110.867 22.5469 110.012 22.5469C91.9026 22.5469 77.2212 40.0466 77.2212 61.6326C77.2212 83.2185 91.9026 100.718 110.012 100.718C128.121 100.718 142.803 83.2185 142.803 61.6326C142.803 44.9642 134.048 30.7354 121.723 25.1158C120.737 24.6665 118.699 37.0483 118.699 37.0483Z" fill="#187231"/>
<path d="M110.012 95.345C125.492 95.345 138.04 80.3874 138.04 61.9362C138.04 43.485 125.492 28.5273 110.012 28.5273C94.5325 28.5273 81.9838 43.485 81.9838 61.9362C81.9838 80.3874 94.5325 95.345 110.012 95.345Z" fill="url(#paint1_linear_11_8440)"/>
<path opacity="0.15" d="M108.213 88.6886C121.65 88.6886 132.543 75.7047 132.543 59.6883C132.543 43.6719 121.65 30.688 108.213 30.688C94.776 30.688 83.8832 43.6719 83.8832 59.6883C83.8832 75.7047 94.776 88.6886 108.213 88.6886Z" fill="url(#paint2_linear_11_8440)"/>
<path d="M108.822 17.745C110.79 18.7457 116.596 22.0141 117.707 22.6414C117.799 22.6937 117.823 22.8368 117.754 22.9264L110.814 31.98C110.523 32.3596 110.096 32.5501 109.666 32.4903L106.686 32.0771C106.577 32.0622 106.517 31.9165 106.575 31.8033L110.465 24.1935C110.514 24.0977 110.479 23.9719 110.391 23.9309L104.753 21.3109C104.301 21.1005 104.274 20.35 104.71 20.0936L108.696 17.7487C108.736 17.7251 108.782 17.7238 108.823 17.745H108.822Z" fill="#187231"/>
<path d="M141.968 103.877H78.398C74.9817 103.877 72.2122 107.178 72.2122 111.25V145.173C72.2122 149.245 74.9817 152.546 78.398 152.546H141.968C145.385 152.546 148.154 149.245 148.154 145.173V111.25C148.154 107.178 145.385 103.877 141.968 103.877Z" fill="#7D97F4"/>
<path d="M183.569 44.4525H148.949C147.546 44.4525 146.373 43.1793 146.24 41.5139L144.058 13.9213C143.91 12.0431 145.132 10.4114 146.714 10.3753L183.516 9.54016C185.038 9.50531 186.288 10.9665 186.288 12.7825V41.2102C186.288 43.0013 185.071 44.4525 183.568 44.4525H183.569Z" fill="#187231"/>
<path opacity="0.56" d="M146.272 16.3807L147.819 40.2406C147.886 41.2774 148.606 42.0802 149.479 42.0914L182.707 42.5058C183.642 42.517 184.407 41.6159 184.407 40.5007V14.8137C184.407 13.6798 183.618 12.7712 182.667 12.8098L147.892 14.2225C146.935 14.261 146.199 15.2431 146.272 16.3807Z" fill="white"/>
<path d="M152.776 37.0854L181.747 37.6978C182.256 37.709 182.639 38.2541 182.558 38.8528L182.431 39.8049C182.366 40.2904 182.013 40.6463 181.602 40.6451L152.886 40.5107C152.458 40.5082 152.101 40.1248 152.056 39.6182L151.929 38.1881C151.876 37.592 152.273 37.0742 152.776 37.0854Z" fill="#D0DA58"/>
<path d="M149.254 30.2711L148.853 29.8716L155.477 20.4446L163.117 27.3039L171.912 18.5391L181.163 27.0587L180.844 27.5516L171.924 19.3381L163.133 28.0992L155.559 21.2972L149.254 30.2711Z" fill="#D0DA58"/>
<path d="M149.053 32.1021C149.995 32.1021 150.757 31.1927 150.757 30.0708C150.757 28.949 149.995 28.0396 149.053 28.0396C148.112 28.0396 147.349 28.949 147.349 30.0708C147.349 31.1927 148.112 32.1021 149.053 32.1021Z" fill="#D0DA58"/>
<path d="M156.986 21.0065C157.049 20.0388 156.442 19.1934 155.631 19.1183C154.819 19.0431 154.11 19.7667 154.046 20.7344C153.983 21.7021 154.59 22.5475 155.402 22.6226C156.214 22.6978 156.923 21.9742 156.986 21.0065Z" fill="#D0DA58"/>
<path d="M164.599 27.7023C164.599 28.6731 163.939 29.4597 163.125 29.4597C162.31 29.4597 161.651 28.6731 161.651 27.7023C161.651 26.7314 162.31 25.9448 163.125 25.9448C163.939 25.9448 164.599 26.7314 164.599 27.7023Z" fill="#D0DA58"/>
<path d="M173.392 18.9386C173.392 19.9094 172.733 20.696 171.918 20.696C171.104 20.696 170.444 19.9094 170.444 18.9386C170.444 17.9678 171.104 17.1812 171.918 17.1812C172.733 17.1812 173.392 17.9678 173.392 18.9386Z" fill="#D0DA58"/>
<path d="M181.004 29.0625C181.818 29.0625 182.478 28.2757 182.478 27.3051C182.478 26.3344 181.818 25.5476 181.004 25.5476C180.189 25.5476 179.529 26.3344 179.529 27.3051C179.529 28.2757 180.189 29.0625 181.004 29.0625Z" fill="#D0DA58"/>
<path d="M211.154 54.5568C211.097 54.5568 211.043 54.517 211.02 54.451C210.99 54.3639 211.025 54.263 211.098 54.227C211.273 54.1411 211.449 54.0502 211.621 53.9556C211.693 53.9158 211.779 53.9531 211.813 54.0403C211.846 54.1261 211.815 54.2282 211.742 54.268C211.566 54.3651 211.386 54.4585 211.208 54.5456C211.19 54.5543 211.171 54.558 211.154 54.558V54.5568Z" fill="#7D97F4"/>
<path d="M205.779 55.8174C205.513 55.8174 205.243 55.8087 204.977 55.79C204.898 55.785 204.837 55.7041 204.841 55.6083C204.846 55.5137 204.916 55.4428 204.994 55.4465C205.389 55.4726 205.785 55.4788 206.182 55.4664C206.259 55.4627 206.328 55.5386 206.33 55.6332C206.333 55.7278 206.27 55.8074 206.191 55.8099C206.054 55.8149 205.916 55.8174 205.78 55.8174H205.779ZM208.128 55.5859C208.059 55.5859 207.997 55.5261 207.986 55.4428C207.972 55.3494 208.025 55.261 208.104 55.2449C208.494 55.1677 208.885 55.0681 209.267 54.9524C209.344 54.9287 209.422 54.9847 209.442 55.0756C209.462 55.1677 209.415 55.261 209.339 55.2847C208.949 55.4042 208.55 55.5037 208.152 55.5834C208.143 55.5846 208.136 55.5859 208.128 55.5859ZM203.051 55.4988C203.041 55.4988 203.032 55.4988 203.022 55.495C202.628 55.4017 202.231 55.2872 201.844 55.1527C201.767 55.1266 201.724 55.0308 201.745 54.9399C201.767 54.8491 201.847 54.7968 201.924 54.8229C202.303 54.9536 202.691 55.0669 203.079 55.1577C203.157 55.1764 203.207 55.266 203.193 55.3594C203.179 55.4415 203.119 55.4975 203.052 55.4975L203.051 55.4988ZM200.053 54.3587C200.033 54.3587 200.013 54.3537 199.994 54.3437C199.627 54.1471 199.261 53.9293 198.909 53.6965C198.839 53.6505 198.814 53.5459 198.853 53.4625C198.892 53.3791 198.979 53.3493 199.049 53.3953C199.395 53.6243 199.752 53.8372 200.112 54.0301C200.185 54.0687 200.218 54.1707 200.184 54.2566C200.16 54.3201 200.108 54.3587 200.053 54.3587ZM197.343 52.4519C197.313 52.4519 197.283 52.4407 197.256 52.417C196.935 52.1283 196.619 51.8196 196.319 51.4997C196.259 51.4362 196.254 51.3279 196.307 51.257C196.361 51.1861 196.451 51.1798 196.511 51.2433C196.805 51.557 197.114 51.8594 197.43 52.1419C197.493 52.1992 197.506 52.3062 197.458 52.3822C197.43 52.427 197.387 52.4506 197.343 52.4506V52.4519ZM195.055 49.8779C195.015 49.8779 194.974 49.8568 194.946 49.8169C194.686 49.4498 194.435 49.0664 194.202 48.6756C194.156 48.5984 194.171 48.4914 194.237 48.4366C194.301 48.3819 194.391 48.3993 194.437 48.4777C194.666 48.8611 194.91 49.2369 195.166 49.5966C195.217 49.6688 195.21 49.7771 195.149 49.8393C195.122 49.8667 195.089 49.8804 195.056 49.8804L195.055 49.8779ZM193.304 46.7651C193.252 46.7651 193.202 46.7315 193.176 46.673C192.991 46.2473 192.819 45.8054 192.664 45.3623C192.634 45.2752 192.668 45.1744 192.742 45.1383C192.815 45.1022 192.9 45.1433 192.93 45.2317C193.082 45.666 193.25 46.0979 193.432 46.5149C193.468 46.5995 193.441 46.7028 193.37 46.7464C193.349 46.7601 193.326 46.7651 193.304 46.7651ZM192.18 43.2639C192.116 43.2639 192.056 43.2128 192.04 43.1357C191.939 42.6714 191.854 42.196 191.787 41.7218C191.773 41.6284 191.827 41.54 191.905 41.5239C191.983 41.5077 192.057 41.5712 192.071 41.6645C192.137 42.1288 192.22 42.5955 192.318 43.0498C192.338 43.1419 192.292 43.2352 192.215 43.2589C192.203 43.2626 192.191 43.2639 192.179 43.2639H192.18ZM191.737 39.5511C191.66 39.5511 191.595 39.4777 191.593 39.3843C191.589 39.2101 191.586 39.037 191.586 38.8628C191.586 38.5554 191.594 38.2442 191.607 37.938C191.612 37.8434 191.68 37.7712 191.759 37.7762C191.838 37.7812 191.899 37.8621 191.895 37.9567C191.881 38.2567 191.874 38.5616 191.874 38.8628C191.874 39.0321 191.876 39.2026 191.88 39.3731C191.882 39.4677 191.819 39.5474 191.74 39.5498C191.739 39.5498 191.737 39.5498 191.736 39.5498L191.737 39.5511ZM191.993 35.8122C191.983 35.8122 191.974 35.8122 191.964 35.8084C191.886 35.7898 191.835 35.7001 191.851 35.6068C191.929 35.1351 192.024 34.6621 192.136 34.2003C192.158 34.1095 192.238 34.056 192.314 34.0833C192.391 34.1095 192.435 34.2053 192.412 34.2962C192.304 34.748 192.21 35.211 192.134 35.674C192.12 35.7562 192.06 35.8122 191.993 35.8122Z" fill="#7D97F4"/>
<path d="M192.947 32.224C192.927 32.224 192.907 32.219 192.889 32.209C192.816 32.1704 192.783 32.0684 192.816 31.9825C192.894 31.7734 192.977 31.5618 193.064 31.3552C193.1 31.2706 193.186 31.2357 193.257 31.278C193.328 31.3203 193.357 31.4236 193.322 31.5083C193.237 31.7112 193.156 31.9178 193.079 32.1231C193.055 32.1866 193.002 32.2252 192.947 32.2252V32.224Z" fill="#7D97F4"/>
<path d="M201.008 23.2849C200.95 23.2849 200.894 23.2413 200.873 23.1716C200.845 23.082 200.884 22.9837 200.959 22.9513C201.14 22.8729 201.326 22.7982 201.511 22.7285C201.586 22.6999 201.667 22.7497 201.691 22.8406C201.715 22.9314 201.673 23.0273 201.597 23.0559C201.415 23.1243 201.234 23.1978 201.057 23.2737C201.042 23.2812 201.025 23.2837 201.008 23.2837V23.2849Z" fill="#7D97F4"/>
<path d="M219.109 44.4639C219.094 44.4639 219.078 44.4614 219.062 44.4551C218.987 44.424 218.946 44.3269 218.973 44.2373C219.098 43.7992 219.21 43.3486 219.304 42.9006C219.322 42.8085 219.401 42.7525 219.478 42.7761C219.555 42.7985 219.602 42.8919 219.582 42.984C219.486 43.442 219.372 43.9013 219.245 44.3493C219.224 44.4203 219.169 44.4663 219.108 44.4663L219.109 44.4639ZM219.779 40.8606C219.779 40.8606 219.768 40.8606 219.763 40.8606C219.684 40.8506 219.626 40.766 219.636 40.6714C219.677 40.2121 219.702 39.7441 219.712 39.2799C219.714 39.1853 219.784 39.1032 219.859 39.1119C219.938 39.1144 220.002 39.1928 220 39.2874C219.991 39.7603 219.966 40.2383 219.923 40.7075C219.914 40.7959 219.853 40.8606 219.78 40.8606H219.779ZM219.769 37.169C219.697 37.169 219.635 37.1042 219.626 37.0159C219.582 36.5541 219.523 36.0911 219.448 35.6393C219.432 35.5459 219.483 35.4563 219.561 35.4377C219.64 35.419 219.715 35.48 219.731 35.5733C219.807 36.0351 219.868 36.5081 219.913 36.9785C219.923 37.0731 219.865 37.1578 219.786 37.169C219.781 37.169 219.776 37.169 219.769 37.169ZM219.088 33.5694C219.029 33.5694 218.973 33.5246 218.953 33.4537C218.826 33.0168 218.682 32.58 218.525 32.1568C218.492 32.0696 218.525 31.9688 218.598 31.9302C218.671 31.8917 218.755 31.9302 218.788 32.0174C218.949 32.4505 219.096 32.8949 219.224 33.3417C219.25 33.4313 219.211 33.5296 219.135 33.5595C219.12 33.5657 219.104 33.5694 219.088 33.5694ZM217.761 30.2375C217.713 30.2375 217.666 30.2089 217.639 30.1566C217.434 29.7633 217.214 29.375 216.982 29.0041C216.935 28.9282 216.948 28.8199 217.013 28.7639C217.076 28.7066 217.167 28.724 217.214 28.7987C217.45 29.1783 217.676 29.5741 217.885 29.9761C217.926 30.0571 217.905 30.1628 217.838 30.2126C217.814 30.2301 217.787 30.2388 217.761 30.2388V30.2375ZM215.853 27.3338C215.815 27.3338 215.777 27.3163 215.749 27.2815C215.478 26.9504 215.191 26.6293 214.897 26.3268C214.837 26.2646 214.83 26.1563 214.882 26.0841C214.935 26.0119 215.026 26.0045 215.086 26.0667C215.386 26.3754 215.678 26.704 215.956 27.0413C216.011 27.1085 216.01 27.218 215.954 27.284C215.926 27.3163 215.889 27.3325 215.853 27.3325V27.3338ZM213.458 24.9938C213.431 24.9938 213.404 24.9851 213.38 24.9664C213.054 24.7138 212.716 24.4748 212.373 24.2557C212.303 24.2109 212.277 24.1064 212.315 24.023C212.352 23.9396 212.44 23.9072 212.51 23.9533C212.859 24.1773 213.204 24.4213 213.537 24.6789C213.603 24.7312 213.622 24.837 213.578 24.9167C213.551 24.9677 213.504 24.9951 213.457 24.9951L213.458 24.9938ZM210.693 23.3335C210.676 23.3335 210.66 23.3297 210.643 23.3223C210.28 23.1605 209.905 23.0161 209.531 22.8916C209.455 22.8667 209.41 22.7709 209.431 22.68C209.452 22.5892 209.532 22.5356 209.608 22.5605C209.99 22.6875 210.373 22.8356 210.744 22.9999C210.818 23.0335 210.857 23.1318 210.829 23.2202C210.807 23.2899 210.753 23.3322 210.694 23.3322L210.693 23.3335ZM203.421 22.5282C203.352 22.5282 203.292 22.4684 203.279 22.385C203.266 22.2917 203.319 22.2033 203.397 22.1871C203.787 22.1087 204.185 22.0477 204.582 22.0067C204.662 21.998 204.731 22.0689 204.737 22.1635C204.743 22.2581 204.685 22.3415 204.606 22.3489C204.217 22.3888 203.827 22.4485 203.445 22.5257C203.437 22.5269 203.429 22.5282 203.421 22.5282ZM207.689 22.4373C207.683 22.4373 207.676 22.4373 207.669 22.4361C207.285 22.3738 206.893 22.3315 206.505 22.3079C206.426 22.3029 206.364 22.222 206.368 22.1274C206.372 22.0328 206.44 21.9594 206.52 21.9644C206.915 21.988 207.315 22.0316 207.708 22.095C207.787 22.1075 207.841 22.1946 207.831 22.288C207.822 22.3738 207.759 22.4373 207.688 22.4373H207.689Z" fill="#7D97F4"/>
<path d="M218.092 47.1896C218.068 47.1896 218.044 47.1821 218.022 47.1684C217.952 47.1224 217.927 47.0178 217.966 46.9344C218.059 46.7365 218.149 46.5337 218.233 46.3333C218.269 46.2486 218.355 46.2138 218.426 46.2573C218.497 46.2997 218.526 46.403 218.49 46.4876C218.403 46.6917 218.313 46.8983 218.218 47.1C218.192 47.156 218.142 47.1883 218.091 47.1883L218.092 47.1896Z" fill="#7D97F4"/>
<path d="M214.504 46.5001C214.552 46.4366 214.563 46.3432 214.528 46.2685L213.546 44.1178C214.014 43.1196 214.352 42.0255 214.534 40.868L216.442 39.9657C216.509 39.9345 216.552 39.8549 216.549 39.769L216.437 36.8341C216.434 36.7482 216.385 36.6748 216.316 36.6499L214.347 35.9579C214.078 34.8253 213.659 33.7723 213.116 32.8288L213.931 30.581C213.959 30.5026 213.944 30.4105 213.89 30.3532L212.07 28.373C212.017 28.3145 211.939 28.3033 211.876 28.3444L210.072 29.5156C209.234 28.958 208.317 28.5547 207.345 28.3382L206.588 26.0629C206.562 25.9833 206.495 25.9322 206.423 25.936L203.961 26.0692C203.889 26.0729 203.828 26.1314 203.807 26.2135L203.226 28.5609C202.276 28.8808 201.393 29.3812 200.601 30.0284L198.715 29.0563C198.649 29.0227 198.572 29.0414 198.524 29.1049L196.863 31.2743C196.814 31.3378 196.804 31.4311 196.839 31.5058L197.821 33.6565C197.354 34.6547 197.015 35.7488 196.834 36.9063L194.925 37.8087C194.858 37.8398 194.815 37.9195 194.818 38.0053L194.93 40.9402C194.933 41.0261 194.982 41.0995 195.051 41.1244L197.02 41.8164C197.289 42.9491 197.709 44.002 198.252 44.9455L197.436 47.1933C197.408 47.2717 197.424 47.3638 197.477 47.4223L199.297 49.4026C199.35 49.4611 199.428 49.4723 199.491 49.4312L201.295 48.26C202.133 48.8188 203.051 49.2209 204.022 49.4374L204.779 51.7126C204.805 51.7923 204.872 51.8433 204.944 51.8396L207.406 51.7064C207.478 51.7027 207.54 51.6442 207.561 51.562L208.141 49.2146C209.091 48.8948 209.975 48.3944 210.766 47.7472L212.652 48.718C212.718 48.7516 212.795 48.733 212.844 48.6695L214.506 46.5001H214.504Z" fill="#91B3FA"/>
<path d="M205.685 41.7554C204.652 41.7554 203.695 40.9538 203.382 39.7154C203 38.2019 203.721 36.6 204.99 36.1445C205.605 35.9242 206.255 36.0014 206.82 36.3635C207.386 36.7257 207.8 37.3281 207.986 38.0612C208.368 39.5747 207.646 41.1766 206.377 41.6321C206.147 41.7143 205.914 41.7541 205.685 41.7541V41.7554ZM205.686 36.5378C205.495 36.5378 205.303 36.5714 205.115 36.6386C204.074 37.012 203.482 38.3264 203.796 39.5673C204.111 40.8082 205.212 41.5139 206.253 41.1393C207.294 40.7646 207.886 39.4515 207.572 38.2106C207.42 37.6094 207.08 37.1153 206.617 36.8178C206.325 36.6311 206.008 36.5366 205.686 36.5366V36.5378Z" fill="white"/>
<path d="M205.639 46.1964C202.369 46.1964 199.636 43.1171 199.487 39.184C199.483 39.072 199.481 38.9588 199.481 38.848C199.481 34.9498 202.063 31.6913 205.364 31.5133C207.007 31.4249 208.583 32.1032 209.798 33.4263C211.014 34.7494 211.725 36.5578 211.799 38.5169C211.803 38.6289 211.805 38.7422 211.805 38.8542C211.805 39.2152 211.783 39.5761 211.739 39.9308C211.733 39.9806 211.727 40.0292 211.72 40.0777L211.294 39.9918C211.347 39.6184 211.373 39.2363 211.373 38.8542C211.373 38.7497 211.371 38.6451 211.367 38.5406C211.343 37.9133 211.249 37.3021 211.09 36.7209C210.787 35.6144 210.247 34.6137 209.507 33.8072C208.376 32.5775 206.913 31.9439 205.383 32.0286C202.315 32.1953 199.913 35.2236 199.913 38.8492C199.913 38.9525 199.915 39.0571 199.919 39.1616C200.062 42.9242 202.749 45.8466 205.903 45.6749C206.941 45.6189 207.945 45.2293 208.805 44.5485L209.044 44.9779C208.118 45.7097 207.038 46.1292 205.923 46.1889C205.828 46.1939 205.734 46.1964 205.64 46.1964H205.639Z" fill="white"/>
<path d="M197.678 27.0361L197.05 25.8873C197.274 25.3048 197.422 24.6762 197.48 24.0203L198.513 23.4154C198.549 23.3942 198.57 23.3482 198.565 23.2997L198.393 21.6667C198.387 21.6194 198.358 21.5808 198.318 21.5708L197.193 21.2883C197.001 20.6697 196.727 20.1034 196.389 19.6055L196.76 18.3074C196.773 18.2613 196.76 18.2115 196.729 18.1817L195.639 17.1723C195.607 17.1424 195.563 17.1411 195.529 17.1673L194.566 17.9165C194.077 17.6489 193.55 17.4722 192.999 17.4038L192.492 16.1728C192.474 16.1292 192.435 16.1043 192.395 16.1106L191.025 16.3159C190.985 16.3222 190.953 16.357 190.944 16.4043L190.707 17.746C190.188 17.975 189.713 18.3011 189.295 18.7044L188.206 18.2613C188.168 18.2464 188.126 18.2613 188.101 18.2987L187.254 19.5981C187.229 19.6367 187.228 19.6889 187.25 19.7288L187.879 20.8776C187.654 21.4601 187.506 22.0886 187.448 22.7445L186.416 23.3494C186.379 23.3706 186.358 23.4166 186.363 23.4652L186.536 25.0982C186.541 25.1455 186.57 25.184 186.61 25.194L187.735 25.4765C187.928 26.0951 188.201 26.6614 188.539 27.1593L188.168 28.4575C188.155 28.5035 188.168 28.5533 188.199 28.5832L189.289 29.5926C189.321 29.6225 189.365 29.6237 189.399 29.5976L190.363 28.8483C190.851 29.1159 191.379 29.2926 191.929 29.3611L192.436 30.592C192.454 30.6356 192.493 30.6605 192.534 30.6543L193.904 30.4489C193.943 30.4427 193.976 30.4078 193.984 30.3605L194.221 29.0188C194.74 28.7898 195.215 28.4637 195.633 28.0604L196.722 28.5035C196.76 28.5185 196.802 28.5035 196.827 28.4662L197.674 27.1668C197.699 27.1282 197.7 27.0759 197.678 27.0361Z" fill="#91B3FA"/>
<path d="M192.463 25.1034C192.266 25.1034 192.069 25.0548 191.884 24.9577C191.531 24.7735 191.26 24.4362 191.12 24.0081C190.83 23.1256 191.198 22.1262 191.939 21.7814C192.299 21.6146 192.69 21.6246 193.043 21.8088C193.396 21.993 193.668 22.3303 193.807 22.7584C194.097 23.6409 193.729 24.6403 192.988 24.9851C192.818 25.0648 192.64 25.1034 192.464 25.1034H192.463ZM192.463 22.1784C192.338 22.1784 192.214 22.2058 192.095 22.2618C191.576 22.5033 191.319 23.2028 191.522 23.8201C191.62 24.1201 191.81 24.3553 192.056 24.4848C192.304 24.6142 192.577 24.6204 192.829 24.5034C193.348 24.262 193.605 23.5625 193.402 22.9439C193.304 22.6439 193.114 22.4087 192.868 22.2792C192.737 22.2108 192.6 22.1772 192.463 22.1772V22.1784Z" fill="white"/>
<path d="M196.935 30.5859C196.891 30.5859 196.848 30.5622 196.82 30.5174C196.772 30.4415 196.784 30.3345 196.848 30.2772C196.997 30.1428 197.145 29.9984 197.285 29.8503C197.344 29.7868 197.435 29.7943 197.488 29.864C197.541 29.9349 197.536 30.0432 197.477 30.1067C197.332 30.261 197.178 30.4104 197.023 30.551C196.996 30.5747 196.966 30.5859 196.936 30.5859H196.935Z" fill="#7D97F4"/>
<path d="M192.343 32.3781H192.341C191.95 32.3706 191.554 32.3258 191.168 32.2449C191.089 32.2288 191.037 32.1391 191.051 32.0458C191.064 31.9524 191.14 31.8902 191.218 31.9064C191.59 31.9836 191.97 32.0271 192.347 32.0346C192.426 32.0358 192.49 32.1142 192.489 32.2088C192.488 32.3022 192.423 32.3781 192.345 32.3781H192.343ZM194.207 32.1292C194.143 32.1292 194.083 32.0769 194.067 31.9985C194.049 31.9064 194.096 31.813 194.173 31.7906C194.485 31.6998 194.797 31.5828 195.099 31.4421C195.15 31.4185 195.2 31.3948 195.251 31.3699C195.325 31.3338 195.408 31.3749 195.438 31.462C195.469 31.5492 195.434 31.65 195.361 31.6861C195.309 31.7122 195.257 31.7371 195.204 31.762C194.889 31.9076 194.566 32.0296 194.241 32.1242C194.229 32.1279 194.218 32.1292 194.206 32.1292H194.207ZM189.4 31.5865C189.38 31.5865 189.36 31.5815 189.34 31.5716C188.983 31.3787 188.636 31.1496 188.309 30.8932C188.242 30.841 188.224 30.7352 188.268 30.6555C188.312 30.5759 188.402 30.5547 188.467 30.607C188.783 30.8547 189.116 31.0737 189.46 31.2592C189.533 31.299 189.565 31.3998 189.533 31.4869C189.508 31.5504 189.456 31.5878 189.401 31.5878L189.4 31.5865ZM186.965 29.4656C186.925 29.4656 186.887 29.447 186.858 29.4084C186.595 29.0611 186.354 28.6865 186.14 28.2944C186.096 28.2148 186.116 28.109 186.182 28.0567C186.249 28.0057 186.337 28.0281 186.381 28.1065C186.587 28.4836 186.82 28.8446 187.072 29.1781C187.126 29.2491 187.121 29.3574 187.062 29.4208C187.035 29.4507 187 29.4656 186.966 29.4656H186.965ZM185.444 26.3602C185.384 26.3602 185.329 26.3154 185.308 26.2432C185.182 25.7989 185.085 25.3409 185.02 24.8804C185.006 24.787 185.059 24.6986 185.138 24.6825C185.217 24.6663 185.29 24.7297 185.304 24.8231C185.367 25.2662 185.46 25.7068 185.58 26.1337C185.605 26.2233 185.565 26.3217 185.489 26.3515C185.474 26.3577 185.459 26.3602 185.443 26.3602H185.444Z" fill="#7D97F4"/>
<path d="M185.086 22.7795C185.086 22.7795 185.078 22.7795 185.074 22.7795C184.994 22.7708 184.936 22.6874 184.943 22.5928C184.961 22.3613 184.986 22.1273 185.018 21.8983C185.032 21.8049 185.105 21.7415 185.185 21.7576C185.263 21.7738 185.316 21.8622 185.303 21.9555C185.271 22.1758 185.247 22.3999 185.23 22.6239C185.224 22.7135 185.16 22.7807 185.087 22.7807L185.086 22.7795Z" fill="#7D97F4"/>
<path d="M188.029 16.4854C187.985 16.4854 187.941 16.4618 187.913 16.417C187.865 16.341 187.879 16.2328 187.942 16.1767C188.099 16.0373 188.262 15.9042 188.427 15.7797C188.494 15.7299 188.583 15.7536 188.625 15.8332C188.668 15.9129 188.647 16.0199 188.58 16.0697C188.421 16.1892 188.265 16.3174 188.114 16.4506C188.088 16.4742 188.058 16.4842 188.029 16.4842V16.4854Z" fill="#7D97F4"/>
<path d="M199.815 22.5268C199.743 22.5268 199.68 22.4621 199.672 22.375C199.628 21.9369 199.556 21.4975 199.456 21.0706C199.435 20.9797 199.48 20.8839 199.556 20.859C199.633 20.8341 199.712 20.8876 199.733 20.9785C199.837 21.4228 199.913 21.8784 199.958 22.3351C199.967 22.4297 199.911 22.5144 199.831 22.5256C199.825 22.5256 199.82 22.5256 199.815 22.5256V22.5268ZM198.885 19.1675C198.835 19.1675 198.787 19.1364 198.76 19.0804C198.576 18.6958 198.365 18.3261 198.135 17.9814C198.084 17.9067 198.095 17.7997 198.158 17.7399C198.22 17.6802 198.31 17.6926 198.36 17.7673C198.6 18.1257 198.82 18.5103 199.011 18.9111C199.05 18.9933 199.026 19.0978 198.957 19.1451C198.934 19.1601 198.91 19.1675 198.886 19.1675H198.885ZM196.924 16.5139C196.894 16.5139 196.864 16.5027 196.838 16.4791C196.542 16.2127 196.226 15.9725 195.899 15.7622C195.829 15.7174 195.803 15.6128 195.841 15.5294C195.878 15.446 195.965 15.4137 196.036 15.4597C196.376 15.6775 196.704 15.9277 197.012 16.204C197.076 16.2613 197.088 16.3683 197.04 16.4442C197.012 16.489 196.969 16.5127 196.925 16.5127L196.924 16.5139ZM190.176 15.1635C190.115 15.1635 190.059 15.1174 190.039 15.0452C190.014 14.9556 190.056 14.8585 190.131 14.8287C190.498 14.6855 190.877 14.576 191.258 14.5026C191.336 14.4864 191.41 14.5511 191.423 14.6445C191.435 14.7378 191.382 14.8262 191.303 14.8411C190.938 14.9121 190.574 15.0179 190.22 15.1548C190.205 15.161 190.189 15.1635 190.175 15.1635H190.176ZM194.246 14.9917C194.235 14.9917 194.223 14.9905 194.212 14.9867C193.851 14.8797 193.482 14.805 193.112 14.7652C193.033 14.7565 192.974 14.6731 192.982 14.5785C192.989 14.4839 193.059 14.4155 193.138 14.4229C193.522 14.464 193.907 14.5424 194.282 14.6532C194.359 14.6756 194.406 14.7689 194.387 14.861C194.37 14.9394 194.312 14.9917 194.247 14.9917H194.246Z" fill="#7D97F4"/>
<path d="M199.699 25.4108C199.688 25.4108 199.679 25.4095 199.668 25.407C199.591 25.3871 199.541 25.295 199.558 25.2029C199.597 24.9851 199.63 24.7623 199.656 24.5395C199.666 24.4449 199.741 24.3802 199.818 24.3926C199.897 24.4051 199.951 24.4922 199.941 24.5856C199.915 24.8158 199.88 25.0486 199.84 25.2751C199.825 25.356 199.766 25.4108 199.699 25.4108Z" fill="#7D97F4"/>
<path d="M192.436 27.5926C190.675 27.5926 189.143 26.0255 188.919 23.8897C188.9 23.7117 188.89 23.535 188.89 23.3608C188.89 21.261 190.205 19.4364 191.997 19.1688C192.937 19.0281 193.867 19.3331 194.616 20.0251C195.364 20.7184 195.84 21.7166 195.958 22.838C195.977 23.0147 195.987 23.1927 195.987 23.3695C195.987 23.4927 195.982 23.6159 195.973 23.7379L195.543 23.6931C195.551 23.586 195.554 23.4778 195.554 23.3695C195.554 23.2139 195.546 23.0571 195.529 22.9027C195.438 22.0402 195.104 21.2822 194.62 20.7159C194.605 20.6985 194.59 20.681 194.574 20.6636C194.572 20.6624 194.571 20.6599 194.569 20.6574C193.916 19.928 193.005 19.536 192.05 19.6791C190.476 19.9143 189.323 21.5174 189.322 23.3608C189.322 23.5138 189.33 23.6694 189.346 23.8263C189.56 25.8575 191.12 27.3026 192.825 27.0487C193.386 26.9653 193.915 26.7026 194.357 26.2894L194.623 26.6952C194.12 27.1656 193.516 27.4644 192.878 27.5602C192.729 27.5826 192.581 27.5938 192.434 27.5938L192.436 27.5926Z" fill="white"/>
</g>
<defs>
<linearGradient id="paint0_linear_11_8440" x1="171.887" y1="166.584" x2="-47.7011" y2="-33.402" gradientUnits="userSpaceOnUse">
<stop stop-color="#4042E2"/>
<stop offset="1" stop-color="#4F52FF"/>
</linearGradient>
<linearGradient id="paint1_linear_11_8440" x1="81.9828" y1="61.9362" x2="138.04" y2="61.9362" gradientUnits="userSpaceOnUse">
<stop stop-color="#4042E2"/>
<stop offset="1" stop-color="#4F52FF"/>
</linearGradient>
<linearGradient id="paint2_linear_11_8440" x1="83.8832" y1="59.6883" x2="132.543" y2="59.6883" gradientUnits="userSpaceOnUse">
<stop stop-color="#DAE3FE"/>
<stop offset="1" stop-color="#E9EFFD"/>
</linearGradient>
<clipPath id="clip0_11_8440">
<rect width="220" height="175" fill="white"/>
</clipPath>
</defs>
</svg>
