<svg width="218" height="227" viewBox="0 0 218 227" fill="none" xmlns="http://www.w3.org/2000/svg">
<path d="M90.9857 223.34C36.9058 214.469 -7.04417 159.081 0.940668 97.5186C7.75261 45.0165 50.2466 4.15765 101.205 0.299827C104.895 0.0199217 108.627 -0.0668894 112.394 0.0515632C140.822 0.940769 166.08 13.2582 184.761 31.8966C203.354 50.4458 215.434 75.256 217.633 101.285C223.49 170.537 158.251 234.375 90.9864 223.34H90.9857Z" fill="#F4F7FA"/>
<path d="M204.665 40.3417L202.295 40.792C201.901 39.644 201.405 38.526 200.818 37.4469L202.648 35.7683C203.162 35.2969 203.22 34.4605 202.779 33.899L200.027 30.3974C199.588 29.8384 198.816 29.767 198.304 30.2368L196.479 31.9097C195.597 31.1122 194.666 30.4071 193.693 29.8051L194.492 27.372C194.716 26.688 194.385 25.9327 193.751 25.6861L189.798 24.1437C189.167 23.8979 188.474 24.2508 188.249 24.9332L187.443 27.3769C186.338 27.17 185.22 27.0677 184.101 27.0726L183.673 24.5121C183.554 23.7997 182.925 23.3259 182.268 23.4533L178.169 24.2517C177.514 24.379 177.078 25.0589 177.196 25.7713L177.62 28.3415C176.589 28.7545 175.585 29.2729 174.616 29.8903L173.063 27.8799C172.635 27.3266 171.877 27.256 171.369 27.7217L168.193 30.6343C167.685 31.1 167.618 31.9267 168.045 32.4817L169.606 34.5132C168.889 35.4487 168.255 36.4369 167.712 37.4721L165.43 36.561C164.808 36.3127 164.118 36.664 163.891 37.3455L162.466 41.6139C162.237 42.297 162.557 43.054 163.18 43.3047L165.487 44.2328C165.297 45.4206 165.202 46.6254 165.201 47.8335L162.773 48.2943C162.119 48.4184 161.681 49.1032 161.794 49.8236L162.507 54.3362C162.621 55.0591 163.246 55.5458 163.903 55.4217L166.341 54.9633C166.714 56.0927 167.183 57.1953 167.742 58.2621L165.834 60.0122C165.321 60.4819 165.254 61.3232 165.682 61.8912L168.371 65.4512C168.802 66.0216 169.568 66.1027 170.082 65.6314L171.995 63.8765C172.855 64.6789 173.763 65.3928 174.714 66.007L173.864 68.5854C173.635 69.2807 173.962 70.0555 174.596 70.3159L178.564 71.9483C179.2 72.2095 179.901 71.8566 180.129 71.1589L180.976 68.5756C182.077 68.8012 183.194 68.9213 184.314 68.935L184.762 71.653C184.883 72.3888 185.523 72.887 186.19 72.7645L190.369 71.9986C191.038 71.8761 191.481 71.1792 191.358 70.4425L190.907 67.7489C191.954 67.3432 192.975 66.8272 193.961 66.2123L195.578 68.3176C196.02 68.8937 196.8 68.9764 197.318 68.501L200.559 65.5291C201.078 65.0537 201.137 64.2026 200.693 63.6274L199.082 61.5439C199.816 60.5906 200.463 59.5813 201.018 58.5242L203.338 59.4572C203.982 59.716 204.688 59.3607 204.913 58.6629L206.323 54.3037C206.549 53.6076 206.209 52.8344 205.565 52.578L203.258 51.6572C203.445 50.4386 203.533 49.203 203.521 47.9657L205.915 47.5154C206.584 47.3897 207.024 46.6968 206.897 45.969L206.105 41.424C205.979 40.6987 205.335 40.2135 204.668 40.3401L204.665 40.3417ZM192.252 58.2508C187.042 63.0278 179.251 62.2173 174.872 56.4724C170.52 50.7623 171.189 42.3278 176.342 37.6027C181.495 32.8776 189.226 33.6102 193.635 39.2684C198.07 44.9614 197.462 53.4737 192.252 58.2508Z" fill="#D8DEE8"/>
<path d="M164.358 75.6236L161.059 76.2499C160.509 74.6516 159.82 73.0955 159.002 71.5937L161.55 69.2579C162.265 68.6024 162.347 67.4365 161.732 66.656L157.901 61.7825C157.289 61.0044 156.215 60.9046 155.502 61.5585L152.962 63.8878C151.734 62.7779 150.439 61.7962 149.084 60.959L150.195 57.5717C150.508 56.6192 150.046 55.5686 149.165 55.2246L143.663 53.0778C142.784 52.7354 141.819 53.2271 141.506 54.1763L140.385 57.5782C138.847 57.2902 137.29 57.1474 135.733 57.1547L135.137 53.5898C134.971 52.5975 134.096 51.9379 133.182 52.1156L127.476 53.2263C126.564 53.404 125.958 54.3508 126.121 55.3414L126.71 58.9193C125.276 59.4945 123.878 60.2158 122.529 61.0758L120.367 58.2776C119.772 57.5076 118.716 57.4094 118.009 58.0577L113.587 62.1127C112.88 62.7609 112.788 63.9122 113.381 64.6837L115.554 67.5112C114.557 68.8133 113.674 70.1893 112.918 71.6302L109.741 70.3622C108.874 70.0165 107.915 70.5049 107.598 71.4542L105.613 77.3955C105.296 78.3463 105.74 79.4002 106.608 79.7491L109.819 81.0407C109.555 82.6942 109.421 84.3712 109.421 86.0531L106.042 86.6948C105.13 86.8676 104.52 87.8209 104.678 88.8229L105.671 95.1049C105.83 96.111 106.699 96.7884 107.613 96.6164L111.006 95.9779C111.526 97.5494 112.179 99.0845 112.957 100.569L110.301 103.005C109.588 103.659 109.494 104.829 110.09 105.62L113.833 110.576C114.433 111.37 115.499 111.483 116.214 110.827L118.878 108.384C120.074 109.501 121.339 110.495 122.663 111.35L121.479 114.939C121.16 115.907 121.616 116.986 122.497 117.349L128.02 119.621C128.906 119.986 129.881 119.493 130.2 118.523L131.379 114.927C132.913 115.241 134.467 115.407 136.025 115.428L136.648 119.212C136.818 120.236 137.708 120.929 138.636 120.759L144.454 119.692C145.385 119.522 146.001 118.551 145.829 117.526L145.203 113.776C146.66 113.211 148.081 112.493 149.453 111.636L151.704 114.567C152.321 115.369 153.405 115.484 154.127 114.822L158.638 110.686C159.359 110.024 159.442 108.839 158.823 108.038L156.582 105.138C157.604 103.811 158.505 102.406 159.276 100.934L162.505 102.233C163.402 102.594 164.384 102.099 164.698 101.127L166.662 95.0595C166.976 94.09 166.503 93.015 165.607 92.6572L162.395 91.3745C162.655 89.678 162.776 87.958 162.761 86.2356L166.094 85.6085C167.025 85.4332 167.637 84.4686 167.461 83.4552L166.358 77.1294C166.182 76.1193 165.286 75.4443 164.358 75.6211V75.6236ZM147.079 100.553C139.828 107.203 128.981 106.074 122.887 98.0776C116.829 90.1291 117.759 78.3885 124.932 71.8112C132.105 65.2346 142.867 66.2528 149.004 74.1299C155.177 82.0541 154.331 93.9042 147.079 100.553Z" fill="#D8DEE8"/>
<path d="M10.3127 115.388C10.3127 115.388 14.3594 97.9453 23.2408 92.7739C16.8782 108.155 15.8064 111.004 15.2117 116.09C12.848 114.693 10.6902 115.515 10.6902 115.515L10.3127 115.389V115.388Z" fill="url(#paint0_linear_11_8253)"/>
<path d="M13.3222 116.399C13.3222 116.399 19.5986 99.0755 27.2906 97.8342C24.5254 100.832 18.2437 116.744 18.2437 116.744L13.3222 116.4V116.399Z" fill="url(#paint1_linear_11_8253)"/>
<path d="M8.17279 114.669C8.17279 114.669 9.35992 98.8328 12.6592 96.3923C12.567 100.666 12.8681 114.132 12.8681 114.132L8.17354 114.669H8.17279Z" fill="url(#paint2_linear_11_8253)"/>
<path d="M35.1774 119.694C35.1774 119.694 39.2241 102.252 48.1055 97.0803C41.7429 112.461 40.6711 115.311 40.0764 120.397C37.7127 118.999 35.5549 119.822 35.5549 119.822L35.1774 119.695V119.694Z" fill="url(#paint3_linear_11_8253)"/>
<path d="M38.1865 120.705C38.1865 120.705 44.463 103.382 52.1549 102.141C49.3897 105.138 43.108 121.05 43.108 121.05L38.1865 120.706V120.705Z" fill="url(#paint4_linear_11_8253)"/>
<path d="M33.0367 118.975C33.0367 118.975 34.2238 103.139 37.5231 100.699C37.4309 104.972 37.732 118.438 37.732 118.438L33.0374 118.975H33.0367Z" fill="url(#paint5_linear_11_8253)"/>
<path d="M22.2874 119.112C22.2874 119.112 27.9661 95.8269 37.5552 88.1218C29.6723 108.946 28.3219 112.792 27.2688 119.521C24.9575 117.935 22.6648 119.239 22.6648 119.239L22.2874 119.113V119.112Z" fill="url(#paint6_linear_11_8253)"/>
<path d="M18.7908 117.332C18.7908 117.332 19.9779 101.496 23.2771 99.0559C23.185 103.329 23.4861 116.795 23.4861 116.795L18.7915 117.332H18.7908Z" fill="url(#paint7_linear_11_8253)"/>
<path d="M25.0573 120.515C25.0573 120.515 33.6616 112.694 36.814 114.179C34.6262 116.486 28.0772 124.269 28.0772 124.269L25.0573 120.515Z" fill="url(#paint8_linear_11_8253)"/>
<path d="M24.408 121.334C24.408 121.334 29.9235 106.111 36.683 105.019C34.2526 107.654 28.7326 121.637 28.7326 121.637L24.408 121.334Z" fill="url(#paint9_linear_11_8253)"/>
<path d="M36.6829 105.019C36.6829 105.019 38.1719 108.174 38.097 109.741C36.4717 107.437 34.6457 105.771 34.6457 105.771C34.6457 105.771 35.6703 105.143 36.6829 105.019Z" fill="url(#paint10_linear_11_8253)"/>
<path d="M82.3188 134.134C82.3188 134.134 86.3655 116.692 95.2469 111.52C88.8843 126.901 87.8125 129.751 87.2178 134.837C84.8541 133.439 82.6963 134.262 82.6963 134.262L82.3188 134.135V134.134Z" fill="url(#paint11_linear_11_8253)"/>
<path d="M85.3279 135.145C85.3279 135.145 91.6044 117.822 99.2964 116.581C96.5311 119.578 90.2495 135.49 90.2495 135.49L85.3279 135.146V135.145Z" fill="url(#paint12_linear_11_8253)"/>
<path d="M80.1781 133.415C80.1781 133.415 81.3652 117.578 84.6645 115.138C84.5723 119.411 84.8734 132.877 84.8734 132.877L80.1788 133.415H80.1781Z" fill="url(#paint13_linear_11_8253)"/>
<path d="M72.0634 130.663C72.0634 130.663 77.7422 107.378 87.3313 99.6733C79.4476 120.497 78.0979 124.344 77.0449 131.072C74.7335 129.486 72.4409 130.791 72.4409 130.791L72.0634 130.664V130.663Z" fill="url(#paint14_linear_11_8253)"/>
<path d="M68.5668 128.884C68.5668 128.884 69.7539 113.048 73.0531 110.607C72.961 114.881 73.2621 128.347 73.2621 128.347L68.5675 128.884H68.5668Z" fill="url(#paint15_linear_11_8253)"/>
<path d="M74.8325 132.067C74.8325 132.067 83.4368 124.246 86.5892 125.731C84.4015 128.039 77.8524 135.821 77.8524 135.821L74.8325 132.067Z" fill="url(#paint16_linear_11_8253)"/>
<path d="M74.1837 132.885C74.1837 132.885 79.6991 117.662 86.4586 116.571C84.0282 119.205 78.5082 133.188 78.5082 133.188L74.1837 132.885Z" fill="url(#paint17_linear_11_8253)"/>
<path d="M86.4595 116.571C86.4595 116.571 87.9485 119.725 87.8736 121.292C86.2483 118.988 84.4223 117.323 84.4223 117.323C84.4223 117.323 85.4469 116.695 86.4595 116.571Z" fill="url(#paint18_linear_11_8253)"/>
<path d="M47.0437 123.195C47.0437 123.195 52.7224 101.399 62.3116 94.1855C54.4286 113.679 53.0782 117.279 52.0251 123.577C49.7138 122.092 47.4212 123.314 47.4212 123.314L47.0437 123.195Z" fill="url(#paint19_linear_11_8253)"/>
<path d="M43.5471 121.53C43.5471 121.53 44.7342 106.707 48.0335 104.422C47.9414 108.422 48.2425 121.028 48.2425 121.028L43.5479 121.531L43.5471 121.53Z" fill="url(#paint20_linear_11_8253)"/>
<path d="M49.8133 124.509C49.8133 124.509 58.4175 117.189 61.57 118.579C59.3822 120.738 52.8332 128.023 52.8332 128.023L49.8133 124.509Z" fill="url(#paint21_linear_11_8253)"/>
<path d="M49.1636 125.275C49.1636 125.275 54.679 111.025 61.4386 110.003C59.0081 112.469 53.4882 125.558 53.4882 125.558L49.1636 125.275Z" fill="url(#paint22_linear_11_8253)"/>
<path d="M61.4392 110.004C61.4392 110.004 62.9282 112.957 62.8533 114.424C61.228 112.267 59.402 110.707 59.402 110.707C59.402 110.707 60.4266 110.12 61.4392 110.003V110.004Z" fill="url(#paint23_linear_11_8253)"/>
<path d="M105.248 142.833C105.248 142.833 110.926 121.037 120.516 113.823C112.632 133.317 111.282 136.917 110.229 143.215C107.918 141.73 105.625 142.951 105.625 142.951L105.248 142.833Z" fill="url(#paint24_linear_11_8253)"/>
<path d="M101.75 141.168C101.75 141.168 102.937 126.344 106.237 124.06C106.145 128.06 106.446 140.666 106.446 140.666L101.751 141.169L101.75 141.168Z" fill="url(#paint25_linear_11_8253)"/>
<path d="M108.017 144.147C108.017 144.147 116.622 136.827 119.774 138.217C117.586 140.376 111.037 147.661 111.037 147.661L108.017 144.147Z" fill="url(#paint26_linear_11_8253)"/>
<path d="M107.368 144.913C107.368 144.913 112.884 130.663 119.643 129.641C117.213 132.106 111.693 145.196 111.693 145.196L107.368 144.913Z" fill="url(#paint27_linear_11_8253)"/>
<path d="M119.644 129.642C119.644 129.642 121.133 132.595 121.058 134.062C119.433 131.904 117.607 130.345 117.607 130.345C117.607 130.345 118.631 129.758 119.644 129.642Z" fill="url(#paint28_linear_11_8253)"/>
<path d="M3.36914 117.033C3.36914 117.033 5.30375 92.1711 13.5432 82.3655C9.04863 105.174 8.32287 109.365 8.3431 116.43C5.81605 115.289 3.7616 117.085 3.7616 117.085L3.36914 117.033Z" fill="url(#paint29_linear_11_8253)"/>
<path d="M6.49377 117.445C6.49377 117.445 10.6678 92.0388 18.1935 87.9214C15.7953 92.8501 11.446 116.351 11.446 116.351L6.49377 117.445Z" fill="url(#paint30_linear_11_8253)"/>
<path d="M1.14667 116.739C1.14667 116.739 0.422411 94.9563 3.41907 90.6108C3.84224 96.4166 5.76636 114.525 5.76636 114.525L1.14592 116.739H1.14667Z" fill="url(#paint31_linear_11_8253)"/>
<path d="M60.2554 127.718C60.2554 127.718 61.7631 106.742 69.8176 98.6218C65.7207 117.81 65.0684 121.338 65.2077 127.309C62.6664 126.293 60.6472 127.77 60.6472 127.77L60.2547 127.718H60.2554Z" fill="url(#paint32_linear_11_8253)"/>
<path d="M63.3801 128.131C63.3801 128.131 67.113 106.741 74.5518 103.414C72.2427 107.532 68.3024 127.308 68.3024 127.308L63.3793 128.132L63.3801 128.131Z" fill="url(#paint33_linear_11_8253)"/>
<path d="M58.0333 127.424C58.0333 127.424 56.9406 108.996 59.8571 105.385C60.3784 110.301 62.6058 125.648 62.6058 125.648L58.0341 127.425L58.0333 127.424Z" fill="url(#paint34_linear_11_8253)"/>
<path d="M94.7561 140.425C94.7561 140.425 96.2638 119.449 104.318 111.329C100.221 130.517 99.569 134.045 99.7084 140.016C97.1671 139.001 95.1478 140.477 95.1478 140.477L94.7554 140.425H94.7561Z" fill="url(#paint35_linear_11_8253)"/>
<path d="M97.8808 140.838C97.8808 140.838 101.614 119.448 109.052 116.121C106.743 120.239 102.803 140.015 102.803 140.015L97.88 140.839L97.8808 140.838Z" fill="url(#paint36_linear_11_8253)"/>
<path d="M92.5332 140.132C92.5332 140.132 91.4404 121.703 94.3569 118.092C94.8782 123.008 97.1057 138.355 97.1057 138.355L92.5339 140.132L92.5332 140.132Z" fill="url(#paint37_linear_11_8253)"/>
<path d="M116.879 155.154C116.879 155.154 118.386 134.178 126.441 126.057C122.344 145.246 121.692 148.773 121.831 154.745C119.29 153.729 117.27 155.206 117.27 155.206L116.878 155.154H116.879Z" fill="url(#paint38_linear_11_8253)"/>
<path d="M120.003 155.567C120.003 155.567 123.736 134.176 131.175 130.85C128.866 134.967 124.926 154.743 124.926 154.743L120.003 155.567L120.003 155.567Z" fill="url(#paint39_linear_11_8253)"/>
<path d="M114.656 154.86C114.656 154.86 113.563 136.432 116.479 132.821C117.001 137.736 119.228 153.083 119.228 153.083L114.656 154.861L114.656 154.86Z" fill="url(#paint40_linear_11_8253)"/>
<path d="M209.66 145.334C209.66 145.334 208.134 124.359 199.98 116.238C204.127 135.427 204.788 138.954 204.646 144.925C207.218 143.91 209.262 145.386 209.262 145.386L209.659 145.334H209.66Z" fill="url(#paint41_linear_11_8253)"/>
<path d="M206.497 145.747C206.497 145.747 202.718 124.357 195.187 121.031C197.525 125.148 201.514 144.924 201.514 144.924L206.497 145.748V145.747Z" fill="url(#paint42_linear_11_8253)"/>
<path d="M211.91 145.041C211.91 145.041 213.016 126.613 210.064 123.002C209.537 127.918 207.281 143.265 207.281 143.265L211.91 145.042V145.041Z" fill="url(#paint43_linear_11_8253)"/>
<mask id="mask0_11_8253" style="mask-type:luminance" maskUnits="userSpaceOnUse" x="0" y="0" width="218" height="225">
<path d="M90.9857 223.34C36.9058 214.469 -7.04417 159.081 0.940668 97.5186C7.75261 45.0165 50.2466 4.15765 101.205 0.299827C104.895 0.0199217 108.627 -0.0668894 112.394 0.0515632C140.822 0.940769 166.08 13.2582 184.761 31.8966C203.354 50.4458 215.434 75.256 217.633 101.285C223.49 170.537 158.251 234.375 90.9864 223.34H90.9857Z" fill="white"/>
</mask>
<g mask="url(#mask0_11_8253)">
<path d="M178.212 224.794C163.85 227.664 150.85 230.321 139.09 232.779C25.3816 256.546 27.2375 261.736 27.2375 261.736C27.2375 261.736 -26.0619 234.463 -18.7302 158.409C-17.4532 145.171 -14.3389 130.454 -8.78602 114.143C-1.74788 113.458 128.565 102.458 178.212 224.794Z" fill="url(#paint44_linear_11_8253)"/>
<path style="mix-blend-mode:multiply" opacity="0.2" d="M27.238 261.736C27.238 261.736 -26.0607 234.462 -18.729 158.408C9.07528 157.808 90.1782 162.526 139.092 232.778C25.3827 256.546 27.2387 261.736 27.2387 261.736H27.238Z" fill="url(#paint45_linear_11_8253)"/>
<path d="M181.241 291.313C181.241 291.313 183.345 285.431 45.8654 257.513C40.8532 256.497 35.6568 255.448 30.2664 254.371C79.9213 132.015 210.261 143.035 217.266 143.717C219.61 150.605 221.521 157.209 223.041 163.536C245.801 258.278 181.241 291.313 181.241 291.313V291.313Z" fill="url(#paint46_linear_11_8253)"/>
<path d="M189.087 311.301C189.087 311.301 191.35 304.983 38.1127 274.359C40.5147 268.438 43.1092 262.827 45.8654 257.513C97.1254 158.769 205.672 162.304 223.041 163.537C224.046 163.61 224.745 163.673 225.113 163.708C262.562 273.703 189.087 311.301 189.087 311.301Z" fill="url(#paint47_linear_11_8253)"/>
</g>
<path d="M70.0117 29.7864C70.0117 29.7864 73.7506 21.9385 80.1611 24.9817C86.5709 28.025 85.9777 26.4275 90.4289 27.0336C94.88 27.6396 100.39 30.9855 96.8042 31.6589C93.2188 32.3323 65.1449 33.1038 65.1449 33.1038C65.1449 33.1038 65.5606 30.1969 70.0117 29.7864Z" fill="white"/>
<path d="M125.362 105.941C125.452 103.632 127.206 101.747 129.339 101.747H191.378C193.576 101.747 195.225 103.715 195.225 106.096V111.278H125.16L125.363 105.941H125.362Z" fill="url(#paint48_linear_11_8253)"/>
<path d="M191.377 102.902H129.338C127.204 102.902 125.45 104.797 125.361 107.107L125.204 111.278H125.159L125.362 105.941C125.451 103.632 127.205 101.747 129.339 101.747H191.378C193.576 101.747 195.224 103.715 195.224 106.096V107.271C195.224 104.89 193.576 102.902 191.378 102.902H191.377Z" fill="url(#paint49_linear_11_8253)"/>
<path d="M183.902 223.69C183.913 223.786 180.333 225.796 180.402 225.858C181.998 227.264 202.595 217.4 205.37 214.695C208.265 211.879 205.852 179.861 205.37 166.54C204.886 153.219 195.358 112.238 195.358 112.238C193.998 113.448 192.557 116.802 191.179 121.09C187.31 133.105 183.902 152.451 183.902 152.451C183.902 152.451 183.659 221.358 183.902 223.689V223.69Z" fill="url(#paint50_linear_11_8253)"/>
<path style="mix-blend-mode:multiply" opacity="0.3" d="M182.964 224.633C182.975 224.729 183.348 223.951 183.417 224.012C185.252 222.66 198.296 213.407 200.304 211.752C202.475 209.957 200.543 178.962 198.857 159.24C197.167 139.517 192.702 119.184 192.702 119.184C192.166 119.726 191.66 120.364 191.178 121.09C187.31 133.105 183.901 152.451 183.901 152.451C183.901 152.451 182.722 222.3 182.964 224.633Z" fill="url(#paint51_linear_11_8253)"/>
<path d="M115.523 170.593C116.058 185.586 117.108 211.322 118.327 221.56C118.627 224.065 118.935 225.645 119.25 225.907C121.095 227.459 167.199 226.374 180.996 226.013C183.138 225.954 184.839 224.049 184.817 221.728C184.809 221.074 184.803 220.352 184.795 219.569C184.69 206.782 184.596 177.382 185.736 157.168C186.105 150.59 186.537 144.985 187.211 141.242C190.587 122.428 195.224 112.237 195.224 112.237V111.276H125.159L117.383 148.584C116.5 152.829 115.925 157.095 115.654 161.415C115.455 164.469 115.415 167.516 115.524 170.592L115.523 170.593Z" fill="url(#paint52_linear_11_8253)"/>
<path d="M115.654 161.394C120.365 165.483 129.823 167.603 147.232 168.313C167.441 169.136 179.266 162.825 185.736 157.169C186.105 150.592 186.537 144.986 187.211 141.244C190.587 122.429 195.224 112.238 195.224 112.238V111.278H125.16L117.384 148.585C116.501 152.83 115.925 157.076 115.654 161.395L115.654 161.394Z" fill="url(#paint53_linear_11_8253)"/>
<path style="mix-blend-mode:multiply" opacity="0.4" d="M118.327 221.561C118.627 224.066 118.934 225.645 119.25 225.908C121.095 227.46 167.198 226.375 180.995 226.014C183.137 225.955 184.838 224.05 184.816 221.729C184.809 221.074 184.802 220.353 184.795 219.569C184.795 219.569 182.692 222.999 175.003 223.391C167.708 223.763 126.552 225.632 118.328 221.56L118.327 221.561Z" fill="url(#paint54_linear_11_8253)"/>
<path d="M125.154 175.879C125.224 190.166 135.766 202.381 149.075 203.223C162.818 204.092 174.292 192.577 174.292 177.437C174.292 162.297 162.755 149.905 148.94 149.905C135.125 149.905 125.084 161.551 125.154 175.88L125.154 175.879Z" fill="white"/>
<path d="M153.669 163.478C147.83 164.678 144.98 173.056 145.678 179.06C145.866 180.672 146.303 182.057 146.79 183.184C147.143 185.773 147.766 187.783 147.821 187.961C147.91 188.242 148.187 188.39 148.44 188.292C148.453 188.287 148.465 188.282 148.477 188.276C148.706 188.164 148.823 187.873 148.739 187.606C148.71 187.516 145.931 178.536 148.892 174.188C151.87 169.817 158.787 169.87 158.857 169.871C158.857 169.871 147.188 170.396 148.77 180.873C149.035 180.327 149.367 179.805 149.791 179.333C152.213 176.634 155.416 177.911 158.968 175.584C160.507 174.574 162.446 172.67 163.927 168.722C161.242 164.959 157.316 162.728 153.669 163.479L153.669 163.478Z" fill="#187231"/>
<path d="M135.94 191.173C135.94 191.173 146.635 178.083 161.858 191.288C145.223 191.111 135.94 191.173 135.94 191.173Z" fill="url(#paint55_linear_11_8253)"/>
<path d="M134.494 161.904C135.542 165.01 136.188 174.694 144.207 176.209C144.297 174.349 144.646 172.461 145.233 170.691C144.21 169.044 142.508 167.633 140.726 166.362C143.213 166.159 144.982 167.379 146.089 168.554C146.905 166.832 147.97 165.303 149.26 164.137C145.737 161.163 140.111 158.083 134.495 161.903L134.494 161.904Z" fill="#D0DA58"/>
<defs>
<linearGradient id="paint0_linear_11_8253" x1="-1.64283" y1="122" x2="23.3508" y2="103.945" gradientUnits="userSpaceOnUse">
<stop stop-color="#4FC3BA"/>
<stop offset="1" stop-color="#A1F094"/>
</linearGradient>
<linearGradient id="paint1_linear_11_8253" x1="2.82363" y1="123.535" x2="26.2073" y2="106.643" gradientUnits="userSpaceOnUse">
<stop stop-color="#4FC3BA"/>
<stop offset="1" stop-color="#A1F094"/>
</linearGradient>
<linearGradient id="paint2_linear_11_8253" x1="-0.565177" y1="116.568" x2="14.5423" y2="105.655" gradientUnits="userSpaceOnUse">
<stop stop-color="#4FC3BA"/>
<stop offset="1" stop-color="#A1F094"/>
</linearGradient>
<linearGradient id="paint3_linear_11_8253" x1="23.223" y1="126.305" x2="48.2166" y2="108.251" gradientUnits="userSpaceOnUse">
<stop stop-color="#4FC3BA"/>
<stop offset="1" stop-color="#A1F094"/>
</linearGradient>
<linearGradient id="paint4_linear_11_8253" x1="27.6883" y1="127.841" x2="51.0727" y2="110.949" gradientUnits="userSpaceOnUse">
<stop stop-color="#4FC3BA"/>
<stop offset="1" stop-color="#A1F094"/>
</linearGradient>
<linearGradient id="paint5_linear_11_8253" x1="24.3006" y1="120.873" x2="39.4073" y2="109.96" gradientUnits="userSpaceOnUse">
<stop stop-color="#4FC3BA"/>
<stop offset="1" stop-color="#A1F094"/>
</linearGradient>
<linearGradient id="paint6_linear_11_8253" x1="5.93088" y1="126.275" x2="38.0909" y2="103.045" gradientUnits="userSpaceOnUse">
<stop stop-color="#4FC3BA"/>
<stop offset="1" stop-color="#A1F094"/>
</linearGradient>
<linearGradient id="paint7_linear_11_8253" x1="10.0536" y1="119.232" x2="25.1611" y2="108.319" gradientUnits="userSpaceOnUse">
<stop stop-color="#4FC3BA"/>
<stop offset="1" stop-color="#A1F094"/>
</linearGradient>
<linearGradient id="paint8_linear_11_8253" x1="19.0827" y1="114.184" x2="33.7356" y2="115.219" gradientUnits="userSpaceOnUse">
<stop stop-color="#4FC3BA"/>
<stop offset="1" stop-color="#A1F094"/>
</linearGradient>
<linearGradient id="paint9_linear_11_8253" x1="15.1838" y1="127.605" x2="35.7335" y2="112.761" gradientUnits="userSpaceOnUse">
<stop stop-color="#4FC3BA"/>
<stop offset="1" stop-color="#A1F094"/>
</linearGradient>
<linearGradient id="paint10_linear_11_8253" x1="35.2877" y1="108.688" x2="37.4917" y2="107.095" gradientUnits="userSpaceOnUse">
<stop stop-color="#4FC3BA"/>
<stop offset="1" stop-color="#A1F094"/>
</linearGradient>
<linearGradient id="paint11_linear_11_8253" x1="70.3667" y1="140.744" x2="95.3603" y2="122.689" gradientUnits="userSpaceOnUse">
<stop stop-color="#4FC3BA"/>
<stop offset="1" stop-color="#A1F094"/>
</linearGradient>
<linearGradient id="paint12_linear_11_8253" x1="74.833" y1="142.279" x2="98.2167" y2="125.387" gradientUnits="userSpaceOnUse">
<stop stop-color="#4FC3BA"/>
<stop offset="1" stop-color="#A1F094"/>
</linearGradient>
<linearGradient id="paint13_linear_11_8253" x1="71.4443" y1="135.312" x2="86.5517" y2="124.399" gradientUnits="userSpaceOnUse">
<stop stop-color="#4FC3BA"/>
<stop offset="1" stop-color="#A1F094"/>
</linearGradient>
<linearGradient id="paint14_linear_11_8253" x1="55.7091" y1="137.825" x2="87.8691" y2="114.595" gradientUnits="userSpaceOnUse">
<stop stop-color="#4FC3BA"/>
<stop offset="1" stop-color="#A1F094"/>
</linearGradient>
<linearGradient id="paint15_linear_11_8253" x1="59.8318" y1="130.782" x2="74.9392" y2="119.869" gradientUnits="userSpaceOnUse">
<stop stop-color="#4FC3BA"/>
<stop offset="1" stop-color="#A1F094"/>
</linearGradient>
<linearGradient id="paint16_linear_11_8253" x1="68.9265" y1="125.705" x2="83.5789" y2="126.74" gradientUnits="userSpaceOnUse">
<stop stop-color="#4FC3BA"/>
<stop offset="1" stop-color="#A1F094"/>
</linearGradient>
<linearGradient id="paint17_linear_11_8253" x1="64.9624" y1="139.155" x2="85.5121" y2="124.311" gradientUnits="userSpaceOnUse">
<stop stop-color="#4FC3BA"/>
<stop offset="1" stop-color="#A1F094"/>
</linearGradient>
<linearGradient id="paint18_linear_11_8253" x1="85.0658" y1="120.237" x2="87.2704" y2="118.645" gradientUnits="userSpaceOnUse">
<stop stop-color="#4FC3BA"/>
<stop offset="1" stop-color="#A1F094"/>
</linearGradient>
<linearGradient id="paint19_linear_11_8253" x1="31.6272" y1="130.526" x2="62.5653" y2="108.177" gradientUnits="userSpaceOnUse">
<stop stop-color="#4FC3BA"/>
<stop offset="1" stop-color="#A1F094"/>
</linearGradient>
<linearGradient id="paint20_linear_11_8253" x1="35.378" y1="123.545" x2="49.7644" y2="113.153" gradientUnits="userSpaceOnUse">
<stop stop-color="#4FC3BA"/>
<stop offset="1" stop-color="#A1F094"/>
</linearGradient>
<linearGradient id="paint21_linear_11_8253" x1="43.8525" y1="118.238" x2="58.5418" y2="119.276" gradientUnits="userSpaceOnUse">
<stop stop-color="#4FC3BA"/>
<stop offset="1" stop-color="#A1F094"/>
</linearGradient>
<linearGradient id="paint22_linear_11_8253" x1="40.41" y1="131.598" x2="60.3159" y2="117.219" gradientUnits="userSpaceOnUse">
<stop stop-color="#4FC3BA"/>
<stop offset="1" stop-color="#A1F094"/>
</linearGradient>
<linearGradient id="paint23_linear_11_8253" x1="60.0001" y1="113.534" x2="62.1745" y2="111.963" gradientUnits="userSpaceOnUse">
<stop stop-color="#4FC3BA"/>
<stop offset="1" stop-color="#A1F094"/>
</linearGradient>
<linearGradient id="paint24_linear_11_8253" x1="89.8353" y1="150.162" x2="120.773" y2="127.813" gradientUnits="userSpaceOnUse">
<stop stop-color="#4FC3BA"/>
<stop offset="1" stop-color="#A1F094"/>
</linearGradient>
<linearGradient id="paint25_linear_11_8253" x1="93.5853" y1="143.182" x2="107.972" y2="132.789" gradientUnits="userSpaceOnUse">
<stop stop-color="#4FC3BA"/>
<stop offset="1" stop-color="#A1F094"/>
</linearGradient>
<linearGradient id="paint26_linear_11_8253" x1="102.133" y1="137.842" x2="116.822" y2="138.88" gradientUnits="userSpaceOnUse">
<stop stop-color="#4FC3BA"/>
<stop offset="1" stop-color="#A1F094"/>
</linearGradient>
<linearGradient id="paint27_linear_11_8253" x1="98.618" y1="151.235" x2="118.524" y2="136.855" gradientUnits="userSpaceOnUse">
<stop stop-color="#4FC3BA"/>
<stop offset="1" stop-color="#A1F094"/>
</linearGradient>
<linearGradient id="paint28_linear_11_8253" x1="118.208" y1="133.17" x2="120.383" y2="131.599" gradientUnits="userSpaceOnUse">
<stop stop-color="#4FC3BA"/>
<stop offset="1" stop-color="#A1F094"/>
</linearGradient>
<linearGradient id="paint29_linear_11_8253" x1="-7.80002" y1="129.868" x2="22.3428" y2="107.348" gradientUnits="userSpaceOnUse">
<stop stop-color="#4FC3BA"/>
<stop offset="1" stop-color="#A1F094"/>
</linearGradient>
<linearGradient id="paint30_linear_11_8253" x1="-3.15811" y1="130.531" x2="25.0453" y2="109.46" gradientUnits="userSpaceOnUse">
<stop stop-color="#4FC3BA"/>
<stop offset="1" stop-color="#A1F094"/>
</linearGradient>
<linearGradient id="paint31_linear_11_8253" x1="-7.37285" y1="122.173" x2="10.8445" y2="108.562" gradientUnits="userSpaceOnUse">
<stop stop-color="#4FC3BA"/>
<stop offset="1" stop-color="#A1F094"/>
</linearGradient>
<linearGradient id="paint32_linear_11_8253" x1="49.3312" y1="138.312" x2="75.0699" y2="115.462" gradientUnits="userSpaceOnUse">
<stop stop-color="#4FC3BA"/>
<stop offset="1" stop-color="#A1F094"/>
</linearGradient>
<linearGradient id="paint33_linear_11_8253" x1="53.9742" y1="138.965" x2="78.055" y2="117.587" gradientUnits="userSpaceOnUse">
<stop stop-color="#4FC3BA"/>
<stop offset="1" stop-color="#A1F094"/>
</linearGradient>
<linearGradient id="paint34_linear_11_8253" x1="49.6237" y1="131.824" x2="65.1807" y2="118.013" gradientUnits="userSpaceOnUse">
<stop stop-color="#4FC3BA"/>
<stop offset="1" stop-color="#A1F094"/>
</linearGradient>
<linearGradient id="paint35_linear_11_8253" x1="83.8316" y1="151.023" x2="109.57" y2="128.174" gradientUnits="userSpaceOnUse">
<stop stop-color="#4FC3BA"/>
<stop offset="1" stop-color="#A1F094"/>
</linearGradient>
<linearGradient id="paint36_linear_11_8253" x1="88.4745" y1="151.677" x2="112.555" y2="130.299" gradientUnits="userSpaceOnUse">
<stop stop-color="#4FC3BA"/>
<stop offset="1" stop-color="#A1F094"/>
</linearGradient>
<linearGradient id="paint37_linear_11_8253" x1="84.1239" y1="144.536" x2="99.6802" y2="130.725" gradientUnits="userSpaceOnUse">
<stop stop-color="#4FC3BA"/>
<stop offset="1" stop-color="#A1F094"/>
</linearGradient>
<linearGradient id="paint38_linear_11_8253" x1="105.953" y1="165.758" x2="131.692" y2="142.909" gradientUnits="userSpaceOnUse">
<stop stop-color="#4FC3BA"/>
<stop offset="1" stop-color="#A1F094"/>
</linearGradient>
<linearGradient id="paint39_linear_11_8253" x1="110.596" y1="166.412" x2="134.677" y2="145.034" gradientUnits="userSpaceOnUse">
<stop stop-color="#4FC3BA"/>
<stop offset="1" stop-color="#A1F094"/>
</linearGradient>
<linearGradient id="paint40_linear_11_8253" x1="106.246" y1="159.271" x2="121.802" y2="145.46" gradientUnits="userSpaceOnUse">
<stop stop-color="#4FC3BA"/>
<stop offset="1" stop-color="#A1F094"/>
</linearGradient>
<linearGradient id="paint41_linear_11_8253" x1="220.566" y1="156.02" x2="194.743" y2="133.094" gradientUnits="userSpaceOnUse">
<stop stop-color="#4FC3BA"/>
<stop offset="1" stop-color="#A1F094"/>
</linearGradient>
<linearGradient id="paint42_linear_11_8253" x1="215.892" y1="156.679" x2="191.711" y2="135.212" gradientUnits="userSpaceOnUse">
<stop stop-color="#4FC3BA"/>
<stop offset="1" stop-color="#A1F094"/>
</linearGradient>
<linearGradient id="paint43_linear_11_8253" x1="220.299" y1="149.474" x2="204.726" y2="135.648" gradientUnits="userSpaceOnUse">
<stop stop-color="#4FC3BA"/>
<stop offset="1" stop-color="#A1F094"/>
</linearGradient>
<linearGradient id="paint44_linear_11_8253" x1="-102.058" y1="78.2596" x2="121.619" y2="216.342" gradientUnits="userSpaceOnUse">
<stop stop-color="#40CF9F"/>
<stop offset="1" stop-color="#24ABB5"/>
</linearGradient>
<linearGradient id="paint45_linear_11_8253" x1="56.1971" y1="122.641" x2="70.7749" y2="400.987" gradientUnits="userSpaceOnUse">
<stop stop-color="#24ABB5"/>
<stop offset="1" stop-color="#40CF9F"/>
</linearGradient>
<linearGradient id="paint46_linear_11_8253" x1="62.6574" y1="344.909" x2="246.645" y2="102.352" gradientUnits="userSpaceOnUse">
<stop stop-color="#4FC3BA"/>
<stop offset="1" stop-color="#A1F094"/>
</linearGradient>
<linearGradient id="paint47_linear_11_8253" x1="113.345" y1="298.624" x2="297.331" y2="56.0687" gradientUnits="userSpaceOnUse">
<stop stop-color="#4FC3BA"/>
<stop offset="1" stop-color="#A1F094"/>
</linearGradient>
<linearGradient id="paint48_linear_11_8253" x1="195.224" y1="106.512" x2="125.159" y2="106.512" gradientUnits="userSpaceOnUse">
<stop stop-color="#6165D7"/>
<stop offset="1" stop-color="#AA80F9"/>
</linearGradient>
<linearGradient id="paint49_linear_11_8253" x1="125.159" y1="-0.000431575" x2="195.224" y2="-0.000431575" gradientUnits="userSpaceOnUse">
<stop stop-color="#6165D7"/>
<stop offset="1" stop-color="#AA80F9"/>
</linearGradient>
<linearGradient id="paint50_linear_11_8253" x1="206.77" y1="169.116" x2="180.4" y2="169.116" gradientUnits="userSpaceOnUse">
<stop stop-color="#6165D7"/>
<stop offset="1" stop-color="#AA80F9"/>
</linearGradient>
<linearGradient id="paint51_linear_11_8253" x1="201.27" y1="171.913" x2="182.931" y2="171.913" gradientUnits="userSpaceOnUse">
<stop stop-color="#6165D7"/>
<stop offset="1" stop-color="#AA80F9"/>
</linearGradient>
<linearGradient id="paint52_linear_11_8253" x1="264.741" y1="168.998" x2="115.464" y2="168.998" gradientUnits="userSpaceOnUse">
<stop stop-color="#6165D7"/>
<stop offset="1" stop-color="#AA80F9"/>
</linearGradient>
<linearGradient id="paint53_linear_11_8253" x1="132.451" y1="252.919" x2="165.368" y2="108.817" gradientUnits="userSpaceOnUse">
<stop stop-color="#6165D7"/>
<stop offset="1" stop-color="#AA80F9"/>
</linearGradient>
<linearGradient id="paint54_linear_11_8253" x1="184.817" y1="223.145" x2="118.328" y2="223.145" gradientUnits="userSpaceOnUse">
<stop stop-color="#6165D7"/>
<stop offset="1" stop-color="#AA80F9"/>
</linearGradient>
<linearGradient id="paint55_linear_11_8253" x1="141.758" y1="126.957" x2="150.495" y2="193.984" gradientUnits="userSpaceOnUse">
<stop stop-color="#6165D7"/>
<stop offset="1" stop-color="#AA80F9"/>
</linearGradient>
</defs>
</svg>
