<svg width="165" height="175" viewBox="0 0 165 175" fill="none" xmlns="http://www.w3.org/2000/svg">
<path d="M68.8653 172.391C27.9333 165.543 -5.3316 122.791 0.711974 75.2724C5.8678 34.7472 38.0307 3.20919 76.5999 0.231429C79.3929 0.0153771 82.2177 -0.0516304 85.0692 0.0398004C106.585 0.726158 125.703 10.2337 139.842 24.6203C153.915 38.938 163.058 58.0884 164.722 78.1794C169.155 131.634 119.777 180.909 68.8659 172.391H68.8653Z" fill="#F4F7FA"/>
<path d="M154.907 31.1389L153.113 31.4865C152.815 30.6004 152.439 29.7374 151.995 28.9045L153.38 27.6088C153.769 27.245 153.814 26.5993 153.48 26.166L151.396 23.4631C151.064 23.0316 150.48 22.9765 150.093 23.3391L148.711 24.6304C148.043 24.0148 147.339 23.4706 146.603 23.006L147.207 21.1279C147.377 20.5999 147.126 20.0169 146.646 19.8265L143.654 18.6361C143.177 18.4463 142.652 18.7187 142.482 19.2454L141.872 21.1316C141.036 20.9719 140.19 20.893 139.343 20.8968L139.018 18.9204C138.928 18.3705 138.452 18.0048 137.956 18.1031L134.852 18.7194C134.357 18.8177 134.027 19.3425 134.116 19.8923L134.437 21.8762C133.657 22.195 132.897 22.5951 132.164 23.0717L130.988 21.5199C130.664 21.0928 130.091 21.0383 129.706 21.3978L127.302 23.646C126.918 24.0054 126.867 24.6436 127.19 25.0719L128.371 26.64C127.829 27.3621 127.349 28.1248 126.938 28.9239L125.211 28.2206C124.74 28.029 124.218 28.3002 124.046 28.8262L122.967 32.1209C122.794 32.6482 123.036 33.2324 123.508 33.4259L125.254 34.1424C125.11 35.0592 125.038 35.9891 125.037 36.9216L123.2 37.2773C122.705 37.3731 122.373 37.9017 122.459 38.4578L122.999 41.9409C123.085 42.4989 123.558 42.8746 124.055 42.7788L125.9 42.425C126.182 43.2967 126.538 44.1478 126.961 44.9713L125.516 46.3221C125.129 46.6847 125.078 47.3341 125.402 47.7724L127.437 50.5204C127.763 50.9606 128.343 51.0232 128.732 50.6594L130.18 49.3048C130.83 49.9242 131.518 50.4753 132.238 50.9494L131.594 52.9395C131.421 53.4762 131.669 54.0743 132.148 54.2753L135.152 55.5353C135.633 55.7369 136.164 55.4645 136.336 54.926L136.978 52.932C137.811 53.1061 138.656 53.1988 139.504 53.2094L139.843 55.3073C139.935 55.8753 140.419 56.2599 140.924 56.1653L144.087 55.5741C144.593 55.4796 144.928 54.9416 144.835 54.373L144.494 52.2939C145.286 51.9808 146.059 51.5825 146.805 51.1078L148.029 52.7329C148.364 53.1775 148.954 53.2414 149.347 52.8744L151.799 50.5805C152.192 50.2135 152.237 49.5566 151.9 49.1126L150.682 47.5044C151.237 46.7686 151.727 45.9895 152.146 45.1735L153.903 45.8937C154.39 46.0935 154.924 45.8192 155.095 45.2806L156.162 41.9159C156.333 41.3785 156.075 40.7817 155.589 40.5838L153.842 39.8731C153.984 38.9325 154.05 37.9787 154.041 37.0237L155.853 36.6761C156.359 36.579 156.693 36.0442 156.596 35.4825L155.997 31.9743C155.901 31.4145 155.414 31.04 154.909 31.1377L154.907 31.1389ZM145.512 44.9625C141.569 48.6498 135.672 48.0242 132.358 43.5898C129.063 39.1823 129.57 32.6719 133.47 29.0247C137.37 25.3775 143.222 25.943 146.559 30.3104C149.916 34.7047 149.455 41.2752 145.512 44.9625Z" fill="#D8DEE8"/>
<path d="M124.399 58.3722L121.903 58.8556C121.486 57.6219 120.964 56.4208 120.345 55.2616L122.274 53.4587C122.815 52.9527 122.877 52.0528 122.412 51.4504L119.512 47.6885C119.049 47.088 118.237 47.011 117.697 47.5157L115.774 49.3136C114.845 48.4569 113.864 47.6992 112.839 47.0529L113.68 44.4384C113.916 43.7032 113.567 42.8922 112.9 42.6267L108.735 40.9696C108.071 40.7054 107.34 41.0849 107.103 41.8176L106.255 44.4434C105.091 44.2211 103.912 44.1108 102.734 44.1165L102.283 41.3648C102.157 40.5989 101.495 40.0898 100.803 40.2269L96.484 41.0842C95.7941 41.2214 95.3349 41.9522 95.4585 42.7168L95.9046 45.4785C94.819 45.9225 93.7606 46.4793 92.7402 47.1431L91.1036 44.9832C90.653 44.3889 89.8542 44.3131 89.3191 44.8135L85.9722 47.9434C85.437 48.4438 85.3667 49.3324 85.8157 49.928L87.4603 52.1104C86.7057 53.1155 86.0374 54.1776 85.4654 55.2898L83.0607 54.311C82.4048 54.0442 81.6786 54.4212 81.4388 55.1539L79.9365 59.7399C79.6962 60.4738 80.0329 61.2873 80.6894 61.5566L83.1196 62.5536C82.9201 63.8298 82.8186 65.1243 82.8186 66.4225L80.2608 66.9178C79.5709 67.0512 79.1095 67.787 79.2291 68.5605L79.9802 73.4094C80.1004 74.186 80.7585 74.7089 81.4501 74.5761L84.0187 74.0832C84.4115 75.2963 84.9064 76.4811 85.4949 77.6271L83.4847 79.5071C82.945 80.0118 82.8736 80.9155 83.3254 81.5261L86.1581 85.3512C86.6122 85.9643 87.4189 86.0513 87.9603 85.5447L89.9767 83.6591C90.8814 84.5214 91.8389 85.2885 92.8411 85.9486L91.9455 88.7191C91.704 89.4662 92.0486 90.2991 92.7159 90.579L96.8961 92.3331C97.5661 92.6143 98.3048 92.2342 98.5457 91.4852L99.4386 88.7097C100.599 88.952 101.775 89.0804 102.954 89.0961L103.427 92.0168C103.555 92.8078 104.228 93.3426 104.931 93.2111L109.334 92.3876C110.039 92.2561 110.505 91.5071 110.376 90.7155L109.901 87.821C111.004 87.3852 112.08 86.831 113.118 86.1697L114.822 88.4316C115.289 89.051 116.11 89.1393 116.655 88.6289L120.07 85.4357C120.616 84.9253 120.679 84.0104 120.21 83.3923L118.514 81.1535C119.288 80.1296 119.969 79.0449 120.553 77.9089L122.997 78.9115C123.676 79.1902 124.419 78.8076 124.657 78.058L126.143 73.3744C126.381 72.626 126.023 71.7962 125.345 71.5201L122.913 70.53C123.111 69.2205 123.202 67.8929 123.191 66.5634L125.713 66.0793C126.418 65.944 126.882 65.1994 126.748 64.4173L125.913 59.5345C125.78 58.7548 125.102 58.2338 124.399 58.3703V58.3722ZM111.322 77.6146C105.833 82.7473 97.6234 81.8762 93.0106 75.704C88.4257 69.5687 89.1297 60.5064 94.5588 55.4295C99.9879 50.3532 108.133 51.1391 112.778 57.2193C117.451 63.3357 116.81 72.4826 111.322 77.6146Z" fill="#D8DEE8"/>
<path d="M7.80548 89.0653C7.80548 89.0653 10.8684 75.6018 17.5905 71.6101C12.7748 83.4823 11.9636 85.6817 11.5135 89.6076C9.72439 88.5286 8.09119 89.1636 8.09119 89.1636L7.80548 89.0659V89.0653Z" fill="url(#paint0_linear_11_8253)"/>
<path d="M10.0833 89.8455C10.0833 89.8455 14.8338 76.474 20.6557 75.5159C18.5628 77.8298 13.8083 90.1116 13.8083 90.1116L10.0833 89.8461V89.8455Z" fill="url(#paint1_linear_11_8253)"/>
<path d="M6.18579 88.5104C6.18579 88.5104 7.08431 76.2868 9.58144 74.4031C9.51171 77.7015 9.7396 88.0958 9.7396 88.0958L6.18636 88.5104H6.18579Z" fill="url(#paint2_linear_11_8253)"/>
<path d="M26.6251 92.3892C26.6251 92.3892 29.6879 78.9257 36.4101 74.9341C31.5944 86.8063 30.7832 89.0057 30.3331 92.9316C28.544 91.8525 26.9108 92.4876 26.9108 92.4876L26.6251 92.3899V92.3892Z" fill="url(#paint3_linear_11_8253)"/>
<path d="M28.9026 93.1694C28.9026 93.1694 33.6532 79.798 39.4751 78.8398C37.3821 81.1538 32.6277 93.4356 32.6277 93.4356L28.9026 93.1701V93.1694Z" fill="url(#paint4_linear_11_8253)"/>
<path d="M25.0048 91.8343C25.0048 91.8343 25.9033 79.6108 28.4005 77.7271C28.3307 81.0254 28.5586 91.4198 28.5586 91.4198L25.0054 91.8343H25.0048Z" fill="url(#paint5_linear_11_8253)"/>
<path d="M16.8689 91.9395C16.8689 91.9395 21.167 73.9664 28.4249 68.019C22.4584 84.0927 21.4363 87.0617 20.6393 92.2551C18.8898 91.0308 17.1546 92.0378 17.1546 92.0378L16.8689 91.9401V91.9395Z" fill="url(#paint6_linear_11_8253)"/>
<path d="M14.2224 90.5663C14.2224 90.5663 15.1209 78.3427 17.618 76.459C17.5483 79.7574 17.7762 90.1517 17.7762 90.1517L14.2229 90.5663H14.2224Z" fill="url(#paint7_linear_11_8253)"/>
<path d="M18.9654 93.0226C18.9654 93.0226 25.4778 86.9863 27.8638 88.1323C26.2079 89.9133 21.2511 95.9202 21.2511 95.9202L18.9654 93.0226Z" fill="url(#paint8_linear_11_8253)"/>
<path d="M18.4739 93.655C18.4739 93.655 22.6485 81.9043 27.7646 81.062C25.9251 83.0954 21.7471 93.8886 21.7471 93.8886L18.4739 93.655Z" fill="url(#paint9_linear_11_8253)"/>
<path d="M27.7646 81.062C27.7646 81.062 28.8916 83.4968 28.8349 84.7067C27.6047 82.9282 26.2227 81.6425 26.2227 81.6425C26.2227 81.6425 26.9982 81.1578 27.7646 81.062Z" fill="url(#paint10_linear_11_8253)"/>
<path d="M62.3055 103.535C62.3055 103.535 65.3684 90.0717 72.0906 86.0801C67.2749 97.9523 66.4637 100.152 66.0135 104.078C64.2245 102.999 62.5913 103.634 62.5913 103.634L62.3055 103.536V103.535Z" fill="url(#paint11_linear_11_8253)"/>
<path d="M64.5831 104.315C64.5831 104.315 69.3336 90.944 75.1555 89.9858C73.0626 92.2998 68.3081 104.582 68.3081 104.582L64.5831 104.316V104.315Z" fill="url(#paint12_linear_11_8253)"/>
<path d="M60.6852 102.98C60.6852 102.98 61.5838 90.756 64.0809 88.8723C64.0112 92.1707 64.239 102.565 64.239 102.565L60.6858 102.98H60.6852Z" fill="url(#paint13_linear_11_8253)"/>
<path d="M54.5434 100.856C54.5434 100.856 58.8415 82.8829 66.0994 76.9355C60.1323 93.0092 59.1108 95.9782 58.3138 101.172C56.5643 99.9473 54.8291 100.954 54.8291 100.954L54.5434 100.857V100.856Z" fill="url(#paint14_linear_11_8253)"/>
<path d="M51.8969 99.4825C51.8969 99.4825 52.7954 87.259 55.2926 85.3752C55.2228 88.6736 55.4507 99.0679 55.4507 99.0679L51.8975 99.4825H51.8969Z" fill="url(#paint15_linear_11_8253)"/>
<path d="M56.6393 101.939C56.6393 101.939 63.1517 95.903 65.5377 97.049C63.8818 98.83 58.925 104.837 58.925 104.837L56.6393 101.939Z" fill="url(#paint16_linear_11_8253)"/>
<path d="M56.1482 102.571C56.1482 102.571 60.3227 90.8206 65.4389 89.9783C63.5993 92.0117 59.4214 102.805 59.4214 102.805L56.1482 102.571Z" fill="url(#paint17_linear_11_8253)"/>
<path d="M65.4395 89.9783C65.4395 89.9783 66.5665 92.4131 66.5098 93.623C65.2797 91.8445 63.8976 90.5588 63.8976 90.5588C63.8976 90.5588 64.6731 90.0741 65.4395 89.9783Z" fill="url(#paint18_linear_11_8253)"/>
<path d="M35.6065 95.0915C35.6065 95.0915 39.9046 78.2676 47.1625 72.6997C41.196 87.7463 40.1739 90.525 39.3769 95.3865C37.6275 94.2404 35.8922 95.1829 35.8922 95.1829L35.6065 95.0915Z" fill="url(#paint19_linear_11_8253)"/>
<path d="M32.96 93.8063C32.96 93.8063 33.8585 82.3643 36.3556 80.6008C36.2859 83.6882 36.5138 93.4187 36.5138 93.4187L32.9605 93.8069L32.96 93.8063Z" fill="url(#paint20_linear_11_8253)"/>
<path d="M37.7028 96.1059C37.7028 96.1059 44.2151 90.4553 46.6012 91.528C44.9453 93.1951 39.9884 98.8181 39.9884 98.8181L37.7028 96.1059Z" fill="url(#paint21_linear_11_8253)"/>
<path d="M37.2109 96.6973C37.2109 96.6973 41.3855 85.698 46.5016 84.9089C44.6621 86.8121 40.4841 96.9158 40.4841 96.9158L37.2109 96.6973Z" fill="url(#paint22_linear_11_8253)"/>
<path d="M46.5021 84.9096C46.5021 84.9096 47.6291 87.1891 47.5724 88.3213C46.3423 86.6561 44.9602 85.4525 44.9602 85.4525C44.9602 85.4525 45.7357 84.9991 46.5021 84.9089V84.9096Z" fill="url(#paint23_linear_11_8253)"/>
<path d="M79.66 110.249C79.66 110.249 83.9581 93.4256 91.2159 87.8577C85.2489 102.904 84.2274 105.683 83.4303 110.544C81.6809 109.398 79.9457 110.341 79.9457 110.341L79.66 110.249Z" fill="url(#paint24_linear_11_8253)"/>
<path d="M77.0129 108.964C77.0129 108.964 77.9114 97.5223 80.4085 95.7588C80.3388 98.8461 80.5667 108.577 80.5667 108.577L77.0134 108.965L77.0129 108.964Z" fill="url(#paint25_linear_11_8253)"/>
<path d="M81.7562 111.264C81.7562 111.264 88.2686 105.614 90.6546 106.686C88.9988 108.353 84.0419 113.976 84.0419 113.976L81.7562 111.264Z" fill="url(#paint26_linear_11_8253)"/>
<path d="M81.2651 111.855C81.2651 111.855 85.4396 100.856 90.5558 100.067C88.7162 101.97 84.5383 112.074 84.5383 112.074L81.2651 111.855Z" fill="url(#paint27_linear_11_8253)"/>
<path d="M90.5561 100.068C90.5561 100.068 91.6831 102.347 91.6264 103.479C90.3962 101.814 89.0142 100.611 89.0142 100.611C89.0142 100.611 89.7897 100.157 90.5561 100.068Z" fill="url(#paint28_linear_11_8253)"/>
<path d="M2.55005 90.3351C2.55005 90.3351 4.01432 71.1446 10.2506 63.5759C6.84875 81.1814 6.29943 84.4165 6.31474 89.8692C4.40207 88.9887 2.8471 90.3752 2.8471 90.3752L2.55005 90.3351Z" fill="url(#paint29_linear_11_8253)"/>
<path d="M4.91498 90.6533C4.91498 90.6533 8.07423 71.0427 13.7703 67.8645C11.9551 71.6689 8.66323 89.8085 8.66323 89.8085L4.91498 90.6533Z" fill="url(#paint30_linear_11_8253)"/>
<path d="M0.867901 90.1084C0.867901 90.1084 0.319724 73.2946 2.58784 69.9404C2.90813 74.4218 4.36446 88.3994 4.36446 88.3994L0.867336 90.1084H0.867901Z" fill="url(#paint31_linear_11_8253)"/>
<path d="M45.6062 98.5828C45.6062 98.5828 46.7473 82.392 52.8436 76.124C49.7427 90.9352 49.249 93.6581 49.3544 98.2672C47.431 97.4832 45.9026 98.6229 45.9026 98.6229L45.6056 98.5828H45.6062Z" fill="url(#paint32_linear_11_8253)"/>
<path d="M47.9711 98.9014C47.9711 98.9014 50.7965 82.3906 56.4268 79.823C54.6791 83.0012 51.6967 98.2657 51.6967 98.2657L47.9706 98.902L47.9711 98.9014Z" fill="url(#paint33_linear_11_8253)"/>
<path d="M43.9243 98.356C43.9243 98.356 43.0972 84.1316 45.3047 81.3442C45.6992 85.1386 47.3851 96.9845 47.3851 96.9845L43.9249 98.3566L43.9243 98.356Z" fill="url(#paint34_linear_11_8253)"/>
<path d="M71.7191 108.391C71.7191 108.391 72.8602 92.2002 78.9565 85.9321C75.8556 100.743 75.3619 103.466 75.4673 108.075C73.5439 107.291 72.0156 108.431 72.0156 108.431L71.7185 108.391H71.7191Z" fill="url(#paint35_linear_11_8253)"/>
<path d="M74.0841 108.71C74.0841 108.71 76.9094 92.1992 82.5397 89.6316C80.792 92.8098 77.8096 108.074 77.8096 108.074L74.0835 108.711L74.0841 108.71Z" fill="url(#paint36_linear_11_8253)"/>
<path d="M70.0366 108.164C70.0366 108.164 69.2095 93.94 71.417 91.1526C71.8115 94.947 73.4974 106.793 73.4974 106.793L70.0372 108.165L70.0366 108.164Z" fill="url(#paint37_linear_11_8253)"/>
<path d="M88.4632 119.76C88.4632 119.76 89.6044 103.569 95.7006 97.3008C92.5998 112.112 92.106 114.835 92.2115 119.444C90.288 118.66 88.7597 119.8 88.7597 119.8L88.4626 119.76H88.4632Z" fill="url(#paint38_linear_11_8253)"/>
<path d="M90.8281 120.078C90.8281 120.078 93.6535 103.568 99.2838 101C97.5361 104.178 94.5537 119.443 94.5537 119.443L90.8276 120.079L90.8281 120.078Z" fill="url(#paint39_linear_11_8253)"/>
<path d="M86.7807 119.533C86.7807 119.533 85.9536 105.308 88.161 102.521C88.5556 106.315 90.2415 118.161 90.2415 118.161L86.7812 119.533L86.7807 119.533Z" fill="url(#paint40_linear_11_8253)"/>
<path d="M158.688 112.18C158.688 112.18 157.532 95.9895 151.361 89.7214C154.5 104.533 155 107.255 154.893 111.865C156.84 111.081 158.387 112.22 158.387 112.22L158.687 112.18H158.688Z" fill="url(#paint41_linear_11_8253)"/>
<path d="M156.293 112.499C156.293 112.499 153.433 95.9882 147.733 93.4207C149.503 96.5988 152.522 111.863 152.522 111.863L156.293 112.5V112.499Z" fill="url(#paint42_linear_11_8253)"/>
<path d="M160.391 111.954C160.391 111.954 161.228 97.7298 158.993 94.9424C158.594 98.7368 156.887 110.583 156.887 110.583L160.391 111.955V111.954Z" fill="url(#paint43_linear_11_8253)"/>
<mask id="mask0_11_8253" style="mask-type:luminance" maskUnits="userSpaceOnUse" x="0" y="0" width="165" height="174">
<path d="M68.8653 172.391C27.9333 165.543 -5.3316 122.791 0.711974 75.2724C5.8678 34.7472 38.0307 3.20919 76.5999 0.231429C79.3929 0.0153771 82.2177 -0.0516304 85.0692 0.0398004C106.585 0.726158 125.703 10.2337 139.842 24.6203C153.915 38.938 163.058 58.0884 164.722 78.1794C169.155 131.634 119.777 180.909 68.8659 172.391H68.8653Z" fill="white"/>
</mask>
<g mask="url(#mask0_11_8253)">
<path d="M134.885 173.513C124.015 175.729 114.176 177.78 105.275 179.677C19.2108 198.022 20.6155 202.028 20.6155 202.028C20.6155 202.028 -19.7258 180.977 -14.1766 122.272C-13.21 112.054 -10.8529 100.695 -6.65003 88.1041C-1.323 87.5756 97.3084 79.085 134.885 173.513Z" fill="url(#paint44_linear_11_8253)"/>
<path style="mix-blend-mode:multiply" opacity="0.2" d="M20.6161 202.028C20.6161 202.028 -19.7247 180.976 -14.1754 122.271C6.86911 121.808 68.2544 125.45 105.276 179.676C19.2119 198.022 20.6167 202.028 20.6167 202.028H20.6161Z" fill="url(#paint45_linear_11_8253)"/>
<path d="M137.178 224.858C137.178 224.858 138.77 220.317 34.7146 198.768C30.921 197.984 26.988 197.175 22.9081 196.343C60.4909 101.899 159.142 110.406 164.445 110.932C166.219 116.248 167.665 121.346 168.816 126.23C186.042 199.359 137.178 224.858 137.178 224.858V224.858Z" fill="url(#paint46_linear_11_8253)"/>
<path d="M143.116 240.286C143.116 240.286 144.829 235.409 28.8468 211.771C30.6648 207.201 32.6285 202.87 34.7146 198.769C73.5123 122.55 155.669 125.279 168.816 126.231C169.576 126.286 170.105 126.335 170.384 126.362C198.728 211.265 143.116 240.286 143.116 240.286Z" fill="url(#paint47_linear_11_8253)"/>
</g>
<path d="M52.9906 22.9913C52.9906 22.9913 55.8205 16.9337 60.6724 19.2827C65.5239 21.6317 65.0749 20.3987 68.4439 20.8665C71.8129 21.3343 75.9829 23.9169 73.2692 24.4367C70.5555 24.9564 49.3069 25.552 49.3069 25.552C49.3069 25.552 49.6216 23.3082 52.9906 22.9913Z" fill="white"/>
<path d="M94.8844 81.7732C94.9518 79.9909 96.2795 78.5361 97.8945 78.5361H144.85C146.514 78.5361 147.762 80.0548 147.762 81.8928V85.8926H94.7313L94.8849 81.7732H94.8844Z" fill="url(#paint48_linear_11_8253)"/>
<path d="M144.849 79.4279H97.8936C96.2786 79.4279 94.9509 80.8902 94.8835 82.6731L94.7644 85.8926H94.7304L94.884 81.7732C94.9515 79.9909 96.2791 78.5361 97.8942 78.5361H144.85C146.514 78.5361 147.761 80.0548 147.761 81.8928V82.8002C147.761 80.9622 146.514 79.4279 144.85 79.4279H144.849Z" fill="url(#paint49_linear_11_8253)"/>
<path d="M139.191 172.661C139.2 172.735 136.49 174.287 136.542 174.335C137.75 175.42 153.34 167.806 155.441 165.718C157.632 163.544 155.805 138.831 155.441 128.548C155.074 118.266 147.863 86.6335 147.863 86.6335C146.833 87.5679 145.743 90.1568 144.699 93.4664C141.771 102.74 139.191 117.673 139.191 117.673C139.191 117.673 139.008 170.861 139.191 172.661V172.661Z" fill="url(#paint50_linear_11_8253)"/>
<path style="mix-blend-mode:multiply" opacity="0.3" d="M138.482 173.389C138.491 173.463 138.772 172.862 138.825 172.91C140.213 171.866 150.086 164.724 151.606 163.446C153.249 162.061 151.787 138.137 150.511 122.914C149.232 107.69 145.852 91.9956 145.852 91.9956C145.447 92.4139 145.064 92.9062 144.699 93.4666C141.771 102.741 139.191 117.673 139.191 117.673C139.191 117.673 138.298 171.589 138.482 173.389Z" fill="url(#paint51_linear_11_8253)"/>
<path d="M87.4371 131.677C87.8424 143.249 88.6366 163.115 89.5595 171.017C89.7869 172.951 90.0193 174.17 90.2579 174.373C91.6547 175.571 126.549 174.733 136.992 174.454C138.613 174.409 139.901 172.939 139.884 171.147C139.879 170.642 139.874 170.085 139.868 169.48C139.788 159.611 139.717 136.917 140.58 121.314C140.859 116.237 141.186 111.911 141.696 109.022C144.252 94.4993 147.761 86.6331 147.761 86.6331V85.8916H94.7307L88.8453 114.689C88.1769 117.965 87.7415 121.258 87.5363 124.593C87.3855 126.95 87.3555 129.302 87.4377 131.677L87.4371 131.677Z" fill="url(#paint52_linear_11_8253)"/>
<path d="M87.5359 124.577C91.1017 127.732 98.2609 129.369 111.437 129.917C126.733 130.552 135.683 125.681 140.58 121.315C140.86 116.238 141.187 111.912 141.696 109.023C144.252 94.5002 147.761 86.6341 147.761 86.6341V85.8926H94.7309L88.8455 114.69C88.1771 117.966 87.7417 121.243 87.5365 124.577L87.5359 124.577Z" fill="url(#paint53_linear_11_8253)"/>
<path style="mix-blend-mode:multiply" opacity="0.4" d="M89.5593 171.018C89.7866 172.951 90.0191 174.171 90.2577 174.374C91.6545 175.572 126.549 174.734 136.992 174.455C138.613 174.41 139.901 172.939 139.884 171.148C139.878 170.642 139.873 170.086 139.868 169.481C139.868 169.481 138.276 172.128 132.457 172.43C126.935 172.718 95.7849 174.161 89.5599 171.018L89.5593 171.018Z" fill="url(#paint54_linear_11_8253)"/>
<path d="M94.7263 135.757C94.7796 146.785 102.759 156.213 112.832 156.863C123.234 157.533 131.918 148.645 131.918 136.959C131.918 125.273 123.186 115.708 112.73 115.708C102.274 115.708 94.6736 124.697 94.7269 135.757L94.7263 135.757Z" fill="white"/>
<path d="M116.309 126.185C111.89 127.111 109.732 133.578 110.261 138.212C110.404 139.457 110.734 140.526 111.102 141.396C111.369 143.394 111.841 144.946 111.883 145.083C111.95 145.299 112.16 145.414 112.351 145.338C112.361 145.335 112.37 145.33 112.379 145.326C112.553 145.239 112.641 145.015 112.578 144.809C112.556 144.739 110.452 137.808 112.694 134.452C114.948 131.078 120.183 131.119 120.236 131.12C120.236 131.12 111.404 131.525 112.601 139.611C112.801 139.191 113.053 138.787 113.374 138.423C115.207 136.34 117.631 137.326 120.32 135.529C121.485 134.75 122.952 133.28 124.073 130.233C122.041 127.328 119.07 125.606 116.309 126.185L116.309 126.185Z" fill="#187231"/>
<path d="M102.89 147.562C102.89 147.562 110.986 137.458 122.507 147.65C109.916 147.515 102.89 147.562 102.89 147.562Z" fill="url(#paint55_linear_11_8253)"/>
<path d="M101.796 124.97C102.589 127.367 103.078 134.843 109.148 136.012C109.215 134.576 109.48 133.119 109.924 131.753C109.15 130.481 107.862 129.392 106.512 128.411C108.395 128.255 109.734 129.196 110.572 130.103C111.19 128.774 111.996 127.594 112.972 126.693C110.305 124.398 106.048 122.021 101.797 124.969L101.796 124.97Z" fill="#D0DA58"/>
<defs>
<linearGradient id="paint0_linear_11_8253" x1="-1.24342" y1="94.1689" x2="17.9267" y2="80.5899" gradientUnits="userSpaceOnUse">
<stop stop-color="#4FC3BA"/>
<stop offset="1" stop-color="#A1F094"/>
</linearGradient>
<linearGradient id="paint1_linear_11_8253" x1="2.13714" y1="95.354" x2="20.0725" y2="82.6495" gradientUnits="userSpaceOnUse">
<stop stop-color="#4FC3BA"/>
<stop offset="1" stop-color="#A1F094"/>
</linearGradient>
<linearGradient id="paint2_linear_11_8253" x1="-0.427809" y1="89.9761" x2="11.1596" y2="81.7687" gradientUnits="userSpaceOnUse">
<stop stop-color="#4FC3BA"/>
<stop offset="1" stop-color="#A1F094"/>
</linearGradient>
<linearGradient id="paint3_linear_11_8253" x1="17.577" y1="97.4922" x2="36.7471" y2="83.9132" gradientUnits="userSpaceOnUse">
<stop stop-color="#4FC3BA"/>
<stop offset="1" stop-color="#A1F094"/>
</linearGradient>
<linearGradient id="paint4_linear_11_8253" x1="20.9568" y1="98.6771" x2="38.8926" y2="85.9729" gradientUnits="userSpaceOnUse">
<stop stop-color="#4FC3BA"/>
<stop offset="1" stop-color="#A1F094"/>
</linearGradient>
<linearGradient id="paint5_linear_11_8253" x1="18.3926" y1="93.2994" x2="29.9795" y2="85.0917" gradientUnits="userSpaceOnUse">
<stop stop-color="#4FC3BA"/>
<stop offset="1" stop-color="#A1F094"/>
</linearGradient>
<linearGradient id="paint6_linear_11_8253" x1="4.48899" y1="97.4689" x2="29.1557" y2="79.9972" gradientUnits="userSpaceOnUse">
<stop stop-color="#4FC3BA"/>
<stop offset="1" stop-color="#A1F094"/>
</linearGradient>
<linearGradient id="paint7_linear_11_8253" x1="7.60936" y1="92.0322" x2="19.1968" y2="83.8248" gradientUnits="userSpaceOnUse">
<stop stop-color="#4FC3BA"/>
<stop offset="1" stop-color="#A1F094"/>
</linearGradient>
<linearGradient id="paint8_linear_11_8253" x1="14.4433" y1="88.1359" x2="25.5359" y2="88.9043" gradientUnits="userSpaceOnUse">
<stop stop-color="#4FC3BA"/>
<stop offset="1" stop-color="#A1F094"/>
</linearGradient>
<linearGradient id="paint9_linear_11_8253" x1="11.4923" y1="98.4956" x2="27.2539" y2="87.3314" gradientUnits="userSpaceOnUse">
<stop stop-color="#4FC3BA"/>
<stop offset="1" stop-color="#A1F094"/>
</linearGradient>
<linearGradient id="paint10_linear_11_8253" x1="26.7086" y1="83.8935" x2="28.399" y2="82.6958" gradientUnits="userSpaceOnUse">
<stop stop-color="#4FC3BA"/>
<stop offset="1" stop-color="#A1F094"/>
</linearGradient>
<linearGradient id="paint11_linear_11_8253" x1="53.2592" y1="108.637" x2="72.4293" y2="95.0581" gradientUnits="userSpaceOnUse">
<stop stop-color="#4FC3BA"/>
<stop offset="1" stop-color="#A1F094"/>
</linearGradient>
<linearGradient id="paint12_linear_11_8253" x1="56.6396" y1="109.822" x2="74.5749" y2="97.1171" gradientUnits="userSpaceOnUse">
<stop stop-color="#4FC3BA"/>
<stop offset="1" stop-color="#A1F094"/>
</linearGradient>
<linearGradient id="paint13_linear_11_8253" x1="54.0748" y1="104.444" x2="65.6622" y2="96.2367" gradientUnits="userSpaceOnUse">
<stop stop-color="#4FC3BA"/>
<stop offset="1" stop-color="#A1F094"/>
</linearGradient>
<linearGradient id="paint14_linear_11_8253" x1="42.1651" y1="106.384" x2="66.8319" y2="88.9125" gradientUnits="userSpaceOnUse">
<stop stop-color="#4FC3BA"/>
<stop offset="1" stop-color="#A1F094"/>
</linearGradient>
<linearGradient id="paint15_linear_11_8253" x1="45.2856" y1="100.947" x2="56.873" y2="92.7398" gradientUnits="userSpaceOnUse">
<stop stop-color="#4FC3BA"/>
<stop offset="1" stop-color="#A1F094"/>
</linearGradient>
<linearGradient id="paint16_linear_11_8253" x1="52.1691" y1="97.0289" x2="63.2614" y2="97.7969" gradientUnits="userSpaceOnUse">
<stop stop-color="#4FC3BA"/>
<stop offset="1" stop-color="#A1F094"/>
</linearGradient>
<linearGradient id="paint17_linear_11_8253" x1="49.1688" y1="107.411" x2="64.9304" y2="96.2465" gradientUnits="userSpaceOnUse">
<stop stop-color="#4FC3BA"/>
<stop offset="1" stop-color="#A1F094"/>
</linearGradient>
<linearGradient id="paint18_linear_11_8253" x1="64.3846" y1="92.8084" x2="66.0756" y2="91.6109" gradientUnits="userSpaceOnUse">
<stop stop-color="#4FC3BA"/>
<stop offset="1" stop-color="#A1F094"/>
</linearGradient>
<linearGradient id="paint19_linear_11_8253" x1="23.9381" y1="100.75" x2="47.6676" y2="83.9413" gradientUnits="userSpaceOnUse">
<stop stop-color="#4FC3BA"/>
<stop offset="1" stop-color="#A1F094"/>
</linearGradient>
<linearGradient id="paint20_linear_11_8253" x1="26.7769" y1="95.3618" x2="37.8113" y2="87.5454" gradientUnits="userSpaceOnUse">
<stop stop-color="#4FC3BA"/>
<stop offset="1" stop-color="#A1F094"/>
</linearGradient>
<linearGradient id="paint21_linear_11_8253" x1="33.1911" y1="91.2654" x2="44.3113" y2="92.0356" gradientUnits="userSpaceOnUse">
<stop stop-color="#4FC3BA"/>
<stop offset="1" stop-color="#A1F094"/>
</linearGradient>
<linearGradient id="paint22_linear_11_8253" x1="30.5855" y1="101.578" x2="45.8534" y2="90.7632" gradientUnits="userSpaceOnUse">
<stop stop-color="#4FC3BA"/>
<stop offset="1" stop-color="#A1F094"/>
</linearGradient>
<linearGradient id="paint23_linear_11_8253" x1="45.4129" y1="87.6342" x2="47.0807" y2="86.4527" gradientUnits="userSpaceOnUse">
<stop stop-color="#4FC3BA"/>
<stop offset="1" stop-color="#A1F094"/>
</linearGradient>
<linearGradient id="paint24_linear_11_8253" x1="67.9946" y1="115.907" x2="91.7241" y2="99.0979" gradientUnits="userSpaceOnUse">
<stop stop-color="#4FC3BA"/>
<stop offset="1" stop-color="#A1F094"/>
</linearGradient>
<linearGradient id="paint25_linear_11_8253" x1="70.8329" y1="110.518" x2="81.8673" y2="102.702" gradientUnits="userSpaceOnUse">
<stop stop-color="#4FC3BA"/>
<stop offset="1" stop-color="#A1F094"/>
</linearGradient>
<linearGradient id="paint26_linear_11_8253" x1="77.3023" y1="106.397" x2="88.4225" y2="107.168" gradientUnits="userSpaceOnUse">
<stop stop-color="#4FC3BA"/>
<stop offset="1" stop-color="#A1F094"/>
</linearGradient>
<linearGradient id="paint27_linear_11_8253" x1="74.6421" y1="116.735" x2="89.91" y2="105.92" gradientUnits="userSpaceOnUse">
<stop stop-color="#4FC3BA"/>
<stop offset="1" stop-color="#A1F094"/>
</linearGradient>
<linearGradient id="paint28_linear_11_8253" x1="89.4693" y1="102.791" x2="91.1376" y2="101.609" gradientUnits="userSpaceOnUse">
<stop stop-color="#4FC3BA"/>
<stop offset="1" stop-color="#A1F094"/>
</linearGradient>
<linearGradient id="paint29_linear_11_8253" x1="-5.90368" y1="100.242" x2="17.2298" y2="83.2944" gradientUnits="userSpaceOnUse">
<stop stop-color="#4FC3BA"/>
<stop offset="1" stop-color="#A1F094"/>
</linearGradient>
<linearGradient id="paint30_linear_11_8253" x1="-2.39035" y1="100.754" x2="19.2546" y2="84.8966" gradientUnits="userSpaceOnUse">
<stop stop-color="#4FC3BA"/>
<stop offset="1" stop-color="#A1F094"/>
</linearGradient>
<linearGradient id="paint31_linear_11_8253" x1="-5.58036" y1="94.3024" x2="8.40074" y2="84.0599" gradientUnits="userSpaceOnUse">
<stop stop-color="#4FC3BA"/>
<stop offset="1" stop-color="#A1F094"/>
</linearGradient>
<linearGradient id="paint32_linear_11_8253" x1="37.3378" y1="106.76" x2="57.155" y2="89.5084" gradientUnits="userSpaceOnUse">
<stop stop-color="#4FC3BA"/>
<stop offset="1" stop-color="#A1F094"/>
</linearGradient>
<linearGradient id="paint33_linear_11_8253" x1="40.852" y1="107.264" x2="59.3927" y2="91.1236" gradientUnits="userSpaceOnUse">
<stop stop-color="#4FC3BA"/>
<stop offset="1" stop-color="#A1F094"/>
</linearGradient>
<linearGradient id="paint34_linear_11_8253" x1="37.5592" y1="101.752" x2="49.5371" y2="91.3252" gradientUnits="userSpaceOnUse">
<stop stop-color="#4FC3BA"/>
<stop offset="1" stop-color="#A1F094"/>
</linearGradient>
<linearGradient id="paint35_linear_11_8253" x1="63.4505" y1="116.571" x2="83.2675" y2="99.3203" gradientUnits="userSpaceOnUse">
<stop stop-color="#4FC3BA"/>
<stop offset="1" stop-color="#A1F094"/>
</linearGradient>
<linearGradient id="paint36_linear_11_8253" x1="66.9647" y1="117.076" x2="85.5054" y2="100.936" gradientUnits="userSpaceOnUse">
<stop stop-color="#4FC3BA"/>
<stop offset="1" stop-color="#A1F094"/>
</linearGradient>
<linearGradient id="paint37_linear_11_8253" x1="63.6718" y1="111.564" x2="75.6492" y2="101.137" gradientUnits="userSpaceOnUse">
<stop stop-color="#4FC3BA"/>
<stop offset="1" stop-color="#A1F094"/>
</linearGradient>
<linearGradient id="paint38_linear_11_8253" x1="80.1939" y1="127.945" x2="100.011" y2="110.694" gradientUnits="userSpaceOnUse">
<stop stop-color="#4FC3BA"/>
<stop offset="1" stop-color="#A1F094"/>
</linearGradient>
<linearGradient id="paint39_linear_11_8253" x1="83.708" y1="128.449" x2="102.249" y2="112.309" gradientUnits="userSpaceOnUse">
<stop stop-color="#4FC3BA"/>
<stop offset="1" stop-color="#A1F094"/>
</linearGradient>
<linearGradient id="paint40_linear_11_8253" x1="80.4157" y1="122.937" x2="92.393" y2="112.511" gradientUnits="userSpaceOnUse">
<stop stop-color="#4FC3BA"/>
<stop offset="1" stop-color="#A1F094"/>
</linearGradient>
<linearGradient id="paint41_linear_11_8253" x1="166.942" y1="120.428" x2="147.06" y2="103.12" gradientUnits="userSpaceOnUse">
<stop stop-color="#4FC3BA"/>
<stop offset="1" stop-color="#A1F094"/>
</linearGradient>
<linearGradient id="paint42_linear_11_8253" x1="163.404" y1="120.937" x2="144.787" y2="104.73" gradientUnits="userSpaceOnUse">
<stop stop-color="#4FC3BA"/>
<stop offset="1" stop-color="#A1F094"/>
</linearGradient>
<linearGradient id="paint43_linear_11_8253" x1="166.74" y1="115.375" x2="154.75" y2="104.937" gradientUnits="userSpaceOnUse">
<stop stop-color="#4FC3BA"/>
<stop offset="1" stop-color="#A1F094"/>
</linearGradient>
<linearGradient id="paint44_linear_11_8253" x1="-77.2461" y1="60.4069" x2="93.8679" y2="163.988" gradientUnits="userSpaceOnUse">
<stop stop-color="#40CF9F"/>
<stop offset="1" stop-color="#24ABB5"/>
</linearGradient>
<linearGradient id="paint45_linear_11_8253" x1="42.5347" y1="94.6637" x2="54.0087" y2="309.489" gradientUnits="userSpaceOnUse">
<stop stop-color="#24ABB5"/>
<stop offset="1" stop-color="#40CF9F"/>
</linearGradient>
<linearGradient id="paint46_linear_11_8253" x1="47.4242" y1="266.228" x2="190.167" y2="81.7002" gradientUnits="userSpaceOnUse">
<stop stop-color="#4FC3BA"/>
<stop offset="1" stop-color="#A1F094"/>
</linearGradient>
<linearGradient id="paint47_linear_11_8253" x1="85.7888" y1="230.501" x2="228.531" y2="45.9752" gradientUnits="userSpaceOnUse">
<stop stop-color="#4FC3BA"/>
<stop offset="1" stop-color="#A1F094"/>
</linearGradient>
<linearGradient id="paint48_linear_11_8253" x1="147.761" y1="82.214" x2="94.7308" y2="82.214" gradientUnits="userSpaceOnUse">
<stop stop-color="#6165D7"/>
<stop offset="1" stop-color="#AA80F9"/>
</linearGradient>
<linearGradient id="paint49_linear_11_8253" x1="94.7304" y1="-0.000441651" x2="147.761" y2="-0.000441651" gradientUnits="userSpaceOnUse">
<stop stop-color="#6165D7"/>
<stop offset="1" stop-color="#AA80F9"/>
</linearGradient>
<linearGradient id="paint50_linear_11_8253" x1="156.5" y1="130.537" x2="136.541" y2="130.537" gradientUnits="userSpaceOnUse">
<stop stop-color="#6165D7"/>
<stop offset="1" stop-color="#AA80F9"/>
</linearGradient>
<linearGradient id="paint51_linear_11_8253" x1="152.337" y1="132.695" x2="138.457" y2="132.695" gradientUnits="userSpaceOnUse">
<stop stop-color="#6165D7"/>
<stop offset="1" stop-color="#AA80F9"/>
</linearGradient>
<linearGradient id="paint52_linear_11_8253" x1="200.377" y1="130.446" x2="87.3923" y2="130.446" gradientUnits="userSpaceOnUse">
<stop stop-color="#6165D7"/>
<stop offset="1" stop-color="#AA80F9"/>
</linearGradient>
<linearGradient id="paint53_linear_11_8253" x1="100.25" y1="195.223" x2="126.109" y2="84.2137" gradientUnits="userSpaceOnUse">
<stop stop-color="#6165D7"/>
<stop offset="1" stop-color="#AA80F9"/>
</linearGradient>
<linearGradient id="paint54_linear_11_8253" x1="139.885" y1="172.241" x2="89.5599" y2="172.241" gradientUnits="userSpaceOnUse">
<stop stop-color="#6165D7"/>
<stop offset="1" stop-color="#AA80F9"/>
</linearGradient>
<linearGradient id="paint55_linear_11_8253" x1="107.294" y1="97.9954" x2="114.167" y2="149.697" gradientUnits="userSpaceOnUse">
<stop stop-color="#6165D7"/>
<stop offset="1" stop-color="#AA80F9"/>
</linearGradient>
</defs>
</svg>
