<svg width="165" height="175" viewBox="0 0 165 175" fill="none" xmlns="http://www.w3.org/2000/svg">
<g clip-path="url(#clip0_11_8347)">
<path d="M29.8201 0.424006C30.2531 -0.369177 31.3299 0.0303812 31.2711 0.962684C30.6981 9.9778 29.8426 33.6698 35.2901 48.6763C44.1595 73.11 44.5066 106.989 30.2375 118.577C30.2375 118.577 -17.3658 86.8163 29.8207 0.424006H29.8201Z" fill="#D0DA58"/>
<path opacity="0.43" d="M27.772 12.7826C27.7276 13.0009 27.6901 13.2567 27.6504 13.498L27.5408 14.2345L27.3356 15.7121C27.203 16.6978 27.0768 17.6848 26.9546 18.6725C26.7142 20.6485 26.4951 22.6285 26.2922 24.6098C25.8824 28.5724 25.5382 32.5436 25.2621 36.5208C24.7225 44.475 24.3945 52.4503 24.4274 60.4263C24.4579 64.4134 24.519 68.401 24.7191 72.3815C24.9226 76.3606 25.2016 80.3364 25.6253 84.2924C25.6691 84.7882 25.7261 85.282 25.7872 85.7752L25.9636 87.2561L26.14 88.737C26.204 89.2295 26.2801 89.72 26.3493 90.2119C26.4957 91.1937 26.622 92.1807 26.7851 93.1592L27.2883 96.0925C28.0008 99.9938 28.8771 103.855 29.9429 107.654V107.655C29.9602 107.715 29.9314 107.779 29.8789 107.799C29.8276 107.818 29.7723 107.787 29.7544 107.729C28.5929 103.956 27.6648 100.093 26.8848 96.1928L26.3493 93.2548C26.1758 92.2743 26.0386 91.286 25.8818 90.3022C25.8068 89.8097 25.7261 89.3179 25.6564 88.824L25.4639 87.3398L25.2713 85.8557C25.205 85.3612 25.1422 84.866 25.0932 84.3695C24.217 76.4298 23.8365 68.4261 23.8238 60.4296C23.81 56.4308 23.9115 52.4325 24.0619 48.4389C24.2164 44.4453 24.4429 40.455 24.7617 36.4739C25.0765 32.4935 25.4466 28.5184 25.9054 24.5564C26.1372 22.5758 26.385 20.5978 26.6542 18.6237C26.792 17.6367 26.9304 16.6503 27.0802 15.6659L27.3143 14.191L27.4388 13.4545C27.4855 13.2072 27.5212 12.9705 27.5841 12.7042C27.5985 12.6435 27.6527 12.6079 27.7051 12.6244C27.757 12.6402 27.7876 12.7002 27.7754 12.7589L27.7703 12.7839L27.772 12.7826Z" fill="white"/>
<path d="M30.1787 122.101C30.1787 122.101 34.173 109.975 27.8527 92.9507C21.989 77.1543 7.00339 39.9604 6.50879 22.9436C6.48688 22.19 5.58876 21.9981 5.33743 22.695C2.63845 30.1739 -2.83328 49.5116 1.95362 73.4244C8.12691 104.262 30.1787 122.1 30.1787 122.1V122.101Z" fill="#187231"/>
<path opacity="0.45" d="M5.64986 38.1498C5.47865 39.0207 5.39276 39.9095 5.30052 40.7937L5.19791 42.1249C5.16678 42.5686 5.15756 43.015 5.13623 43.4594C5.12816 43.6816 5.11606 43.9038 5.11087 44.1266L5.10741 44.7946L5.10049 46.1297L5.14257 47.4642C5.16217 47.9086 5.15698 48.3537 5.1933 48.7974C5.38007 52.3486 5.81818 55.8833 6.52665 59.3455C7.22128 62.809 8.07213 66.2356 9.16855 69.5626L9.56573 70.816L9.76576 71.4417L9.99116 72.0568L10.8927 74.5162C11.0455 74.925 11.1879 75.3377 11.3487 75.7439L11.8306 76.963L12.7945 79.4012C14.1048 82.6392 15.4381 85.8647 16.8147 89.0684C17.4955 90.6739 18.1993 92.2668 18.8951 93.8651L20.9946 98.6538C22.3925 101.848 23.8186 105.031 25.1145 108.292C25.446 109.102 25.7434 109.933 26.0518 110.756C26.2104 111.165 26.3453 111.587 26.4882 112.005C26.6271 112.424 26.7764 112.838 26.9073 113.261C27.4342 114.952 27.8677 116.684 28.1357 118.455C28.145 118.517 28.1086 118.576 28.0545 118.587C28.0026 118.597 27.953 118.559 27.9403 118.502L27.9392 118.495C27.7558 117.631 27.5973 116.762 27.3443 115.92C27.1321 115.065 26.8416 114.239 26.5781 113.403C26.4386 112.988 26.2807 112.581 26.1331 112.17C25.9815 111.759 25.8385 111.347 25.6714 110.944C25.3451 110.135 25.0315 109.321 24.6822 108.523C23.3246 105.315 21.8754 102.152 20.4291 98.9862L18.2639 94.2323C17.5572 92.638 16.8429 91.0477 16.1512 89.4442C14.7464 86.2497 13.4107 83.0144 12.0958 79.7691L11.1285 77.3256L10.6449 76.1039C10.4829 75.697 10.3422 75.2764 10.19 74.863L9.29307 72.374L9.06883 71.7516L8.86995 71.1179L8.47507 69.8494L8.08078 68.5808C7.95223 68.1569 7.80869 67.7388 7.7055 67.3057L7.03451 64.7243C6.79412 63.8698 6.63445 62.989 6.44076 62.1193C6.25917 61.2463 6.04819 60.3806 5.91964 59.4945C5.27804 55.9802 4.91084 52.402 4.79785 48.8185C4.77076 48.3715 4.78402 47.9218 4.78113 47.4734L4.78344 46.1291L4.83475 44.7853L4.86069 44.1141C4.87337 43.8906 4.89297 43.6677 4.90853 43.4442C5.02498 41.6587 5.23019 39.8752 5.62622 38.1432C5.62795 38.1359 5.63487 38.1313 5.64121 38.1333C5.64755 38.1352 5.65159 38.1432 5.64986 38.1504V38.1498Z" fill="white"/>
<path d="M7.72167 148.353C7.72167 150.022 8.91667 151.386 10.3768 151.386H153.951C155.411 151.386 156.606 150.021 156.606 148.353L157.801 53.9819C157.801 52.3131 156.082 49.056 152.932 49.3006L12.6158 45.1481C10.7838 45.094 9.01179 45.9004 7.71476 47.3799C6.41715 48.8588 5.70753 50.8817 5.75077 52.9751L7.72225 148.353H7.72167Z" fill="#481D8E"/>
<path d="M10.3428 145.442C10.3428 147.022 11.4733 148.315 12.8544 148.315H150.489C151.871 148.315 153 147.022 153 145.442L154.128 59.7714C153.995 54.6161 150.043 52.7633 147.648 52.8728L13.1634 48.7453C11.8762 48.7058 10.6311 49.2728 9.71967 50.3133C8.80829 51.3537 8.31081 52.7765 8.34309 54.2488L10.3428 145.441V145.442Z" fill="#7D97F4"/>
<path d="M151.513 104.71H151.508C151.32 104.707 151.17 104.53 151.173 104.316L151.262 97.3681C151.265 97.1532 151.419 96.9969 151.607 96.9844C151.795 96.9877 151.946 97.1644 151.943 97.3793L151.853 104.327C151.85 104.54 151.699 104.71 151.513 104.71Z" fill="#BDD0FB"/>
<path d="M151.732 87.6852H151.727C151.539 87.6819 151.388 87.5045 151.391 87.2902L151.733 60.68C151.727 59.0897 151.304 57.8205 150.477 56.9146C148.937 55.2267 146.493 55.3137 146.389 55.3176L103.407 53.9996C103.219 53.9943 103.071 53.815 103.076 53.6001C103.082 53.3884 103.233 53.2209 103.416 53.2209C103.419 53.2209 103.423 53.2209 103.426 53.2209L146.383 54.539C146.65 54.5245 149.231 54.4704 150.948 56.3521C151.913 57.4097 152.406 58.8675 152.414 60.684L152.072 87.3021C152.069 87.5151 151.917 87.6858 151.732 87.6858V87.6852Z" fill="#BDD0FB"/>
<path d="M1.04744 159.22L164.617 159.22C164.828 159.22 165 159.024 165 158.782V151.367C165 151.124 164.828 150.928 164.617 150.928L1.04744 150.928C0.835724 150.928 0.664093 151.124 0.664093 151.367V158.782C0.664093 159.024 0.835724 159.22 1.04744 159.22Z" fill="#481D8E"/>
<path d="M78.5187 170.3C65.2417 170.304 19.4456 170.255 3.23161 169.411C1.51376 169.321 0.156781 168.006 0.128535 166.402C-0.0115443 158.472 -0.210422 129.409 0.598924 116.462C0.76725 113.765 3.15032 111.672 6.04933 111.682C19.984 111.731 59.1751 112.03 77.0989 113.851C79.2462 114.069 80.9317 115.682 81.1116 117.688C81.8875 126.339 83.6428 155.562 82.668 166.742C82.4922 168.758 80.6902 170.299 78.5193 170.3H78.5187Z" fill="#481D8E"/>
<path d="M74.5089 166.672C63.7891 166.854 28.1288 167.387 14.9591 166.66C13.0343 166.554 11.5015 165.103 11.4202 163.307C11.0853 155.912 10.5019 130.696 11.6214 119.886C11.8231 117.939 13.5416 116.447 15.6393 116.39C26.5776 116.09 59.7879 115.27 72.8106 115.977C74.8882 116.09 76.5593 117.63 76.7121 119.565C77.3422 127.571 78.7066 154.384 78.0074 163.575C77.8759 165.301 76.3651 166.641 74.5094 166.673L74.5089 166.672Z" fill="#91B3FA"/>
<path opacity="0.5" d="M80.6262 150.758C80.2192 150.749 79.8884 150.446 79.8734 150.066C79.8007 148.192 79.5949 142.913 79.4895 140.553C79.4687 140.088 79.923 139.734 80.4118 139.833L80.4954 139.85C80.8286 139.918 81.0759 140.182 81.1018 140.499C81.2304 142.095 81.5808 146.911 81.4033 150.092C81.382 150.475 81.0367 150.767 80.6262 150.758Z" fill="white"/>
<path d="M69.6839 109.593C69.4804 120.574 68.8209 158.451 69.1357 171.873C69.1691 173.296 70.0211 174.437 71.0835 174.483C76.3397 174.713 95.6078 175.297 104.205 174.814C105.996 174.714 107.419 172.773 107.457 170.375C107.636 158.85 108.03 126.432 107.093 111.582C106.981 109.802 105.937 108.385 104.609 108.208C98.8849 107.442 79.5338 105.568 72.1062 106.213C70.7665 106.329 69.7173 107.798 69.6839 109.593Z" fill="#481D8E"/>
<path d="M72.0295 112.962C71.7465 121.826 70.8541 151.311 71.1377 162.214C71.1792 163.808 72.1177 165.096 73.3075 165.19C78.2057 165.573 94.9178 166.419 102.103 165.649C103.396 165.511 104.411 164.11 104.482 162.376C104.846 153.334 105.891 125.879 105.62 115.098C105.576 113.378 104.581 111.973 103.3 111.82C98.0007 111.183 80.2423 109.668 74.137 110.114C72.991 110.198 72.0791 111.428 72.0301 112.962H72.0295Z" fill="#BDD0FB"/>
<path d="M42.3898 151.88C47.8864 151.88 52.3423 146.783 52.3423 140.496C52.3423 134.209 47.8864 129.113 42.3898 129.113C36.8932 129.113 32.4373 134.209 32.4373 140.496C32.4373 146.783 36.8932 151.88 42.3898 151.88Z" fill="white"/>
<path d="M41.573 149.233C41.0449 149.273 40.5538 148.992 40.2805 148.49L35.6914 140.061C35.2613 139.271 35.4931 138.189 36.2084 137.645C36.9238 137.101 37.8513 137.299 38.2814 138.089L41.464 143.94L45.6635 134.157C46.0405 133.279 46.9461 132.877 47.6851 133.257C48.4247 133.638 48.7187 134.658 48.3423 135.535L42.9155 148.188C42.6671 148.767 42.173 149.165 41.6254 149.229C41.6075 149.231 41.5902 149.233 41.5724 149.234L41.573 149.233Z" fill="url(#paint0_linear_11_8347)"/>
<path d="M35.5449 70.0512L36.1318 70.1831H36.1329C36.3013 70.2213 36.4108 70.4079 36.3779 70.6004C36.3445 70.793 36.1814 70.9182 36.013 70.8806C36.0096 70.88 36.005 70.8787 36.0015 70.878L35.417 70.7198C35.2561 70.6762 35.157 70.4916 35.195 70.3077C35.2325 70.1283 35.3864 70.0156 35.5432 70.0505H35.5449V70.0512Z" fill="white"/>
<path d="M37.4997 70.4785L38.0877 70.5991H38.0894C38.2791 70.6387 38.4053 70.8457 38.3713 71.0626C38.3373 71.2795 38.1563 71.4239 37.9666 71.385C37.9626 71.3844 37.9574 71.3831 37.9534 71.3824L37.3666 71.2354C37.1844 71.1899 37.0691 70.9842 37.1089 70.7758C37.1481 70.5727 37.3199 70.4422 37.4974 70.4785H37.5003H37.4997Z" fill="white"/>
<path d="M39.4591 70.8636L40.0477 70.9698H40.0505C40.2615 71.008 40.4062 71.2348 40.3728 71.4762C40.3393 71.7175 40.1416 71.883 39.9301 71.8447C39.9254 71.8441 39.9197 71.8427 39.9156 71.8421L39.3254 71.7089C39.1219 71.6634 38.9893 71.4372 39.0296 71.2045C39.0688 70.9777 39.2573 70.828 39.4556 70.863H39.4591V70.8636Z" fill="white"/>
<path d="M41.4225 71.1972L42.0122 71.2856H42.0157C42.2486 71.3212 42.4123 71.5651 42.3823 71.8315C42.3518 72.0978 42.1385 72.2851 41.9056 72.2508C41.901 72.2502 41.894 72.2488 41.8894 72.2482L41.2957 72.1328C41.0703 72.0893 40.9187 71.8447 40.9573 71.5869C40.9948 71.3357 41.1988 71.1642 41.4179 71.1965H41.4225V71.1972Z" fill="white"/>
<path d="M43.3899 71.4675L43.9808 71.5348H43.9854C44.2402 71.5644 44.4258 71.8236 44.4005 72.115C44.3751 72.4064 44.148 72.6187 43.8938 72.5904C43.8886 72.5904 43.8811 72.589 43.8759 72.5877L43.2787 72.4934C43.0314 72.4545 42.859 72.1934 42.893 71.9106C42.9265 71.635 43.1444 71.4398 43.3842 71.4669H43.3899V71.4675Z" fill="white"/>
<path d="M45.3591 71.6638L45.9494 71.7067H45.9552C46.2319 71.7271 46.4417 71.9995 46.4239 72.3159C46.4066 72.6324 46.1679 72.8724 45.8918 72.852C45.886 72.852 45.8785 72.8507 45.8728 72.85L45.2727 72.7801C45.0035 72.7485 44.8075 72.4735 44.8351 72.1656C44.8617 71.8649 45.0917 71.6447 45.3528 71.6632H45.3597L45.3591 71.6638Z" fill="white"/>
<path d="M47.33 71.776L47.9215 71.7918H47.9278C48.2259 71.7997 48.4616 72.0832 48.4547 72.4241C48.4478 72.765 48.2005 73.0346 47.9025 73.0267C47.8961 73.0267 47.888 73.0261 47.8817 73.0254L47.2782 72.9826C46.987 72.9621 46.7657 72.6753 46.7836 72.3417C46.8014 72.0166 47.0401 71.768 47.322 71.7753H47.33V71.776Z" fill="white"/>
<path d="M49.3015 71.7971L49.8924 71.7853H49.8993C50.2187 71.7787 50.4815 72.0701 50.4873 72.4347C50.4925 72.8 50.2383 73.1006 49.9195 73.1072C49.9132 73.1072 49.9039 73.1072 49.8976 73.1072L49.2929 73.0927C48.9799 73.0848 48.732 72.7888 48.7389 72.4314C48.7453 72.0826 48.992 71.8037 49.294 71.7978H49.3027L49.3015 71.7971Z" fill="white"/>
<path d="M51.2696 71.7272L51.8593 71.6889H51.8662C52.2057 71.6665 52.4968 71.9632 52.5164 72.3516C52.536 72.7399 52.2761 73.0729 51.9365 73.0953C51.9296 73.0953 51.9198 73.096 51.9129 73.0966L51.3082 73.1098C50.9744 73.1171 50.6989 72.8131 50.6925 72.4313C50.6868 72.0588 50.9392 71.7496 51.2615 71.7278H51.2701L51.2696 71.7272Z" fill="white"/>
<path d="M53.2347 71.569L53.8233 71.5057H53.8296C54.1893 71.4661 54.5087 71.7681 54.5427 72.1802C54.5767 72.5916 54.3127 72.9569 53.9524 72.9951C53.9449 72.9958 53.9345 72.9971 53.9276 72.9971L53.324 73.0353C52.9695 73.0578 52.6663 72.7472 52.6467 72.3424C52.6277 71.9468 52.8854 71.6072 53.2272 71.5696H53.2353L53.2347 71.569Z" fill="white"/>
<path d="M55.1952 71.3316L55.7826 71.2466H55.7884C56.1677 71.1905 56.5142 71.4978 56.5626 71.9316C56.6104 72.3655 56.3418 72.7624 55.9625 72.8171C55.9544 72.8185 55.9441 72.8198 55.936 72.8204L55.3342 72.8811C54.9595 72.9187 54.6292 72.6022 54.5963 72.1736C54.564 71.7556 54.8269 71.3857 55.1877 71.333L55.1952 71.3316Z" fill="white"/>
<path d="M57.1517 71.0258L57.738 70.9229H57.7426C58.1415 70.8517 58.5145 71.1649 58.5756 71.6212C58.6373 72.0774 58.3634 72.504 57.9645 72.5746C57.9565 72.5759 57.9449 72.5779 57.9369 72.5785L57.3373 72.657C56.9431 72.7091 56.5862 72.3853 56.5407 71.9337C56.4963 71.4933 56.7649 71.0944 57.1442 71.0271L57.1512 71.0258H57.1517Z" fill="white"/>
<path d="M59.1042 70.6643L59.6887 70.5469H59.6928C60.1107 70.4619 60.5096 70.7816 60.5828 71.2597C60.6566 71.7383 60.377 72.1939 59.9585 72.2783C59.9499 72.2803 59.9383 72.2823 59.9297 72.2836L59.3331 72.3766C58.9186 72.4412 58.537 72.1095 58.4805 71.6355C58.4251 71.1733 58.7001 70.746 59.0984 70.6656L59.1042 70.6643Z" fill="white"/>
<path d="M61.052 70.2581L61.636 70.1296H61.6395C62.077 70.0326 62.5001 70.3597 62.5848 70.8608C62.6696 71.3619 62.3831 71.8452 61.945 71.9421C61.9357 71.9441 61.9236 71.9467 61.9144 71.948L61.3195 72.0522C60.8854 72.1287 60.479 71.7878 60.4127 71.2907C60.3476 70.806 60.6295 70.3524 61.0469 70.2594L61.052 70.2581Z" fill="white"/>
<path d="M24.0469 78.9701C30.1666 78.9701 35.1276 73.2959 35.1276 66.2963C35.1276 59.2968 30.1666 53.6226 24.0469 53.6226C17.9272 53.6226 12.9662 59.2968 12.9662 66.2963C12.9662 73.2959 17.9272 78.9701 24.0469 78.9701Z" fill="white"/>
<path d="M23.1373 76.0242C22.5493 76.0684 22.0028 75.7552 21.6984 75.1967L16.5893 65.813C16.1102 64.9335 16.3685 63.7288 17.1652 63.1229C17.9613 62.517 18.9948 62.7385 19.4727 63.6174L23.0162 70.1317L27.6919 59.2407C28.1115 58.2636 29.1197 57.8152 29.9429 58.2392C30.7661 58.6632 31.0935 59.7985 30.6744 60.775L24.6326 74.8611C24.3559 75.5059 23.806 75.9497 23.1966 76.0202C23.177 76.0222 23.1574 76.0242 23.1378 76.0261L23.1373 76.0242Z" fill="url(#paint1_linear_11_8347)"/>
<path d="M87.9236 94.5813L87.7276 95.2057L87.7218 95.2242C87.6019 95.6066 87.233 95.8057 86.8987 95.6679C86.5695 95.5327 86.396 95.1206 86.5055 94.7428L86.6992 94.0762C86.8128 93.6859 87.1811 93.4749 87.5224 93.6042C87.8636 93.7341 88.0481 94.1554 87.9351 94.5457C87.934 94.5503 87.9322 94.5549 87.9311 94.5595L87.9242 94.5813H87.9236Z" fill="white"/>
<path d="M87.32 96.6919L87.1655 97.3374L87.1621 97.3519C87.0716 97.7297 86.7309 97.9519 86.4012 97.8484C86.076 97.7469 85.8829 97.3664 85.9631 96.9945L86.1101 96.3161C86.1931 95.9317 86.5332 95.697 86.8692 95.7926C87.2053 95.8875 87.4105 96.2765 87.327 96.6609C87.3258 96.6655 87.3252 96.6702 87.3241 96.6741L87.32 96.6919Z" fill="white"/>
<path d="M86.8479 98.8603L86.7286 99.519L86.7263 99.5302C86.6594 99.8988 86.3447 100.136 86.0224 100.059C85.7054 99.9839 85.4996 99.6324 85.5572 99.2698L85.6662 98.5854C85.7256 98.2109 86.0397 97.9623 86.3672 98.0309C86.6946 98.0988 86.9119 98.4582 86.852 98.8327C86.8514 98.8373 86.8502 98.8412 86.8497 98.8458L86.8468 98.8603H86.8479Z" fill="white"/>
<path d="M86.4865 101.065L86.3971 101.732L86.396 101.741C86.3481 102.098 86.0564 102.342 85.7446 102.288C85.4373 102.234 85.2252 101.909 85.2644 101.558L85.3422 100.87C85.3831 100.508 85.6731 100.252 85.9902 100.298C86.3072 100.345 86.5309 100.677 86.4899 101.04C86.4899 101.044 86.4888 101.048 86.4882 101.052L86.4865 101.065V101.065Z" fill="white"/>
<path d="M86.2184 103.296L86.1545 103.968V103.976C86.121 104.32 85.8507 104.568 85.5503 104.531C85.2546 104.494 85.0396 104.193 85.0638 103.856L85.1151 103.166C85.141 102.816 85.4091 102.557 85.7146 102.587C86.0201 102.617 86.2467 102.923 86.2207 103.273C86.2207 103.277 86.2202 103.281 86.2196 103.285L86.2184 103.296Z" fill="white"/>
<path d="M86.0317 105.542L85.9902 106.218V106.225C85.9694 106.554 85.7192 106.803 85.431 106.78C85.1468 106.757 84.9318 106.478 84.945 106.155L84.9727 105.464C84.986 105.129 85.2344 104.87 85.5273 104.886C85.8201 104.902 86.0466 105.186 86.0328 105.52C86.0328 105.524 86.0328 105.528 86.0322 105.532V105.542L86.0317 105.542Z" fill="white"/>
<path d="M85.9175 107.798L85.8962 108.477V108.483C85.8858 108.798 85.6547 109.045 85.3791 109.033C85.1076 109.022 84.8949 108.764 84.8978 108.456L84.9047 107.766C84.9081 107.446 85.1376 107.19 85.4172 107.193C85.6967 107.197 85.921 107.46 85.9181 107.779C85.9181 107.783 85.9181 107.787 85.9181 107.791V107.799L85.9175 107.798Z" fill="white"/>
<path d="M85.8685 110.061L85.8656 110.74V110.745C85.8645 111.045 85.6506 111.288 85.3883 111.286C85.1301 111.285 84.9203 111.047 84.9151 110.753L84.903 110.064C84.8978 109.76 85.1093 109.508 85.3762 109.502C85.6426 109.496 85.8628 109.738 85.8679 110.043C85.8679 110.047 85.8679 110.051 85.8679 110.054V110.061L85.8685 110.061Z" fill="white"/>
<path d="M85.8806 112.325L85.8956 113.005V113.01C85.902 113.295 85.7048 113.531 85.4558 113.539C85.2108 113.546 85.0062 113.326 84.994 113.048L84.9646 112.36C84.952 112.07 85.1474 111.824 85.4004 111.81C85.6535 111.797 85.8685 112.019 85.8806 112.309C85.8806 112.312 85.8806 112.315 85.8806 112.319V112.326V112.325Z" fill="white"/>
<path d="M85.9492 114.591L85.9809 115.27V115.274C85.9936 115.544 85.8126 115.774 85.5774 115.788C85.3451 115.801 85.1468 115.6 85.1289 115.337L85.0828 114.651C85.0644 114.377 85.2431 114.139 85.4823 114.117C85.7215 114.096 85.9302 114.301 85.9492 114.574C85.9492 114.578 85.9492 114.581 85.9492 114.584V114.591Z" fill="white"/>
<path d="M86.0732 116.854L86.121 117.533V117.537C86.1389 117.791 85.9734 118.013 85.7521 118.033C85.5336 118.054 85.3416 117.87 85.3186 117.622L85.2557 116.937C85.2321 116.68 85.3958 116.449 85.6212 116.422C85.8466 116.395 86.0484 116.582 86.072 116.84C86.072 116.843 86.0726 116.846 86.0726 116.849V116.855L86.0732 116.854Z" fill="white"/>
<path d="M86.2513 119.115L86.3153 119.792V119.796C86.3383 120.034 86.1879 120.247 85.9798 120.274C85.7746 120.299 85.5901 120.132 85.563 119.9L85.484 119.217C85.4558 118.975 85.6045 118.753 85.8161 118.721C86.0276 118.689 86.2219 118.859 86.2501 119.101C86.2501 119.103 86.2507 119.106 86.2513 119.109V119.115V119.115Z" fill="white"/>
<path d="M86.4848 121.369L86.566 122.043V122.047C86.5931 122.27 86.4571 122.475 86.2634 122.505C86.072 122.535 85.8956 122.384 85.8645 122.168L85.7682 121.489C85.7359 121.263 85.8703 121.05 86.068 121.014C86.2657 120.977 86.4513 121.13 86.4836 121.356C86.4836 121.359 86.4842 121.362 86.4848 121.364V121.37V121.369Z" fill="white"/>
<path d="M86.7759 123.614L86.875 124.285V124.289C86.9062 124.495 86.7845 124.691 86.6047 124.726C86.4271 124.76 86.2588 124.625 86.2248 124.424L86.1101 123.748C86.0743 123.539 86.1942 123.336 86.3775 123.295C86.5609 123.254 86.7384 123.391 86.7741 123.601C86.7741 123.603 86.7747 123.605 86.7753 123.608L86.7764 123.613L86.7759 123.614Z" fill="white"/>
<path d="M87.1304 125.847L87.2503 126.514V126.518C87.2849 126.708 87.1782 126.893 87.0122 126.932C86.8485 126.971 86.6888 126.853 86.6514 126.667L86.5159 125.997C86.4767 125.804 86.5822 125.61 86.7517 125.566C86.9206 125.521 87.0895 125.642 87.1287 125.836C87.1287 125.839 87.1298 125.841 87.1298 125.842L87.131 125.848L87.1304 125.847Z" fill="white"/>
<path d="M95.021 145.658C98.5576 141.612 98.5576 135.054 95.021 131.009C91.4843 126.964 85.7503 126.964 82.2136 131.009C78.677 135.054 78.677 141.612 82.2136 145.658C85.7503 149.703 91.4843 149.703 95.021 145.658Z" fill="white"/>
<path d="M87.874 146.283C87.3938 146.319 86.9465 146.064 86.6981 145.607L82.5222 137.937C82.1308 137.219 82.3418 136.234 82.9932 135.738C83.644 135.243 84.4885 135.424 84.8793 136.143L87.7755 141.467L91.5968 132.566C91.9398 131.767 92.7635 131.401 93.4368 131.747C94.1096 132.093 94.3776 133.021 94.0352 133.819L89.0973 145.331C88.8713 145.858 88.4217 146.221 87.9236 146.278C87.9075 146.28 87.8913 146.281 87.8752 146.282L87.874 146.283Z" fill="url(#paint2_linear_11_8347)"/>
<path d="M126.124 58.3126C128.147 37.908 115.249 19.481 97.3152 17.1548C79.3812 14.8285 63.2027 29.484 61.1796 49.8886C59.1565 70.2932 72.0548 88.7202 89.9888 91.0465C107.923 93.3727 124.101 78.7172 126.124 58.3126Z" fill="white"/>
<path d="M125.034 58.1647C126.99 38.4385 114.521 20.6242 97.183 18.3753C79.8453 16.1264 64.2048 30.2946 62.2489 50.0208C60.2931 69.747 72.7625 87.5614 90.1002 89.8102C107.438 92.0591 123.078 77.8909 125.034 58.1647Z" fill="#187131"/>
<path opacity="0.66" d="M122.76 56.3279C122.756 56.3279 122.752 56.3279 122.748 56.3279C122.638 56.3207 122.554 56.2126 122.561 56.0866C122.634 54.7 122.631 53.2983 122.551 51.9196C122.544 51.7937 122.627 51.6855 122.736 51.677C122.845 51.6717 122.941 51.764 122.949 51.8893C123.03 53.2871 123.033 54.7086 122.959 56.1143C122.953 56.235 122.864 56.3286 122.76 56.3286V56.3279Z" fill="white"/>
<path opacity="0.66" d="M121.004 42.8445C120.923 42.8445 120.847 42.7878 120.817 42.6961C116.99 30.948 107.823 22.7696 96.8933 21.3527C95.1501 21.1265 93.3855 21.0791 91.6481 21.2109C91.5414 21.2162 91.4429 21.1239 91.4359 20.9986C91.429 20.8727 91.512 20.7646 91.6216 20.756C93.3826 20.6221 95.1714 20.6703 96.9382 20.8997C102.442 21.6131 107.629 24.0606 111.938 27.9771C116.13 31.788 119.33 36.8221 121.192 42.5372C121.23 42.6552 121.177 42.7864 121.075 42.8306C121.051 42.8405 121.028 42.8451 121.005 42.8451L121.004 42.8445Z" fill="white"/>
<path opacity="0.3" d="M120.767 58.5479C122.509 40.9792 111.404 25.1134 95.9626 23.1105C80.5213 21.1076 66.5916 33.7262 64.8497 51.2948C63.1077 68.8635 74.2132 84.7294 89.6545 86.7323C105.096 88.7351 119.025 76.1166 120.767 58.5479Z" fill="white"/>
<path d="M101.045 63.6026L99.6009 63.2795C99.6067 62.5186 99.5559 61.7571 99.4481 61.0041L100.84 60.449C101.215 60.2993 101.413 59.8239 101.281 59.3881L100.458 56.6545C100.326 56.2167 99.9145 55.9826 99.5381 56.1323L98.1401 56.6875C97.8196 56.0248 97.4438 55.3899 97.0189 54.7866L97.9891 53.4851C98.2497 53.1356 98.2145 52.6042 97.9107 52.2976L96.0067 50.3763C95.7017 50.0684 95.2423 50.1027 94.9812 50.4528L94.0081 51.7576C93.4299 51.3521 92.8298 51.0079 92.2136 50.7303L92.4851 49.0292C92.5583 48.5704 92.296 48.124 91.8988 48.0317L89.4114 47.4528C89.0131 47.3598 88.6303 47.6578 88.5577 48.118L88.2879 49.8211C87.6175 49.802 86.9482 49.8508 86.2865 49.9655L85.7798 48.3211C85.6426 47.8761 85.2206 47.6361 84.8378 47.7864L82.4398 48.726C82.0558 48.8763 81.857 49.3596 81.9953 49.8053L82.5014 51.4345C81.9198 51.8031 81.3629 52.2369 80.8366 52.7295L79.6941 51.5961C79.3816 51.2855 78.9141 51.3204 78.6507 51.6739L77.0032 53.884C76.7397 54.2374 76.7807 54.7747 77.0937 55.0839L78.2299 56.2042C77.8817 56.8793 77.5894 57.5795 77.3571 58.2995L75.9045 57.9745C75.5009 57.8842 75.1164 58.1835 75.0455 58.6437L74.6017 61.5158C74.5308 61.9747 74.8 62.4184 75.2029 62.5074L76.6475 62.8265C76.6458 63.6065 76.7046 64.3865 76.8216 65.156L75.4485 65.7013C75.0646 65.8536 74.8668 66.3342 75.0069 66.774L75.8797 69.5188C76.0192 69.9566 76.4423 70.188 76.8245 70.0351L78.1832 69.4931C78.5187 70.165 78.9113 70.8065 79.354 71.4144L78.4236 72.6625C78.1624 73.0127 78.2022 73.5408 78.5129 73.8421L80.4498 75.7199C80.7588 76.0192 81.2205 75.979 81.4811 75.6296L82.4086 74.3854C83.0001 74.785 83.6128 75.1212 84.2406 75.3889L83.9864 76.9937C83.9149 77.4447 84.1778 77.8786 84.5738 77.9623L87.0439 78.4865C87.4382 78.5702 87.8158 78.2735 87.8879 77.8232L88.1455 76.2111C88.8159 76.2177 89.4852 76.1583 90.1453 76.0311L90.6266 77.5799C90.7603 78.0111 91.1737 78.2366 91.5501 78.0843L93.8986 77.1342C94.2739 76.9825 94.4704 76.5104 94.3373 76.0799L93.8582 74.5252C94.4295 74.154 94.976 73.7201 95.4931 73.2276L96.5895 74.3089C96.891 74.6063 97.3452 74.5667 97.6035 74.2206L99.2187 72.0546C99.477 71.7085 99.4424 71.1856 99.1415 70.8869L98.0393 69.7931C98.3782 69.1311 98.6647 68.4448 98.893 67.7399L100.321 68.0551C100.711 68.1415 101.086 67.8461 101.16 67.3964L101.621 64.5791C101.695 64.1281 101.438 63.6916 101.048 63.6039L101.045 63.6026ZM93.7844 68.6116C91.1644 72.1252 86.5361 72.5234 83.4295 69.4845C80.304 66.4272 79.9039 61.0549 82.5522 57.5024C85.201 53.9499 89.872 53.5938 92.9682 56.6901C96.0459 59.7679 96.4039 65.098 93.7839 68.6116H93.7844Z" fill="white"/>
<path d="M110.261 41.4942L109.457 41.3123C109.451 40.9002 109.415 40.4881 109.345 40.08L110.11 39.7852C110.316 39.7061 110.419 39.4496 110.341 39.2129L109.853 37.7314C109.774 37.494 109.544 37.3661 109.337 37.4452L108.57 37.74C108.385 37.3806 108.169 37.0358 107.927 36.7088L108.448 36.0099C108.588 35.822 108.563 35.5351 108.391 35.3683L107.316 34.3246C107.143 34.1571 106.89 34.1743 106.75 34.3622L106.227 35.0624C105.903 34.8415 105.568 34.6536 105.225 34.502L105.355 33.5861C105.39 33.3389 105.24 33.0976 105.02 33.0461L103.642 32.7257C103.421 32.6743 103.214 32.8338 103.179 33.0811L103.049 33.9982C102.68 33.9857 102.311 34.0094 101.948 34.0694L101.65 33.182C101.569 32.942 101.335 32.8114 101.126 32.8905L99.8159 33.3877C99.6061 33.4675 99.5023 33.7266 99.583 33.9672L99.8793 34.8461C99.5629 35.0426 99.2614 35.274 98.9772 35.5378L98.3367 34.9233C98.1615 34.7551 97.905 34.7723 97.7637 34.9615L96.8812 36.145C96.7399 36.3343 96.7682 36.6237 96.9434 36.7912L97.5798 37.3991C97.3954 37.7611 97.242 38.1375 97.1221 38.5246L96.3197 38.3433C96.0972 38.2931 95.8885 38.4527 95.8545 38.7L95.6406 40.2461C95.6066 40.4934 95.7594 40.734 95.9813 40.7835L96.7791 40.9621C96.7866 41.3828 96.827 41.8041 96.8996 42.2202L96.1496 42.5083C95.9398 42.5887 95.8361 42.8472 95.9179 43.0852L96.4269 44.5714C96.5082 44.8087 96.7434 44.936 96.9527 44.8555L97.6951 44.5694C97.8871 44.934 98.1102 45.2828 98.3604 45.6138L97.8611 46.2837C97.7211 46.4716 97.7487 46.7577 97.9228 46.9219L99.0112 47.9485C99.1847 48.1127 99.4389 48.0929 99.579 47.9056L100.077 47.2371C100.408 47.4566 100.75 47.6419 101.099 47.7902L100.976 48.6579C100.942 48.9019 101.092 49.1386 101.311 49.1861L102.682 49.4841C102.901 49.5316 103.106 49.3733 103.141 49.1294L103.265 48.2571C103.636 48.2643 104.005 48.236 104.369 48.1707L104.652 49.0133C104.731 49.248 104.963 49.3727 105.169 49.2922L106.458 48.7905C106.664 48.71 106.768 48.4555 106.689 48.2208L106.405 47.3749C106.717 47.1764 107.015 46.9443 107.295 46.6806L107.915 47.2727C108.086 47.4355 108.337 47.4164 108.476 47.2298L109.345 46.0634C109.484 45.8768 109.459 45.5933 109.289 45.4298L108.665 44.8311C108.845 44.4744 108.996 44.1039 109.114 43.7228L109.909 43.9008C110.126 43.9496 110.331 43.7914 110.366 43.5481L110.588 42.0237C110.623 41.7797 110.476 41.5424 110.258 41.4929L110.261 41.4942ZM106.3 44.1711C104.891 46.0608 102.337 46.252 100.589 44.5911C98.8325 42.923 98.5541 40.0213 99.9744 38.1164C101.395 36.2116 103.966 36.0376 105.711 37.7208C107.448 39.3969 107.709 42.2815 106.3 44.1711H106.3Z" fill="white"/>
<path d="M69.338 85.0256L68.8918 85.4634L68.8838 85.4713C68.6128 85.737 68.2053 85.7014 67.973 85.3915C67.7435 85.0856 67.7718 84.6254 68.0341 84.3583L68.4889 83.8968C68.7575 83.6238 69.1691 83.6515 69.4078 83.9594C69.6464 84.2667 69.6222 84.7375 69.353 85.0104C69.3513 85.0124 69.349 85.0144 69.3472 85.0164L69.3369 85.0263L69.338 85.0256Z" fill="white"/>
<path d="M67.8715 86.5165L67.4426 86.9793L67.4369 86.9853C67.1844 87.2576 66.7861 87.2444 66.548 86.9556C66.3122 86.6701 66.3214 86.2211 66.5664 85.9475L66.9999 85.4635C67.2507 85.1839 67.6519 85.1892 67.8963 85.476C68.1407 85.7628 68.1361 86.2217 67.8854 86.5013C67.8836 86.5033 67.8819 86.5053 67.8802 86.5072L67.8721 86.5158L67.8715 86.5165Z" fill="white"/>
<path d="M66.4592 88.0843L66.0447 88.5669L66.0401 88.5722C65.8032 88.8484 65.4158 88.8524 65.1749 88.5814C64.9362 88.3137 64.9304 87.8766 65.1593 87.6003L65.5755 87.0986C65.8101 86.8157 66.2009 86.8038 66.4477 87.0722C66.695 87.3405 66.7054 87.7876 66.4707 88.0704C66.469 88.0724 66.4673 88.0744 66.4655 88.0764L66.4586 88.0843H66.4592Z" fill="white"/>
<path d="M65.0936 89.7135L64.6924 90.2126L64.6889 90.2172C64.4664 90.4942 64.09 90.512 63.8478 90.2575C63.6086 90.0056 63.5907 89.581 63.8058 89.304L64.2064 88.7878C64.4266 88.5043 64.8059 88.4786 65.0538 88.7304C65.3017 88.9823 65.3242 89.4161 65.1039 89.6996C65.1022 89.7016 65.1011 89.7036 65.0993 89.7056L65.0936 89.7128V89.7135Z" fill="white"/>
<path d="M63.7706 91.3934L63.3815 91.9057L63.3786 91.9096C63.1694 92.1852 62.8039 92.2149 62.5629 91.9756C62.3243 91.7389 62.2972 91.3268 62.4989 91.0512L62.8863 90.523C63.0933 90.2408 63.461 90.2039 63.7083 90.4406C63.9551 90.6773 63.9874 91.098 63.7804 91.3808C63.7787 91.3828 63.7775 91.3848 63.7758 91.3868L63.7706 91.3934Z" fill="white"/>
<path d="M62.4868 93.1162L62.1087 93.6404L62.1058 93.6444C61.9086 93.918 61.5547 93.9569 61.3155 93.7314C61.0791 93.5085 61.0434 93.1096 61.2336 92.836L61.6089 92.2973C61.8037 92.0178 62.16 91.971 62.405 92.1938C62.6494 92.4167 62.6903 92.8242 62.4949 93.1044C62.4937 93.1063 62.492 93.1083 62.4909 93.1103L62.4863 93.1162H62.4868Z" fill="white"/>
<path d="M61.2394 94.8768L60.8722 95.4115L60.8699 95.4148C60.6843 95.6851 60.3418 95.7319 60.1055 95.5196C59.8715 95.3093 59.8294 94.9236 60.0087 94.6539L60.3724 94.1054C60.5557 93.8291 60.9004 93.775 61.1425 93.9847C61.3841 94.1944 61.4313 94.5886 61.248 94.8656C61.2469 94.8675 61.2452 94.8695 61.244 94.8715L61.24 94.8774L61.2394 94.8768Z" fill="white"/>
<path d="M60.0265 96.6695L59.6691 97.2134L59.6668 97.2167C59.4916 97.4831 59.1613 97.5365 58.9284 97.3367C58.6978 97.1389 58.6499 96.7657 58.8183 96.5L59.1716 95.9429C59.3446 95.6706 59.6772 95.6099 59.9153 95.8077C60.1533 96.0055 60.2064 96.3859 60.0334 96.6583C60.0323 96.6602 60.0311 96.6622 60.03 96.6642L60.0265 96.6695Z" fill="white"/>
<path d="M58.8465 98.4919L58.4989 99.0444L58.4972 99.0471C58.3323 99.3088 58.0135 99.3682 57.7847 99.1796C57.5581 98.993 57.5057 98.6337 57.6636 98.3726L58.0066 97.8075C58.1692 97.5398 58.4903 97.4739 58.7243 97.6598C58.9583 97.8457 59.016 98.213 58.8534 98.4807C58.8523 98.4827 58.8511 98.4846 58.85 98.4866L58.8465 98.4919Z" fill="white"/>
<path d="M57.6982 100.343L57.3598 100.903L57.3581 100.906C57.203 101.162 56.8958 101.227 56.6715 101.049C56.4496 100.874 56.3925 100.528 56.5413 100.272L56.8744 99.6997C57.0272 99.4373 57.3368 99.3661 57.5662 99.5408C57.7956 99.7155 57.8579 100.07 57.7051 100.332C57.704 100.334 57.7028 100.336 57.7017 100.337L57.6988 100.343H57.6982Z" fill="white"/>
<path d="M56.5816 102.219L56.253 102.787L56.2513 102.79C56.106 103.041 55.8103 103.109 55.5907 102.943C55.3733 102.779 55.3128 102.445 55.4517 102.195L55.7751 101.616C55.9181 101.359 56.2161 101.284 56.4404 101.448C56.6646 101.611 56.7303 101.952 56.5874 102.209C56.5862 102.211 56.5851 102.213 56.5845 102.214L56.5816 102.219Z" fill="white"/>
<path d="M55.4967 104.12L55.1774 104.695L55.1756 104.698C55.0396 104.943 54.7554 105.015 54.541 104.86C54.3288 104.706 54.2648 104.386 54.3951 104.142L54.7087 103.556C54.8424 103.305 55.1289 103.226 55.348 103.379C55.567 103.532 55.6362 103.86 55.5025 104.11C55.5013 104.112 55.5008 104.113 55.4996 104.115L55.4967 104.12Z" fill="white"/>
<path d="M54.4441 106.046L54.1345 106.628L54.1334 106.631C54.0066 106.87 53.7339 106.946 53.5252 106.801C53.3183 106.657 53.2514 106.35 53.373 106.112L53.6763 105.519C53.8013 105.274 54.0757 105.193 54.289 105.335C54.5023 105.478 54.5744 105.792 54.4499 106.036C54.4487 106.038 54.4481 106.039 54.447 106.041L54.4441 106.046Z" fill="white"/>
<path d="M53.4249 107.995L53.1257 108.584L53.1246 108.587C53.0064 108.82 52.7459 108.899 52.5424 108.764C52.3412 108.63 52.2714 108.336 52.3844 108.105L52.6773 107.505C52.7931 107.267 53.056 107.182 53.2635 107.315C53.4716 107.448 53.546 107.748 53.4295 107.986C53.429 107.988 53.4278 107.989 53.4272 107.991L53.4249 107.996V107.995Z" fill="white"/>
<path d="M52.4403 109.968L52.1521 110.564L52.1509 110.566C52.0414 110.793 51.793 110.874 51.5952 110.75C51.3998 110.626 51.3278 110.346 51.4315 110.121L51.7134 109.513C51.8206 109.283 52.0714 109.194 52.2732 109.317C52.4749 109.44 52.5522 109.726 52.4449 109.957C52.4444 109.959 52.4432 109.961 52.4426 109.962L52.4403 109.966V109.968Z" fill="white"/>
<path d="M51.4932 111.965L51.2165 112.568L51.2154 112.571C51.1151 112.79 50.8776 112.875 50.6862 112.76C50.4965 112.646 50.4222 112.379 50.5178 112.161L50.7876 111.547C50.8862 111.323 51.1249 111.232 51.3209 111.345C51.5169 111.458 51.5958 111.731 51.4973 111.955C51.4967 111.956 51.4961 111.958 51.4949 111.959L51.4926 111.964L51.4932 111.965Z" fill="white"/>
<path d="M50.5864 113.985L50.323 114.596L50.3219 114.599C50.2302 114.811 50.0054 114.899 49.8192 114.794C49.6353 114.691 49.5586 114.437 49.6462 114.226L49.9033 113.604C49.9933 113.387 50.2198 113.294 50.4095 113.396C50.5991 113.499 50.6804 113.758 50.5911 113.975C50.5905 113.976 50.5899 113.978 50.5893 113.98L50.587 113.984L50.5864 113.985Z" fill="white"/>
<path d="M49.7246 116.03L49.4756 116.648L49.4745 116.651C49.3914 116.857 49.1787 116.947 48.9989 116.853C48.8213 116.759 48.7424 116.52 48.8208 116.315L49.0629 115.686C49.1436 115.475 49.358 115.38 49.5419 115.473C49.7258 115.565 49.8088 115.81 49.7281 116.02C49.7281 116.022 49.7269 116.024 49.7264 116.025L49.7241 116.03L49.7246 116.03Z" fill="white"/>
<path d="M48.913 118.101L48.6807 118.727L48.6795 118.73C48.6057 118.929 48.4057 119.022 48.2322 118.937C48.0604 118.854 47.9797 118.629 48.0489 118.432L48.2743 117.793C48.3458 117.59 48.5481 117.493 48.7256 117.575C48.9032 117.656 48.9885 117.888 48.917 118.091C48.9164 118.092 48.9159 118.093 48.9153 118.095L48.913 118.101Z" fill="white"/>
<path d="M48.1607 120.199L47.948 120.834L47.9469 120.837C47.8829 121.029 47.6949 121.124 47.5278 121.051C47.3623 120.979 47.2787 120.768 47.3387 120.578L47.5445 119.93C47.6067 119.734 47.7958 119.634 47.967 119.705C48.1382 119.776 48.2264 119.992 48.1642 120.188C48.1642 120.189 48.163 120.191 48.163 120.192L48.1613 120.198L48.1607 120.199Z" fill="white"/>
<path d="M47.4782 122.326L47.2891 122.971L47.288 122.975C47.2338 123.159 47.0597 123.259 46.8988 123.197C46.7397 123.135 46.6533 122.94 46.7034 122.757L46.8856 122.1C46.938 121.911 47.1133 121.807 47.2782 121.867C47.443 121.926 47.5341 122.127 47.4822 122.316C47.4822 122.317 47.4816 122.318 47.4811 122.32L47.4793 122.326H47.4782Z" fill="white"/>
</g>
<defs>
<linearGradient id="paint0_linear_11_8347" x1="53.8711" y1="108.329" x2="33.1346" y2="146.532" gradientUnits="userSpaceOnUse">
<stop stop-color="#FF928E"/>
<stop offset="1" stop-color="#FE7062"/>
</linearGradient>
<linearGradient id="paint1_linear_11_8347" x1="36.8293" y1="30.4844" x2="13.7426" y2="73.0164" gradientUnits="userSpaceOnUse">
<stop stop-color="#FF928E"/>
<stop offset="1" stop-color="#FE7062"/>
</linearGradient>
<linearGradient id="paint2_linear_11_8347" x1="99.0642" y1="109.064" x2="80.1955" y2="143.826" gradientUnits="userSpaceOnUse">
<stop stop-color="#FF928E"/>
<stop offset="1" stop-color="#FE7062"/>
</linearGradient>
<clipPath id="clip0_11_8347">
<rect width="165" height="175" fill="white"/>
</clipPath>
</defs>
</svg>
