<svg width="26" height="24" viewBox="0 0 26 24" fill="none" xmlns="http://www.w3.org/2000/svg">
<path fill-rule="evenodd" clip-rule="evenodd" d="M6.47613 7.50938V24H0.000487503V7.50938H6.47613ZM16.2377 7.4789V8.45061C17.183 7.88741 18.2732 7.56 19.9262 7.56C25.3101 7.56 26 11.4183 26 14.7795V23.9995H19.4918V15.2391C19.4918 13.7658 18.9207 13.4864 17.8648 13.4864C16.8609 13.4864 16.2377 13.7808 16.2377 15.2391V23.9995H9.72957V7.4789H16.2377ZM3.23782 0C5.02431 0 6.47564 1.34118 6.47564 2.98874C6.47564 4.6363 5.02431 5.97748 3.23781 5.97748C1.45296 5.97748 0 4.6363 0 2.98873C0 1.34119 1.45295 0 3.23782 0Z" fill="white"/>
</svg>
