<svg width="53" height="53" viewBox="0 0 53 53" fill="none" xmlns="http://www.w3.org/2000/svg">
<path fill-rule="evenodd" clip-rule="evenodd" d="M15.225 0H37.275C45.675 0 52.5 6.825 52.5 15.225V37.275C52.5 41.3129 50.8959 45.1855 48.0407 48.0407C45.1855 50.8959 41.3129 52.5 37.275 52.5H15.225C11.1881 52.4968 7.31736 50.8917 4.46281 48.0372C1.60826 45.1826 0.00317807 41.3119 0 37.275L0 15.225C0 11.1871 1.60406 7.31454 4.4593 4.4593C7.31454 1.60406 11.1871 0 15.225 0ZM14.7 5.25C12.1937 5.25 9.79006 6.24562 8.01784 8.01784C6.24562 9.79006 5.25 12.1937 5.25 14.7V37.8C5.24921 39.0412 5.4931 40.2704 5.96773 41.4173C6.44236 42.5642 7.13841 43.6062 8.01608 44.4839C8.89375 45.3616 9.93583 46.0576 11.0827 46.5323C12.2296 47.0069 13.4588 47.2508 14.7 47.25H37.8C40.3063 47.25 42.7099 46.2544 44.4822 44.4822C46.2544 42.7099 47.25 40.3063 47.25 37.8V14.7C47.2508 13.4588 47.0069 12.2296 46.5323 11.0827C46.0576 9.93583 45.3616 8.89375 44.4839 8.01608C43.6062 7.13841 42.5642 6.44236 41.4173 5.96773C40.2704 5.4931 39.0412 5.24921 37.8 5.25H14.7ZM43.311 12.468C43.3243 12.0289 43.2493 11.5915 43.0904 11.1819C42.9315 10.7723 42.692 10.3987 42.386 10.0834C42.0801 9.76808 41.714 9.51739 41.3093 9.34619C40.9047 9.175 40.4698 9.08678 40.0305 9.08678C39.5912 9.08678 39.1563 9.175 38.7516 9.34619C38.347 9.51739 37.9809 9.76808 37.675 10.0834C37.369 10.3987 37.1295 10.7723 36.9706 11.1819C36.8117 11.5915 36.7367 12.0289 36.75 12.468C36.75 13.3384 37.0958 14.1732 37.7113 14.7887C38.3268 15.4042 39.1616 15.75 40.032 15.75C40.9024 15.75 41.7372 15.4042 42.3527 14.7887C42.9682 14.1732 43.311 13.3384 43.311 12.468ZM26.25 13.125C27.9736 13.125 29.6803 13.4645 31.2727 14.1241C32.8651 14.7837 34.312 15.7505 35.5308 16.9692C36.7495 18.188 37.7163 19.6349 38.3759 21.2273C39.0355 22.8197 39.375 24.5264 39.375 26.25C39.375 27.9736 39.0355 29.6803 38.3759 31.2727C37.7163 32.8651 36.7495 34.312 35.5308 35.5308C34.312 36.7495 32.8651 37.7163 31.2727 38.3759C29.6803 39.0355 27.9736 39.375 26.25 39.375C22.769 39.375 19.4306 37.9922 16.9692 35.5308C14.5078 33.0694 13.125 29.731 13.125 26.25C13.125 22.769 14.5078 19.4306 16.9692 16.9692C19.4306 14.5078 22.769 13.125 26.25 13.125ZM18.375 26.25C18.375 24.1614 19.2047 22.1584 20.6815 20.6815C22.1584 19.2047 24.1614 18.375 26.25 18.375C28.3386 18.375 30.3416 19.2047 31.8185 20.6815C33.2953 22.1584 34.125 24.1614 34.125 26.25C34.125 28.3386 33.2953 30.3416 31.8185 31.8185C30.3416 33.2953 28.3386 34.125 26.25 34.125C24.1614 34.125 22.1584 33.2953 20.6815 31.8185C19.2047 30.3416 18.375 28.3386 18.375 26.25Z" fill="white"/>
</svg>
