<svg width="1920" height="2312" viewBox="0 0 1920 2312" fill="none" xmlns="http://www.w3.org/2000/svg">
<g style="mix-blend-mode:screen">
<path d="M258.397 516.805C300.601 675.266 331.553 840.789 405.323 985.022C471.118 1113.67 578.623 1222.17 711.377 1241.39C775.112 1250.61 836.942 1234.31 892.451 1197.41C949.675 1159.35 997.802 1106.32 1050.87 1061.5C1101.87 1018.43 1157.52 985.694 1220.77 976.006C1282.91 966.487 1347.56 977.39 1404.08 1008.6C1458.33 1038.56 1504.08 1086.91 1536.12 1145.37C1571.14 1209.26 1586.14 1281.67 1586.23 1356.89C1586.33 1441.64 1571.11 1525.85 1575.71 1610.66C1579.87 1687.49 1600.3 1767.34 1655.11 1816.24C1703.57 1859.47 1765.78 1873.27 1822.32 1896.59C1873.45 1917.67 1919.23 1950.05 1957.21 1994.92C1970.46 2010.58 1982.66 2027.44 1993.71 2045.28L1993.59 2054.86C1992.35 2052.78 1991.1 2050.7 1989.83 2048.65C1958.39 1997.84 1917.31 1954.74 1869.18 1925.72C1815.63 1893.43 1754.94 1882.05 1700.13 1853.24C1645.81 1824.68 1606.36 1777.07 1587.05 1711.57C1566.32 1641.24 1568.51 1566.14 1573.85 1493.11C1579.89 1410.34 1589.02 1325.56 1569.23 1244.31C1551.67 1172.17 1514.11 1106.59 1463.88 1059.12C1359.8 960.757 1210.68 954.025 1096.19 1033.1C989.776 1106.59 906.915 1233.76 775.599 1248.18C659.153 1260.97 544.609 1190.72 467.981 1093.85C375.832 977.365 330.916 822.507 293.181 674.017C253.107 516.304 218.501 351.741 137.418 213.9C107.588 163.171 69.8842 116.529 26.4942 79.2493L26.5759 72.446C39.6346 83.3034 52.1463 94.9543 64.0034 107.237C166.775 213.71 218.764 368.029 258.397 516.805Z" fill="#8DC63F"/>
</g>
<g style="mix-blend-mode:screen">
<path d="M270.778 492.889C308.239 647.654 336.137 807.924 405.494 949.173C465.095 1070.56 558.613 1173.42 678.814 1207.7C736.568 1224.16 797.528 1221.53 852.995 1195.57C915.879 1166.14 967.326 1113.42 1020.47 1066.24C1069.28 1022.91 1121.09 983.884 1181.77 967.394C1237.86 952.15 1297.59 954.585 1352.45 974.742C1469.27 1017.66 1551.19 1144.04 1563.23 1283.26C1576.39 1435.32 1517.67 1600.27 1589.63 1741.71C1623.79 1808.85 1683.26 1840.51 1744.32 1865.98C1801.4 1889.78 1856.31 1913.46 1902.66 1960.16C1940.85 1998.64 1971.43 2046.59 1993.06 2099.51L1992.9 2112.63C1979.18 2076.52 1961.26 2042.51 1939.48 2011.96C1898.99 1955.15 1847.49 1916.32 1788.19 1890.28C1734.43 1866.67 1676.5 1848.9 1631.18 1806.18C1586.53 1764.11 1562.65 1701.98 1553.25 1637.51C1542.12 1561.14 1551.53 1484.31 1557.12 1407.85C1563.18 1324.97 1561.58 1243 1530.58 1166.34C1504.47 1101.75 1462.28 1045.37 1408.61 1009.38C1355.68 973.89 1292.91 958.872 1231.92 964.128C1168.23 969.625 1111.04 998.532 1059.03 1040.31C1006.83 1082.28 959.996 1132.82 905.468 1171.02C856.079 1205.62 801.431 1225.58 743.413 1223.66C635.813 1220.09 534.097 1150.09 465.267 1057.9C380.105 943.855 337.15 798.159 303.36 655.185C266.794 500.501 237.802 339.245 164.331 200.825C129.854 135.846 82.8188 76.3126 27.0463 33.2044L27.1212 26.9614C49.3183 43.572 70.1424 62.624 89.144 83.4026C187.985 191.449 235.024 345.191 270.778 492.889Z" fill="#88C03D"/>
</g>
<g style="mix-blend-mode:screen">
<path d="M283.841 471.029C317.259 625.171 342.588 783.853 410.914 923.9C469.787 1044.57 563.067 1147.31 682.252 1181.67C740.362 1198.41 801.523 1195.61 857.235 1169.1C920.035 1139.22 971.425 1086.28 1025.36 1040.08C1073.91 998.498 1125.76 962.81 1185.79 949.262C1241.22 936.742 1299.74 941.404 1352.74 963.847C1467.67 1012.52 1538.64 1145.26 1544.1 1283.27C1550.06 1433.98 1496.3 1596.3 1573.13 1734.2C1609.31 1799.12 1668.65 1831.26 1728.74 1859.08C1782.57 1883.99 1834.14 1909.72 1877.19 1955.78C1940.46 2023.48 1980.24 2118.11 1991.65 2216.74L1990.51 2312L1988.62 2311.98C1996.53 2205.96 1970.24 2097.08 1914.29 2011.6C1877.12 1954.81 1828.76 1913.88 1772.37 1885.67C1719.15 1859.05 1661.94 1839.28 1615.96 1797.03C1570.53 1755.28 1543.9 1694.33 1532.69 1629.42C1519.97 1555.68 1527.6 1481.16 1534.11 1407.09C1541.14 1327.04 1544.41 1246.92 1519.86 1170.18C1498.62 1103.78 1460.68 1043.39 1409.61 1003.46C1359.57 964.356 1298.05 946.117 1237.77 948.169C1173.34 950.363 1114.39 976.675 1061.12 1017.65C1008.83 1057.87 962.323 1107.42 908.498 1145.06C858.317 1180.15 802.878 1200.43 743.934 1197.68C637.406 1192.72 537.542 1122.72 469.569 1031.2C385.287 917.722 343.242 773.352 312.276 630.62C278.961 477.109 254.683 316.987 185.838 177.905C151.62 108.767 103.103 44.9948 44.5834 0.239502L52.7145 0.342194C74.262 17.1733 94.4168 36.4226 112.74 57.3527C209.294 167.612 251.697 322.782 283.841 471.029Z" fill="#82B93A"/>
</g>
<g style="mix-blend-mode:screen">
<path d="M1952.97 2311.49C1963.05 2208.32 1941.95 2101.56 1891.23 2014.83C1857.13 1956.53 1811.03 1912.31 1756.43 1881.39C1703.93 1851.67 1647.32 1829.8 1600.76 1787.85C1556.03 1747.56 1527.08 1690.24 1513.44 1627.18C1497.79 1554.86 1503.53 1481.02 1510.72 1407.78C1518.71 1326.39 1526.27 1244.65 1505.09 1164.99C1487.26 1097.95 1452.62 1035.08 1403.45 992.996C1355.76 952.174 1295.7 932.661 1236.56 932.898C1174.32 933.141 1116.25 956.491 1063.96 994.655C1011.61 1032.85 965.443 1081.23 912.5 1118.4C863.753 1152.63 810.1 1173.45 752.693 1171.98C647.084 1169.27 547.567 1101.02 479.13 1011.67C394.935 901.753 352.506 760.283 324.093 619.653C292.767 464.635 274.209 302.321 209.67 159.497C183.073 100.61 146.403 44.9808 101.8 0.96167L109.224 1.05544C120.093 11.8851 130.467 23.349 140.248 35.3199C233.177 149.079 269.816 305.914 298.073 454.65C327.359 608.785 350.729 766.539 419.558 905.289C478.484 1024.07 572.623 1124.88 690.739 1157.08C748.135 1172.72 808.036 1168.75 862.615 1142.06C923.463 1112.29 973.667 1061.2 1026.78 1017.15C1074.77 977.341 1126.1 944.208 1184.99 932.544C1238.75 921.89 1295.18 927.486 1346 950.382C1459.9 1001.69 1522.79 1138.42 1524.2 1274.97C1525.05 1356.42 1509.06 1436.69 1507.98 1518.05C1506.99 1592.5 1520.96 1669.97 1559.53 1730.96C1597.62 1791.17 1655.58 1822.93 1713.12 1852.4C1766.86 1879.92 1817.68 1909.51 1858.72 1959.23C1935.07 2051.75 1970.4 2185.15 1958.14 2311.57L1952.97 2311.5L1952.97 2311.49Z" fill="#7DB338"/>
</g>
<g style="mix-blend-mode:screen">
<path d="M1917.45 2311.04C1929.44 2212.07 1913.72 2109.22 1869.74 2022.05C1838.61 1960.33 1794.01 1911.57 1739.91 1877.12C1687.8 1843.95 1631.13 1819.68 1583.86 1777.13C1539.61 1737.31 1508.91 1682.19 1493.45 1620.18C1475.71 1549.02 1480.04 1475.77 1487.71 1403.14C1496.1 1323.74 1506.8 1243.92 1490.83 1164.82C1476.99 1096.24 1445.99 1029.85 1398.64 984.439C1353.72 941.365 1295.13 919.789 1237.06 917.912C1176.21 915.943 1118.35 936.38 1066.38 972.283C1012.59 1009.43 965.611 1058.16 911.705 1095.12C863.158 1128.4 809.905 1148.19 753.134 1145.99C646.974 1141.91 547.721 1071.59 479.979 980.762C398.238 871.158 357.886 731.67 332.634 592.292C304.879 439.103 290.894 278.952 231.449 136.272C211.335 87.9417 184.429 41.493 151.801 1.59326L158.808 1.68175C161.211 4.65109 163.593 7.65448 165.926 10.6915C254.184 125.489 286.022 280.182 310.319 427.027C335.581 579.727 355.602 735.426 421.654 873.352C479.16 993.434 572.545 1095.77 690.426 1130.04C746.898 1146.45 806.314 1143.9 860.618 1118.58C922.089 1089.92 972.759 1039.01 1026.57 995.716C1074.79 956.928 1126.4 925.617 1185.19 915.862C1239.34 906.882 1296.01 914.482 1345.96 940.398C1455.66 997.315 1507.37 1137.14 1504.12 1270.01C1502.15 1349.96 1485.84 1428.61 1485.48 1508.7C1485.13 1583.61 1501.81 1660.3 1541.71 1720.42C1581.49 1780.34 1640.06 1813.46 1697.53 1845.91C1748.56 1874.72 1796.49 1906.36 1834.47 1956.06C1907.49 2051.61 1937.72 2185.64 1922.65 2311.11L1917.46 2311.04L1917.45 2311.04Z" fill="#77AC35"/>
</g>
<g style="mix-blend-mode:screen">
<path d="M1882.02 2310.6C1896.21 2212.8 1884.38 2110.55 1844.06 2021.9C1815.4 1958.88 1772.91 1907.97 1720.3 1871.02C1668.3 1834.5 1611.22 1807.42 1563.45 1763.19C1520.82 1723.73 1489.52 1670.89 1472.96 1610.83C1453.87 1541.57 1456.74 1469.85 1464.63 1398.59C1473.33 1320.05 1486.81 1241.26 1475.17 1162.14C1465.21 1094.51 1439.14 1027.32 1395.93 979.236C1307.93 881.332 1168.73 884.652 1067.15 951.377C1012.61 987.203 965.224 1035.61 910.909 1071.86C862.784 1103.97 810.271 1122.69 754.411 1120.04C649.178 1115.06 550.793 1044.52 483.922 954.12C405.424 847.989 366.174 713.74 343.747 578.641C318.163 424.553 309.733 263.5 255.361 117.865C240.219 77.3282 220.466 37.8655 196.557 2.15845L203.146 2.24166C280.631 119.728 305.198 270.635 324.936 413.42C345.754 564.029 363.868 716.787 428.906 852.139C485.232 969.335 576.892 1068.58 691.463 1103.35C748.223 1120.58 808.023 1118.42 862.805 1093.09C923.813 1064.88 974.255 1014.64 1028.31 972.855C1076.26 935.779 1127.55 907.072 1185.46 899.432C1239.41 892.303 1295.34 901.883 1343.93 930.148C1451.98 993.026 1491.95 1139.43 1483.32 1270.72C1478.19 1348.92 1461.69 1426.14 1463.01 1504.88C1464.23 1578.55 1483.73 1651.98 1523.87 1709.89C1563.53 1767.09 1619.88 1801.37 1674.89 1835.31C1727.06 1867.49 1775.74 1902.48 1812.95 1956.56C1880.61 2054.9 1904.9 2187.62 1887.22 2310.66L1882.02 2310.6Z" fill="#72A633"/>
</g>
<g style="mix-blend-mode:screen">
<path d="M1846.67 2310.15C1862.78 2214.99 1855.23 2115.01 1820.04 2025.95C1794.61 1961.55 1754.89 1907.46 1704.22 1867.59C1654.63 1828.59 1599.56 1799.59 1551.85 1757.27C1508.65 1718.96 1474.48 1668.76 1455.08 1609.83C1433.4 1543.97 1432.95 1474.55 1440.22 1405.37C1448.42 1327.41 1465.3 1249.57 1459.72 1170.6C1454.91 1102.61 1434.89 1033.78 1396.74 980.893C1319.26 873.482 1179.05 865.318 1076.1 925.702C1020.11 958.548 972.254 1006.42 918.301 1043.1C869.256 1076.45 815.867 1096.82 758.553 1094.21C654.511 1089.47 556.958 1020.15 490.439 931.114C411.223 825.088 372.82 689.992 353.031 554C330.961 402.335 327.001 244.62 279.122 99.5018C268.134 66.1879 254.104 33.4074 237.233 2.64941L243.493 2.72848C305.596 118.053 323.389 258.572 338.291 391.289C355.188 541.791 370.71 694.117 435.274 829.131C491.195 946.081 583.883 1045.1 698.382 1078.41C755.428 1095.01 814.893 1091.74 869.457 1065.48C929.718 1036.47 979.856 986.755 1034.6 946.826C1083.42 911.226 1136.03 886.343 1194.16 882.583C1246.71 879.175 1300.37 892.055 1345.74 923.138C1393.16 955.62 1426.15 1009.21 1445.09 1068.13C1466.76 1135.51 1468.81 1206.37 1461.21 1277.14C1452.68 1356.58 1435.33 1436.48 1441.62 1516.98C1446.99 1585.75 1470.06 1651.54 1509.33 1703.82C1551.31 1759.7 1608.55 1794.48 1663.06 1831.41C1713.81 1865.78 1759.65 1904.68 1793.55 1961.02C1854.04 2061.55 1871.77 2190.91 1851.84 2310.2L1846.66 2310.14L1846.67 2310.15Z" fill="#6D9F30"/>
</g>
<g style="mix-blend-mode:screen">
<path d="M1811.38 2309.7C1829.62 2215.59 1825.71 2116.21 1794.2 2025.93C1771.29 1960.27 1733.69 1903.98 1684.59 1861.57C1635.35 1819.05 1579.78 1787.25 1531.37 1743.35C1488.53 1704.48 1453.37 1654.75 1433.24 1596.03C1411.15 1531.58 1410.16 1463.48 1417.62 1395.43C1425.83 1320.44 1443.28 1246.28 1442.15 1170.27C1441.09 1100.41 1424.53 1027.94 1387.77 971.516C1316.02 861.433 1177.53 849.586 1075.39 906.367C1018.88 937.799 970.599 985.037 916.26 1020.77C868.03 1052.49 815.584 1071.42 759.75 1068.28C655.851 1062.45 558.397 992.364 492.703 902.53C415.601 797.102 379.344 663.91 362.554 529.385C343.583 377.416 344.46 219.762 300.569 73.2874C293.449 49.5026 284.763 25.9496 274.594 3.15552L280.407 3.22892C329.956 116.977 341.584 249.573 352.333 374.93C365.064 523.378 378.507 673.128 441.651 806.18C496.843 922.492 589.589 1020.03 703.118 1052.89C760.562 1069.52 820.136 1065.42 874.837 1038.54C933.423 1009.76 982.673 961.815 1036.91 924.235C1085.51 890.565 1137.98 868.619 1195.02 867.03C1247.58 865.566 1301.71 881.093 1345.09 915.903C1387.39 949.841 1415.41 1002.16 1431.1 1057.97C1450.76 1127.87 1449.33 1200.37 1439.71 1272.32C1429.31 1349.97 1412.22 1428.8 1419.47 1507.83C1425.81 1576.96 1451.31 1641.76 1491.65 1693.27C1534.33 1747.75 1590.62 1783.62 1643.72 1822.69C1692.76 1858.77 1736.7 1899.5 1768.51 1956.44C1826.3 2059.86 1839.41 2190.63 1816.63 2309.78L1811.41 2309.72L1811.38 2309.7Z" fill="#67992E"/>
</g>
<g style="mix-blend-mode:screen">
<path d="M1776.19 2309.26C1796.21 2217.63 1796.09 2120.63 1769.66 2030.26C1749.85 1962.53 1714.46 1902.65 1666.69 1857.09C1619.28 1811.88 1564.82 1777.73 1516.27 1734.23C1473.55 1695.96 1436.67 1648.34 1414.49 1590.99C1390.62 1529.27 1387.07 1462.96 1393.81 1396.45C1401.28 1322.71 1419.79 1250.66 1423.4 1176.37C1426.72 1107.91 1416.48 1036.57 1386.32 976.781C1325.77 856.765 1188.79 831.66 1083.37 882.739C1025.27 910.892 976.095 957.557 921.734 993.454C873.041 1025.61 820.346 1045.42 763.833 1042.45C660.745 1037.03 563.254 967.484 498.09 878.32C421.36 773.343 386.453 640.556 372.436 506.272C356.812 356.667 361.966 202.578 325.035 56.7859C320.511 38.9119 315.121 21.0955 308.891 3.55444L314.415 3.6242C352.617 113.981 359.04 238.198 366.032 355.651C374.828 503.558 386.017 652.798 448.911 785.15C503.474 899.968 595.994 995.572 708.132 1027.42C766.482 1043.99 826.516 1038.89 881.68 1010.79C939.448 981.35 988.519 934.248 1043.52 899.092C1136.18 839.858 1262.23 828.551 1346.94 912.781C1384.86 950.484 1407.98 1004 1419.63 1059.47C1434.95 1132.43 1427.94 1206 1416.05 1278.93C1404.01 1352.72 1388.81 1428.89 1397.91 1504.23C1406.17 1572.57 1434.4 1634.68 1475.4 1684.45C1519.52 1738.01 1575.94 1774.86 1628.11 1816.74C1675.77 1855 1717.58 1898.92 1746.67 1957.56C1799.04 2063.14 1806.64 2192.32 1781.47 2309.31L1776.23 2309.25L1776.19 2309.26Z" fill="#62922C"/>
</g>
<g style="mix-blend-mode:screen">
<path d="M1741.1 2308.82C1762.86 2219.4 1766.27 2124.54 1744.57 2034.2C1728.28 1966.34 1696.59 1904.45 1651.99 1856.26C1605.4 1805.93 1549.63 1768.55 1499.36 1723.52C1457.46 1685.98 1419.98 1640.94 1396 1585.86C1369.64 1525.32 1364.14 1458.91 1370.56 1392.17C1377.73 1317.78 1397.65 1245.83 1404.19 1171.37C1410.05 1104.57 1404.04 1034.87 1378.44 973.937C1353.39 914.35 1309.46 872.649 1254.42 853.874C1200.39 835.443 1140.63 839.194 1087.84 861.696C1030.62 886.098 981.992 929.797 929.574 964.678C879.935 997.706 826.691 1019.34 768.86 1016.72C666.001 1012.04 567.869 942.853 503.024 853.704C427.759 750.232 394.23 619.544 382.769 487.134C369.822 337.608 380.032 184.349 348.588 37.4597C346.194 26.2797 343.472 15.1068 340.44 3.9873L345.774 4.05468C373.405 107.863 375.918 221.12 379.436 328.626C384.286 476.872 392.112 626.802 454.159 760.046C508.113 875.908 601.794 971.779 714.662 1002.48C773.656 1018.53 833.459 1011.89 888.743 982.917C946.12 952.856 995.386 906.123 1051.71 873.808C1142.31 821.833 1265.3 818.778 1341.7 904.676C1377.6 945.04 1397.66 1000.89 1406.18 1057.15C1417.23 1130.17 1406.81 1202.5 1393.67 1274.22C1380.14 1348 1365.05 1425.26 1376.57 1500.71C1386.85 1568.13 1417.62 1627.55 1459.17 1675.64C1504.09 1727.62 1559.64 1765.26 1610.22 1809.19C1656.61 1849.5 1696.56 1896.11 1723.32 1956.14C1771.43 2064.06 1774.17 2193.07 1746.33 2308.9L1741.09 2308.84L1741.1 2308.82Z" fill="#5D8C29"/>
</g>
<g style="mix-blend-mode:screen">
<path d="M1706.11 2308.37C1730.32 2218.27 1736.72 2122.21 1717.45 2029.75C1703.04 1960.61 1672.73 1897.15 1629.13 1846.84C1583.81 1794.55 1529 1754.98 1478.8 1709.48C1436.98 1671.58 1398.55 1627.06 1373.89 1572.15C1347.73 1513.92 1341.54 1449.84 1347.61 1385.14C1354.55 1311.05 1375.31 1239.97 1384.62 1166.38C1393.11 1099.17 1390.64 1028.49 1367.42 965.381C1345.39 905.466 1304.54 861.86 1250.91 841.182C1199.84 821.485 1143.05 822.952 1091.81 841.505C1031.25 863.44 980.2 909.133 925.164 944.015C877.55 974.176 826.664 993.408 771.928 990.864C670.006 986.123 572.012 917.815 507.918 829.111C434.209 727.111 402.059 598.407 393.143 467.961C382.871 317.771 398.075 164.77 371.877 16.266C371.178 12.289 370.429 8.32276 369.651 4.34473L374.866 4.41059C394.063 103.447 392.768 208.868 393.365 309.235C394.24 456.951 399.753 606.406 461.485 739.325C514.64 853.759 607.983 947.145 719.288 976.98C777.739 992.642 836.779 985.748 891.539 957.302C948.613 927.649 998.076 881.867 1055.07 852.054C1145.87 804.553 1269.61 807.911 1338.63 900.497C1370.5 943.258 1386.61 999.199 1391.95 1054.62C1399.02 1127.83 1385.27 1199.24 1371 1270.2C1356.19 1343.8 1341.51 1421.96 1355.56 1497.18C1368.11 1564.36 1401.92 1621.71 1444.68 1668.47C1490.76 1718.84 1545.55 1757.28 1594.55 1803.63C1640.85 1847.46 1679.22 1898.75 1703.11 1962.61C1743.75 2071.29 1741.15 2196.19 1711.33 2308.44L1706.11 2308.37Z" fill="#578527"/>
</g>
<g style="mix-blend-mode:screen">
<path d="M1671.18 2307.93C1697.04 2220.12 1706.76 2126.38 1692.19 2034.5C1680.98 1963.76 1653.63 1897.32 1611.87 1843.82C1570.19 1790.41 1518.43 1749 1469.3 1705.4C1427.77 1668.53 1388.02 1627.47 1360.2 1575.7C1330.37 1520.22 1319.36 1457.18 1323.56 1392.35C1328.29 1319.27 1348.6 1249.71 1361.72 1178.4C1374.13 1110.97 1378 1040.47 1360.88 973.716C1344.74 910.798 1309.5 859.567 1256.71 833.204C1206.28 808.026 1148.22 806.138 1095.35 822.189C1034.76 840.579 983.347 884.163 928.969 918.115C880.358 948.458 828.68 968.058 772.955 964.941C671.513 959.269 573.599 890.95 510.638 801.585C438.838 699.678 409.182 572.229 403.237 443.01C396.536 297.199 415.128 149.696 396.562 4.70752L401.717 4.77263C413.435 96.6925 409.399 192.496 407.422 284.186C404.264 430.398 406.261 579.191 465.756 711.945C517.292 826.908 609.368 919.602 719.915 950.445C778.2 966.711 837.261 960.561 892.261 932.804C950.747 903.284 1001.68 856.926 1061.1 829.556C1153.48 787.015 1276.98 800.216 1336.86 901.138C1364.48 947.688 1375.91 1005.1 1377.26 1060.9C1379.06 1134.55 1361.01 1205.05 1346.03 1275.91C1330.29 1350.3 1317.95 1429.77 1337.5 1504.71C1354.55 1570.09 1392.85 1623.59 1436.84 1667.83C1482.38 1713.61 1533.4 1751.59 1578.49 1798.04C1622.77 1843.66 1658.37 1896.98 1679.54 1961.37C1715.98 2072.18 1708.87 2196.58 1676.44 2308.02L1671.2 2307.96L1671.18 2307.93Z" fill="#527F24"/>
</g>
<g style="mix-blend-mode:screen">
<path d="M1636.32 2307.49C1664.01 2221.14 1676.89 2128.77 1666.25 2036.97C1658.08 1966.38 1634.39 1898.61 1595.73 1842.88C1557.51 1787.78 1508.31 1744.35 1460.12 1701.53C1417.51 1663.66 1374.94 1624.08 1344.05 1572.63C1313.24 1521.33 1298.42 1462.15 1300.05 1399.74C1303.77 1256.77 1375.55 1124.59 1351.09 979.459C1340.5 916.68 1312.38 860.118 1263.21 827.935C1215.25 796.544 1156.7 790.269 1103.07 802.446C1042.48 816.204 990.697 856.422 937.155 889.595C887.353 920.449 835.105 941.929 777.943 939.205C676.639 934.369 577.94 866.784 515.41 777.104C445.111 676.279 417.167 550.499 413.639 423.083C409.776 283.793 430.873 144.074 421.443 5.01042L426.569 5.07515C432.263 91.3383 425.606 179.824 421.46 264.934C414.42 409.416 413.883 557.079 472.033 689.027C522.577 803.714 614.451 895.057 724.381 925.012C784.129 941.285 843.754 933.758 899.764 904.858C957.135 875.267 1008.23 830.844 1068.12 807.494C1161.47 771.072 1280.69 794.26 1331.73 899.907C1356.79 951.799 1363.82 1013.7 1360.45 1072.33C1356.27 1145.25 1334.85 1214.21 1320 1284.73C1304.19 1359.84 1295.59 1439.76 1321.38 1513.18C1342.76 1574.06 1382.92 1622.28 1426.17 1663.59C1472.42 1707.76 1522.09 1746.95 1565 1795.65C1606.18 1842.42 1638.01 1897.21 1656.11 1960.81C1688.13 2073.38 1676.57 2197.14 1641.56 2307.56L1636.29 2307.49L1636.32 2307.49Z" fill="#4C7822"/>
</g>
<g style="mix-blend-mode:screen">
<path d="M1601.55 2307.05C1631.04 2222.09 1646.95 2131.1 1640.14 2039.51C1634.83 1967.99 1614.11 1898.17 1577.65 1839.77C1542.63 1783.68 1496.15 1738.59 1449.23 1696.23C1406.68 1657.83 1362.79 1620.16 1329.31 1570.64C1296.38 1521.92 1277.75 1464.44 1277.27 1402.4C1276.14 1258.12 1353.15 1127.84 1339.01 982.165C1333.12 921.481 1311.8 860.957 1267.72 824.274C1223.04 787.093 1165.29 775.797 1111.24 783.84C1049.2 793.074 995.93 830.917 941.517 863.713C892.026 893.542 840.619 915.467 784.064 913.517C682.824 910.043 583.146 843.543 520.878 753.627C451.839 653.938 425.331 529.594 424.122 403.889C422.843 270.737 445.983 138.295 444.484 5.27818L449.559 5.34229C450.24 84.6807 441.73 165.058 435.781 242.769C424.79 386.377 421.266 534.083 478.409 666.213C528.704 782.498 622.903 874.167 734.663 901.057C793.877 915.299 851.773 905.887 906.764 877.238C962.747 848.063 1013.88 806.248 1073.56 786.955C1169.22 756.017 1284.29 789.57 1326.05 901.368C1346.69 956.646 1349.2 1019.35 1341.93 1078.38C1333.02 1150.7 1309.23 1218.84 1294.71 1289.66C1279.65 1363.11 1274.43 1440.56 1302.74 1510.64C1327.33 1571.52 1371.1 1618.02 1415.92 1659.24C1462.12 1701.71 1509.84 1742.04 1550.07 1792.3C1589.64 1841.73 1618.71 1899.7 1633.83 1964.87C1660.05 2077.86 1643.9 2199.12 1606.84 2307.11L1601.55 2307.04L1601.55 2307.05Z" fill="#477220"/>
</g>
<g style="mix-blend-mode:screen">
<path d="M1566.87 2306.62C1597.35 2224.98 1615.87 2137.7 1614 2048.47C1612.52 1977.99 1596.6 1907.88 1565.05 1847.3C1533.74 1787.19 1488.72 1738.2 1441.81 1694.38C1398.49 1653.91 1352.06 1617.13 1315.22 1568.32C1280.28 1522.04 1257.68 1466.25 1254.95 1404.42C1248.7 1262.74 1325.21 1137.69 1325.61 996.942C1325.78 936.403 1312.3 872.113 1274.85 827.578C1236.14 781.54 1177.7 763.534 1123.27 766.278C1060.12 769.46 1005.21 803.348 950.036 835.632C899.152 865.408 847.066 889.223 789.161 887.783C687.929 885.269 587.453 819.811 525.64 729.294C456.686 628.315 432.595 502.458 434.72 375.982C436.796 251.862 460.484 129.33 465.722 5.5579L470.788 5.62188C467.42 79.7288 457.11 154.16 449.653 226.442C435.044 368.061 429.524 514.495 485.704 645.572C535.987 762.886 632.299 853.507 745.393 877.041C806.963 889.849 865.259 876.153 921.457 845.677C975.36 816.454 1026.78 778.565 1086.13 765.683C1135.13 755.038 1187.92 760.004 1232.78 785.924C1277.11 811.539 1306.83 856.274 1320.53 910.767C1354.72 1046.71 1290.93 1173.39 1267.67 1303.65C1254.84 1375.54 1255.6 1449.11 1287.55 1514.32C1316.23 1572.82 1362.74 1616.21 1408.09 1656.81C1454.74 1698.57 1501.14 1741.42 1538.57 1794.51C1574.5 1845.47 1599.43 1904.8 1611.07 1969.19C1631.54 2082.39 1611.24 2200.96 1572.15 2306.67L1566.86 2306.6L1566.87 2306.62Z" fill="#426C1D"/>
</g>
<g style="mix-blend-mode:screen">
<path d="M1532.27 2306.18C1563.56 2228 1584.44 2144.53 1587.05 2058.18C1589.25 1985.3 1576.81 1911.97 1547.26 1847.26C1520.09 1787.77 1479.65 1737.8 1435.64 1694.32C1354.82 1614.49 1247.83 1546.41 1233.64 1412.03C1218.54 1269.08 1298.44 1143.7 1309.48 1004.65C1314.35 943.189 1306.42 875.618 1272.92 825.564C1239.5 775.614 1184.26 752.49 1130.78 750.752C1009.48 746.795 917.29 862.756 796.387 862.064C694.306 861.484 592.077 796.907 530.321 704.973C462.111 603.408 440.363 477.168 445.531 350.972C450.288 234.902 474.498 121.101 485.169 5.81515L490.245 5.87926C483.891 71.6918 472.93 137.355 464.456 201.425C445.758 342.844 436.611 490.398 492 622.723C541.486 740.942 638.379 830.392 751.993 852.08C812.841 863.701 869.972 849.247 925.558 819.953C980.202 791.174 1033.17 755.465 1093.85 747.175C1142.19 740.569 1193.21 749.379 1234.97 779.147C1277.02 809.137 1301.72 858.885 1310.92 914.065C1334.2 1053.6 1262.93 1177.3 1242.3 1310.45C1230.83 1384.49 1237.6 1458.12 1275.6 1520.77C1308.95 1575.76 1357.14 1615.69 1402.62 1656.33C1447.9 1696.77 1491.17 1741.41 1524.8 1795.21C1558.86 1849.71 1580.58 1912.8 1588.58 1979.37C1601.97 2090.81 1577.9 2204.5 1537.56 2306.26L1532.26 2306.19L1532.27 2306.18Z" fill="#3C651B"/>
</g>
<g style="mix-blend-mode:screen">
<path d="M1497.76 2305.74C1530.37 2229.42 1553.58 2148.01 1559.69 2062.98C1564.95 1989.64 1555.92 1915.17 1529.34 1848.01C1505.39 1787.49 1468.01 1735.58 1425.54 1691.07C1345.74 1607.45 1230.44 1544.26 1211.93 1408.61C1192.48 1266.03 1274.06 1140.9 1292.5 1004.6C1300.52 945.256 1297.31 880.226 1270.72 827.309C1242.02 770.19 1187.03 740.724 1131.35 735.926C1010.4 725.502 916.089 838.417 796.1 836.249C694.631 834.408 593.484 770.92 533.292 678.022C466.69 575.231 448.28 448.713 456.856 323.017C464.142 216.024 488.258 111.749 503.074 6.0296L508.1 6.09308C499.653 64.6061 488.275 122.75 479.12 179.779C456.863 318.294 444.503 464.024 496.704 595.68C543.94 714.808 638.915 803.228 751.88 825.799C813.348 838.08 870.942 824.009 927.593 795.506C982.833 767.706 1036.87 734.573 1098.18 730.201C1146.42 726.762 1196.97 739.202 1235.85 773.383C1274.5 807.344 1294.15 860.299 1299.48 914.915C1313.14 1054.82 1237.58 1174.98 1218.49 1308.84C1207.82 1383.73 1218.17 1456.57 1259.19 1517.21C1295.02 1570.16 1344.2 1608.07 1389.64 1649.06C1434.69 1689.71 1476.4 1736.22 1507.83 1791.63C1540.5 1849.22 1559.78 1915.69 1564.75 1984.26C1572.79 2095.31 1545.3 2206.15 1503.12 2305.81L1497.8 2305.74L1497.76 2305.74Z" fill="#375F18"/>
</g>
<g style="mix-blend-mode:screen">
<path d="M1463.33 2305.31C1497.81 2229.48 1523.51 2148.56 1532.47 2063.39C1540.09 1991.11 1534.12 1917.17 1511.05 1849.18C1489.89 1786.79 1454.84 1732.14 1413.11 1685.96C1337.04 1601.76 1220.89 1544.95 1192.74 1417.05C1161.72 1276.12 1244.58 1146.5 1272.44 1015.03C1285.36 954.098 1287.83 886.384 1265.43 827.985C1241.89 766.621 1190.57 730.819 1134.03 722.008C1071.02 712.19 1012.91 736.523 955.737 764.493C902.98 790.301 850.66 812.797 792.509 810.313C690.384 805.947 590.649 741.711 532.828 645.389C470.244 541.128 456.647 415.895 468.843 292.143C478.375 195.38 501.85 101.365 519.435 6.24765L524.262 6.30861C515.823 50.9501 506.134 95.2214 497.598 138.798C470.359 277.776 450.528 426.43 499.108 562.1C542.487 683.238 633.313 772.372 745.621 798.285C807.771 812.622 866.712 800.718 924.952 773.402C980.189 747.488 1034.27 716.575 1095.01 714.265C1143.76 712.411 1194.6 727.348 1231.74 765.017C1268.41 802.201 1284.31 857.968 1286.63 912.934C1292.7 1056.46 1208.74 1176.51 1193.68 1315.67C1185.63 1390.06 1201.77 1459.28 1244.87 1515.75C1283.34 1566.14 1333.42 1601.95 1378.48 1643.67C1421.94 1683.9 1461.02 1731.12 1489.68 1786.46C1520.59 1846.13 1537.41 1914.2 1540.19 1983.6C1544.67 2095.72 1513.4 2206.24 1468.71 2305.41L1463.33 2305.34L1463.33 2305.31Z" fill="#315816"/>
</g>
<g style="mix-blend-mode:screen">
<path d="M1429.01 2304.87C1464.72 2230.82 1492.49 2151.91 1504.63 2068.23C1514.69 1998.94 1512.67 1927.78 1495.02 1860.38C1478.11 1795.78 1446.8 1737.55 1406.79 1688.6C1365.97 1638.63 1315.92 1602.21 1269.49 1559.92C1229.91 1523.91 1193.14 1481.7 1175.54 1426.03C1132.2 1289.02 1212.94 1154.44 1249.12 1028.95C1266.92 967.211 1275.92 899.442 1260.11 835.866C1244.06 771.348 1200.45 726.873 1144.32 710.931C1022.14 676.225 919.848 787.323 799.695 784.697C697.016 782.451 596.559 720.435 538.799 623.074C475.762 516.817 465.192 388.969 481.044 264.131C492.157 176.616 514.834 91.889 534.215 6.41134L539.012 6.47193C530.674 42.6523 521.833 78.5175 513.793 113.97C482.389 252.357 458.377 401.943 505.684 539.174C525.932 597.913 557.472 652.185 599.777 692.79C643.213 734.496 698.476 762.811 754.144 773.989C817.091 786.632 875.436 772.147 934.292 745.777C989.104 721.219 1043.94 695.346 1103.88 698.699C1152.96 701.446 1203.23 722.745 1235.03 767.392C1266.02 810.896 1275.3 869.576 1272.63 924.605C1265.66 1068.58 1175.33 1186.75 1169.05 1331.1C1165.82 1405.42 1191.28 1469.34 1237.07 1520.35C1279.15 1567.22 1330.29 1601.35 1374.46 1645.34C1462.08 1732.59 1515.95 1852.58 1515.7 1987.53C1515.5 2099.2 1481.03 2207.49 1434.43 2304.93L1429.01 2304.86L1429.01 2304.87Z" fill="#2C5213"/>
</g>
<g style="mix-blend-mode:screen">
<path d="M1394.76 2304.44C1431.62 2232.13 1461.32 2155.19 1476.47 2073.05C1502.15 1933.83 1475.34 1790.51 1392.93 1683.13C1353.7 1632 1304.62 1595.48 1257.48 1555.1C1217.49 1520.84 1178.58 1481.71 1157.73 1428.33C1106.08 1296.06 1182.67 1159.15 1224.65 1039.09C1246.01 978.017 1260.71 912.253 1252.04 846.193C1243.18 778.622 1207.5 724.412 1150.98 701.341C1089.85 676.382 1026.35 691.27 966.86 715.152C911.368 737.425 857.733 760.946 798.024 758.888C696.575 755.388 598.919 695.432 543.034 597.843C481.192 489.84 474.181 360.768 493.693 236.147C505.918 158.001 527.469 82.4771 547.611 6.5808L552.368 6.64088C544.928 34.3701 537.382 61.8921 530.335 89.1918C495.332 224.778 467.029 372.788 510.342 510.141C528.485 567.675 557.525 621.195 597.127 662.303C639.786 706.584 695.429 735.533 751.745 747.52C816.291 761.257 876.009 746.825 936.961 721.59C992.531 698.585 1048.87 676.139 1108.74 684.443C1157.12 691.149 1204.22 717.2 1231.42 765.105C1258.99 813.678 1263.53 875.614 1256.48 931.937C1238.72 1073.55 1145.13 1190.07 1146.03 1336.6C1146.48 1411.6 1178.58 1472.12 1226.7 1519.9C1269.09 1562 1318.09 1594.33 1359.95 1637.21C1448.31 1727.73 1496.97 1855.94 1490.83 1992.7C1485.86 2103.39 1448.52 2209.05 1400.22 2304.49L1394.76 2304.42L1394.76 2304.44Z" fill="#274B11"/>
</g>
<g style="mix-blend-mode:screen">
<path d="M1360.55 2304.01C1397.82 2234.64 1428.87 2161.06 1447.03 2082.07C1478.58 1944.92 1461.24 1797.28 1383.69 1684.7C1346.77 1631.09 1299.11 1593.03 1250.93 1554.18C1210.36 1521.46 1169.15 1486.12 1143.69 1436.05C1079.02 1308.91 1151.21 1166.39 1198.3 1049.4C1222.67 988.872 1242.84 924.721 1240.97 857.123C1239.08 788.885 1212.6 725.745 1158.01 694.511C1040.84 627.47 926.025 733.756 807.557 733.369C705.224 733.026 606.207 676.221 549.929 577.322C488.603 469.521 483.254 340.401 505.181 216.92C517.928 145.104 538.855 75.9536 559.633 6.75526L564.391 6.81535C557.985 27.9935 551.62 49.0578 545.586 70.012C506.925 204.34 475.577 352.22 518.007 490.248C535.557 547.339 564.164 600.534 603.473 641.078C646.637 685.583 703.214 713.114 760.216 723.405C823.764 734.889 882.253 719.16 942.487 696.604C998.871 675.485 1056.83 657.554 1116.12 672.117C1163.89 683.847 1206.53 716.143 1228.07 767.635C1249.62 819.151 1249.69 880.402 1239.14 935.378C1211.78 1077.91 1108.78 1200.47 1124.75 1353.66C1139.8 1498.07 1273.28 1548.56 1353.14 1637.62C1437.33 1731.5 1477.26 1864.6 1465.44 1998.72C1455.81 2108 1415.91 2210.8 1366.09 2304.09L1360.54 2304.02L1360.55 2304.01Z" fill="#21450F"/>
</g>
<g style="mix-blend-mode:screen">
<path d="M1326.46 2303.58C1365.45 2234.65 1398.61 2161.55 1419.21 2082.66C1454.9 1946 1443.42 1794.66 1368.26 1678.26C1332.89 1623.47 1286.09 1584.84 1237.46 1547.1C1196.15 1515.05 1153.24 1481.54 1125.49 1432.75C1054.89 1308.66 1124.53 1164.18 1174.96 1049.25C1202.06 987.491 1226.41 922.558 1227.7 852.359C1228.94 784.549 1206.88 718.034 1153.96 683.173C1099.97 647.601 1035.35 652.068 976.952 668.838C916.333 686.244 858.885 710.54 795.467 707.372C693.201 702.261 600.02 643.517 548.344 541.04C492.527 430.357 493.92 301.803 520.211 180.493C533.056 121.235 551.362 63.9442 570.302 6.9017L575.129 6.96266C571.618 17.5193 568.147 28.0535 564.756 38.5544C522.503 169.498 485.565 314.563 520.901 453.141C535.95 512.145 562.914 567.846 601.287 610.883C642.844 657.483 698.217 685.731 755.11 696.833C818.935 709.292 878.43 695.212 939.762 674.83C996.407 656.002 1054.87 640.879 1113.23 658.38C1162.64 673.196 1203.58 711.326 1221.23 767.218C1238.53 822.019 1234.58 883.814 1220.4 938.995C1184.72 1077.76 1078.29 1204.28 1104.13 1358.19C1127.38 1496.61 1264.08 1541.99 1340.71 1632.55C1422.41 1729.07 1456.16 1866.14 1440.32 1998.87C1427.2 2108.75 1384.24 2210.84 1332.06 2303.67L1326.44 2303.6L1326.46 2303.58Z" fill="#1C3E0C"/>
</g>
<g style="mix-blend-mode:screen">
<path d="M1292.47 2303.15C1332.43 2235.86 1367.13 2164.66 1390.16 2087.46C1430.92 1950.77 1426.41 1795.07 1353.8 1673.62C1319.45 1616.17 1272.38 1576.09 1222.25 1538.47C1180.27 1506.96 1135.94 1474.97 1106.39 1427.19C1035.39 1312.37 1092.66 1172.18 1144.07 1063.68C1173.51 1001.53 1203.98 937.61 1212.27 866.47C1219.86 801.336 1209.28 729.088 1163.85 684.636C1060.76 583.763 924.991 682.191 809.566 682.117C756.113 682.082 701.537 667.899 654.807 637.633C612.869 610.481 579.249 568.636 555.425 520.819C500.236 410.065 503.392 281.395 532.089 161.213C544.686 108.448 561.742 57.4994 579.857 6.99921L584.793 7.06156C583.001 12.0592 581.219 17.057 579.467 22.0437C533.835 151.675 494.361 296.536 529.392 435.683C544.119 494.168 570.83 549.386 609.173 591.633C652.134 638.96 709.502 665.209 768.07 673.599C798.944 678.026 830.326 677.462 861.126 672.247C893.064 666.841 924.029 656.208 955.406 647.753C1011.53 632.635 1071.41 625.226 1125.9 651.61C1231.71 702.852 1233.4 847.193 1196.54 954.052C1152.03 1083.08 1048.86 1213.21 1084.39 1361.84C1099.97 1427.04 1144.53 1471.5 1191.25 1508.21C1237.65 1544.66 1286.8 1576.77 1325.57 1624.41C1407.03 1724.49 1435.4 1867.7 1414.86 2001.28C1398.02 2110.85 1352.35 2211.47 1298.16 2303.22L1292.48 2303.15L1292.47 2303.15Z" fill="#17380A"/>
</g>
<g style="mix-blend-mode:screen">
<path d="M1258.56 2302.72C1299.87 2236.34 1336.34 2166.19 1361.62 2089.77C1405.94 1955.88 1408.4 1800.8 1342.51 1675.66C1310.65 1615.15 1264.89 1572.16 1213.66 1534.56C1170.11 1502.6 1123.21 1472.32 1090.2 1425.45C1012.04 1314.47 1065.4 1171.49 1119.17 1063.33C1150.79 999.709 1185.45 935.248 1197.16 862.15C1207.23 799.301 1201.37 727.948 1161.85 679.544C1118.5 626.461 1050.65 616.901 990.755 625.145C929.546 633.566 870.94 656.578 808.797 656.605C755.403 656.629 700.236 643.558 654.102 611.802C613.171 583.633 580.935 540.925 558.649 492.705C506.287 379.425 514.261 249.924 546.958 130.639C558.523 88.4611 572.89 47.5425 588.307 7.10595L593.352 7.16967C545.897 131.998 505.179 271.022 535.18 407.052C548.255 466.329 573.676 522.845 611.379 566.263C652.626 613.75 707.509 639.659 764.954 647.955C829.96 657.353 890.668 640.028 954.052 626.202C1008.97 614.225 1068.05 610.065 1119.88 638.269C1225.63 695.8 1218.26 845.492 1177.08 950.993C1150.43 1019.28 1112.04 1080.55 1085.51 1148.89C1059.42 1216.09 1042.86 1296.57 1066.44 1367.74C1086.8 1429.17 1133.55 1469.07 1179.89 1503.39C1228.3 1539.22 1277.95 1572.56 1315.76 1623.6C1393.14 1728.05 1414.07 1874.96 1388.54 2007.02C1367.65 2115 1319.88 2212.99 1264.28 2302.81L1258.54 2302.73L1258.56 2302.72Z" fill="#113107"/>
</g>
<g style="mix-blend-mode:screen">
<path d="M1224.72 2302.29C1266.9 2237.52 1304.71 2169.2 1332.11 2094.52C1380.47 1962.79 1389.95 1808.01 1330.7 1678.76C1302.05 1616.26 1258.95 1569.88 1207.64 1532.25C1163.89 1500.15 1116.29 1472.44 1079.6 1429.38C992.062 1326.63 1033.14 1182.59 1088.5 1073.37C1121.06 1009.12 1159.48 946.539 1177.78 874.394C1193.76 811.344 1195.25 736.104 1161.51 680.203C1125.7 620.869 1060.71 602.757 1001.1 605C937.963 607.382 876.906 629.768 813.602 631.153C759.547 632.334 703.5 621.3 656.881 588.462C616.56 560.061 585.224 516.999 563.974 468.735C513.431 353.956 524.835 224.018 560.745 105.734C570.943 72.1506 582.932 39.4585 595.811 7.20085L600.956 7.26583C554.167 124.68 516.498 254.366 542.248 383.012C554.08 442.136 578.284 498.9 615.106 542.661C655.991 591.241 710.493 616.677 768.502 623.55C833.578 631.268 895.3 613.236 959.3 603.615C1013.53 595.46 1072.05 596.588 1120.43 629.356C1166.57 660.598 1190.35 716.785 1193.08 777.177C1195.94 840.43 1178.31 900.805 1153.32 956.388C1122.49 1024.96 1081.24 1087.35 1055.95 1159.18C1031.7 1228.01 1020.4 1309.45 1052.02 1377.58C1078.35 1434.29 1127.46 1469.22 1173.72 1501.67C1223.08 1536.3 1271.25 1571.41 1306.71 1625.13C1377.62 1732.56 1391.62 1879.13 1362.99 2007.73C1338.89 2115.92 1288.35 2213.12 1230.54 2302.37L1224.7 2302.29L1224.72 2302.29Z" fill="#0C2B05"/>
</g>
<g style="mix-blend-mode:screen">
<path d="M1190.98 2301.87C1234.76 2237.5 1274.44 2169.67 1303.96 2095.19C1356.5 1962.64 1370.81 1804.16 1313.18 1670.58C1285.6 1606.65 1242.8 1559.23 1190.66 1521.79C1146.75 1490.26 1098.92 1463.88 1061.11 1422.45C1022.39 1380.04 1002.88 1323.61 1005.29 1261.99C1007.95 1194.09 1032.73 1130.83 1062.51 1073.2C1096.43 1007.57 1137.84 945.363 1160.14 872.719C1179.07 811.033 1184.42 737.066 1156.58 677.854C1126.1 613.006 1062.54 588.657 1001.9 586.542C937.534 584.3 874.503 604.339 810.251 605.998C756.741 607.381 701.948 597.14 656.52 562.979C617.257 533.448 587.426 489.444 567.763 440.777C520.503 323.752 536.586 193.748 576.193 76.7802C584.18 53.1976 593.048 30.0836 602.459 7.27376L607.655 7.33937C562.742 116.006 528.488 234.803 548.681 354.55C558.662 413.731 581.006 471.146 616.342 515.997C655.325 565.469 707.622 592.145 765.058 598.68C830.744 606.143 894.399 587.963 959.506 582.336C1013.32 577.675 1071.9 582.783 1117.41 619.426C1160.39 654.036 1180.03 711.337 1180.52 770.443C1181.06 836.995 1159.39 898.954 1131.12 955.959C1097.7 1023.33 1055.3 1085.51 1030.61 1158.23C1007.45 1226.5 998.612 1306.72 1032.21 1372.46C1060.35 1427.5 1110.21 1460.53 1156.68 1491.93C1206.71 1525.74 1254.95 1560.88 1289.77 1615.59C1360.32 1726.43 1370 1877.88 1337.65 2007.43C1310.48 2116.21 1257.11 2212.96 1196.9 2301.94L1190.98 2301.87Z" fill="#062402"/>
</g>
<g style="mix-blend-mode:screen">
<path d="M1157.34 2301.44C1206.53 2232.08 1251.24 2158.76 1283.53 2077.09C1332.22 1953.91 1347.36 1808.31 1302.56 1680.67C1281.27 1620.01 1246.3 1568.39 1199.74 1530.85C1155.92 1495.53 1106.23 1470.95 1063.12 1434.38C1021.9 1399.42 990.896 1352.38 984.009 1292.6C976.318 1225.91 995.628 1158 1022.91 1099.84C1081.15 975.684 1194.4 849.914 1156.04 695.459C1138.18 623.542 1083.81 583.322 1022.23 571.589C962.876 560.273 903.594 572.344 844.345 578.434C788.394 584.189 730.087 583.921 679.109 553.476C635.525 527.446 602.071 483.351 580.146 433.305C528.099 314.494 544.784 179.9 587.534 60.7075C594.011 42.6522 601.023 24.901 608.41 7.37182L613.695 7.43857C569.272 112.647 537.351 227.813 558.382 344.106C569.471 405.405 594.182 464.725 633.451 508.62C679.576 560.183 740.276 577.543 803.326 575.8C907.28 572.928 1043.99 523.251 1126.73 624.141C1165.5 671.414 1173.34 740.002 1164.2 802.086C1153.74 873.187 1120.53 935.035 1086.42 994.23C1050.36 1056.82 1012.18 1119.26 995.487 1192.93C978.691 1267.08 987.8 1344.15 1035.65 1400.07C1073.71 1444.54 1124.41 1470.94 1170.37 1502.56C1216.84 1534.52 1256.96 1573.65 1285.07 1627.62C1341.71 1736.35 1345.86 1875.52 1315.43 1995.35C1286.47 2109.4 1228.26 2209.65 1163.37 2301.53L1157.34 2301.46L1157.34 2301.44Z" fill="#011E00"/>
</g>
</svg>
