<svg width="1719" height="2065" viewBox="0 0 1719 2065" fill="none" xmlns="http://www.w3.org/2000/svg">
<g style="mix-blend-mode:screen">
<path d="M1498.14 461.589C1462.23 603.121 1435.9 750.961 1373.13 879.785C1317.15 994.69 1225.68 1091.6 1112.73 1108.76C1058.5 1117 1005.89 1102.44 958.663 1069.48C909.975 1035.49 869.027 988.129 823.877 948.096C780.481 909.623 733.134 880.385 679.315 871.732C626.446 863.23 571.44 872.968 523.348 900.847C477.192 927.606 438.27 970.787 411.003 1023C381.208 1080.07 368.448 1144.74 368.369 1211.93C368.286 1287.62 381.231 1362.83 377.32 1438.58C373.777 1507.2 356.4 1578.53 309.76 1622.21C268.533 1660.81 215.605 1673.14 167.493 1693.97C123.99 1712.8 85.0401 1741.72 52.7224 1781.8C41.4487 1795.78 31.0682 1810.84 21.6717 1826.77L21.7695 1835.33C22.8238 1833.47 23.8867 1831.61 24.9667 1829.78C51.7189 1784.4 86.6718 1745.9 127.621 1719.99C173.186 1691.14 224.825 1680.98 271.459 1655.25C317.68 1629.74 351.24 1587.21 367.671 1528.71C385.306 1465.9 383.446 1398.82 378.906 1333.59C373.767 1259.67 365.999 1183.94 382.837 1111.37C397.776 1046.94 429.73 988.366 472.473 945.962C561.022 858.112 687.899 852.099 785.314 922.725C875.856 988.365 946.356 1101.95 1058.09 1114.83C1157.16 1126.25 1254.62 1063.5 1319.82 976.984C1398.22 872.946 1436.44 734.631 1468.55 602.005C1502.64 461.141 1532.09 314.158 1601.07 191.043C1626.45 145.734 1658.53 104.075 1695.45 70.7776L1695.38 64.7012C1684.27 74.3986 1673.63 84.8049 1663.54 95.7757C1576.1 190.874 1531.86 328.706 1498.14 461.589Z" fill="#8DC63F"/>
</g>
<g style="mix-blend-mode:screen">
<path d="M1487.61 440.228C1455.73 578.459 1432 721.607 1372.98 847.766C1322.27 956.187 1242.7 1048.05 1140.43 1078.67C1091.29 1093.38 1039.43 1091.02 992.233 1067.84C938.729 1041.55 894.955 994.465 849.739 952.329C808.212 913.627 764.13 878.769 712.502 864.04C664.775 850.424 613.95 852.6 567.279 870.603C467.882 908.936 398.183 1021.82 387.934 1146.17C376.741 1281.98 426.699 1429.31 365.471 1555.64C336.413 1615.6 285.811 1643.88 233.858 1666.63C185.293 1687.89 138.573 1709.04 99.1338 1750.74C66.6407 1785.12 40.6216 1827.94 22.2248 1875.21L22.3587 1886.92C34.0333 1854.68 49.2779 1824.3 67.81 1797.01C102.259 1746.27 146.08 1711.59 196.536 1688.33C242.275 1667.25 291.562 1651.37 330.127 1613.21C368.114 1575.64 388.432 1520.15 396.429 1462.57C405.897 1394.35 397.889 1325.73 393.136 1257.44C387.979 1183.42 389.344 1110.2 415.714 1041.74C437.929 984.039 473.831 933.688 519.494 901.541C564.526 869.843 617.932 856.428 669.826 861.123C724.018 866.033 772.681 891.852 816.927 929.17C861.345 966.649 901.192 1011.8 947.587 1045.91C989.609 1076.81 1036.11 1094.64 1085.47 1092.93C1177.02 1089.74 1263.56 1027.22 1322.13 944.882C1394.59 843.016 1431.13 712.885 1459.88 585.186C1490.99 447.027 1515.66 302.998 1578.17 179.366C1607.51 121.329 1647.53 68.155 1694.98 29.6522L1694.92 24.0762C1676.03 38.9122 1658.31 55.9288 1642.15 74.4876C1558.05 170.992 1518.03 308.309 1487.61 440.228Z" fill="#88C03D"/>
</g>
<g style="mix-blend-mode:screen">
<path d="M1476.49 420.703C1448.06 558.377 1426.51 700.107 1368.37 825.193C1318.28 932.972 1238.91 1024.74 1137.51 1055.42C1088.07 1070.38 1036.03 1067.87 988.626 1044.2C935.193 1017.51 891.468 970.223 845.576 928.964C804.27 891.821 760.154 859.946 709.081 847.845C661.916 836.663 612.122 840.827 567.032 860.872C469.244 904.342 408.858 1022.9 404.212 1146.17C399.145 1280.78 444.884 1425.76 379.513 1548.93C348.729 1606.91 298.242 1635.62 247.118 1660.46C201.317 1682.71 157.438 1705.69 120.813 1746.83C66.9791 1807.31 33.1283 1891.83 23.4218 1979.92L24.3944 2065L26.0033 2064.98C19.2719 1970.29 41.6369 1873.04 89.242 1796.69C120.871 1745.97 162.011 1709.41 209.998 1684.21C255.273 1660.43 303.956 1642.78 343.076 1605.04C381.727 1567.75 404.386 1513.32 413.92 1455.34C424.745 1389.48 418.25 1322.92 412.717 1256.76C406.734 1185.26 403.951 1113.71 424.84 1045.16C442.913 985.852 475.191 931.913 518.645 896.252C561.219 861.327 613.567 845.036 664.853 846.869C719.671 848.829 769.832 872.33 815.154 908.929C859.639 944.854 899.213 989.108 945.009 1022.73C987.705 1054.07 1034.87 1072.18 1085.03 1069.73C1175.66 1065.3 1260.63 1002.77 1318.47 921.029C1390.18 819.674 1425.95 690.728 1452.3 563.244C1480.64 426.133 1501.3 283.118 1559.88 158.894C1588.99 97.1424 1630.27 40.183 1680.06 0.208984L1673.14 0.300706C1654.81 15.3337 1637.66 32.5266 1622.07 51.2207C1539.92 149.701 1503.84 288.293 1476.49 420.703Z" fill="#82B93A"/>
</g>
<g style="mix-blend-mode:screen">
<path d="M56.3374 2064.54C47.7549 1972.39 65.7122 1877.04 108.867 1799.58C137.88 1747.5 177.098 1708.01 223.558 1680.39C268.226 1653.85 316.396 1634.31 356.01 1596.84C394.066 1560.86 418.694 1509.66 430.305 1453.34C443.617 1388.75 438.738 1322.8 432.621 1257.38C425.819 1184.68 419.386 1111.67 437.409 1040.53C452.578 980.647 482.053 924.498 523.885 886.907C564.459 850.446 615.567 833.018 665.885 833.229C718.837 833.446 768.248 854.302 812.737 888.389C857.277 922.506 896.56 965.711 941.606 998.912C983.082 1029.48 1028.73 1048.08 1077.58 1046.77C1167.43 1044.35 1252.11 983.387 1310.33 903.589C1381.97 805.411 1418.07 679.055 1442.25 553.449C1468.9 414.991 1484.69 270.018 1539.6 142.452C1562.23 89.8562 1593.43 40.17 1631.38 0.853516L1625.06 0.937266C1615.82 10.61 1606.99 20.8491 1598.67 31.5412C1519.6 133.147 1488.43 273.227 1464.38 406.073C1439.47 543.741 1419.58 684.642 1361.02 808.569C1310.88 914.664 1230.79 1004.7 1130.29 1033.46C1081.45 1047.43 1030.49 1043.88 984.05 1020.04C932.278 993.459 889.563 947.827 844.37 908.479C803.54 872.924 759.865 843.331 709.76 832.913C664.019 823.397 616.005 828.395 572.766 848.845C475.86 894.673 422.35 1016.8 421.144 1138.76C420.426 1211.5 434.034 1283.2 434.95 1355.87C435.794 1422.36 423.907 1491.56 391.085 1546.03C358.678 1599.81 309.364 1628.18 260.408 1654.5C214.684 1679.08 171.446 1705.51 136.527 1749.92C71.564 1832.56 41.5052 1951.7 51.9343 2064.61L56.3376 2064.55L56.3374 2064.54Z" fill="#7DB338"/>
</g>
<g style="mix-blend-mode:screen">
<path d="M86.5579 2064.14C76.3497 1975.74 89.7312 1883.89 127.147 1806.03C153.636 1750.9 191.58 1707.34 237.614 1676.58C281.95 1646.96 330.163 1625.28 370.39 1587.27C408.035 1551.7 434.159 1502.47 447.314 1447.09C462.408 1383.53 458.721 1318.11 452.195 1253.23C445.058 1182.32 435.951 1111.03 449.542 1040.38C461.316 979.122 487.689 919.827 527.979 879.264C566.193 840.792 616.052 821.521 665.459 819.845C717.228 818.086 766.457 836.339 810.677 868.407C856.443 901.589 896.415 945.112 942.281 978.118C983.587 1007.85 1028.9 1025.52 1077.2 1023.56C1167.52 1019.91 1251.97 957.108 1309.61 875.98C1379.16 778.086 1413.49 653.499 1434.98 529.011C1458.59 392.188 1470.49 249.146 1521.07 121.708C1538.18 78.5417 1561.07 37.0551 1588.84 1.41797L1582.87 1.497C1580.83 4.14912 1578.8 6.83165 1576.82 9.54426C1501.72 112.078 1474.64 250.245 1453.96 381.402C1432.47 517.789 1415.43 656.854 1359.24 780.045C1310.31 887.298 1230.85 978.705 1130.55 1009.31C1082.51 1023.97 1031.95 1021.69 985.748 999.073C933.445 973.476 890.334 928.002 844.547 889.336C803.525 854.693 759.614 826.727 709.588 818.013C663.517 809.993 615.303 816.781 572.798 839.928C479.464 890.765 435.462 1015.65 438.233 1134.32C439.905 1205.74 453.785 1275.98 454.094 1347.52C454.385 1414.42 440.194 1482.92 406.245 1536.62C372.404 1590.14 322.571 1619.72 273.67 1648.7C230.255 1674.43 189.468 1702.69 157.158 1747.08C95.029 1832.43 69.3045 1952.14 82.1291 2064.2L86.5494 2064.14L86.5579 2064.14Z" fill="#77AC35"/>
</g>
<g style="mix-blend-mode:screen">
<path d="M116.695 2063.75C104.628 1976.4 114.695 1885.07 148.997 1805.89C173.38 1749.61 209.532 1704.13 254.296 1671.13C298.539 1638.51 347.104 1614.33 387.754 1574.82C424.022 1539.57 450.652 1492.38 464.742 1438.74C480.99 1376.87 478.547 1312.82 471.831 1249.18C464.432 1179.02 452.956 1108.65 462.862 1037.99C471.335 977.581 493.516 917.565 530.281 874.618C605.157 787.174 723.591 790.138 810.023 849.735C856.428 881.734 896.744 924.966 942.958 957.345C983.905 986.025 1028.58 1002.75 1076.11 1000.38C1165.65 995.933 1249.36 932.926 1306.26 852.186C1373.04 757.392 1406.44 637.486 1425.52 516.82C1447.29 379.193 1454.46 235.345 1500.72 105.269C1513.61 69.063 1530.41 33.8162 1550.76 1.92383L1545.15 1.99815C1479.22 106.933 1458.32 241.719 1441.53 369.249C1423.81 503.768 1408.4 640.208 1353.06 761.099C1305.14 865.775 1227.15 954.415 1129.67 985.471C1081.38 1000.86 1030.5 998.93 983.887 976.311C931.979 951.117 889.06 906.244 843.069 868.919C802.267 835.804 758.628 810.163 709.361 803.34C663.453 796.972 615.869 805.529 574.531 830.775C482.596 886.935 448.588 1017.7 455.925 1134.96C460.297 1204.81 474.332 1273.78 473.213 1344.11C472.17 1409.91 455.583 1475.49 421.425 1527.22C387.683 1578.31 339.742 1608.92 292.932 1639.23C248.543 1667.98 207.13 1699.23 175.465 1747.54C117.896 1835.36 97.231 1953.91 112.275 2063.8L116.695 2063.75Z" fill="#72A633"/>
</g>
<g style="mix-blend-mode:screen">
<path d="M146.775 2063.35C133.074 1978.35 139.498 1889.06 169.433 1809.51C191.075 1751.99 224.866 1703.68 267.982 1668.07C310.176 1633.23 357.028 1607.33 397.62 1569.53C434.375 1535.32 463.454 1490.48 479.96 1437.84C498.403 1379.02 498.787 1317.02 492.601 1255.22C485.622 1185.59 471.26 1116.07 476.009 1045.53C480.1 984.808 497.14 923.338 529.597 876.097C595.517 780.161 714.816 772.87 802.411 826.803C850.047 856.139 890.765 898.897 936.67 931.657C978.4 961.45 1023.82 979.642 1072.59 977.31C1161.11 973.072 1244.11 911.157 1300.71 831.636C1368.11 736.937 1400.79 616.274 1417.62 494.81C1436.4 359.347 1439.77 218.482 1480.51 88.8668C1489.86 59.1119 1501.79 29.8334 1516.15 2.36133L1510.82 2.43194C1457.98 105.436 1442.84 230.943 1430.16 349.482C1415.79 483.905 1402.58 619.958 1347.65 740.548C1300.07 845.005 1221.21 933.442 1123.79 963.2C1075.25 978.02 1024.65 975.106 978.228 951.647C926.956 925.74 884.297 881.333 837.715 845.67C796.182 813.873 751.414 791.648 701.958 788.29C657.248 785.246 611.595 796.75 572.987 824.513C532.641 853.524 504.571 901.392 488.454 954.014C470.019 1014.19 468.278 1077.48 474.743 1140.69C481.999 1211.65 496.763 1283.01 491.411 1354.92C486.837 1416.33 467.208 1475.1 433.797 1521.79C398.086 1571.7 349.379 1602.76 302.997 1635.75C259.825 1666.45 220.814 1701.2 191.976 1751.51C140.51 1841.3 125.426 1956.84 142.38 2063.39L146.783 2063.34L146.775 2063.35Z" fill="#6D9F30"/>
</g>
<g style="mix-blend-mode:screen">
<path d="M176.801 2062.95C161.282 1978.89 164.612 1890.13 191.418 1809.49C210.913 1750.85 242.903 1700.57 284.68 1662.69C326.575 1624.71 373.856 1596.31 415.043 1557.1C451.495 1522.39 481.409 1477.97 498.536 1425.51C517.331 1367.95 518.177 1307.13 511.834 1246.35C504.843 1179.37 489.993 1113.13 490.962 1045.24C491.857 982.845 505.947 918.116 537.224 867.724C598.272 769.401 716.111 758.819 803.009 809.534C851.097 837.608 892.172 879.799 938.406 911.718C979.442 940.049 1024.06 956.954 1071.57 954.149C1159.97 948.942 1242.89 886.344 1298.78 806.107C1364.39 711.942 1395.23 592.979 1409.52 472.826C1425.66 337.092 1424.92 196.28 1462.26 65.454C1468.32 44.2102 1475.71 23.1734 1484.36 2.81445L1479.41 2.88002C1437.26 104.476 1427.36 222.907 1418.22 334.872C1407.38 467.461 1395.95 601.212 1342.22 720.05C1295.26 823.937 1216.35 911.057 1119.76 940.405C1070.88 955.261 1020.19 951.592 973.65 927.583C923.803 901.882 881.899 859.058 835.756 825.494C794.404 795.42 749.759 775.819 701.222 774.399C656.507 773.092 610.449 786.961 573.539 818.051C537.553 848.364 513.713 895.092 500.359 944.94C483.635 1007.38 484.849 1072.13 493.037 1136.39C501.884 1205.75 516.426 1276.15 510.254 1346.74C504.862 1408.49 483.165 1466.36 448.84 1512.37C412.53 1561.03 364.638 1593.06 319.456 1627.96C277.732 1660.19 240.342 1696.57 213.279 1747.42C164.113 1839.8 152.956 1956.6 172.339 2063.02L176.776 2062.96L176.801 2062.95Z" fill="#67992E"/>
</g>
<g style="mix-blend-mode:screen">
<path d="M206.744 2062.55C189.708 1980.71 189.81 1894.07 212.296 1813.36C229.153 1752.86 259.268 1699.38 299.912 1658.69C340.247 1618.31 386.589 1587.81 427.89 1548.96C464.239 1514.77 495.622 1472.24 514.49 1421.01C534.805 1365.89 537.82 1306.66 532.085 1247.26C525.734 1181.4 509.982 1117.04 506.912 1050.69C504.087 989.546 512.802 925.827 538.463 872.425C589.975 765.23 706.526 742.807 796.22 788.429C845.655 813.574 887.495 855.255 933.748 887.316C975.177 916.041 1020.01 933.729 1068.1 931.08C1155.81 926.24 1238.76 864.121 1294.2 784.483C1359.48 690.721 1389.19 572.12 1401.11 452.181C1414.4 318.559 1410.02 180.931 1441.44 50.7146C1445.29 34.75 1449.88 18.837 1455.18 3.16992L1450.48 3.23223C1417.97 101.8 1412.51 212.746 1406.56 317.651C1399.08 449.757 1389.56 583.054 1336.04 701.266C1289.62 803.817 1210.9 889.209 1115.49 917.653C1065.84 932.458 1014.76 927.895 967.827 902.799C918.676 876.505 876.925 834.436 830.129 803.035C751.285 750.13 644.043 740.03 571.966 815.262C539.702 848.937 520.032 896.734 510.122 946.281C497.087 1011.45 503.047 1077.16 513.167 1142.3C523.406 1208.2 536.337 1276.24 528.595 1343.53C521.569 1404.57 497.549 1460.04 462.665 1504.49C425.125 1552.33 377.125 1585.25 332.734 1622.65C292.184 1656.82 256.613 1696.05 231.863 1748.42C187.301 1842.73 180.836 1958.11 202.255 2062.6L206.71 2062.54L206.744 2062.55Z" fill="#62922C"/>
</g>
<g style="mix-blend-mode:screen">
<path d="M236.603 2062.16C218.082 1982.29 215.183 1897.56 233.646 1816.87C247.512 1756.26 274.473 1700.99 312.422 1657.95C352.061 1612.99 399.514 1579.61 442.281 1539.39C477.934 1505.86 509.818 1465.63 530.226 1416.43C552.652 1362.36 557.335 1303.04 551.869 1243.44C545.774 1176.99 528.82 1112.73 523.258 1046.22C518.274 986.559 523.38 924.308 545.168 869.885C566.478 816.663 603.859 779.417 650.688 762.648C696.657 746.186 747.502 749.537 792.416 769.635C841.1 791.43 882.478 830.461 927.078 861.615C969.312 891.115 1014.62 910.442 1063.82 908.094C1151.34 903.92 1234.83 842.121 1290 762.497C1354.04 670.079 1382.57 553.352 1392.32 435.087C1403.34 301.536 1394.65 164.65 1421.4 33.4532C1423.44 23.4674 1425.76 13.4883 1428.34 3.55664L1423.8 3.61682C1400.29 96.335 1398.15 197.493 1395.16 293.514C1391.03 425.922 1384.37 559.835 1331.58 678.844C1285.67 782.329 1205.97 867.958 1109.93 895.379C1059.74 909.711 1008.86 903.787 961.819 877.905C913 851.056 871.083 809.315 823.156 780.453C746.072 734.03 641.428 731.301 576.423 808.023C545.88 844.075 528.809 893.962 521.567 944.209C512.158 1009.43 521.027 1074.03 532.21 1138.08C543.719 1203.99 556.56 1272.99 546.761 1340.38C538.006 1400.6 511.833 1453.67 476.473 1496.62C438.258 1543.05 390.994 1576.67 347.962 1615.91C308.491 1651.91 274.498 1693.54 251.727 1747.16C210.796 1843.55 208.463 1958.77 232.149 2062.24L236.611 2062.18L236.603 2062.16Z" fill="#5D8C29"/>
</g>
<g style="mix-blend-mode:screen">
<path d="M266.376 2061.76C245.773 1981.28 240.329 1895.48 256.722 1812.9C268.982 1751.15 294.775 1694.46 331.873 1649.53C370.425 1602.83 417.067 1567.49 459.779 1526.85C495.361 1493 528.055 1453.23 549.04 1404.19C571.295 1352.18 576.561 1294.94 571.395 1237.16C565.489 1170.98 547.825 1107.5 539.908 1041.76C532.684 981.74 534.783 918.61 554.54 862.242C573.289 808.728 608.042 769.78 653.675 751.311C697.124 733.718 745.448 735.029 789.042 751.6C840.573 771.192 884.004 812.003 930.83 843.158C971.342 870.097 1014.64 887.275 1061.21 885.003C1147.93 880.768 1231.31 819.758 1285.84 740.53C1348.55 649.426 1375.91 534.472 1383.49 417.962C1392.23 283.818 1379.3 147.162 1401.59 14.5227C1402.18 10.9706 1402.82 7.42806 1403.48 3.875L1399.05 3.93383C1382.71 92.3895 1383.81 186.548 1383.31 276.194C1382.56 408.128 1377.87 541.617 1325.35 660.336C1280.12 762.545 1200.7 845.954 1106 872.602C1056.27 886.59 1006.03 880.433 959.44 855.026C910.879 828.541 868.794 787.65 820.3 761.022C743.05 718.595 637.761 721.595 579.04 804.29C551.918 842.482 538.218 892.447 533.669 941.944C527.658 1007.33 539.355 1071.12 551.496 1134.5C564.096 1200.23 576.59 1270.04 564.637 1337.23C553.957 1397.23 525.189 1448.46 488.808 1490.22C449.601 1535.21 402.981 1569.54 361.295 1610.94C321.894 1650.08 289.253 1695.9 268.926 1752.94C234.347 1850.01 236.562 1961.56 261.93 2061.82L266.376 2061.76Z" fill="#578527"/>
</g>
<g style="mix-blend-mode:screen">
<path d="M296.089 2061.37C274.087 1982.94 265.821 1899.21 278.213 1817.14C287.756 1753.96 311.02 1694.62 346.552 1646.83C382.018 1599.13 426.059 1562.15 467.858 1523.2C503.196 1490.27 537.01 1453.6 560.686 1407.36C586.061 1357.81 595.428 1301.5 591.861 1243.6C587.837 1178.32 570.553 1116.2 559.391 1052.51C548.835 992.282 545.541 929.305 560.104 869.686C573.834 813.49 603.825 767.732 648.739 744.186C691.642 721.698 741.049 720.011 786.032 734.348C837.577 750.773 881.325 789.701 927.592 820.026C968.952 847.127 1012.92 864.633 1060.33 861.849C1146.65 856.783 1229.95 795.763 1283.52 715.945C1344.61 624.924 1369.85 511.091 1374.9 395.677C1380.61 265.444 1364.79 133.698 1380.58 4.19922L1376.2 4.25737C1366.23 86.3573 1369.66 171.926 1371.34 253.82C1374.03 384.412 1372.33 517.309 1321.71 635.881C1277.86 738.562 1199.52 821.354 1105.46 848.902C1055.87 863.43 1005.62 857.937 958.824 833.145C909.062 806.779 865.726 765.373 815.173 740.927C736.568 702.931 631.49 714.722 580.544 804.863C557.043 846.439 547.314 897.72 546.165 947.559C544.638 1013.34 559.993 1076.31 572.743 1139.6C586.13 1206.04 596.63 1277.02 580 1343.96C565.49 1402.35 532.905 1450.13 495.474 1489.65C456.729 1530.54 413.322 1564.46 374.956 1605.95C337.277 1646.69 306.993 1694.31 288.976 1751.83C257.975 1850.8 264.022 1961.91 291.618 2061.45L296.072 2061.39L296.089 2061.37Z" fill="#527F24"/>
</g>
<g style="mix-blend-mode:screen">
<path d="M325.752 2060.97C302.19 1983.84 291.236 1901.35 300.284 1819.35C307.236 1756.3 327.395 1695.77 360.288 1646C392.806 1596.79 434.667 1557.99 475.669 1519.75C511.921 1485.93 548.146 1450.58 574.426 1404.62C600.639 1358.8 613.247 1305.94 611.865 1250.2C608.694 1122.5 547.619 1004.44 568.437 874.817C577.442 818.745 601.375 768.225 643.206 739.48C684.012 711.443 733.832 705.839 779.461 716.714C831.01 729.003 875.071 764.924 920.627 794.553C963 822.111 1007.45 841.296 1056.09 838.864C1142.28 834.544 1226.26 774.179 1279.46 694.08C1339.28 604.027 1363.05 491.684 1366.05 377.88C1369.34 253.47 1351.39 128.678 1359.41 4.47062L1355.05 4.52843C1350.21 81.576 1355.87 160.609 1359.4 236.626C1365.39 365.673 1365.85 497.561 1316.37 615.413C1273.37 717.847 1195.2 799.432 1101.66 826.186C1050.83 840.721 1000.1 833.998 952.441 808.186C903.627 781.756 860.15 742.079 809.197 721.223C729.774 688.692 628.337 709.403 584.91 803.764C563.581 850.112 557.607 905.398 560.467 957.769C564.023 1022.9 582.25 1084.49 594.887 1147.48C608.34 1214.56 615.652 1285.94 593.713 1351.52C575.524 1405.89 541.352 1448.96 504.552 1485.86C465.206 1525.31 422.938 1560.31 386.433 1603.82C351.391 1645.59 324.315 1694.52 308.915 1751.32C281.668 1851.87 291.502 1962.41 321.289 2061.03L325.777 2060.97L325.752 2060.97Z" fill="#4C7822"/>
</g>
<g style="mix-blend-mode:screen">
<path d="M355.331 2060.58C330.242 1984.7 316.71 1903.43 322.5 1821.62C327.02 1757.74 344.652 1695.38 375.671 1643.22C405.469 1593.12 445.017 1552.85 484.932 1515.02C521.136 1480.72 558.482 1447.07 586.966 1402.84C614.985 1359.33 630.836 1307.98 631.245 1252.58C632.202 1123.7 566.684 1007.35 578.713 877.234C583.726 823.033 601.867 768.975 639.367 736.211C677.387 703.002 726.52 692.913 772.505 700.096C825.295 708.344 870.619 742.144 916.917 771.437C959.025 798.078 1002.76 817.661 1050.88 815.92C1137.02 812.817 1221.83 753.421 1274.81 673.111C1333.55 584.072 1356.11 473.012 1357.14 360.736C1358.22 241.81 1338.54 123.516 1339.81 4.70994L1335.49 4.76719C1334.91 75.6297 1342.15 147.42 1347.22 216.829C1356.57 345.096 1359.57 477.021 1310.95 595.036C1268.15 698.898 1188 780.774 1092.92 804.791C1042.53 817.512 993.274 809.105 946.485 783.516C898.853 757.458 855.343 720.11 804.568 702.878C723.176 675.246 625.275 705.215 589.745 805.068C572.177 854.441 570.048 910.442 576.232 963.167C583.813 1027.76 604.056 1088.62 616.407 1151.88C629.217 1217.48 633.658 1286.66 609.576 1349.25C588.652 1403.63 551.413 1445.16 513.274 1481.98C473.97 1519.91 433.365 1555.93 399.137 1600.82C365.469 1644.97 340.738 1696.75 327.869 1754.95C305.563 1855.88 319.302 1964.18 350.835 2060.63L355.331 2060.57L355.331 2060.58Z" fill="#477220"/>
</g>
<g style="mix-blend-mode:screen">
<path d="M384.842 2060.19C358.905 1987.28 343.151 1909.32 344.738 1829.62C346 1766.67 359.546 1704.06 386.394 1649.94C413.034 1596.25 451.331 1552.5 491.248 1513.36C528.108 1477.21 567.614 1444.36 598.951 1400.77C628.68 1359.43 647.912 1309.61 650.236 1254.38C655.556 1127.84 590.455 1016.14 590.111 890.433C589.967 836.361 601.438 778.939 633.302 739.162C666.243 698.043 715.96 681.96 762.273 684.41C816 687.253 862.723 717.52 909.668 746.355C952.962 772.951 997.279 794.221 1046.55 792.935C1132.68 790.69 1218.17 732.225 1270.76 651.378C1329.43 561.186 1349.93 448.775 1348.12 335.811C1346.35 224.951 1326.2 115.509 1321.74 4.9598L1317.43 5.01694C1320.3 71.2068 1329.07 137.686 1335.41 202.247C1347.84 328.736 1352.54 459.526 1304.74 576.6C1261.96 681.381 1180.01 762.321 1083.79 783.34C1031.4 794.78 981.799 782.548 933.984 755.328C888.121 729.226 844.372 695.385 793.874 683.879C752.181 674.371 707.269 678.807 669.1 701.958C631.377 724.837 606.096 764.792 594.439 813.463C565.347 934.886 619.624 1048.03 639.408 1164.37C650.331 1228.59 649.684 1294.29 622.495 1352.54C598.1 1404.79 558.526 1443.54 519.939 1479.8C480.247 1517.1 440.769 1555.38 408.916 1602.79C378.346 1648.31 357.135 1701.3 347.231 1758.81C329.814 1859.92 347.091 1965.82 380.345 2060.24L384.85 2060.18L384.842 2060.19Z" fill="#426C1D"/>
</g>
<g style="mix-blend-mode:screen">
<path d="M414.277 2059.8C387.656 1989.97 369.891 1915.42 367.671 1838.29C365.8 1773.2 376.384 1707.7 401.529 1649.91C424.643 1596.77 459.052 1552.14 496.499 1513.31C565.259 1442 656.294 1381.2 668.371 1261.18C681.216 1133.49 613.232 1021.51 603.843 897.319C599.692 842.422 606.447 782.07 634.943 737.363C663.38 692.749 710.386 672.096 755.882 670.543C859.09 667.009 937.53 770.582 1040.4 769.964C1127.25 769.445 1214.23 711.768 1266.78 629.655C1324.81 538.94 1343.32 426.187 1338.92 313.472C1334.87 209.802 1314.27 108.16 1305.2 5.18963L1300.88 5.24688C1306.28 64.0286 1315.61 122.677 1322.82 179.902C1338.73 306.213 1346.51 438.004 1299.38 556.192C1257.28 661.781 1174.84 741.676 1078.17 761.046C1026.4 771.426 977.79 758.516 930.495 732.352C884.002 706.647 838.937 674.753 787.308 667.348C746.174 661.448 702.765 669.317 667.236 695.905C631.455 722.691 610.443 767.125 602.613 816.409C582.805 941.038 643.446 1051.53 660.999 1170.45C670.758 1236.58 664.997 1302.34 632.666 1358.3C604.288 1407.41 563.289 1443.08 524.593 1479.38C486.065 1515.49 449.247 1555.37 420.637 1603.42C391.661 1652.1 373.174 1708.45 366.367 1767.91C354.978 1867.44 375.458 1968.98 409.781 2059.87L414.286 2059.81L414.277 2059.8Z" fill="#3C651B"/>
</g>
<g style="mix-blend-mode:screen">
<path d="M443.643 2059.41C415.898 1991.24 396.146 1918.52 390.95 1842.58C386.475 1777.08 394.158 1710.56 416.772 1650.58C437.149 1596.52 468.954 1550.16 505.087 1510.41C572.986 1435.72 671.092 1379.27 686.841 1258.12C703.39 1130.77 633.978 1019.01 618.29 897.269C611.459 844.267 614.191 786.184 636.814 738.92C661.232 687.904 708.02 661.585 755.399 657.301C858.304 647.99 938.551 748.842 1040.64 746.906C1126.98 745.261 1213.04 688.556 1264.25 605.582C1320.92 513.772 1336.58 400.771 1329.28 288.503C1323.08 192.941 1302.57 99.8054 1289.96 5.38024L1285.68 5.43694C1292.87 57.6989 1302.55 109.632 1310.34 160.568C1329.28 284.285 1339.79 414.446 1295.38 532.037C1255.19 638.438 1174.38 717.412 1078.27 737.572C1025.97 748.541 976.964 735.973 928.763 710.516C881.763 685.685 835.784 656.092 783.619 652.187C742.576 649.116 699.57 660.227 666.482 690.756C633.604 721.088 616.884 768.387 612.344 817.168C600.721 942.127 665.018 1049.45 681.257 1169.01C690.339 1235.9 681.529 1300.96 646.628 1355.12C616.146 1402.41 574.297 1436.28 535.639 1472.88C497.307 1509.19 461.813 1550.73 435.074 1600.22C407.282 1651.66 390.878 1711.02 386.649 1772.27C379.805 1871.46 403.194 1970.46 439.079 2059.47L443.609 2059.41L443.643 2059.41Z" fill="#375F18"/>
</g>
<g style="mix-blend-mode:screen">
<path d="M472.933 2059.02C443.601 1991.29 421.737 1919.02 414.109 1842.95C407.629 1778.39 412.709 1712.35 432.333 1651.62C450.336 1595.9 480.158 1547.09 515.663 1505.84C580.389 1430.64 679.213 1379.89 703.162 1265.66C729.561 1139.79 659.061 1024.02 635.352 906.583C624.363 852.165 622.257 791.685 641.318 739.525C661.348 684.716 705.014 652.739 753.122 644.87C806.726 636.1 856.172 657.834 904.817 682.816C949.705 705.867 994.22 725.96 1043.7 723.741C1130.59 719.841 1215.45 662.468 1264.64 576.436C1317.89 483.314 1329.46 371.459 1319.09 260.928C1310.97 174.502 1291 90.5314 1276.04 5.57529L1271.93 5.62973C1279.11 45.5021 1287.36 85.0437 1294.62 123.965C1317.8 248.096 1334.67 380.869 1293.33 502.045C1256.43 610.241 1179.15 689.853 1083.59 712.998C1030.71 725.803 980.563 715.171 931.01 690.773C884.012 667.628 837.996 640.017 786.319 637.954C744.843 636.298 701.582 649.639 669.979 683.284C638.785 716.495 625.253 766.304 623.282 815.399C618.116 943.592 689.552 1050.81 702.364 1175.11C709.213 1241.55 695.48 1303.38 658.809 1353.81C626.081 1398.82 583.466 1430.8 545.128 1468.07C508.156 1504 474.905 1546.18 450.519 1595.6C424.222 1648.9 409.909 1709.7 407.544 1771.68C403.734 1871.83 430.338 1970.54 468.361 2059.11L472.934 2059.05L472.933 2059.02Z" fill="#315816"/>
</g>
<g style="mix-blend-mode:screen">
<path d="M502.139 2058.63C471.758 1992.49 448.128 1922.01 437.796 1847.27C429.238 1785.38 430.959 1721.83 445.972 1661.62C460.363 1603.93 487.005 1551.92 521.043 1508.19C555.773 1463.57 598.357 1431.03 637.866 1393.27C671.536 1361.1 702.823 1323.4 717.804 1273.68C754.677 1151.3 685.981 1031.11 655.193 919.016C640.047 863.877 632.393 803.348 645.845 746.563C659.499 688.939 696.606 649.214 744.362 634.976C848.315 603.977 935.353 703.207 1037.58 700.861C1124.95 698.855 1210.42 643.465 1259.56 556.504C1313.2 461.599 1322.19 347.41 1308.7 235.908C1299.25 157.743 1279.95 82.0674 1263.46 5.7215L1259.38 5.77561C1266.48 38.0907 1274 70.1244 1280.84 101.789C1307.56 225.393 1327.99 358.997 1287.74 481.568C1270.51 534.031 1243.68 582.506 1207.68 618.773C1170.72 656.023 1123.7 681.313 1076.34 691.297C1022.78 702.589 973.14 689.652 923.063 666.099C876.426 644.165 829.768 621.056 778.775 624.051C737.016 626.504 694.243 645.528 667.183 685.405C640.813 724.261 632.918 776.672 635.191 825.823C641.124 954.421 717.978 1059.96 723.322 1188.89C726.071 1255.27 704.407 1312.36 665.445 1357.92C629.641 1399.78 586.136 1430.27 548.55 1469.56C473.997 1547.49 428.167 1654.66 428.376 1775.19C428.551 1874.93 457.876 1971.66 497.524 2058.69L502.139 2058.62L502.139 2058.63Z" fill="#2C5213"/>
</g>
<g style="mix-blend-mode:screen">
<path d="M531.277 2058.25C499.914 1993.66 474.644 1924.94 461.753 1851.58C439.904 1727.23 462.722 1599.22 532.835 1503.31C566.215 1457.65 607.976 1425.02 648.081 1388.96C682.108 1358.36 715.213 1323.41 732.953 1275.73C776.895 1157.6 711.733 1035.31 676.012 928.077C657.84 873.529 645.337 814.791 652.708 755.789C660.25 695.436 690.609 647.017 738.699 626.411C790.708 604.119 844.733 617.416 895.352 638.746C942.566 658.64 988.202 679.648 1039 677.81C1125.32 674.685 1208.41 621.134 1255.96 533.97C1308.58 437.506 1314.54 322.222 1297.94 210.915C1287.54 141.117 1269.2 73.6618 1252.07 5.87364L1248.02 5.92731C1254.35 30.6942 1260.77 55.276 1266.76 79.6591C1296.55 200.76 1320.63 332.958 1283.77 455.637C1268.34 507.025 1243.63 554.827 1209.94 591.544C1173.64 631.094 1126.3 656.95 1078.38 667.657C1023.46 679.927 972.652 667.036 920.791 644.497C873.51 623.95 825.573 603.902 774.631 611.319C733.471 617.308 693.398 640.576 670.258 683.363C646.795 726.747 642.93 782.066 648.934 832.373C664.041 958.857 743.672 1062.92 742.907 1193.81C742.521 1260.8 715.216 1314.84 674.273 1357.52C638.2 1395.13 596.514 1424 560.899 1462.3C485.718 1543.15 444.317 1657.66 449.542 1779.82C453.763 1878.67 485.534 1973.05 526.636 2058.29L531.277 2058.23L531.277 2058.25Z" fill="#274B11"/>
</g>
<g style="mix-blend-mode:screen">
<path d="M560.391 2057.86C528.677 1995.91 502.256 1930.18 486.806 1859.63C459.964 1737.13 474.717 1605.27 540.695 1504.72C572.11 1456.83 612.662 1422.84 653.654 1388.14C688.171 1358.92 723.237 1327.35 744.899 1282.63C799.921 1169.07 738.503 1041.78 698.435 937.287C677.703 883.223 660.541 825.925 662.129 765.549C663.736 704.601 686.271 648.207 732.72 620.309C832.412 560.431 930.098 655.362 1030.89 655.016C1117.96 654.71 1202.21 603.973 1250.09 515.64C1302.27 419.355 1306.82 304.03 1288.17 193.74C1277.32 129.597 1259.52 67.8338 1241.84 6.02801L1237.79 6.08167C1243.24 24.9973 1248.66 43.8113 1253.79 62.5269C1286.68 182.504 1313.36 314.586 1277.26 437.868C1262.32 488.861 1237.98 536.372 1204.54 572.585C1167.81 612.335 1119.67 636.925 1071.17 646.117C1017.11 656.374 967.34 642.325 916.091 622.178C868.118 603.316 818.805 587.3 768.358 600.308C727.716 610.785 691.433 639.63 673.106 685.622C654.771 731.634 654.711 786.341 663.69 835.444C686.962 962.75 774.6 1072.22 761.013 1209.04C748.208 1338.02 634.643 1383.12 566.689 1462.67C495.058 1546.51 461.083 1665.4 471.142 1785.19C479.338 1882.8 513.282 1974.61 555.675 2057.93L560.4 2057.87L560.391 2057.86Z" fill="#21450F"/>
</g>
<g style="mix-blend-mode:screen">
<path d="M589.394 2057.48C556.219 1995.91 528.007 1930.63 510.474 1860.16C480.114 1738.11 489.875 1602.93 553.824 1498.97C583.923 1450.03 623.74 1415.52 665.117 1381.82C700.267 1353.19 736.775 1323.26 760.388 1279.68C820.456 1168.85 761.203 1039.8 718.293 937.148C695.236 881.992 674.518 823.995 673.42 761.296C672.364 700.73 691.138 641.321 736.161 610.185C782.099 578.412 837.076 582.402 886.766 597.381C938.344 612.928 987.222 634.628 1041.18 631.798C1128.19 627.233 1207.47 574.765 1251.44 483.236C1298.93 384.378 1297.75 269.557 1275.38 161.207C1264.45 108.279 1248.87 57.1092 1232.76 6.16064L1228.65 6.21509C1231.64 15.6439 1234.59 25.0527 1237.48 34.4319C1273.43 151.386 1304.86 280.953 1274.79 404.728C1261.99 457.428 1239.05 507.179 1206.4 545.618C1171.04 587.239 1123.92 612.469 1075.52 622.385C1021.21 633.513 970.593 620.937 918.409 602.733C870.214 585.916 820.472 572.409 770.818 588.041C728.775 601.274 693.941 635.33 678.928 685.251C664.209 734.197 667.567 789.39 679.632 838.677C709.988 962.62 800.546 1075.62 778.556 1213.09C758.779 1336.72 642.469 1377.26 577.266 1458.14C507.753 1544.35 479.036 1666.77 492.52 1785.32C503.678 1883.47 540.231 1974.65 584.626 2057.56L589.411 2057.5L589.394 2057.48Z" fill="#1C3E0C"/>
</g>
<g style="mix-blend-mode:screen">
<path d="M618.311 2057.09C584.315 1997 554.784 1933.4 535.194 1864.45C500.514 1742.36 504.353 1603.29 566.133 1494.82C595.358 1443.5 635.406 1407.7 678.054 1374.11C713.777 1345.96 751.495 1317.39 776.634 1274.71C837.042 1172.16 788.318 1046.95 744.576 950.036C719.525 894.528 693.6 837.438 686.547 773.898C680.089 715.723 689.091 651.193 727.748 611.49C815.459 521.393 930.976 609.306 1029.18 609.24C1074.66 609.209 1121.1 596.541 1160.86 569.508C1196.54 545.257 1225.15 507.882 1245.42 465.174C1292.37 366.252 1289.69 251.328 1265.27 143.985C1254.55 96.8569 1240.04 51.3517 1224.63 6.24648L1220.43 6.30216C1221.95 10.7659 1223.47 15.2298 1224.96 19.6838C1263.79 135.466 1297.37 264.852 1267.57 389.133C1255.04 441.37 1232.31 490.689 1199.69 528.423C1163.13 570.693 1114.32 594.138 1064.49 601.632C1038.22 605.586 1011.52 605.082 985.315 600.425C958.141 595.596 931.795 586.099 905.098 578.547C857.347 565.044 806.397 558.427 760.034 581.992C670.005 627.76 668.574 756.68 699.934 852.123C737.804 967.367 825.587 1083.59 795.353 1216.35C782.096 1274.58 744.184 1314.29 704.432 1347.08C664.956 1379.63 623.133 1408.32 590.149 1450.87C520.842 1540.26 496.702 1668.16 514.174 1787.48C528.505 1885.34 567.364 1975.21 613.468 2057.16L618.303 2057.09L618.311 2057.09Z" fill="#17380A"/>
</g>
<g style="mix-blend-mode:screen">
<path d="M647.163 2056.71C612.015 1997.42 580.987 1934.76 559.474 1866.51C521.766 1746.93 519.674 1608.41 575.733 1496.64C602.844 1442.6 641.778 1404.2 685.366 1370.62C722.423 1342.07 762.326 1315.02 790.414 1273.16C856.916 1174.04 811.51 1046.33 765.764 949.723C738.86 892.902 709.372 835.328 699.403 770.039C690.834 713.904 695.822 650.174 729.45 606.941C766.334 559.529 824.064 550.991 875.023 558.354C927.102 565.875 976.966 586.429 1029.84 586.453C1075.27 586.474 1122.21 574.8 1161.46 546.436C1196.29 521.277 1223.71 483.131 1242.68 440.063C1287.23 338.884 1280.44 223.218 1252.62 116.676C1242.78 79.0047 1230.56 42.4575 1217.44 6.3409L1213.15 6.39781C1253.53 117.89 1288.17 242.063 1262.64 363.56C1251.52 416.504 1229.89 466.983 1197.81 505.762C1162.72 548.176 1116.02 571.317 1067.14 578.727C1011.83 587.121 960.181 571.647 906.251 559.298C859.523 548.6 809.258 544.885 765.159 570.075C675.185 621.46 681.456 755.16 716.495 849.39C739.17 910.384 771.826 965.107 794.399 1026.14C816.597 1086.16 830.691 1158.05 810.625 1221.62C793.306 1276.48 753.527 1312.12 714.098 1342.77C672.913 1374.78 630.671 1404.56 598.5 1450.14C532.66 1543.43 514.85 1674.65 536.576 1792.6C554.346 1889.04 594.991 1976.57 642.294 2056.79L647.18 2056.72L647.163 2056.71Z" fill="#113107"/>
</g>
<g style="mix-blend-mode:screen">
<path d="M675.952 2056.33C640.067 1998.47 607.898 1937.45 584.582 1870.76C543.44 1753.1 535.372 1614.85 585.782 1499.41C610.162 1443.58 646.835 1402.16 690.49 1368.55C727.715 1339.89 768.212 1315.13 799.43 1276.67C873.909 1184.9 838.96 1056.25 791.857 958.695C764.15 901.312 731.463 845.415 715.897 780.976C702.295 724.663 701.027 657.461 729.735 607.532C760.203 554.536 815.5 538.359 866.219 540.363C919.939 542.49 971.889 562.485 1025.75 563.722C1071.74 564.777 1119.43 554.921 1159.09 525.592C1193.4 500.225 1220.06 461.763 1238.14 418.655C1281.15 316.138 1271.44 200.082 1240.89 94.4346C1232.21 64.4386 1222.01 35.2391 1211.05 6.42757L1206.68 6.48561C1246.49 111.357 1278.54 227.188 1256.63 342.09C1246.56 394.898 1225.97 445.597 1194.64 484.683C1159.85 528.074 1113.48 550.792 1064.12 556.931C1008.75 563.824 956.238 547.719 901.784 539.125C855.645 531.842 805.849 532.849 764.693 562.117C725.436 590.021 705.2 640.205 702.878 694.146C700.441 750.641 715.438 804.567 736.705 854.211C762.94 915.454 798.03 971.186 819.555 1035.34C840.186 1096.81 849.8 1169.55 822.894 1230.41C800.496 1281.06 758.71 1312.25 719.346 1341.24C677.354 1372.17 636.365 1403.52 606.196 1451.51C545.866 1547.47 533.947 1678.37 558.313 1793.24C578.812 1889.86 621.812 1976.69 671.007 2056.4L675.969 2056.33L675.952 2056.33Z" fill="#0C2B05"/>
</g>
<g style="mix-blend-mode:screen">
<path d="M704.659 2055.95C667.415 1998.46 633.65 1937.88 608.532 1871.35C563.833 1752.96 551.654 1611.41 600.691 1492.1C624.158 1435 660.574 1392.65 704.935 1359.21C742.293 1331.05 782.989 1307.49 815.164 1270.49C848.108 1232.6 864.708 1182.2 862.656 1127.17C860.395 1066.51 839.305 1010.01 813.969 958.544C785.114 899.92 749.873 844.363 730.906 779.48C714.794 724.384 710.245 658.319 733.93 605.433C759.869 547.513 813.942 525.765 865.541 523.876C920.305 521.873 973.934 539.772 1028.6 541.253C1074.13 542.488 1120.75 533.341 1159.4 502.83C1192.81 476.454 1218.19 437.151 1234.92 393.683C1275.13 289.16 1261.45 173.045 1227.75 68.5727C1220.95 47.5095 1213.41 26.8648 1205.4 6.49183L1200.98 6.55043C1239.19 103.608 1268.34 209.714 1251.16 316.668C1242.66 369.526 1223.65 420.807 1193.59 460.867C1160.42 505.054 1115.92 528.88 1067.05 534.717C1011.17 541.382 957.006 525.145 901.611 520.119C855.821 515.956 805.981 520.518 767.261 553.247C730.689 584.159 713.979 635.339 713.567 688.13C713.103 747.572 731.538 802.912 755.596 853.827C784.03 913.999 820.108 969.535 841.109 1034.49C860.82 1095.47 868.338 1167.12 839.748 1225.83C815.808 1274.99 773.385 1304.49 733.849 1332.54C691.281 1362.74 650.233 1394.13 620.608 1442.99C560.583 1541.99 552.348 1677.26 579.874 1792.97C602.988 1890.12 648.397 1976.54 699.629 2056.02L704.659 2055.95Z" fill="#062402"/>
</g>
<g style="mix-blend-mode:screen">
<path d="M733.281 2055.57C691.43 1993.62 653.391 1928.13 625.921 1855.18C584.494 1745.17 571.608 1615.12 609.729 1501.11C627.843 1446.93 657.594 1400.83 697.211 1367.31C734.496 1335.75 776.769 1313.8 813.448 1281.14C848.527 1249.91 874.902 1207.9 880.762 1154.5C887.306 1094.94 870.876 1034.28 847.661 982.335C798.11 871.444 701.751 759.111 734.389 621.156C749.586 556.923 795.849 520.999 848.238 510.52C898.743 500.412 949.182 511.194 999.594 516.633C1047.2 521.773 1096.81 521.534 1140.18 494.341C1177.27 471.093 1205.73 431.708 1224.38 387.009C1268.67 280.89 1254.47 160.675 1218.1 54.2166C1212.59 38.0902 1206.62 22.2354 1200.34 6.57885L1195.84 6.63846C1233.64 100.607 1260.8 203.47 1242.9 307.339C1233.47 362.089 1212.44 415.072 1179.03 454.277C1139.79 500.332 1088.14 515.837 1034.49 514.281C946.046 511.715 829.731 467.345 759.331 557.457C726.344 599.68 719.676 660.941 727.449 716.392C736.348 779.897 764.606 835.138 793.625 888.009C824.304 943.913 856.795 999.68 870.996 1065.48C885.287 1131.71 877.537 1200.55 836.82 1250.5C804.439 1290.21 761.304 1313.79 722.203 1342.03C682.664 1370.58 648.526 1405.53 624.61 1453.73C576.42 1550.85 572.887 1675.15 598.773 1782.18C623.414 1884.04 672.941 1973.59 728.158 2055.65L733.282 2055.58L733.281 2055.57Z" fill="#011E00"/>
</g>
</svg>
