<svg width="56" height="58" viewBox="0 0 56 58" fill="none" xmlns="http://www.w3.org/2000/svg">
<path fill-rule="evenodd" clip-rule="evenodd" d="M12.4444 6.44444C12.4444 4.73527 11.7889 3.0961 10.622 1.88753C9.4551 0.678966 7.87246 0 6.22222 0C4.57199 0 2.98934 0.678966 1.82245 1.88753C0.655554 3.0961 0 4.73527 0 6.44444C0 8.15362 0.655554 9.79279 1.82245 11.0014C2.98934 12.2099 4.57199 12.8889 6.22222 12.8889C7.87246 12.8889 9.4551 12.2099 10.622 11.0014C11.7889 9.79279 12.4444 8.15362 12.4444 6.44444ZM56 58H43.5556V36.25C43.5556 32.8344 39.8533 29.9989 36.5556 29.9989C33.2578 29.9989 31.1111 32.8344 31.1111 36.25V58H18.6667V19.3333H31.1111V25.7778C33.1644 22.33 38.4533 20.1067 42 20.1067C49.7778 20.1067 56 26.68 56 34.6389V58ZM12.4444 19.3333V58H0V19.3333H12.4444Z" fill="white"/>
</svg>
