<svg width="117" height="162" viewBox="0 0 117 162" fill="none" xmlns="http://www.w3.org/2000/svg">
<path d="M11.997 56.4639H0V82.1499C0 90.8081 6.56983 96.3882 17.253 96.3882C27.936 96.3882 34.5059 90.8081 34.5059 82.1499V56.4639H22.5088V80.4533C22.5088 84.7103 20.2522 86.4937 17.253 86.4937C14.2251 86.4937 11.997 84.7964 11.997 80.4533V56.4639Z" fill="white"/>
<path d="M49.2165 95.727L50.9589 88.3059H61.6135L63.2988 95.727H76.0953L64.3843 56.4639H49.1879L37.3623 95.727H49.2165ZM56.6718 66.4451L59.6997 79.8201H52.9299L56.072 66.4451H56.6718Z" fill="white"/>
<path fill-rule="evenodd" clip-rule="evenodd" d="M43.9216 150.617C49.6042 157.711 53.4509 162 53.4509 162C53.4509 162 57.2976 157.711 62.9801 150.617C79.0386 130.568 109.757 88.1103 109.757 56.7C109.757 25.3855 84.5479 0 53.4509 0C33.3341 0 15.6814 10.6234 5.72317 26.6029C2.80685 31.2826 6.55355 36.8182 12.04 36.8182C14.9308 36.8182 17.539 35.1836 19.1876 32.7923C26.7139 21.8752 39.2534 14.7273 53.4509 14.7273C76.4705 14.7273 95.132 33.5191 95.132 56.7C95.132 64.3514 92.5155 74.0509 87.6125 85.0721C82.795 95.9003 76.2423 106.967 69.4804 117.06C63.821 125.507 58.1411 133.084 53.4509 139.036C48.7606 133.084 43.0808 125.507 37.4213 117.06C36.7267 116.023 36.0344 114.977 35.3458 113.921C33.945 111.772 31.5756 110.455 29.0233 110.455C23.251 110.455 19.7056 116.75 22.8665 121.613C30.3708 133.16 38.1073 143.357 43.9216 150.617Z" fill="white"/>
</svg>
