<svg width="212" height="93" viewBox="0 0 212 93" fill="none" xmlns="http://www.w3.org/2000/svg">
<g clip-path="url(#clip0_257_17)">
<path d="M2.87 86L7.94 67.8H17.43L22.5 86H16.78L15.87 82.49H9.5L8.59 86H2.87ZM10.67 78.07H14.7L13.4 72.87H11.97L10.67 78.07ZM24.869 83.738C23.725 82.49 23.153 80.8607 23.153 78.85C23.153 76.8393 23.725 75.21 24.869 73.962C26.013 72.714 27.391 72.09 29.003 72.09C30.199 72.09 31.2304 72.4367 32.097 73.13C32.4957 73.442 32.8077 73.7887 33.033 74.17H33.293V72.48H38.753V90.94H24.843V87.04H33.293V83.53H33.033C32.8077 83.9113 32.4957 84.258 32.097 84.57C31.2304 85.2633 30.199 85.61 29.003 85.61C27.391 85.61 26.013 84.986 24.869 83.738ZM29.367 77.134C28.951 77.55 28.743 78.122 28.743 78.85C28.743 79.578 28.951 80.15 29.367 80.566C29.783 80.982 30.355 81.19 31.083 81.19C31.759 81.19 32.2964 80.982 32.695 80.566C33.0937 80.15 33.293 79.578 33.293 78.85C33.293 78.122 33.0937 77.55 32.695 77.134C32.2964 76.718 31.759 76.51 31.083 76.51C30.355 76.51 29.783 76.718 29.367 77.134ZM41.088 86V72.48H46.288V74.43H46.548C46.7386 74.014 46.9726 73.65 47.25 73.338C47.926 72.5927 48.7753 72.22 49.798 72.22H50.968V77.42H48.628C47.9693 77.42 47.458 77.602 47.094 77.966C46.73 78.33 46.548 78.8413 46.548 79.5V86H41.088ZM53.1408 70.478C52.6381 70.01 52.3868 69.3773 52.3868 68.58C52.3868 67.7827 52.6381 67.15 53.1408 66.682C53.6435 66.214 54.3455 65.98 55.2468 65.98C56.1481 65.98 56.8501 66.214 57.3528 66.682C57.8555 67.15 58.1068 67.7827 58.1068 68.58C58.1068 69.3773 57.8555 70.01 57.3528 70.478C56.8501 70.946 56.1481 71.18 55.2468 71.18C54.3455 71.18 53.6435 70.946 53.1408 70.478ZM52.5168 86V72.48H57.9768V86H52.5168ZM59.2656 67.8H65.1156L68.2356 80.8H69.4056L72.5256 67.8H78.3756L73.6956 86H63.9456L59.2656 67.8ZM80.3088 70.478C79.8061 70.01 79.5548 69.3773 79.5548 68.58C79.5548 67.7827 79.8061 67.15 80.3088 66.682C80.8114 66.214 81.5134 65.98 82.4148 65.98C83.3161 65.98 84.0181 66.214 84.5208 66.682C85.0234 67.15 85.2748 67.7827 85.2748 68.58C85.2748 69.3773 85.0234 70.01 84.5208 70.478C84.0181 70.946 83.3161 71.18 82.4148 71.18C81.5134 71.18 80.8114 70.946 80.3088 70.478ZM79.6848 86V72.48H85.1448V86H79.6848ZM86.9536 81.45H92.1536C92.1709 81.658 92.2663 81.8573 92.4396 82.048C92.8209 82.4293 93.3756 82.62 94.1036 82.62C94.9703 82.62 95.4036 82.4033 95.4036 81.97C95.4036 81.7447 95.2476 81.5627 94.9356 81.424C94.6236 81.2853 94.0949 81.1293 93.3496 80.956C91.4776 80.5227 90.1689 80.0807 89.4236 79.63C88.1236 78.85 87.4736 77.7233 87.4736 76.25C87.4736 75.1233 88.0283 74.1527 89.1376 73.338C90.2643 72.506 91.8329 72.09 93.8436 72.09C96.3396 72.09 98.2636 72.8527 99.6156 74.378C100.188 75.0887 100.56 75.8427 100.734 76.64H95.6636C95.6116 76.4667 95.5336 76.3193 95.4296 76.198C95.1523 75.886 94.7536 75.73 94.2336 75.73C93.4536 75.73 93.0636 75.9033 93.0636 76.25C93.0636 76.4927 93.2283 76.6833 93.5576 76.822C93.9043 76.9607 94.4243 77.0993 95.1176 77.238C95.7069 77.3593 96.1316 77.4547 96.3916 77.524C96.6689 77.5933 97.0936 77.7147 97.6656 77.888C98.2376 78.0613 98.6709 78.252 98.9656 78.46C99.2776 78.6507 99.6069 78.902 99.9536 79.214C100.318 79.526 100.578 79.9073 100.734 80.358C100.907 80.7913 100.994 81.2853 100.994 81.84C100.994 83.1227 100.396 84.206 99.1996 85.09C98.0209 85.9567 96.3223 86.39 94.1036 86.39C91.3303 86.39 89.3109 85.5667 88.0456 83.92C87.4736 83.2267 87.1096 82.4033 86.9536 81.45ZM103.44 70.478C102.937 70.01 102.686 69.3773 102.686 68.58C102.686 67.7827 102.937 67.15 103.44 66.682C103.942 66.214 104.644 65.98 105.546 65.98C106.447 65.98 107.149 66.214 107.652 66.682C108.154 67.15 108.406 67.7827 108.406 68.58C108.406 69.3773 108.154 70.01 107.652 70.478C107.149 70.946 106.447 71.18 105.546 71.18C104.644 71.18 103.942 70.946 103.44 70.478ZM102.816 86V72.48H108.276V86H102.816ZM112.398 84.362C110.942 83.01 110.214 81.3027 110.214 79.24C110.214 77.1773 110.942 75.47 112.398 74.118C113.854 72.766 115.77 72.09 118.144 72.09C120.519 72.09 122.434 72.766 123.89 74.118C125.346 75.47 126.074 77.1773 126.074 79.24C126.074 81.3027 125.346 83.01 123.89 84.362C122.434 85.714 120.519 86.39 118.144 86.39C115.77 86.39 113.854 85.714 112.398 84.362ZM116.454 77.134C116.021 77.6367 115.804 78.3387 115.804 79.24C115.804 80.1413 116.021 80.8433 116.454 81.346C116.888 81.8487 117.451 82.1 118.144 82.1C118.838 82.1 119.401 81.8487 119.834 81.346C120.268 80.8433 120.484 80.1413 120.484 79.24C120.484 78.3387 120.268 77.6367 119.834 77.134C119.401 76.6313 118.838 76.38 118.144 76.38C117.451 76.38 116.888 76.6313 116.454 77.134ZM127.899 86V72.48H133.359V74.3H133.619C133.879 73.9013 134.208 73.5373 134.607 73.208C135.56 72.4627 136.574 72.09 137.649 72.09C139.191 72.09 140.396 72.5753 141.263 73.546C142.147 74.4993 142.589 75.8773 142.589 77.68V86H137.129V78.59C137.129 77.29 136.565 76.64 135.439 76.64C134.832 76.64 134.329 76.8567 133.931 77.29C133.549 77.706 133.359 78.2693 133.359 78.98V86H127.899ZM143.899 73V67.8H160.929V73H155.339V86H149.489V73H143.899ZM162.977 84.284C161.521 82.88 160.793 81.1727 160.793 79.162C160.793 77.1513 161.512 75.47 162.951 74.118C164.389 72.766 166.227 72.09 168.463 72.09C170.699 72.09 172.553 72.7833 174.027 74.17C175.517 75.5567 176.263 77.2207 176.263 79.162V80.02H166.383C166.452 80.7827 166.686 81.3893 167.085 81.84C167.501 82.2733 168.003 82.49 168.593 82.49C169.251 82.49 169.771 82.2993 170.153 81.918C170.343 81.7273 170.473 81.528 170.543 81.32H176.133C175.838 82.2387 175.353 83.088 174.677 83.868C173.169 85.5493 171.097 86.39 168.463 86.39C166.261 86.39 164.433 85.688 162.977 84.284ZM166.383 77.81H170.543C170.456 77.4633 170.335 77.16 170.179 76.9C169.78 76.2933 169.208 75.99 168.463 75.99C167.717 75.99 167.145 76.2933 166.747 76.9C166.591 77.16 166.469 77.4633 166.383 77.81ZM179.734 84.31C178.278 82.906 177.55 81.216 177.55 79.24C177.55 77.264 178.278 75.5827 179.734 74.196C181.208 72.792 183.036 72.09 185.22 72.09C188.098 72.09 190.238 73.0693 191.642 75.028C192.266 75.8947 192.682 76.8653 192.89 77.94H187.3C187.231 77.68 187.092 77.42 186.884 77.16C186.468 76.64 185.914 76.38 185.22 76.38C184.596 76.38 184.094 76.6227 183.712 77.108C183.331 77.5933 183.14 78.304 183.14 79.24C183.14 80.1933 183.331 80.9127 183.712 81.398C184.094 81.866 184.596 82.1 185.22 82.1C185.914 82.1 186.468 81.84 186.884 81.32C187.092 81.06 187.231 80.8 187.3 80.54H192.89C192.682 81.632 192.266 82.6113 191.642 83.478C190.256 85.4193 188.115 86.39 185.22 86.39C183.036 86.39 181.208 85.6967 179.734 84.31ZM194.701 86V67.8H200.161V74.3H200.421C200.681 73.9013 201.011 73.5373 201.409 73.208C202.363 72.4627 203.377 72.09 204.451 72.09C205.994 72.09 207.199 72.5753 208.065 73.546C208.949 74.4993 209.391 75.8773 209.391 77.68V86H203.931V78.59C203.931 77.29 203.368 76.64 202.241 76.64C201.635 76.64 201.132 76.8567 200.733 77.29C200.352 77.706 200.161 78.2693 200.161 78.98V86H194.701Z" fill="white"/>
<path d="M105 17H136" stroke="#F6F6F6" stroke-width="2" stroke-linecap="round" stroke-linejoin="round"/>
<path d="M104 40H136" stroke="#F6F6F6" stroke-width="2" stroke-linecap="round" stroke-linejoin="round"/>
<path d="M137 44C140.314 44 143 41.5376 143 38.5C143 35.4624 140.314 33 137 33C133.686 33 131 35.4624 131 38.5C131 41.5376 133.686 44 137 44Z" fill="#662483" stroke="#D0DA59" stroke-width="2" stroke-linecap="round" stroke-linejoin="round"/>
<path d="M137 22C140.314 22 143 19.5376 143 16.5C143 13.4624 140.314 11 137 11C133.686 11 131 13.4624 131 16.5C131 19.5376 133.686 22 137 22Z" fill="#662483" stroke="#A0C63A" stroke-width="2" stroke-linecap="round" stroke-linejoin="round"/>
<path d="M97.2978 6.55969C106.406 12.8673 107.274 27.0956 107.274 27.0956C107.274 27.0956 93.3701 31.0946 84.2604 24.7839C75.1528 18.4774 74.2856 4.25013 74.2856 4.25013C74.2856 4.25013 88.1881 0.252126 97.2978 6.55969Z" fill="#7BAB47" stroke="#284623" stroke-width="2" stroke-linecap="round" stroke-linejoin="round"/>
<path d="M74.2856 4.24984C74.2856 4.24984 88.1881 0.250772 97.2978 6.55939C106.406 12.867 107.274 27.0953 107.274 27.0953L74.2856 4.24984Z" fill="#A0C63A" stroke="#284623" stroke-width="2" stroke-linecap="round" stroke-linejoin="round"/>
<path d="M84.217 32.6396C93.4049 25.0485 107.273 27.0952 107.273 27.0952C107.273 27.0952 106.244 41.4549 97.0566 49.0503C87.8687 56.6425 74 54.5947 74 54.5947C74 54.5947 75.029 40.2339 84.217 32.6385V32.6396Z" fill="#D0DA59" stroke="#284623" stroke-width="2" stroke-linecap="round" stroke-linejoin="round"/>
<path d="M74.001 54.5958C74.001 54.5958 75.03 40.235 84.2179 32.6396C93.4059 25.0485 107.273 27.0952 107.273 27.0952L74.001 54.5958Z" fill="#A0C63A" stroke="#284623" stroke-width="2" stroke-linecap="round" stroke-linejoin="round"/>
</g>
<defs>
<clipPath id="clip0_257_17">
<rect width="212" height="93" fill="white"/>
</clipPath>
</defs>
</svg>
