<svg width="29" height="22" viewBox="0 0 29 22" fill="none" xmlns="http://www.w3.org/2000/svg">
<path d="M26.8499 5.76182L21.8417 8.35235C19.0495 9.7966 17.6535 10.5188 16.175 10.8019C14.8664 11.0524 13.5167 11.0524 12.2081 10.8019C10.7297 10.5188 9.33359 9.7966 6.5414 8.35235L1.5332 5.76182M6.03394 20.1666H22.3491C23.9245 20.1666 24.7123 20.1666 25.314 19.8811C25.8433 19.6301 26.2736 19.2294 26.5433 18.7366C26.8499 18.1764 26.8499 17.4429 26.8499 15.9761V6.02373C26.8499 4.55693 26.8499 3.82352 26.5433 3.26328C26.2736 2.77047 25.8433 2.3698 25.314 2.11871C24.7123 1.83325 23.9245 1.83325 22.3491 1.83325H6.03394C4.45854 1.83325 3.67083 1.83325 3.06911 2.11871C2.53981 2.3698 2.10948 2.77047 1.8398 3.26328C1.5332 3.82352 1.5332 4.55692 1.5332 6.02373V15.9761C1.5332 17.4429 1.5332 18.1764 1.8398 18.7366C2.10948 19.2294 2.53981 19.6301 3.06911 19.8811C3.67083 20.1666 4.45853 20.1666 6.03394 20.1666Z" stroke="white" stroke-width="3" stroke-linecap="round" stroke-linejoin="round"/>
</svg>
