<svg width="35" height="52" viewBox="0 0 35 52" fill="none" xmlns="http://www.w3.org/2000/svg">
<g clip-path="url(#clip0_11_740)">
<path d="M15.0001 8.08594C13.6194 8.08594 12.5001 9.14416 12.5001 10.4496C12.5001 11.755 13.6194 12.8132 15.0001 12.8132H20.0001C21.3808 12.8132 22.5001 11.755 22.5001 10.4496C22.5001 9.14416 21.3808 8.08594 20.0001 8.08594H15.0001Z" fill="white"/>
<path fill-rule="evenodd" clip-rule="evenodd" d="M7.5 0C3.35788 0 0 3.17472 0 7.09091V44.9091C0 48.8254 3.35788 52 7.5 52H27.5C31.6423 52 35 48.8254 35 44.9091V7.09091C35 3.17472 31.6423 0 27.5 0H7.5ZM27.5 4.72727H7.5C6.1193 4.72727 5 5.78552 5 7.09091V37.6289H30V7.09091C30 5.78552 28.8808 4.72727 27.5 4.72727ZM5 44.9091V42.3561H30V44.9091C30 46.2145 28.8808 47.2727 27.5 47.2727H7.5C6.1193 47.2727 5 46.2145 5 44.9091Z" fill="white"/>
</g>
<defs>
<clipPath id="clip0_11_740">
<rect width="35" height="52" fill="white"/>
</clipPath>
</defs>
</svg>
