<svg width="43" height="41" viewBox="0 0 43 41" fill="none" xmlns="http://www.w3.org/2000/svg">
<g clip-path="url(#clip0_11_737)">
<path d="M29.809 24.4352C29.809 27.8552 27.0515 30.3927 21.517 30.3927C15.6548 30.3927 13.09 27.6714 13.09 25.6305C13.09 24.5824 13.8999 23.847 15.0184 23.847C16.0694 23.847 16.5628 24.4542 17.1326 25.1555C17.9115 26.114 18.8332 27.2484 21.517 27.2484C23.889 27.2484 25.2003 26.0165 25.2003 24.7662C25.2003 23.9939 24.8146 23.1666 23.2526 22.7989L18.0652 21.5486C13.8999 20.5557 13.1479 18.4044 13.1479 16.3819C13.1479 12.1897 17.2939 10.6084 21.1699 10.6084C24.7567 10.6084 28.9798 12.5023 28.9798 15.0213C28.9798 16.1061 28.0156 16.7312 26.8972 16.7312C26.0116 16.7312 25.5619 16.2498 25.0344 15.6853C24.2866 14.8852 23.3827 13.918 20.8614 13.918C18.7402 13.918 17.5831 14.8374 17.5831 16.1612C17.5831 17.4667 19.2415 17.8896 20.7071 18.2022L24.5446 19.0112C28.7292 19.9121 29.809 22.2473 29.809 24.4352Z" fill="white"/>
<path fill-rule="evenodd" clip-rule="evenodd" d="M18.5621 1.67934C17.4553 1.0407 16.2332 0.564419 14.9334 0.286074C14.0649 0.0989667 13.1616 0 12.2339 0C5.47759 0 0 5.22204 0 11.6657C0 13.8507 0.630873 15.895 1.7272 17.6439C1.58043 18.5748 1.5034 19.5289 1.5034 20.5C1.5034 31.0044 10.4337 39.5186 21.4497 39.5186C22.4309 39.5186 23.3949 39.4506 24.3382 39.3207C26.1845 40.3861 28.3497 41 30.6656 41C37.4227 41 42.9002 35.7779 42.9002 29.3359C42.9002 27.1493 42.2701 25.1049 41.173 23.3562C41.3198 22.4253 41.3961 21.4711 41.3961 20.5C41.3961 9.99718 32.4657 1.48141 21.4497 1.48141C20.4694 1.48141 19.5052 1.54945 18.5621 1.67934ZM16.3359 5.1871L17.6532 5.94709L19.1769 5.73722C19.9196 5.63493 20.6783 5.58142 21.4497 5.58142C30.0907 5.58142 37.0961 12.2614 37.0961 20.5C37.0961 21.2664 37.0359 22.0168 36.9209 22.7466L36.6917 24.1997L37.4829 25.4608C38.1919 26.5911 38.6002 27.9106 38.6002 29.3359C38.6002 33.513 35.0484 36.9 30.6656 36.9C29.1574 36.9 27.7592 36.5023 26.5645 35.8131L25.2471 35.0528L23.7233 35.2628C22.9808 35.3651 22.222 35.4186 21.4497 35.4186C12.8085 35.4186 5.80339 28.7399 5.80339 20.5C5.80339 19.7358 5.864 18.9855 5.97942 18.2534L6.20841 16.801L5.41816 15.5404C4.70845 14.4082 4.3 13.088 4.3 11.6657C4.3 7.48641 7.85241 4.1 12.2339 4.1C12.8398 4.1 13.4253 4.16454 13.9857 4.28526L13.9912 4.28644C14.829 4.46585 15.6185 4.77311 16.3359 5.1871Z" fill="white"/>
</g>
<defs>
<clipPath id="clip0_11_737">
<rect width="43" height="41" fill="white"/>
</clipPath>
</defs>
</svg>
