<svg width="73" height="72" viewBox="0 0 73 72" fill="none" xmlns="http://www.w3.org/2000/svg">
<path d="M46.3243 65.9995H26.6742C25.5973 66.0013 24.5394 65.7208 23.6086 65.1867C22.6778 64.6526 21.9076 63.8842 21.3768 62.96C20.8461 62.0359 20.5739 60.9892 20.5881 59.9272C20.6023 58.8652 20.9024 57.826 21.4576 56.916L25.9778 49.4568C26.2483 49.0116 26.6314 48.6434 27.0895 48.3879C27.5475 48.1325 28.065 47.9987 28.5912 47.9995H44.4074C44.9337 47.9988 45.4512 48.1329 45.9093 48.3886C46.3674 48.6442 46.7504 49.0128 47.0208 49.4582L51.5526 56.9275C52.105 57.8383 52.4023 58.8774 52.4142 59.9386C52.426 60.9999 52.152 62.0452 51.6202 62.9678C51.0884 63.8904 50.3177 64.6572 49.387 65.1898C48.4563 65.7225 47.4004 66.0019 46.3243 65.9995Z" fill="white"/>
<path d="M57.7912 54C41.1612 54 31.8374 54 15.2074 54C12.7881 53.9973 10.4687 53.0483 8.758 51.361C7.04731 49.6738 6.08506 47.3861 6.08236 45V15.0005C6.08468 12.6142 7.0468 10.3264 8.75757 8.63905C10.4683 6.95172 12.788 6.00278 15.2074 6.00049H57.7912C60.2106 6.00278 62.5302 6.95172 64.241 8.63905C65.9517 10.3264 66.9139 12.6142 66.9162 15.0005V45C66.9135 47.3861 65.9512 49.6738 64.2405 51.361C62.5299 53.0483 60.2104 53.9973 57.7912 54Z" fill="white"/>
<path d="M57.7912 54H15.2074C12.7873 54 10.4663 53.0518 8.75501 51.364C7.04374 49.6761 6.08236 47.3869 6.08236 45V38.9995H66.9162V45C66.9162 47.3869 65.9548 49.6761 64.2435 51.364C62.5323 53.0518 60.2113 54 57.7912 54Z" fill="#105F38"/>
</svg>
