<svg width="54" height="55" viewBox="0 0 54 55" fill="none" xmlns="http://www.w3.org/2000/svg">
<path d="M47.9315 23.0956C47.2992 22.3214 46.5072 21.6987 45.6117 21.2716C44.7163 20.8446 43.7394 20.6238 42.7507 20.625H32.4907L33.5793 17.6528C34.3427 15.6884 34.4687 13.5267 33.939 11.484C33.3907 9.49976 32.2213 7.75206 30.6086 6.50658C28.9959 5.2611 27.028 4.58595 25.0041 4.58374C24.5681 4.58359 24.1412 4.71199 23.7752 4.95344C23.4092 5.19488 23.1196 5.53906 22.9413 5.94444L16.5348 20.6294V50.4174H39.8844C41.4656 50.4175 42.9967 49.8523 44.2106 48.8202C45.4244 47.7881 46.244 46.3547 46.5264 44.77L49.3895 28.7287C49.5677 27.7384 49.5294 26.7201 49.2774 25.7465C49.0254 24.7729 48.5659 23.8678 47.9315 23.0956Z" fill="white"/>
<path d="M16.5369 20.625H11.2493C9.45967 20.627 7.74394 21.352 6.47851 22.6409C5.21307 23.9298 4.50127 25.6773 4.49927 27.5V43.5413C4.50098 45.3641 5.21269 47.1118 6.47819 48.4007C7.74369 49.6897 9.45958 50.4146 11.2493 50.4163H16.5369V20.625Z" fill="#105F38"/>
</svg>
