<svg width="55" height="45" viewBox="0 0 55 45" fill="none" xmlns="http://www.w3.org/2000/svg">
<path d="M21.1463 26.6662C29.2005 26.6662 35.7287 20.6963 35.7287 13.3325C35.7287 5.96864 29.2005 0 21.1463 0C13.0921 0 6.5625 5.96864 6.5625 13.3325C6.5625 20.6963 13.0921 26.6662 21.1463 26.6662Z" fill="white"/>
<path d="M30.1497 23C27.7951 25.0861 24.7276 26.3938 21.3288 26.3938C17.9286 26.3938 14.8612 25.0861 12.5065 23C8.77918 24.6864 5.61771 27.4072 3.39991 30.8372C1.18211 34.2672 0.00179137 38.2614 0 42.3423C0 43.0472 0.280841 43.7232 0.780741 44.2216C1.28064 44.72 1.95865 45 2.66562 45H39.9906C40.6976 45 41.3756 44.72 41.8755 44.2216C42.3754 43.7232 42.6562 43.0472 42.6562 42.3423C42.6543 38.2614 41.4739 34.2673 39.2561 30.8374C37.0384 27.4074 33.877 24.6866 30.1497 23Z" fill="#105F38"/>
<path d="M43.7821 26.0001C43.399 26.0006 43.0196 25.9319 42.6657 25.7979C42.3118 25.6639 41.9904 25.4672 41.7199 25.2193L37.8293 21.6647C37.2823 21.1647 36.9751 20.4864 36.9751 19.7793C36.9751 19.0721 37.2823 18.3939 37.8293 17.8938C38.3762 17.3938 39.118 17.1128 39.8915 17.1128C40.6649 17.1128 41.4067 17.3938 41.9537 17.8938L43.7793 19.5629L49.4969 14.3367C50.0504 13.8684 50.7809 13.6143 51.5349 13.6277C52.289 13.6411 53.008 13.9209 53.5413 14.4085C54.0746 14.8961 54.3807 15.5535 54.3953 16.2429C54.41 16.9324 54.132 17.6002 53.6199 18.1063L45.8443 25.2193C45.5737 25.4672 45.2523 25.6638 44.8984 25.7978C44.5445 25.9318 44.1651 26.0005 43.7821 26.0001Z" fill="#105F38"/>
</svg>
