<svg width="58" height="46" viewBox="0 0 58 46" fill="none" xmlns="http://www.w3.org/2000/svg">
<path d="M38.6403 46H16.357C11.6209 46 8 42.2263 8 37.2903V21.9042C8 20.1622 9.11383 19 10.7852 19H44.2134C45.8848 19 47 20.1622 47 21.9042V37.2903C47 42.2263 43.3777 46 38.643 46H38.6403Z" fill="white"/>
<path d="M56.6184 16.4787L53.8565 15.02L28.9956 0.437897C28.5856 0.152261 28.1052 0 27.6139 0C27.1227 0 26.6423 0.152261 26.2323 0.437897L1.37138 15.02C-0.00890077 15.6037 -0.286018 17.3537 0.26689 18.8125C0.542681 19.3949 0.819798 19.6875 1.37138 19.9786L26.2323 34.5621C26.6423 34.8477 27.1227 35 27.6139 35C28.1052 35 28.5856 34.8477 28.9956 34.5621L52.4749 20.8536V29.3122C52.4749 31.0622 53.5794 32.2284 55.2368 32.2284C56.8942 32.2284 58 31.0622 58 29.3122V19.3949C58 17.9375 57.4471 17.0625 56.6184 16.4787Z" fill="#105F38"/>
</svg>
