<svg width="63" height="71" viewBox="0 0 63 71" fill="none" xmlns="http://www.w3.org/2000/svg">
<path d="M49.8759 47.333H13.1254C12.4294 47.333 11.7618 47.0213 11.2696 46.4666C10.7774 45.9119 10.5009 45.1596 10.5009 44.3751V8.8751C10.5009 8.09062 10.7774 7.33828 11.2696 6.78357C11.7618 6.22887 12.4294 5.91724 13.1254 5.91724H49.8759C50.2206 5.91705 50.5619 5.99343 50.8804 6.14201C51.1989 6.29059 51.4883 6.50846 51.7321 6.78316C51.9758 7.05786 52.1691 7.384 52.301 7.74295C52.4328 8.1019 52.5006 8.48661 52.5004 8.8751V44.3751C52.5006 44.7636 52.4328 45.1483 52.301 45.5072C52.1691 45.8662 51.9758 46.1923 51.7321 46.467C51.4883 46.7417 51.1989 46.9596 50.8804 47.1082C50.5619 47.2568 50.2206 47.3331 49.8759 47.333Z" fill="white"/>
<path d="M55.125 47.333H7.87501C7.17893 47.333 6.51135 47.0213 6.01915 46.4666C5.52695 45.9119 5.25043 45.1596 5.25043 44.3751C5.25043 43.5906 5.52695 42.8383 6.01915 42.2836C6.51135 41.7289 7.17893 41.4172 7.87501 41.4172H55.125C55.8211 41.4172 56.4887 41.7289 56.9809 42.2836C57.4731 42.8383 57.7496 43.5906 57.7496 44.3751C57.7496 45.1596 57.4731 45.9119 56.9809 46.4666C56.4887 47.0213 55.8211 47.333 55.125 47.333Z" fill="#105F38"/>
<path d="M31.5 65.0829C31.1552 65.0831 30.8138 65.0068 30.4952 64.8582C30.1766 64.7096 29.8872 64.4918 29.6433 64.2171C29.3995 63.9424 29.206 63.6163 29.074 63.2573C28.9421 62.8984 28.8741 62.5136 28.8741 62.1251V44.3751C28.8741 43.5904 29.1507 42.8379 29.6431 42.283C30.1354 41.7282 30.8031 41.4165 31.4994 41.4165C32.1956 41.4165 32.8633 41.7282 33.3557 42.283C33.848 42.8379 34.1246 43.5904 34.1246 44.3751V62.1251C34.1247 62.5137 34.0569 62.8985 33.925 63.2575C33.7931 63.6166 33.5996 63.9428 33.3558 64.2175C33.1119 64.4922 32.8223 64.7101 32.5037 64.8586C32.185 65.0071 31.8448 65.0833 31.5 65.0829Z" fill="#105F38"/>
<path d="M44.6217 65.0828C44.1076 65.0828 43.6048 64.9124 43.1752 64.5915L30.051 54.802C29.6897 54.5344 29.3927 54.1703 29.1865 53.7421C28.9802 53.3139 28.871 52.8349 28.8686 52.3477C28.8663 51.8605 28.9708 51.3801 29.1729 50.9494C29.375 50.5187 29.6684 50.151 30.0271 49.8789C30.4581 49.5511 30.9659 49.3751 31.4859 49.3731C32.0059 49.371 32.5147 49.5431 32.9478 49.8675L46.0719 59.6599C46.5415 60.0114 46.8983 60.5239 47.0894 61.1216C47.2806 61.7192 47.296 62.3704 47.1334 62.9787C46.9707 63.587 46.6387 64.1202 46.1863 64.4994C45.734 64.8786 45.1854 65.0822 44.6217 65.0828Z" fill="#105F38"/>
<path d="M18.3771 65.0829C17.8133 65.0823 17.2647 64.8773 16.8124 64.4981C16.3601 64.1189 16.028 63.5857 15.8654 62.9774C15.7027 62.3691 15.7181 61.7179 15.9093 61.1202C16.1004 60.5225 16.4572 60.01 16.9268 59.6585L30.0522 49.8676C30.6329 49.4347 31.3423 49.2795 32.0245 49.4361C32.7067 49.5926 33.3057 50.0482 33.6899 50.7026C34.074 51.3569 34.2117 52.1565 34.0728 52.9253C33.9338 53.6941 33.5296 54.3692 32.949 54.8021L19.8236 64.5916C19.3952 64.9125 18.8912 65.0843 18.3771 65.0829ZM23.6225 35.5001C23.1474 35.5001 22.6812 35.3547 22.2737 35.0794C21.8662 34.8041 21.5326 34.4093 21.3087 33.9371C21.0848 33.4649 20.9788 32.933 21.0022 32.3982C21.0256 31.8634 21.1774 31.3458 21.4414 30.9007L26.6906 22.0257C26.9061 21.6617 27.1905 21.3562 27.5235 21.131C27.8564 20.9058 28.2295 20.7667 28.6158 20.7235C29.0023 20.6831 29.3918 20.7384 29.7573 20.8856C30.1227 21.0328 30.4552 21.2683 30.7314 21.5755L33.7176 24.9409L37.1914 19.0678C37.381 18.7405 37.6262 18.4587 37.913 18.2389C38.1997 18.019 38.5223 17.8654 38.8621 17.7869C39.2019 17.7083 39.5521 17.7065 39.8925 17.7814C40.2329 17.8564 40.5567 18.0066 40.8453 18.2234C41.1339 18.4403 41.3814 18.7194 41.5737 19.0448C41.766 19.3701 41.8991 19.7351 41.9654 20.1188C42.0318 20.5025 42.03 20.8971 41.9601 21.28C41.8903 21.6629 41.7538 22.0264 41.5586 22.3494L36.3094 31.2244C36.094 31.5887 35.8095 31.8946 35.4764 32.12C35.1434 32.3453 34.7701 32.4846 34.3835 32.5276C33.997 32.5707 33.6067 32.5165 33.241 32.369C32.8752 32.2215 32.5431 31.9843 32.2686 31.6746L29.2824 28.3092L25.8086 34.1823C25.569 34.5882 25.244 34.921 24.8625 35.1509C24.4811 35.3809 24.055 35.5008 23.6225 35.5001Z" fill="#105F38"/>
</svg>
