<svg width="60" height="58" viewBox="0 0 60 58" fill="none" xmlns="http://www.w3.org/2000/svg">
<path d="M27.4992 53.1663C21.5318 53.1663 15.8089 50.8747 11.5893 46.7958C7.36974 42.7169 4.99921 37.1847 4.99921 31.4163C4.99921 25.6478 7.36974 20.1156 11.5893 16.0367C15.8089 11.9578 21.5318 9.66626 27.4992 9.66626C28.1623 9.66657 28.798 9.9214 29.2668 10.3747C29.7355 10.828 29.9988 11.4428 29.9988 12.0837V29H47.4996C48.1625 29 48.7983 29.2545 49.2671 29.7077C49.7359 30.1608 49.9992 30.7754 49.9992 31.4163C49.9929 37.1828 47.6203 42.7115 43.4021 46.789C39.1839 50.8666 33.4646 53.1601 27.4992 53.1663Z" fill="white"/>
<path d="M52.5 24.1663H37.5C37.1717 24.1665 36.8465 24.1041 36.5431 23.9827C36.2397 23.8613 35.964 23.6834 35.7317 23.459C35.4995 23.2346 35.3153 22.9682 35.1896 22.675C35.0639 22.3817 34.9992 22.0674 34.9992 21.75V7.25002C34.9992 6.93271 35.0639 6.61851 35.1895 6.32535C35.3151 6.03219 35.4992 5.76582 35.7313 5.54145C35.9634 5.31708 36.239 5.1391 36.5423 5.01767C36.8455 4.89624 37.1706 4.83374 37.4988 4.83374C42.1398 4.83466 46.5905 6.61717 49.8723 9.78935C53.1541 12.9615 54.9983 17.2637 54.9996 21.75C54.9996 22.0674 54.9349 22.3817 54.8092 22.675C54.6835 22.9682 54.4993 23.2346 54.2671 23.459C54.0348 23.6834 53.7591 23.8613 53.4557 23.9827C53.1523 24.1041 52.8284 24.1665 52.5 24.1663Z" fill="#105F38"/>
</svg>
